%TF.GenerationSoftware,KiCad,Pcbnew,(6.0.10)*%
%TF.CreationDate,2023-06-06T15:11:35-03:00*%
%TF.ProjectId,side-panels,73696465-2d70-4616-9e65-6c732e6b6963,rev?*%
%TF.SameCoordinates,Original*%
%TF.FileFunction,Copper,L2,Bot*%
%TF.FilePolarity,Positive*%
%FSLAX46Y46*%
G04 Gerber Fmt 4.6, Leading zero omitted, Abs format (unit mm)*
G04 Created by KiCad (PCBNEW (6.0.10)) date 2023-06-06 15:11:35*
%MOMM*%
%LPD*%
G01*
G04 APERTURE LIST*
G04 APERTURE END LIST*
%TA.AperFunction,NonConductor*%
G36*
X76390290Y-25352017D02*
G01*
X76653823Y-25374841D01*
X76671401Y-25377625D01*
X76929101Y-25437357D01*
X76946103Y-25442587D01*
X77192818Y-25538034D01*
X77208911Y-25545608D01*
X77439714Y-25674864D01*
X77454590Y-25684635D01*
X77664872Y-25845117D01*
X77678222Y-25856887D01*
X77863794Y-26045396D01*
X77875353Y-26058930D01*
X78032353Y-26271490D01*
X78032510Y-26271703D01*
X78042047Y-26286731D01*
X78167659Y-26519533D01*
X78174983Y-26535753D01*
X78266538Y-26783925D01*
X78271504Y-26801017D01*
X78327180Y-27059622D01*
X78329687Y-27077242D01*
X78348545Y-27343571D01*
X78348798Y-27356429D01*
X78345257Y-27469082D01*
X78344198Y-27481896D01*
X78308653Y-27746536D01*
X78305043Y-27763964D01*
X78233243Y-28018548D01*
X78227216Y-28035292D01*
X78120249Y-28277244D01*
X78111927Y-28292961D01*
X77971950Y-28517407D01*
X77961490Y-28531805D01*
X77918382Y-28583088D01*
X77791273Y-28734302D01*
X77778887Y-28747083D01*
X77581845Y-28923569D01*
X77567782Y-28934477D01*
X77347839Y-29081438D01*
X77332379Y-29090256D01*
X77093924Y-29204761D01*
X77077379Y-29211312D01*
X76825159Y-29291078D01*
X76807861Y-29295231D01*
X76711290Y-29311305D01*
X76546922Y-29338663D01*
X76529204Y-29340338D01*
X76416559Y-29342993D01*
X76264752Y-29346571D01*
X76246981Y-29345733D01*
X76136805Y-29332693D01*
X75984283Y-29314640D01*
X75966801Y-29311305D01*
X75711108Y-29243510D01*
X75694269Y-29237744D01*
X75450689Y-29134601D01*
X75434831Y-29126521D01*
X75208211Y-28990084D01*
X75193650Y-28979851D01*
X74988510Y-28812842D01*
X74975535Y-28800658D01*
X74795976Y-28606411D01*
X74784848Y-28592521D01*
X74634449Y-28374912D01*
X74625389Y-28359592D01*
X74507153Y-28122965D01*
X74500342Y-28106522D01*
X74416625Y-27855592D01*
X74412199Y-27838353D01*
X74364675Y-27578135D01*
X74362722Y-27560445D01*
X74354339Y-27347097D01*
X74352336Y-27296121D01*
X74352895Y-27278334D01*
X74379857Y-27015190D01*
X74382917Y-26997658D01*
X74446688Y-26740931D01*
X74452186Y-26724009D01*
X74551495Y-26478829D01*
X74559324Y-26462848D01*
X74692184Y-26234111D01*
X74702188Y-26219390D01*
X74828685Y-26058930D01*
X74865954Y-26011654D01*
X74877931Y-25998491D01*
X75069335Y-25815901D01*
X75083049Y-25804556D01*
X75298271Y-25650756D01*
X75313447Y-25641457D01*
X75548178Y-25519525D01*
X75564511Y-25512456D01*
X75814104Y-25424805D01*
X75831272Y-25420109D01*
X76090707Y-25368504D01*
X76108364Y-25366273D01*
X76240429Y-25359005D01*
X76372495Y-25351737D01*
X76390290Y-25352017D01*
G37*
%TD.AperFunction*%
%TA.AperFunction,NonConductor*%
G36*
X231890290Y-25352017D02*
G01*
X232153823Y-25374841D01*
X232171401Y-25377625D01*
X232429101Y-25437357D01*
X232446103Y-25442587D01*
X232692818Y-25538034D01*
X232708911Y-25545608D01*
X232939714Y-25674864D01*
X232954590Y-25684635D01*
X233164872Y-25845117D01*
X233178222Y-25856887D01*
X233363794Y-26045396D01*
X233375353Y-26058930D01*
X233532353Y-26271490D01*
X233532510Y-26271703D01*
X233542047Y-26286731D01*
X233667659Y-26519533D01*
X233674983Y-26535753D01*
X233766538Y-26783925D01*
X233771504Y-26801017D01*
X233827180Y-27059622D01*
X233829687Y-27077242D01*
X233848545Y-27343571D01*
X233848798Y-27356429D01*
X233845257Y-27469082D01*
X233844198Y-27481896D01*
X233808653Y-27746536D01*
X233805043Y-27763964D01*
X233733243Y-28018548D01*
X233727216Y-28035292D01*
X233620249Y-28277244D01*
X233611927Y-28292961D01*
X233471950Y-28517407D01*
X233461490Y-28531805D01*
X233418382Y-28583088D01*
X233291273Y-28734302D01*
X233278887Y-28747083D01*
X233081845Y-28923569D01*
X233067782Y-28934477D01*
X232847839Y-29081438D01*
X232832379Y-29090256D01*
X232593924Y-29204761D01*
X232577379Y-29211312D01*
X232325159Y-29291078D01*
X232307861Y-29295231D01*
X232211290Y-29311305D01*
X232046922Y-29338663D01*
X232029204Y-29340338D01*
X231916559Y-29342993D01*
X231764752Y-29346571D01*
X231746981Y-29345733D01*
X231636805Y-29332693D01*
X231484283Y-29314640D01*
X231466801Y-29311305D01*
X231211108Y-29243510D01*
X231194269Y-29237744D01*
X230950689Y-29134601D01*
X230934831Y-29126521D01*
X230708211Y-28990084D01*
X230693650Y-28979851D01*
X230488510Y-28812842D01*
X230475535Y-28800658D01*
X230295976Y-28606411D01*
X230284848Y-28592521D01*
X230134449Y-28374912D01*
X230125389Y-28359592D01*
X230007153Y-28122965D01*
X230000342Y-28106522D01*
X229916625Y-27855592D01*
X229912199Y-27838353D01*
X229864675Y-27578135D01*
X229862722Y-27560445D01*
X229854339Y-27347097D01*
X229852336Y-27296121D01*
X229852895Y-27278334D01*
X229879857Y-27015190D01*
X229882917Y-26997658D01*
X229946688Y-26740931D01*
X229952186Y-26724009D01*
X230051495Y-26478829D01*
X230059324Y-26462848D01*
X230192184Y-26234111D01*
X230202188Y-26219390D01*
X230328685Y-26058930D01*
X230365954Y-26011654D01*
X230377931Y-25998491D01*
X230569335Y-25815901D01*
X230583049Y-25804556D01*
X230798271Y-25650756D01*
X230813447Y-25641457D01*
X231048178Y-25519525D01*
X231064511Y-25512456D01*
X231314104Y-25424805D01*
X231331272Y-25420109D01*
X231590707Y-25368504D01*
X231608364Y-25366273D01*
X231740429Y-25359005D01*
X231872495Y-25351737D01*
X231890290Y-25352017D01*
G37*
%TD.AperFunction*%
%TA.AperFunction,NonConductor*%
G36*
X223191121Y-56871002D02*
G01*
X223237614Y-56924658D01*
X223249000Y-56977000D01*
X223249000Y-64723000D01*
X223228998Y-64791121D01*
X223175342Y-64837614D01*
X223123000Y-64849000D01*
X212377000Y-64849000D01*
X212308879Y-64828998D01*
X212262386Y-64775342D01*
X212251000Y-64723000D01*
X212251000Y-56977000D01*
X212271002Y-56908879D01*
X212324658Y-56862386D01*
X212377000Y-56851000D01*
X223123000Y-56851000D01*
X223191121Y-56871002D01*
G37*
%TD.AperFunction*%
%TA.AperFunction,NonConductor*%
G36*
X203791121Y-56871002D02*
G01*
X203837614Y-56924658D01*
X203849000Y-56977000D01*
X203849000Y-69723000D01*
X203828998Y-69791121D01*
X203775342Y-69837614D01*
X203723000Y-69849000D01*
X171977000Y-69849000D01*
X171908879Y-69828998D01*
X171862386Y-69775342D01*
X171851000Y-69723000D01*
X171851000Y-56977000D01*
X171871002Y-56908879D01*
X171924658Y-56862386D01*
X171977000Y-56851000D01*
X203723000Y-56851000D01*
X203791121Y-56871002D01*
G37*
%TD.AperFunction*%
%TA.AperFunction,NonConductor*%
G36*
X137791121Y-56871002D02*
G01*
X137837614Y-56924658D01*
X137849000Y-56977000D01*
X137849000Y-69723000D01*
X137828998Y-69791121D01*
X137775342Y-69837614D01*
X137723000Y-69849000D01*
X83977000Y-69849000D01*
X83908879Y-69828998D01*
X83862386Y-69775342D01*
X83851000Y-69723000D01*
X83851000Y-56977000D01*
X83871002Y-56908879D01*
X83924658Y-56862386D01*
X83977000Y-56851000D01*
X137723000Y-56851000D01*
X137791121Y-56871002D01*
G37*
%TD.AperFunction*%
%TA.AperFunction,NonConductor*%
G36*
X158111518Y-56860786D02*
G01*
X158368324Y-56870395D01*
X158377719Y-56871099D01*
X158888469Y-56928646D01*
X158897789Y-56930051D01*
X159375101Y-57020364D01*
X159402784Y-57025602D01*
X159411970Y-57027698D01*
X159908445Y-57160728D01*
X159917449Y-57163506D01*
X160402579Y-57333260D01*
X160411319Y-57336690D01*
X160872505Y-57537903D01*
X160882425Y-57542231D01*
X160890914Y-57546319D01*
X161099691Y-57656660D01*
X161345348Y-57786493D01*
X161353493Y-57791197D01*
X161788698Y-58064655D01*
X161796463Y-58069949D01*
X162210023Y-58375170D01*
X162217368Y-58381027D01*
X162602859Y-58712769D01*
X162606957Y-58716296D01*
X162613864Y-58722705D01*
X162977295Y-59086136D01*
X162983703Y-59093042D01*
X163318973Y-59482632D01*
X163324830Y-59489977D01*
X163630051Y-59903537D01*
X163635345Y-59911302D01*
X163907898Y-60345066D01*
X163908799Y-60346500D01*
X163913511Y-60354660D01*
X164153681Y-60809086D01*
X164157767Y-60817572D01*
X164363310Y-61288681D01*
X164366744Y-61297432D01*
X164536494Y-61782551D01*
X164539272Y-61791555D01*
X164672302Y-62288030D01*
X164674398Y-62297216D01*
X164769949Y-62802213D01*
X164771354Y-62811531D01*
X164828901Y-63322281D01*
X164829605Y-63331676D01*
X164848824Y-63845288D01*
X164848824Y-63854712D01*
X164829605Y-64368324D01*
X164828901Y-64377719D01*
X164771354Y-64888469D01*
X164769949Y-64897787D01*
X164674398Y-65402784D01*
X164672302Y-65411970D01*
X164539272Y-65908446D01*
X164536494Y-65917450D01*
X164366744Y-66402568D01*
X164363310Y-66411319D01*
X164157769Y-66882425D01*
X164153681Y-66890914D01*
X163913511Y-67345340D01*
X163908803Y-67353493D01*
X163635345Y-67788698D01*
X163630051Y-67796463D01*
X163324834Y-68210016D01*
X163318969Y-68217371D01*
X162983696Y-68606965D01*
X162977287Y-68613872D01*
X162613864Y-68977295D01*
X162606958Y-68983703D01*
X162217368Y-69318973D01*
X162210023Y-69324830D01*
X161796463Y-69630051D01*
X161788698Y-69635345D01*
X161516662Y-69806277D01*
X161380414Y-69891887D01*
X161313378Y-69911200D01*
X154386622Y-69911200D01*
X154319586Y-69891887D01*
X154183338Y-69806277D01*
X153911302Y-69635345D01*
X153903537Y-69630051D01*
X153489977Y-69324830D01*
X153482632Y-69318973D01*
X153093042Y-68983703D01*
X153086136Y-68977295D01*
X152722713Y-68613872D01*
X152716304Y-68606965D01*
X152381031Y-68217371D01*
X152375166Y-68210016D01*
X152069949Y-67796463D01*
X152064655Y-67788698D01*
X151791197Y-67353493D01*
X151786489Y-67345340D01*
X151546319Y-66890914D01*
X151542231Y-66882425D01*
X151336690Y-66411319D01*
X151333256Y-66402568D01*
X151163506Y-65917450D01*
X151160728Y-65908446D01*
X151027698Y-65411970D01*
X151025602Y-65402784D01*
X150930051Y-64897787D01*
X150928646Y-64888469D01*
X150871099Y-64377719D01*
X150870395Y-64368324D01*
X150851176Y-63854712D01*
X150851176Y-63845288D01*
X150870395Y-63331676D01*
X150871099Y-63322281D01*
X150928646Y-62811531D01*
X150930051Y-62802213D01*
X151025602Y-62297216D01*
X151027698Y-62288030D01*
X151160728Y-61791555D01*
X151163506Y-61782551D01*
X151333256Y-61297432D01*
X151336690Y-61288681D01*
X151542233Y-60817572D01*
X151546319Y-60809086D01*
X151786489Y-60354660D01*
X151791201Y-60346500D01*
X151792102Y-60345066D01*
X152064655Y-59911302D01*
X152069949Y-59903537D01*
X152375170Y-59489977D01*
X152381027Y-59482632D01*
X152716297Y-59093042D01*
X152722705Y-59086136D01*
X153086136Y-58722705D01*
X153093043Y-58716296D01*
X153097141Y-58712769D01*
X153482632Y-58381027D01*
X153489977Y-58375170D01*
X153903537Y-58069949D01*
X153911302Y-58064655D01*
X154346507Y-57791197D01*
X154354652Y-57786493D01*
X154600309Y-57656660D01*
X154809086Y-57546319D01*
X154817575Y-57542231D01*
X154827495Y-57537903D01*
X155288681Y-57336690D01*
X155297421Y-57333260D01*
X155782551Y-57163506D01*
X155791555Y-57160728D01*
X156288030Y-57027698D01*
X156297216Y-57025602D01*
X156324900Y-57020364D01*
X156802211Y-56930051D01*
X156811531Y-56928646D01*
X157322281Y-56871099D01*
X157331676Y-56870395D01*
X157588482Y-56860786D01*
X157845296Y-56851176D01*
X157854704Y-56851176D01*
X158111518Y-56860786D01*
G37*
%TD.AperFunction*%
%TA.AperFunction,NonConductor*%
G36*
X231890290Y-68852017D02*
G01*
X232153823Y-68874841D01*
X232171401Y-68877625D01*
X232429101Y-68937357D01*
X232446103Y-68942587D01*
X232692818Y-69038034D01*
X232708911Y-69045608D01*
X232939714Y-69174864D01*
X232954590Y-69184635D01*
X233164872Y-69345117D01*
X233178222Y-69356887D01*
X233363794Y-69545396D01*
X233375353Y-69558930D01*
X233532353Y-69771490D01*
X233532510Y-69771703D01*
X233542047Y-69786731D01*
X233667659Y-70019533D01*
X233674983Y-70035753D01*
X233766538Y-70283925D01*
X233771504Y-70301017D01*
X233827180Y-70559622D01*
X233829687Y-70577242D01*
X233848545Y-70843571D01*
X233848798Y-70856424D01*
X233848446Y-70867618D01*
X233845257Y-70969082D01*
X233844198Y-70981896D01*
X233831272Y-71078135D01*
X233812665Y-71216669D01*
X233808653Y-71246536D01*
X233805043Y-71263964D01*
X233733243Y-71518548D01*
X233727216Y-71535292D01*
X233620249Y-71777244D01*
X233611927Y-71792961D01*
X233514050Y-71949902D01*
X233471950Y-72017407D01*
X233461490Y-72031805D01*
X233418382Y-72083088D01*
X233291273Y-72234302D01*
X233278887Y-72247083D01*
X233081845Y-72423569D01*
X233067782Y-72434477D01*
X232847839Y-72581438D01*
X232832379Y-72590256D01*
X232593924Y-72704761D01*
X232577379Y-72711312D01*
X232325159Y-72791078D01*
X232307861Y-72795231D01*
X232211290Y-72811305D01*
X232046922Y-72838663D01*
X232029204Y-72840338D01*
X231916559Y-72842993D01*
X231764752Y-72846571D01*
X231746981Y-72845733D01*
X231636805Y-72832693D01*
X231484283Y-72814640D01*
X231466801Y-72811305D01*
X231211108Y-72743510D01*
X231194269Y-72737744D01*
X230950689Y-72634601D01*
X230934831Y-72626521D01*
X230708211Y-72490084D01*
X230693650Y-72479851D01*
X230488510Y-72312842D01*
X230475535Y-72300658D01*
X230474504Y-72299542D01*
X230295976Y-72106411D01*
X230284848Y-72092521D01*
X230134449Y-71874912D01*
X230125389Y-71859592D01*
X230007153Y-71622965D01*
X230000342Y-71606522D01*
X229916625Y-71355592D01*
X229912199Y-71338353D01*
X229864675Y-71078135D01*
X229862722Y-71060445D01*
X229855145Y-70867618D01*
X229852336Y-70796121D01*
X229852895Y-70778334D01*
X229879857Y-70515190D01*
X229882917Y-70497658D01*
X229946688Y-70240931D01*
X229952186Y-70224009D01*
X230051495Y-69978829D01*
X230059324Y-69962848D01*
X230192184Y-69734111D01*
X230202188Y-69719390D01*
X230267027Y-69637143D01*
X230365954Y-69511654D01*
X230377931Y-69498491D01*
X230569335Y-69315901D01*
X230583049Y-69304556D01*
X230798271Y-69150756D01*
X230813447Y-69141457D01*
X231048178Y-69019525D01*
X231064511Y-69012456D01*
X231314104Y-68924805D01*
X231331272Y-68920109D01*
X231590707Y-68868504D01*
X231608364Y-68866273D01*
X231740429Y-68859005D01*
X231872495Y-68851737D01*
X231890290Y-68852017D01*
G37*
%TD.AperFunction*%
%TA.AperFunction,NonConductor*%
G36*
X76390290Y-68852017D02*
G01*
X76653823Y-68874841D01*
X76671401Y-68877625D01*
X76929101Y-68937357D01*
X76946103Y-68942587D01*
X77192818Y-69038034D01*
X77208911Y-69045608D01*
X77439714Y-69174864D01*
X77454590Y-69184635D01*
X77664872Y-69345117D01*
X77678222Y-69356887D01*
X77863794Y-69545396D01*
X77875353Y-69558930D01*
X78032353Y-69771490D01*
X78032510Y-69771703D01*
X78042047Y-69786731D01*
X78167659Y-70019533D01*
X78174983Y-70035753D01*
X78266538Y-70283925D01*
X78271504Y-70301017D01*
X78327180Y-70559622D01*
X78329687Y-70577242D01*
X78348545Y-70843571D01*
X78348798Y-70856424D01*
X78348446Y-70867618D01*
X78345257Y-70969082D01*
X78344198Y-70981896D01*
X78331272Y-71078135D01*
X78312665Y-71216669D01*
X78308653Y-71246536D01*
X78305043Y-71263964D01*
X78233243Y-71518548D01*
X78227216Y-71535292D01*
X78120249Y-71777244D01*
X78111927Y-71792961D01*
X78014050Y-71949902D01*
X77971950Y-72017407D01*
X77961490Y-72031805D01*
X77918382Y-72083088D01*
X77791273Y-72234302D01*
X77778887Y-72247083D01*
X77581845Y-72423569D01*
X77567782Y-72434477D01*
X77347839Y-72581438D01*
X77332379Y-72590256D01*
X77093924Y-72704761D01*
X77077379Y-72711312D01*
X76825159Y-72791078D01*
X76807861Y-72795231D01*
X76711290Y-72811305D01*
X76546922Y-72838663D01*
X76529204Y-72840338D01*
X76416559Y-72842993D01*
X76264752Y-72846571D01*
X76246981Y-72845733D01*
X76136805Y-72832693D01*
X75984283Y-72814640D01*
X75966801Y-72811305D01*
X75711108Y-72743510D01*
X75694269Y-72737744D01*
X75450689Y-72634601D01*
X75434831Y-72626521D01*
X75208211Y-72490084D01*
X75193650Y-72479851D01*
X74988510Y-72312842D01*
X74975535Y-72300658D01*
X74974504Y-72299542D01*
X74795976Y-72106411D01*
X74784848Y-72092521D01*
X74634449Y-71874912D01*
X74625389Y-71859592D01*
X74507153Y-71622965D01*
X74500342Y-71606522D01*
X74416625Y-71355592D01*
X74412199Y-71338353D01*
X74364675Y-71078135D01*
X74362722Y-71060445D01*
X74355145Y-70867618D01*
X74352336Y-70796121D01*
X74352895Y-70778334D01*
X74379857Y-70515190D01*
X74382917Y-70497658D01*
X74446688Y-70240931D01*
X74452186Y-70224009D01*
X74551495Y-69978829D01*
X74559324Y-69962848D01*
X74692184Y-69734111D01*
X74702188Y-69719390D01*
X74767027Y-69637143D01*
X74865954Y-69511654D01*
X74877931Y-69498491D01*
X75069335Y-69315901D01*
X75083049Y-69304556D01*
X75298271Y-69150756D01*
X75313447Y-69141457D01*
X75548178Y-69019525D01*
X75564511Y-69012456D01*
X75814104Y-68924805D01*
X75831272Y-68920109D01*
X76090707Y-68868504D01*
X76108364Y-68866273D01*
X76240429Y-68859005D01*
X76372495Y-68851737D01*
X76390290Y-68852017D01*
G37*
%TD.AperFunction*%
%TA.AperFunction,NonConductor*%
G36*
X232599962Y-23351066D02*
G01*
X232600000Y-23351082D01*
X232600034Y-23351068D01*
X232602903Y-23351134D01*
X232963163Y-23367790D01*
X232974752Y-23368864D01*
X233329050Y-23418287D01*
X233340489Y-23420426D01*
X233536692Y-23466572D01*
X233688711Y-23502326D01*
X233699893Y-23505507D01*
X233869491Y-23562351D01*
X234039081Y-23619193D01*
X234049933Y-23623397D01*
X234377183Y-23767891D01*
X234387601Y-23773079D01*
X234693084Y-23943232D01*
X234700107Y-23947144D01*
X234710002Y-23953270D01*
X235005130Y-24155437D01*
X235014418Y-24162451D01*
X235289634Y-24390987D01*
X235298234Y-24398828D01*
X235551172Y-24651766D01*
X235559013Y-24660366D01*
X235787549Y-24935582D01*
X235794563Y-24944870D01*
X235996730Y-25239998D01*
X236002856Y-25249893D01*
X236176921Y-25562399D01*
X236182109Y-25572817D01*
X236326603Y-25900067D01*
X236330807Y-25910919D01*
X236380416Y-26058930D01*
X236439132Y-26234111D01*
X236444490Y-26250098D01*
X236447675Y-26261293D01*
X236529574Y-26609511D01*
X236531713Y-26620950D01*
X236581136Y-26975248D01*
X236582210Y-26986837D01*
X236598866Y-27347097D01*
X236598932Y-27349966D01*
X236598918Y-27350000D01*
X236598934Y-27350038D01*
X236599000Y-27352916D01*
X236599000Y-70847084D01*
X236598934Y-70849962D01*
X236598918Y-70850000D01*
X236598932Y-70850034D01*
X236598866Y-70852903D01*
X236582210Y-71213163D01*
X236581136Y-71224752D01*
X236531713Y-71579050D01*
X236529574Y-71590489D01*
X236447675Y-71938707D01*
X236444490Y-71949902D01*
X236330807Y-72289081D01*
X236326603Y-72299933D01*
X236182109Y-72627183D01*
X236176921Y-72637601D01*
X236002856Y-72950107D01*
X235996730Y-72960002D01*
X235794563Y-73255130D01*
X235787549Y-73264418D01*
X235559013Y-73539634D01*
X235551172Y-73548234D01*
X235298234Y-73801172D01*
X235289634Y-73809013D01*
X235014418Y-74037549D01*
X235005130Y-74044563D01*
X234710002Y-74246730D01*
X234700109Y-74252855D01*
X234602910Y-74306994D01*
X234387601Y-74426921D01*
X234377183Y-74432109D01*
X234049933Y-74576603D01*
X234039081Y-74580807D01*
X233869492Y-74637648D01*
X233699893Y-74694493D01*
X233688711Y-74697674D01*
X233665883Y-74703043D01*
X233340489Y-74779574D01*
X233329050Y-74781713D01*
X232974752Y-74831136D01*
X232963163Y-74832210D01*
X232602903Y-74848866D01*
X232600034Y-74848932D01*
X232600000Y-74848918D01*
X232599962Y-74848934D01*
X232597084Y-74849000D01*
X75602916Y-74849000D01*
X75600038Y-74848934D01*
X75600000Y-74848918D01*
X75599966Y-74848932D01*
X75597097Y-74848866D01*
X75236837Y-74832210D01*
X75225248Y-74831136D01*
X74870950Y-74781713D01*
X74859511Y-74779574D01*
X74534117Y-74703043D01*
X74511289Y-74697674D01*
X74500107Y-74694493D01*
X74330508Y-74637648D01*
X74160919Y-74580807D01*
X74150067Y-74576603D01*
X73822817Y-74432109D01*
X73812399Y-74426921D01*
X73597090Y-74306994D01*
X73499891Y-74252855D01*
X73489998Y-74246730D01*
X73194870Y-74044563D01*
X73185582Y-74037549D01*
X72910366Y-73809013D01*
X72901766Y-73801172D01*
X72648828Y-73548234D01*
X72640987Y-73539634D01*
X72412451Y-73264418D01*
X72405437Y-73255130D01*
X72203270Y-72960002D01*
X72197144Y-72950107D01*
X72023079Y-72637601D01*
X72017891Y-72627183D01*
X71873397Y-72299933D01*
X71869193Y-72289081D01*
X71755510Y-71949902D01*
X71752325Y-71938707D01*
X71670426Y-71590489D01*
X71668287Y-71579050D01*
X71618864Y-71224752D01*
X71617790Y-71213163D01*
X71601134Y-70852903D01*
X71601068Y-70850034D01*
X71601082Y-70850000D01*
X71601066Y-70849962D01*
X71601000Y-70847084D01*
X71601000Y-70786987D01*
X74344879Y-70786987D01*
X74344888Y-70787210D01*
X74345058Y-70791533D01*
X74352034Y-70969082D01*
X74356004Y-71070139D01*
X74406915Y-71348900D01*
X74496595Y-71617705D01*
X74498587Y-71621692D01*
X74498588Y-71621694D01*
X74584167Y-71792964D01*
X74623256Y-71871194D01*
X74784370Y-72104306D01*
X74787392Y-72107575D01*
X74971931Y-72307208D01*
X74976723Y-72312392D01*
X75086599Y-72401845D01*
X75193014Y-72488481D01*
X75193019Y-72488484D01*
X75196476Y-72491299D01*
X75439245Y-72637458D01*
X75443340Y-72639192D01*
X75443342Y-72639193D01*
X75696085Y-72746216D01*
X75696092Y-72746218D01*
X75700186Y-72747952D01*
X75800287Y-72774493D01*
X75969795Y-72819438D01*
X75969799Y-72819439D01*
X75974092Y-72820577D01*
X75978501Y-72821099D01*
X75978507Y-72821100D01*
X76139276Y-72840128D01*
X76255499Y-72853884D01*
X76538792Y-72847208D01*
X76626968Y-72832531D01*
X76813927Y-72801413D01*
X76813931Y-72801412D01*
X76818317Y-72800682D01*
X76822558Y-72799341D01*
X76822561Y-72799340D01*
X77084253Y-72716578D01*
X77084255Y-72716577D01*
X77088499Y-72715235D01*
X77250171Y-72637601D01*
X77339926Y-72594501D01*
X77339927Y-72594500D01*
X77343945Y-72592571D01*
X77360607Y-72581438D01*
X77575858Y-72437613D01*
X77575862Y-72437610D01*
X77579560Y-72435139D01*
X77637407Y-72383326D01*
X77787318Y-72249055D01*
X77787323Y-72249050D01*
X77790641Y-72246078D01*
X77972978Y-72029162D01*
X78122932Y-71788719D01*
X78198537Y-71617705D01*
X78235713Y-71533613D01*
X78237511Y-71529546D01*
X78314430Y-71256814D01*
X78340805Y-71060445D01*
X78351725Y-70979147D01*
X78351726Y-70979140D01*
X78352152Y-70975965D01*
X78352368Y-70969082D01*
X78356010Y-70853222D01*
X78356010Y-70853217D01*
X78356111Y-70850000D01*
X78351649Y-70786987D01*
X229844879Y-70786987D01*
X229844888Y-70787210D01*
X229845058Y-70791533D01*
X229852034Y-70969082D01*
X229856004Y-71070139D01*
X229906915Y-71348900D01*
X229996595Y-71617705D01*
X229998587Y-71621692D01*
X229998588Y-71621694D01*
X230084167Y-71792964D01*
X230123256Y-71871194D01*
X230284370Y-72104306D01*
X230287392Y-72107575D01*
X230471931Y-72307208D01*
X230476723Y-72312392D01*
X230586599Y-72401845D01*
X230693014Y-72488481D01*
X230693019Y-72488484D01*
X230696476Y-72491299D01*
X230939245Y-72637458D01*
X230943340Y-72639192D01*
X230943342Y-72639193D01*
X231196085Y-72746216D01*
X231196092Y-72746218D01*
X231200186Y-72747952D01*
X231300287Y-72774493D01*
X231469795Y-72819438D01*
X231469799Y-72819439D01*
X231474092Y-72820577D01*
X231478501Y-72821099D01*
X231478507Y-72821100D01*
X231639276Y-72840128D01*
X231755499Y-72853884D01*
X232038792Y-72847208D01*
X232126968Y-72832531D01*
X232313927Y-72801413D01*
X232313931Y-72801412D01*
X232318317Y-72800682D01*
X232322558Y-72799341D01*
X232322561Y-72799340D01*
X232584253Y-72716578D01*
X232584255Y-72716577D01*
X232588499Y-72715235D01*
X232750171Y-72637601D01*
X232839926Y-72594501D01*
X232839927Y-72594500D01*
X232843945Y-72592571D01*
X232860607Y-72581438D01*
X233075858Y-72437613D01*
X233075862Y-72437610D01*
X233079560Y-72435139D01*
X233137407Y-72383326D01*
X233287318Y-72249055D01*
X233287323Y-72249050D01*
X233290641Y-72246078D01*
X233472978Y-72029162D01*
X233622932Y-71788719D01*
X233698537Y-71617705D01*
X233735713Y-71533613D01*
X233737511Y-71529546D01*
X233814430Y-71256814D01*
X233840805Y-71060445D01*
X233851725Y-70979147D01*
X233851726Y-70979140D01*
X233852152Y-70975965D01*
X233852368Y-70969082D01*
X233856010Y-70853222D01*
X233856010Y-70853217D01*
X233856111Y-70850000D01*
X233836097Y-70567336D01*
X233824871Y-70515190D01*
X233777392Y-70294660D01*
X233777392Y-70294658D01*
X233776456Y-70290313D01*
X233678376Y-70024457D01*
X233618314Y-69913142D01*
X233545929Y-69778988D01*
X233545929Y-69778987D01*
X233543816Y-69775072D01*
X233375459Y-69547135D01*
X233176665Y-69345194D01*
X233173126Y-69342493D01*
X233173119Y-69342487D01*
X232954946Y-69175983D01*
X232954942Y-69175980D01*
X232951401Y-69173278D01*
X232704161Y-69034816D01*
X232700012Y-69033211D01*
X232700008Y-69033209D01*
X232457447Y-68939370D01*
X232439878Y-68932573D01*
X232163825Y-68868588D01*
X232159393Y-68868204D01*
X232159386Y-68868203D01*
X231940863Y-68849277D01*
X231881511Y-68844136D01*
X231877076Y-68844380D01*
X231877072Y-68844380D01*
X231603011Y-68859463D01*
X231603004Y-68859464D01*
X231598568Y-68859708D01*
X231460640Y-68887143D01*
X231325013Y-68914121D01*
X231325008Y-68914122D01*
X231320641Y-68914991D01*
X231316438Y-68916467D01*
X231057485Y-69007404D01*
X231057482Y-69007405D01*
X231053277Y-69008882D01*
X231049324Y-69010935D01*
X231049318Y-69010938D01*
X230907090Y-69084820D01*
X230801810Y-69139509D01*
X230798195Y-69142092D01*
X230798189Y-69142096D01*
X230738662Y-69184635D01*
X230571257Y-69304265D01*
X230366218Y-69499862D01*
X230190785Y-69722398D01*
X230188553Y-69726240D01*
X230188550Y-69726245D01*
X230050695Y-69963579D01*
X230050692Y-69963585D01*
X230048457Y-69967433D01*
X230026947Y-70020539D01*
X229944536Y-70224003D01*
X229942075Y-70230078D01*
X229941004Y-70234391D01*
X229941002Y-70234396D01*
X229875607Y-70497658D01*
X229873761Y-70505091D01*
X229873307Y-70509519D01*
X229873307Y-70509521D01*
X229845766Y-70778334D01*
X229844879Y-70786987D01*
X78351649Y-70786987D01*
X78336097Y-70567336D01*
X78324871Y-70515190D01*
X78277392Y-70294660D01*
X78277392Y-70294658D01*
X78276456Y-70290313D01*
X78178376Y-70024457D01*
X78118314Y-69913142D01*
X78084245Y-69850000D01*
X83848918Y-69850000D01*
X83849000Y-69850198D01*
X83849235Y-69850765D01*
X83850000Y-69851082D01*
X83850198Y-69851000D01*
X137849802Y-69851000D01*
X137850000Y-69851082D01*
X137850765Y-69850765D01*
X137851000Y-69850198D01*
X137851082Y-69850000D01*
X137851000Y-69849802D01*
X137851000Y-63850000D01*
X150844101Y-63850000D01*
X150863691Y-64373552D01*
X150863955Y-64375893D01*
X150917496Y-64851082D01*
X150922351Y-64894175D01*
X150962775Y-65107817D01*
X151018586Y-65402784D01*
X151019754Y-65408959D01*
X151155353Y-65915025D01*
X151156135Y-65917258D01*
X151156135Y-65917260D01*
X151177160Y-65977344D01*
X151328393Y-66409542D01*
X151537903Y-66889746D01*
X151539010Y-66891840D01*
X151781612Y-67350866D01*
X151781619Y-67350878D01*
X151782714Y-67352950D01*
X152061455Y-67796563D01*
X152372568Y-68218107D01*
X152714313Y-68615222D01*
X153084779Y-68985687D01*
X153481893Y-69327432D01*
X153713670Y-69498491D01*
X153899111Y-69635352D01*
X153903437Y-69638545D01*
X154347051Y-69917287D01*
X154349459Y-69913115D01*
X154349661Y-69913142D01*
X154349802Y-69913200D01*
X154350105Y-69913200D01*
X154350280Y-69913223D01*
X154350310Y-69913200D01*
X154351359Y-69913200D01*
X154354937Y-69914211D01*
X154361725Y-69913200D01*
X161346669Y-69913200D01*
X161350819Y-69913596D01*
X161352949Y-69917287D01*
X161368290Y-69907648D01*
X161460036Y-69850000D01*
X171848918Y-69850000D01*
X171849000Y-69850198D01*
X171849235Y-69850765D01*
X171850000Y-69851082D01*
X171850198Y-69851000D01*
X203849802Y-69851000D01*
X203850000Y-69851082D01*
X203850765Y-69850765D01*
X203851000Y-69850198D01*
X203851082Y-69850000D01*
X203851000Y-69849802D01*
X203851000Y-64850000D01*
X212248918Y-64850000D01*
X212249000Y-64850198D01*
X212249235Y-64850765D01*
X212250000Y-64851082D01*
X212250198Y-64851000D01*
X223249802Y-64851000D01*
X223250000Y-64851082D01*
X223250765Y-64850765D01*
X223251000Y-64850198D01*
X223251082Y-64850000D01*
X223251000Y-64849802D01*
X223251000Y-56850198D01*
X223251082Y-56850000D01*
X223250765Y-56849235D01*
X223250198Y-56849000D01*
X223250000Y-56848918D01*
X223249802Y-56849000D01*
X212250198Y-56849000D01*
X212250000Y-56848918D01*
X212249802Y-56849000D01*
X212249235Y-56849235D01*
X212248918Y-56850000D01*
X212249000Y-56850198D01*
X212249000Y-64849802D01*
X212248918Y-64850000D01*
X203851000Y-64850000D01*
X203851000Y-56850198D01*
X203851082Y-56850000D01*
X203850765Y-56849235D01*
X203850198Y-56849000D01*
X203850000Y-56848918D01*
X203849802Y-56849000D01*
X171850198Y-56849000D01*
X171850000Y-56848918D01*
X171849802Y-56849000D01*
X171849235Y-56849235D01*
X171848918Y-56850000D01*
X171849000Y-56850198D01*
X171849000Y-69849802D01*
X171848918Y-69850000D01*
X161460036Y-69850000D01*
X161794566Y-69639800D01*
X161794570Y-69639797D01*
X161796563Y-69638545D01*
X161800890Y-69635352D01*
X161986330Y-69498491D01*
X162218107Y-69327432D01*
X162615221Y-68985687D01*
X162985687Y-68615222D01*
X163327432Y-68218107D01*
X163638545Y-67796563D01*
X163917286Y-67352950D01*
X163918381Y-67350878D01*
X163918388Y-67350866D01*
X164160990Y-66891840D01*
X164162097Y-66889746D01*
X164371607Y-66409542D01*
X164522840Y-65977344D01*
X164543865Y-65917260D01*
X164543865Y-65917258D01*
X164544647Y-65915025D01*
X164680246Y-65408959D01*
X164681415Y-65402784D01*
X164737225Y-65107817D01*
X164777649Y-64894175D01*
X164782505Y-64851082D01*
X164836045Y-64375893D01*
X164836309Y-64373552D01*
X164855899Y-63850000D01*
X164836309Y-63326449D01*
X164777649Y-62805825D01*
X164737225Y-62592183D01*
X164680686Y-62293364D01*
X164680683Y-62293352D01*
X164680246Y-62291041D01*
X164544647Y-61784975D01*
X164371607Y-61290458D01*
X164162097Y-60810254D01*
X163917287Y-60347051D01*
X163638545Y-59903437D01*
X163327432Y-59481893D01*
X162985687Y-59084779D01*
X162615222Y-58714313D01*
X162218107Y-58372568D01*
X161926058Y-58157026D01*
X161798463Y-58062857D01*
X161798458Y-58062854D01*
X161796563Y-58061455D01*
X161366459Y-57791201D01*
X161354935Y-57783960D01*
X161354930Y-57783957D01*
X161352950Y-57782713D01*
X160889746Y-57537903D01*
X160887597Y-57536965D01*
X160887592Y-57536963D01*
X160420688Y-57333256D01*
X160409542Y-57328393D01*
X159915025Y-57155353D01*
X159912755Y-57154745D01*
X159912746Y-57154742D01*
X159563657Y-57061205D01*
X159408959Y-57019754D01*
X159406648Y-57019317D01*
X159406636Y-57019314D01*
X159107817Y-56962775D01*
X158894175Y-56922351D01*
X158891835Y-56922087D01*
X158891826Y-56922086D01*
X158588914Y-56887957D01*
X158373551Y-56863691D01*
X157850000Y-56844101D01*
X157326449Y-56863691D01*
X157111086Y-56887957D01*
X156808174Y-56922086D01*
X156808165Y-56922087D01*
X156805825Y-56922351D01*
X156592183Y-56962775D01*
X156293364Y-57019314D01*
X156293352Y-57019317D01*
X156291041Y-57019754D01*
X156136343Y-57061205D01*
X155787254Y-57154742D01*
X155787245Y-57154745D01*
X155784975Y-57155353D01*
X155290458Y-57328393D01*
X155279312Y-57333256D01*
X154812408Y-57536963D01*
X154812403Y-57536965D01*
X154810254Y-57537903D01*
X154347050Y-57782713D01*
X154345070Y-57783957D01*
X154345065Y-57783960D01*
X154333541Y-57791201D01*
X153903437Y-58061455D01*
X153901542Y-58062854D01*
X153901537Y-58062857D01*
X153773942Y-58157026D01*
X153481893Y-58372568D01*
X153084778Y-58714313D01*
X152714313Y-59084779D01*
X152372568Y-59481893D01*
X152061455Y-59903437D01*
X151782713Y-60347051D01*
X151537903Y-60810254D01*
X151328393Y-61290458D01*
X151155353Y-61784975D01*
X151019754Y-62291041D01*
X151019317Y-62293352D01*
X151019314Y-62293364D01*
X150962775Y-62592183D01*
X150922351Y-62805825D01*
X150863691Y-63326449D01*
X150844101Y-63850000D01*
X137851000Y-63850000D01*
X137851000Y-56850198D01*
X137851082Y-56850000D01*
X137850765Y-56849235D01*
X137850198Y-56849000D01*
X137850000Y-56848918D01*
X137849802Y-56849000D01*
X83850198Y-56849000D01*
X83850000Y-56848918D01*
X83849802Y-56849000D01*
X83849235Y-56849235D01*
X83848918Y-56850000D01*
X83849000Y-56850198D01*
X83849000Y-69849802D01*
X83848918Y-69850000D01*
X78084245Y-69850000D01*
X78045929Y-69778988D01*
X78045929Y-69778987D01*
X78043816Y-69775072D01*
X77875459Y-69547135D01*
X77676665Y-69345194D01*
X77673126Y-69342493D01*
X77673119Y-69342487D01*
X77454946Y-69175983D01*
X77454942Y-69175980D01*
X77451401Y-69173278D01*
X77204161Y-69034816D01*
X77200012Y-69033211D01*
X77200008Y-69033209D01*
X76957447Y-68939370D01*
X76939878Y-68932573D01*
X76663825Y-68868588D01*
X76659393Y-68868204D01*
X76659386Y-68868203D01*
X76440863Y-68849277D01*
X76381511Y-68844136D01*
X76377076Y-68844380D01*
X76377072Y-68844380D01*
X76103011Y-68859463D01*
X76103004Y-68859464D01*
X76098568Y-68859708D01*
X75960640Y-68887143D01*
X75825013Y-68914121D01*
X75825008Y-68914122D01*
X75820641Y-68914991D01*
X75816438Y-68916467D01*
X75557485Y-69007404D01*
X75557482Y-69007405D01*
X75553277Y-69008882D01*
X75549324Y-69010935D01*
X75549318Y-69010938D01*
X75407090Y-69084820D01*
X75301810Y-69139509D01*
X75298195Y-69142092D01*
X75298189Y-69142096D01*
X75238662Y-69184635D01*
X75071257Y-69304265D01*
X74866218Y-69499862D01*
X74690785Y-69722398D01*
X74688553Y-69726240D01*
X74688550Y-69726245D01*
X74550695Y-69963579D01*
X74550692Y-69963585D01*
X74548457Y-69967433D01*
X74526947Y-70020539D01*
X74444536Y-70224003D01*
X74442075Y-70230078D01*
X74441004Y-70234391D01*
X74441002Y-70234396D01*
X74375607Y-70497658D01*
X74373761Y-70505091D01*
X74373307Y-70509519D01*
X74373307Y-70509521D01*
X74345766Y-70778334D01*
X74344879Y-70786987D01*
X71601000Y-70786987D01*
X71601000Y-27352916D01*
X71601066Y-27350038D01*
X71601082Y-27350000D01*
X71601068Y-27349966D01*
X71601134Y-27347097D01*
X71603913Y-27286987D01*
X74344879Y-27286987D01*
X74344888Y-27287210D01*
X74345058Y-27291533D01*
X74352034Y-27469082D01*
X74356004Y-27570139D01*
X74406915Y-27848900D01*
X74496595Y-28117705D01*
X74498587Y-28121692D01*
X74498588Y-28121694D01*
X74584167Y-28292964D01*
X74623256Y-28371194D01*
X74784370Y-28604306D01*
X74787392Y-28607575D01*
X74971931Y-28807208D01*
X74976723Y-28812392D01*
X75086600Y-28901846D01*
X75193014Y-28988481D01*
X75193019Y-28988484D01*
X75196476Y-28991299D01*
X75439245Y-29137458D01*
X75443340Y-29139192D01*
X75443342Y-29139193D01*
X75696085Y-29246216D01*
X75696092Y-29246218D01*
X75700186Y-29247952D01*
X75800287Y-29274493D01*
X75969795Y-29319438D01*
X75969799Y-29319439D01*
X75974092Y-29320577D01*
X75978501Y-29321099D01*
X75978507Y-29321100D01*
X76139276Y-29340128D01*
X76255499Y-29353884D01*
X76538792Y-29347208D01*
X76626968Y-29332531D01*
X76813927Y-29301413D01*
X76813931Y-29301412D01*
X76818317Y-29300682D01*
X76822558Y-29299341D01*
X76822561Y-29299340D01*
X77084253Y-29216578D01*
X77084255Y-29216577D01*
X77088499Y-29215235D01*
X77246855Y-29139193D01*
X77339926Y-29094501D01*
X77339927Y-29094500D01*
X77343945Y-29092571D01*
X77360607Y-29081438D01*
X77575858Y-28937613D01*
X77575862Y-28937610D01*
X77579560Y-28935139D01*
X77637407Y-28883326D01*
X77787318Y-28749055D01*
X77787323Y-28749050D01*
X77790641Y-28746078D01*
X77972978Y-28529162D01*
X78122932Y-28288719D01*
X78198537Y-28117705D01*
X78235713Y-28033613D01*
X78237511Y-28029546D01*
X78314430Y-27756814D01*
X78340805Y-27560445D01*
X78351725Y-27479147D01*
X78351726Y-27479140D01*
X78352152Y-27475965D01*
X78352368Y-27469082D01*
X78356010Y-27353222D01*
X78356010Y-27353217D01*
X78356111Y-27350000D01*
X78351649Y-27286987D01*
X229844879Y-27286987D01*
X229844888Y-27287210D01*
X229845058Y-27291533D01*
X229852034Y-27469082D01*
X229856004Y-27570139D01*
X229906915Y-27848900D01*
X229996595Y-28117705D01*
X229998587Y-28121692D01*
X229998588Y-28121694D01*
X230084167Y-28292964D01*
X230123256Y-28371194D01*
X230284370Y-28604306D01*
X230287392Y-28607575D01*
X230471931Y-28807208D01*
X230476723Y-28812392D01*
X230586599Y-28901845D01*
X230693014Y-28988481D01*
X230693019Y-28988484D01*
X230696476Y-28991299D01*
X230939245Y-29137458D01*
X230943340Y-29139192D01*
X230943342Y-29139193D01*
X231196085Y-29246216D01*
X231196092Y-29246218D01*
X231200186Y-29247952D01*
X231300287Y-29274493D01*
X231469795Y-29319438D01*
X231469799Y-29319439D01*
X231474092Y-29320577D01*
X231478501Y-29321099D01*
X231478507Y-29321100D01*
X231639276Y-29340128D01*
X231755499Y-29353884D01*
X232038792Y-29347208D01*
X232126968Y-29332531D01*
X232313927Y-29301413D01*
X232313931Y-29301412D01*
X232318317Y-29300682D01*
X232322558Y-29299341D01*
X232322561Y-29299340D01*
X232584253Y-29216578D01*
X232584255Y-29216577D01*
X232588499Y-29215235D01*
X232746855Y-29139193D01*
X232839926Y-29094501D01*
X232839927Y-29094500D01*
X232843945Y-29092571D01*
X232860607Y-29081438D01*
X233075858Y-28937613D01*
X233075862Y-28937610D01*
X233079560Y-28935139D01*
X233137407Y-28883326D01*
X233287318Y-28749055D01*
X233287323Y-28749050D01*
X233290641Y-28746078D01*
X233472978Y-28529162D01*
X233622932Y-28288719D01*
X233698537Y-28117705D01*
X233735713Y-28033613D01*
X233737511Y-28029546D01*
X233814430Y-27756814D01*
X233840805Y-27560445D01*
X233851725Y-27479147D01*
X233851726Y-27479140D01*
X233852152Y-27475965D01*
X233852368Y-27469082D01*
X233856010Y-27353222D01*
X233856010Y-27353217D01*
X233856111Y-27350000D01*
X233836097Y-27067336D01*
X233824871Y-27015190D01*
X233777392Y-26794660D01*
X233777392Y-26794658D01*
X233776456Y-26790313D01*
X233678376Y-26524457D01*
X233543816Y-26275072D01*
X233375459Y-26047135D01*
X233176665Y-25845194D01*
X233173126Y-25842493D01*
X233173119Y-25842487D01*
X232954946Y-25675983D01*
X232954942Y-25675980D01*
X232951401Y-25673278D01*
X232704161Y-25534816D01*
X232700012Y-25533211D01*
X232700008Y-25533209D01*
X232457447Y-25439370D01*
X232439878Y-25432573D01*
X232163825Y-25368588D01*
X232159393Y-25368204D01*
X232159386Y-25368203D01*
X231940863Y-25349277D01*
X231881511Y-25344136D01*
X231877076Y-25344380D01*
X231877072Y-25344380D01*
X231603011Y-25359463D01*
X231603004Y-25359464D01*
X231598568Y-25359708D01*
X231460640Y-25387143D01*
X231325013Y-25414121D01*
X231325008Y-25414122D01*
X231320641Y-25414991D01*
X231316438Y-25416467D01*
X231057485Y-25507404D01*
X231057482Y-25507405D01*
X231053277Y-25508882D01*
X231049324Y-25510935D01*
X231049318Y-25510938D01*
X230940710Y-25567356D01*
X230801810Y-25639509D01*
X230798195Y-25642092D01*
X230798189Y-25642096D01*
X230738662Y-25684635D01*
X230571257Y-25804265D01*
X230531190Y-25842487D01*
X230459455Y-25910919D01*
X230366218Y-25999862D01*
X230190785Y-26222398D01*
X230188553Y-26226240D01*
X230188550Y-26226245D01*
X230050695Y-26463579D01*
X230050692Y-26463585D01*
X230048457Y-26467433D01*
X230026947Y-26520539D01*
X229944536Y-26724003D01*
X229942075Y-26730078D01*
X229941004Y-26734391D01*
X229941002Y-26734396D01*
X229879166Y-26983331D01*
X229873761Y-27005091D01*
X229873307Y-27009519D01*
X229873307Y-27009521D01*
X229845766Y-27278334D01*
X229844879Y-27286987D01*
X78351649Y-27286987D01*
X78336097Y-27067336D01*
X78324871Y-27015190D01*
X78277392Y-26794660D01*
X78277392Y-26794658D01*
X78276456Y-26790313D01*
X78178376Y-26524457D01*
X78043816Y-26275072D01*
X77875459Y-26047135D01*
X77676665Y-25845194D01*
X77673126Y-25842493D01*
X77673119Y-25842487D01*
X77454946Y-25675983D01*
X77454942Y-25675980D01*
X77451401Y-25673278D01*
X77204161Y-25534816D01*
X77200012Y-25533211D01*
X77200008Y-25533209D01*
X76957447Y-25439370D01*
X76939878Y-25432573D01*
X76663825Y-25368588D01*
X76659393Y-25368204D01*
X76659386Y-25368203D01*
X76440863Y-25349277D01*
X76381511Y-25344136D01*
X76377076Y-25344380D01*
X76377072Y-25344380D01*
X76103011Y-25359463D01*
X76103004Y-25359464D01*
X76098568Y-25359708D01*
X75960640Y-25387143D01*
X75825013Y-25414121D01*
X75825008Y-25414122D01*
X75820641Y-25414991D01*
X75816438Y-25416467D01*
X75557485Y-25507404D01*
X75557482Y-25507405D01*
X75553277Y-25508882D01*
X75549324Y-25510935D01*
X75549318Y-25510938D01*
X75440710Y-25567356D01*
X75301810Y-25639509D01*
X75298195Y-25642092D01*
X75298189Y-25642096D01*
X75238662Y-25684635D01*
X75071257Y-25804265D01*
X75031190Y-25842487D01*
X74959455Y-25910919D01*
X74866218Y-25999862D01*
X74690785Y-26222398D01*
X74688553Y-26226240D01*
X74688550Y-26226245D01*
X74550695Y-26463579D01*
X74550692Y-26463585D01*
X74548457Y-26467433D01*
X74526947Y-26520539D01*
X74444536Y-26724003D01*
X74442075Y-26730078D01*
X74441004Y-26734391D01*
X74441002Y-26734396D01*
X74379166Y-26983331D01*
X74373761Y-27005091D01*
X74373307Y-27009519D01*
X74373307Y-27009521D01*
X74345766Y-27278334D01*
X74344879Y-27286987D01*
X71603913Y-27286987D01*
X71617790Y-26986837D01*
X71618864Y-26975248D01*
X71668287Y-26620950D01*
X71670426Y-26609511D01*
X71752325Y-26261293D01*
X71755510Y-26250098D01*
X71760869Y-26234111D01*
X71819584Y-26058930D01*
X71869193Y-25910919D01*
X71873397Y-25900067D01*
X72017891Y-25572817D01*
X72023079Y-25562399D01*
X72197144Y-25249893D01*
X72203270Y-25239998D01*
X72405437Y-24944870D01*
X72412451Y-24935582D01*
X72640987Y-24660366D01*
X72648828Y-24651766D01*
X72901766Y-24398828D01*
X72910366Y-24390987D01*
X73185582Y-24162451D01*
X73194870Y-24155437D01*
X73489998Y-23953270D01*
X73499893Y-23947144D01*
X73506917Y-23943232D01*
X73812399Y-23773079D01*
X73822817Y-23767891D01*
X74150067Y-23623397D01*
X74160919Y-23619193D01*
X74330509Y-23562351D01*
X74500107Y-23505507D01*
X74511289Y-23502326D01*
X74663308Y-23466572D01*
X74859511Y-23420426D01*
X74870950Y-23418287D01*
X75225248Y-23368864D01*
X75236837Y-23367790D01*
X75597097Y-23351134D01*
X75599966Y-23351068D01*
X75600000Y-23351082D01*
X75600038Y-23351066D01*
X75602916Y-23351000D01*
X232597084Y-23351000D01*
X232599962Y-23351066D01*
G37*
%TD.AperFunction*%
%TA.AperFunction,NonConductor*%
G36*
X76390290Y-84702017D02*
G01*
X76653823Y-84724841D01*
X76671401Y-84727625D01*
X76929101Y-84787357D01*
X76946103Y-84792587D01*
X77192818Y-84888034D01*
X77208911Y-84895608D01*
X77439714Y-85024864D01*
X77454590Y-85034635D01*
X77664872Y-85195117D01*
X77678222Y-85206887D01*
X77863794Y-85395396D01*
X77875353Y-85408930D01*
X78032353Y-85621490D01*
X78032510Y-85621703D01*
X78042047Y-85636731D01*
X78167659Y-85869533D01*
X78174983Y-85885753D01*
X78266538Y-86133925D01*
X78271504Y-86151017D01*
X78327180Y-86409622D01*
X78329687Y-86427242D01*
X78348545Y-86693571D01*
X78348798Y-86706429D01*
X78345257Y-86819082D01*
X78344198Y-86831896D01*
X78308653Y-87096536D01*
X78305043Y-87113964D01*
X78233243Y-87368548D01*
X78227216Y-87385292D01*
X78120249Y-87627244D01*
X78111927Y-87642961D01*
X77971950Y-87867407D01*
X77961490Y-87881805D01*
X77918382Y-87933088D01*
X77791273Y-88084302D01*
X77778887Y-88097083D01*
X77581845Y-88273569D01*
X77567782Y-88284477D01*
X77347839Y-88431438D01*
X77332379Y-88440256D01*
X77093924Y-88554761D01*
X77077379Y-88561312D01*
X76825159Y-88641078D01*
X76807861Y-88645231D01*
X76711290Y-88661305D01*
X76546922Y-88688663D01*
X76529204Y-88690338D01*
X76416559Y-88692993D01*
X76264752Y-88696571D01*
X76246981Y-88695733D01*
X76136805Y-88682693D01*
X75984283Y-88664640D01*
X75966801Y-88661305D01*
X75711108Y-88593510D01*
X75694269Y-88587744D01*
X75450689Y-88484601D01*
X75434831Y-88476521D01*
X75208211Y-88340084D01*
X75193650Y-88329851D01*
X74988510Y-88162842D01*
X74975535Y-88150658D01*
X74795976Y-87956411D01*
X74784848Y-87942521D01*
X74634449Y-87724912D01*
X74625389Y-87709592D01*
X74507153Y-87472965D01*
X74500342Y-87456522D01*
X74416625Y-87205592D01*
X74412199Y-87188353D01*
X74364675Y-86928135D01*
X74362722Y-86910445D01*
X74354339Y-86697097D01*
X74352336Y-86646121D01*
X74352895Y-86628334D01*
X74379857Y-86365190D01*
X74382917Y-86347658D01*
X74446688Y-86090931D01*
X74452186Y-86074009D01*
X74551495Y-85828829D01*
X74559324Y-85812848D01*
X74692184Y-85584111D01*
X74702188Y-85569390D01*
X74828685Y-85408930D01*
X74865954Y-85361654D01*
X74877931Y-85348491D01*
X75069335Y-85165901D01*
X75083049Y-85154556D01*
X75298271Y-85000756D01*
X75313447Y-84991457D01*
X75548178Y-84869525D01*
X75564511Y-84862456D01*
X75814104Y-84774805D01*
X75831272Y-84770109D01*
X76090707Y-84718504D01*
X76108364Y-84716273D01*
X76240429Y-84709005D01*
X76372495Y-84701737D01*
X76390290Y-84702017D01*
G37*
%TD.AperFunction*%
%TA.AperFunction,NonConductor*%
G36*
X231890290Y-84702017D02*
G01*
X232153823Y-84724841D01*
X232171401Y-84727625D01*
X232429101Y-84787357D01*
X232446103Y-84792587D01*
X232692818Y-84888034D01*
X232708911Y-84895608D01*
X232939714Y-85024864D01*
X232954590Y-85034635D01*
X233164872Y-85195117D01*
X233178222Y-85206887D01*
X233363794Y-85395396D01*
X233375353Y-85408930D01*
X233532353Y-85621490D01*
X233532510Y-85621703D01*
X233542047Y-85636731D01*
X233667659Y-85869533D01*
X233674983Y-85885753D01*
X233766538Y-86133925D01*
X233771504Y-86151017D01*
X233827180Y-86409622D01*
X233829687Y-86427242D01*
X233848545Y-86693571D01*
X233848798Y-86706429D01*
X233845257Y-86819082D01*
X233844198Y-86831896D01*
X233808653Y-87096536D01*
X233805043Y-87113964D01*
X233733243Y-87368548D01*
X233727216Y-87385292D01*
X233620249Y-87627244D01*
X233611927Y-87642961D01*
X233471950Y-87867407D01*
X233461490Y-87881805D01*
X233418382Y-87933088D01*
X233291273Y-88084302D01*
X233278887Y-88097083D01*
X233081845Y-88273569D01*
X233067782Y-88284477D01*
X232847839Y-88431438D01*
X232832379Y-88440256D01*
X232593924Y-88554761D01*
X232577379Y-88561312D01*
X232325159Y-88641078D01*
X232307861Y-88645231D01*
X232211290Y-88661305D01*
X232046922Y-88688663D01*
X232029204Y-88690338D01*
X231916559Y-88692993D01*
X231764752Y-88696571D01*
X231746981Y-88695733D01*
X231636805Y-88682693D01*
X231484283Y-88664640D01*
X231466801Y-88661305D01*
X231211108Y-88593510D01*
X231194269Y-88587744D01*
X230950689Y-88484601D01*
X230934831Y-88476521D01*
X230708211Y-88340084D01*
X230693650Y-88329851D01*
X230488510Y-88162842D01*
X230475535Y-88150658D01*
X230295976Y-87956411D01*
X230284848Y-87942521D01*
X230134449Y-87724912D01*
X230125389Y-87709592D01*
X230007153Y-87472965D01*
X230000342Y-87456522D01*
X229916625Y-87205592D01*
X229912199Y-87188353D01*
X229864675Y-86928135D01*
X229862722Y-86910445D01*
X229854339Y-86697097D01*
X229852336Y-86646121D01*
X229852895Y-86628334D01*
X229879857Y-86365190D01*
X229882917Y-86347658D01*
X229946688Y-86090931D01*
X229952186Y-86074009D01*
X230051495Y-85828829D01*
X230059324Y-85812848D01*
X230192184Y-85584111D01*
X230202188Y-85569390D01*
X230328685Y-85408930D01*
X230365954Y-85361654D01*
X230377931Y-85348491D01*
X230569335Y-85165901D01*
X230583049Y-85154556D01*
X230798271Y-85000756D01*
X230813447Y-84991457D01*
X231048178Y-84869525D01*
X231064511Y-84862456D01*
X231314104Y-84774805D01*
X231331272Y-84770109D01*
X231590707Y-84718504D01*
X231608364Y-84716273D01*
X231740429Y-84709005D01*
X231872495Y-84701737D01*
X231890290Y-84702017D01*
G37*
%TD.AperFunction*%
%TA.AperFunction,NonConductor*%
G36*
X107990290Y-117802017D02*
G01*
X108253823Y-117824841D01*
X108271401Y-117827625D01*
X108529101Y-117887357D01*
X108546103Y-117892587D01*
X108792818Y-117988034D01*
X108808911Y-117995608D01*
X109039714Y-118124864D01*
X109054590Y-118134635D01*
X109264872Y-118295117D01*
X109278222Y-118306887D01*
X109463794Y-118495396D01*
X109475353Y-118508930D01*
X109632353Y-118721490D01*
X109632510Y-118721703D01*
X109642047Y-118736731D01*
X109767659Y-118969533D01*
X109774983Y-118985753D01*
X109866538Y-119233925D01*
X109871504Y-119251017D01*
X109927180Y-119509622D01*
X109929687Y-119527242D01*
X109948545Y-119793571D01*
X109948798Y-119806429D01*
X109945257Y-119919082D01*
X109944198Y-119931896D01*
X109908653Y-120196536D01*
X109905043Y-120213964D01*
X109833243Y-120468548D01*
X109827216Y-120485292D01*
X109720249Y-120727244D01*
X109711927Y-120742961D01*
X109571950Y-120967407D01*
X109561490Y-120981805D01*
X109559403Y-120984288D01*
X109391273Y-121184302D01*
X109378887Y-121197083D01*
X109181845Y-121373569D01*
X109167782Y-121384477D01*
X108947839Y-121531438D01*
X108932379Y-121540256D01*
X108722496Y-121641041D01*
X108693924Y-121654761D01*
X108677379Y-121661312D01*
X108425159Y-121741078D01*
X108407861Y-121745231D01*
X108311290Y-121761305D01*
X108146922Y-121788663D01*
X108129204Y-121790338D01*
X108016559Y-121792993D01*
X107864752Y-121796571D01*
X107846981Y-121795733D01*
X107736805Y-121782693D01*
X107584283Y-121764640D01*
X107566801Y-121761305D01*
X107311108Y-121693510D01*
X107294269Y-121687744D01*
X107050689Y-121584601D01*
X107034831Y-121576521D01*
X106808211Y-121440084D01*
X106793650Y-121429851D01*
X106588510Y-121262842D01*
X106575535Y-121250658D01*
X106571950Y-121246779D01*
X106470706Y-121137254D01*
X106395976Y-121056411D01*
X106384848Y-121042521D01*
X106234449Y-120824912D01*
X106225389Y-120809592D01*
X106107153Y-120572965D01*
X106100342Y-120556522D01*
X106016625Y-120305592D01*
X106012199Y-120288353D01*
X105964675Y-120028135D01*
X105962722Y-120010445D01*
X105954446Y-119799831D01*
X105952336Y-119746121D01*
X105952895Y-119728334D01*
X105956101Y-119697051D01*
X105974514Y-119517336D01*
X105979857Y-119465190D01*
X105982917Y-119447658D01*
X106046688Y-119190931D01*
X106052186Y-119174009D01*
X106151495Y-118928829D01*
X106159324Y-118912848D01*
X106292184Y-118684111D01*
X106302188Y-118669390D01*
X106428685Y-118508930D01*
X106465954Y-118461654D01*
X106477931Y-118448491D01*
X106487387Y-118439471D01*
X106573633Y-118357196D01*
X106669335Y-118265901D01*
X106683049Y-118254556D01*
X106898271Y-118100756D01*
X106913447Y-118091457D01*
X107148178Y-117969525D01*
X107164511Y-117962456D01*
X107414104Y-117874805D01*
X107431272Y-117870109D01*
X107690707Y-117818504D01*
X107708364Y-117816273D01*
X107840429Y-117809005D01*
X107972495Y-117801737D01*
X107990290Y-117802017D01*
G37*
%TD.AperFunction*%
%TA.AperFunction,NonConductor*%
G36*
X118140290Y-117802017D02*
G01*
X118403823Y-117824841D01*
X118421401Y-117827625D01*
X118679101Y-117887357D01*
X118696103Y-117892587D01*
X118942818Y-117988034D01*
X118958911Y-117995608D01*
X119189714Y-118124864D01*
X119204590Y-118134635D01*
X119414872Y-118295117D01*
X119428222Y-118306887D01*
X119613794Y-118495396D01*
X119625353Y-118508930D01*
X119782353Y-118721490D01*
X119782510Y-118721703D01*
X119792047Y-118736731D01*
X119917659Y-118969533D01*
X119924983Y-118985753D01*
X120016538Y-119233925D01*
X120021504Y-119251017D01*
X120077180Y-119509622D01*
X120079687Y-119527242D01*
X120098545Y-119793571D01*
X120098798Y-119806429D01*
X120095257Y-119919082D01*
X120094198Y-119931896D01*
X120058653Y-120196536D01*
X120055043Y-120213964D01*
X119983243Y-120468548D01*
X119977216Y-120485292D01*
X119870249Y-120727244D01*
X119861927Y-120742961D01*
X119721950Y-120967407D01*
X119711490Y-120981805D01*
X119709403Y-120984288D01*
X119541273Y-121184302D01*
X119528887Y-121197083D01*
X119331845Y-121373569D01*
X119317782Y-121384477D01*
X119097839Y-121531438D01*
X119082379Y-121540256D01*
X118872496Y-121641041D01*
X118843924Y-121654761D01*
X118827379Y-121661312D01*
X118575159Y-121741078D01*
X118557861Y-121745231D01*
X118461290Y-121761305D01*
X118296922Y-121788663D01*
X118279204Y-121790338D01*
X118166559Y-121792993D01*
X118014752Y-121796571D01*
X117996981Y-121795733D01*
X117886805Y-121782693D01*
X117734283Y-121764640D01*
X117716801Y-121761305D01*
X117461108Y-121693510D01*
X117444269Y-121687744D01*
X117200689Y-121584601D01*
X117184831Y-121576521D01*
X116958211Y-121440084D01*
X116943650Y-121429851D01*
X116738510Y-121262842D01*
X116725535Y-121250658D01*
X116721950Y-121246779D01*
X116620706Y-121137254D01*
X116545976Y-121056411D01*
X116534848Y-121042521D01*
X116384449Y-120824912D01*
X116375389Y-120809592D01*
X116257153Y-120572965D01*
X116250342Y-120556522D01*
X116166625Y-120305592D01*
X116162199Y-120288353D01*
X116114675Y-120028135D01*
X116112722Y-120010445D01*
X116104446Y-119799831D01*
X116102336Y-119746121D01*
X116102895Y-119728334D01*
X116106101Y-119697051D01*
X116124514Y-119517336D01*
X116129857Y-119465190D01*
X116132917Y-119447658D01*
X116196688Y-119190931D01*
X116202186Y-119174009D01*
X116301495Y-118928829D01*
X116309324Y-118912848D01*
X116442184Y-118684111D01*
X116452188Y-118669390D01*
X116578685Y-118508930D01*
X116615954Y-118461654D01*
X116627931Y-118448491D01*
X116637387Y-118439471D01*
X116723633Y-118357196D01*
X116819335Y-118265901D01*
X116833049Y-118254556D01*
X117048271Y-118100756D01*
X117063447Y-118091457D01*
X117298178Y-117969525D01*
X117314511Y-117962456D01*
X117564104Y-117874805D01*
X117581272Y-117870109D01*
X117840707Y-117818504D01*
X117858364Y-117816273D01*
X117990429Y-117809005D01*
X118122495Y-117801737D01*
X118140290Y-117802017D01*
G37*
%TD.AperFunction*%
%TA.AperFunction,NonConductor*%
G36*
X139919504Y-119302010D02*
G01*
X140105385Y-119318109D01*
X140176001Y-119324225D01*
X140193580Y-119327009D01*
X140444399Y-119385146D01*
X140461410Y-119390380D01*
X140701518Y-119483271D01*
X140717622Y-119490849D01*
X140942262Y-119616654D01*
X140957138Y-119626425D01*
X141161807Y-119782623D01*
X141175150Y-119794386D01*
X141355780Y-119977876D01*
X141367332Y-119991403D01*
X141493639Y-120162408D01*
X141520293Y-120198495D01*
X141529827Y-120213517D01*
X141652089Y-120440108D01*
X141659412Y-120456327D01*
X141733217Y-120656382D01*
X141748523Y-120697872D01*
X141753488Y-120714959D01*
X141807681Y-120966674D01*
X141810186Y-120984281D01*
X141825297Y-121197695D01*
X141828545Y-121243571D01*
X141828798Y-121256424D01*
X141828596Y-121262842D01*
X141825356Y-121365942D01*
X141824297Y-121378757D01*
X141789692Y-121636396D01*
X141786082Y-121653822D01*
X141762784Y-121736433D01*
X141716199Y-121901611D01*
X141710170Y-121918358D01*
X141606066Y-122153835D01*
X141597738Y-122169563D01*
X141461494Y-122388024D01*
X141451034Y-122402421D01*
X141391736Y-122472965D01*
X141285371Y-122599502D01*
X141272985Y-122612283D01*
X141081200Y-122784061D01*
X141067144Y-122794964D01*
X140984347Y-122850288D01*
X140853066Y-122938007D01*
X140837606Y-122946825D01*
X140605518Y-123058272D01*
X140588973Y-123064823D01*
X140343491Y-123142459D01*
X140326186Y-123146614D01*
X140294185Y-123151940D01*
X140072218Y-123188885D01*
X140054500Y-123190560D01*
X139958562Y-123192821D01*
X139797108Y-123196626D01*
X139779338Y-123195788D01*
X139523652Y-123165526D01*
X139506172Y-123162192D01*
X139470272Y-123152673D01*
X139441895Y-123145149D01*
X139257308Y-123096206D01*
X139240470Y-123090441D01*
X139003383Y-122990048D01*
X138987525Y-122981967D01*
X138766956Y-122849174D01*
X138752395Y-122838940D01*
X138552742Y-122676397D01*
X138539767Y-122664214D01*
X138364997Y-122475149D01*
X138353869Y-122461259D01*
X138207486Y-122249460D01*
X138198426Y-122234140D01*
X138083347Y-122003831D01*
X138076536Y-121987388D01*
X137995054Y-121743158D01*
X137990628Y-121725919D01*
X137944373Y-121472648D01*
X137942420Y-121454958D01*
X137934854Y-121262392D01*
X137932312Y-121197691D01*
X137932871Y-121179905D01*
X137936801Y-121141555D01*
X137953927Y-120974399D01*
X137959113Y-120923786D01*
X137962173Y-120906254D01*
X138024241Y-120656382D01*
X138029741Y-120639455D01*
X138126395Y-120400828D01*
X138134225Y-120384845D01*
X138263538Y-120162216D01*
X138273542Y-120147495D01*
X138432935Y-119945306D01*
X138444913Y-119932142D01*
X138458604Y-119919082D01*
X138631211Y-119754423D01*
X138644916Y-119743086D01*
X138854393Y-119593390D01*
X138869563Y-119584094D01*
X138979007Y-119527242D01*
X139098047Y-119465406D01*
X139114369Y-119458343D01*
X139235835Y-119415687D01*
X139357295Y-119373034D01*
X139374461Y-119368338D01*
X139626974Y-119318109D01*
X139644632Y-119315878D01*
X139808805Y-119306843D01*
X139901710Y-119301730D01*
X139919504Y-119302010D01*
G37*
%TD.AperFunction*%
%TA.AperFunction,NonConductor*%
G36*
X134329504Y-119302010D02*
G01*
X134515385Y-119318109D01*
X134586001Y-119324225D01*
X134603580Y-119327009D01*
X134854399Y-119385146D01*
X134871410Y-119390380D01*
X135111518Y-119483271D01*
X135127622Y-119490849D01*
X135352262Y-119616654D01*
X135367138Y-119626425D01*
X135571807Y-119782623D01*
X135585150Y-119794386D01*
X135765780Y-119977876D01*
X135777332Y-119991403D01*
X135903639Y-120162408D01*
X135930293Y-120198495D01*
X135939827Y-120213517D01*
X136062089Y-120440108D01*
X136069412Y-120456327D01*
X136143217Y-120656382D01*
X136158523Y-120697872D01*
X136163488Y-120714959D01*
X136217681Y-120966674D01*
X136220186Y-120984281D01*
X136235297Y-121197695D01*
X136238545Y-121243571D01*
X136238798Y-121256424D01*
X136238596Y-121262842D01*
X136235356Y-121365942D01*
X136234297Y-121378757D01*
X136199692Y-121636396D01*
X136196082Y-121653822D01*
X136172784Y-121736433D01*
X136126199Y-121901611D01*
X136120170Y-121918358D01*
X136016066Y-122153835D01*
X136007738Y-122169563D01*
X135871494Y-122388024D01*
X135861034Y-122402421D01*
X135801736Y-122472965D01*
X135695371Y-122599502D01*
X135682985Y-122612283D01*
X135491200Y-122784061D01*
X135477144Y-122794964D01*
X135394347Y-122850288D01*
X135263066Y-122938007D01*
X135247606Y-122946825D01*
X135015518Y-123058272D01*
X134998973Y-123064823D01*
X134753491Y-123142459D01*
X134736186Y-123146614D01*
X134704185Y-123151940D01*
X134482218Y-123188885D01*
X134464500Y-123190560D01*
X134368562Y-123192821D01*
X134207108Y-123196626D01*
X134189338Y-123195788D01*
X133933652Y-123165526D01*
X133916172Y-123162192D01*
X133880272Y-123152673D01*
X133851895Y-123145149D01*
X133667308Y-123096206D01*
X133650470Y-123090441D01*
X133413383Y-122990048D01*
X133397525Y-122981967D01*
X133176956Y-122849174D01*
X133162395Y-122838940D01*
X132962742Y-122676397D01*
X132949767Y-122664214D01*
X132774997Y-122475149D01*
X132763869Y-122461259D01*
X132617486Y-122249460D01*
X132608426Y-122234140D01*
X132493347Y-122003831D01*
X132486536Y-121987388D01*
X132405054Y-121743158D01*
X132400628Y-121725919D01*
X132354373Y-121472648D01*
X132352420Y-121454958D01*
X132344854Y-121262392D01*
X132342312Y-121197691D01*
X132342871Y-121179905D01*
X132346801Y-121141555D01*
X132363927Y-120974399D01*
X132369113Y-120923786D01*
X132372173Y-120906254D01*
X132434241Y-120656382D01*
X132439741Y-120639455D01*
X132536395Y-120400828D01*
X132544225Y-120384845D01*
X132673538Y-120162216D01*
X132683542Y-120147495D01*
X132842935Y-119945306D01*
X132854913Y-119932142D01*
X132868604Y-119919082D01*
X133041211Y-119754423D01*
X133054916Y-119743086D01*
X133264393Y-119593390D01*
X133279563Y-119584094D01*
X133389007Y-119527242D01*
X133508047Y-119465406D01*
X133524369Y-119458343D01*
X133645835Y-119415687D01*
X133767295Y-119373034D01*
X133784461Y-119368338D01*
X134036974Y-119318109D01*
X134054632Y-119315878D01*
X134218805Y-119306843D01*
X134311710Y-119301730D01*
X134329504Y-119302010D01*
G37*
%TD.AperFunction*%
%TA.AperFunction,NonConductor*%
G36*
X128739504Y-119302010D02*
G01*
X128925385Y-119318109D01*
X128996001Y-119324225D01*
X129013580Y-119327009D01*
X129264399Y-119385146D01*
X129281410Y-119390380D01*
X129521518Y-119483271D01*
X129537622Y-119490849D01*
X129762262Y-119616654D01*
X129777138Y-119626425D01*
X129981807Y-119782623D01*
X129995150Y-119794386D01*
X130175780Y-119977876D01*
X130187332Y-119991403D01*
X130313639Y-120162408D01*
X130340293Y-120198495D01*
X130349827Y-120213517D01*
X130472089Y-120440108D01*
X130479412Y-120456327D01*
X130553217Y-120656382D01*
X130568523Y-120697872D01*
X130573488Y-120714959D01*
X130627681Y-120966674D01*
X130630186Y-120984281D01*
X130645297Y-121197695D01*
X130648545Y-121243571D01*
X130648798Y-121256424D01*
X130648596Y-121262842D01*
X130645356Y-121365942D01*
X130644297Y-121378757D01*
X130609692Y-121636396D01*
X130606082Y-121653822D01*
X130582784Y-121736433D01*
X130536199Y-121901611D01*
X130530170Y-121918358D01*
X130426066Y-122153835D01*
X130417738Y-122169563D01*
X130281494Y-122388024D01*
X130271034Y-122402421D01*
X130211736Y-122472965D01*
X130105371Y-122599502D01*
X130092985Y-122612283D01*
X129901200Y-122784061D01*
X129887144Y-122794964D01*
X129804347Y-122850288D01*
X129673066Y-122938007D01*
X129657606Y-122946825D01*
X129425518Y-123058272D01*
X129408973Y-123064823D01*
X129163491Y-123142459D01*
X129146186Y-123146614D01*
X129114185Y-123151940D01*
X128892218Y-123188885D01*
X128874500Y-123190560D01*
X128778562Y-123192821D01*
X128617108Y-123196626D01*
X128599338Y-123195788D01*
X128343652Y-123165526D01*
X128326172Y-123162192D01*
X128290272Y-123152673D01*
X128261895Y-123145149D01*
X128077308Y-123096206D01*
X128060470Y-123090441D01*
X127823383Y-122990048D01*
X127807525Y-122981967D01*
X127586956Y-122849174D01*
X127572395Y-122838940D01*
X127372742Y-122676397D01*
X127359767Y-122664214D01*
X127184997Y-122475149D01*
X127173869Y-122461259D01*
X127027486Y-122249460D01*
X127018426Y-122234140D01*
X126903347Y-122003831D01*
X126896536Y-121987388D01*
X126815054Y-121743158D01*
X126810628Y-121725919D01*
X126764373Y-121472648D01*
X126762420Y-121454958D01*
X126754854Y-121262392D01*
X126752312Y-121197691D01*
X126752871Y-121179905D01*
X126756801Y-121141555D01*
X126773927Y-120974399D01*
X126779113Y-120923786D01*
X126782173Y-120906254D01*
X126844241Y-120656382D01*
X126849741Y-120639455D01*
X126946395Y-120400828D01*
X126954225Y-120384845D01*
X127083538Y-120162216D01*
X127093542Y-120147495D01*
X127252935Y-119945306D01*
X127264913Y-119932142D01*
X127278604Y-119919082D01*
X127451211Y-119754423D01*
X127464916Y-119743086D01*
X127674393Y-119593390D01*
X127689563Y-119584094D01*
X127799007Y-119527242D01*
X127918047Y-119465406D01*
X127934369Y-119458343D01*
X128055835Y-119415687D01*
X128177295Y-119373034D01*
X128194461Y-119368338D01*
X128446974Y-119318109D01*
X128464632Y-119315878D01*
X128628805Y-119306843D01*
X128721710Y-119301730D01*
X128739504Y-119302010D01*
G37*
%TD.AperFunction*%
%TA.AperFunction,NonConductor*%
G36*
X98489504Y-119302010D02*
G01*
X98675385Y-119318109D01*
X98746001Y-119324225D01*
X98763580Y-119327009D01*
X99014399Y-119385146D01*
X99031410Y-119390380D01*
X99271518Y-119483271D01*
X99287622Y-119490849D01*
X99512262Y-119616654D01*
X99527138Y-119626425D01*
X99731807Y-119782623D01*
X99745150Y-119794386D01*
X99925780Y-119977876D01*
X99937332Y-119991403D01*
X100063639Y-120162408D01*
X100090293Y-120198495D01*
X100099827Y-120213517D01*
X100222089Y-120440108D01*
X100229412Y-120456327D01*
X100303217Y-120656382D01*
X100318523Y-120697872D01*
X100323488Y-120714959D01*
X100377681Y-120966674D01*
X100380186Y-120984281D01*
X100395297Y-121197695D01*
X100398545Y-121243571D01*
X100398798Y-121256424D01*
X100398596Y-121262842D01*
X100395356Y-121365942D01*
X100394297Y-121378757D01*
X100359692Y-121636396D01*
X100356082Y-121653822D01*
X100332784Y-121736433D01*
X100286199Y-121901611D01*
X100280170Y-121918358D01*
X100176066Y-122153835D01*
X100167738Y-122169563D01*
X100031494Y-122388024D01*
X100021034Y-122402421D01*
X99961736Y-122472965D01*
X99855371Y-122599502D01*
X99842985Y-122612283D01*
X99651200Y-122784061D01*
X99637144Y-122794964D01*
X99554347Y-122850288D01*
X99423066Y-122938007D01*
X99407606Y-122946825D01*
X99175518Y-123058272D01*
X99158973Y-123064823D01*
X98913491Y-123142459D01*
X98896186Y-123146614D01*
X98864185Y-123151940D01*
X98642218Y-123188885D01*
X98624500Y-123190560D01*
X98528562Y-123192821D01*
X98367108Y-123196626D01*
X98349338Y-123195788D01*
X98093652Y-123165526D01*
X98076172Y-123162192D01*
X98040272Y-123152673D01*
X98011895Y-123145149D01*
X97827308Y-123096206D01*
X97810470Y-123090441D01*
X97573383Y-122990048D01*
X97557525Y-122981967D01*
X97336956Y-122849174D01*
X97322395Y-122838940D01*
X97122742Y-122676397D01*
X97109767Y-122664214D01*
X96934997Y-122475149D01*
X96923869Y-122461259D01*
X96777486Y-122249460D01*
X96768426Y-122234140D01*
X96653347Y-122003831D01*
X96646536Y-121987388D01*
X96565054Y-121743158D01*
X96560628Y-121725919D01*
X96514373Y-121472648D01*
X96512420Y-121454958D01*
X96504854Y-121262392D01*
X96502312Y-121197691D01*
X96502871Y-121179905D01*
X96506801Y-121141555D01*
X96523927Y-120974399D01*
X96529113Y-120923786D01*
X96532173Y-120906254D01*
X96594241Y-120656382D01*
X96599741Y-120639455D01*
X96696395Y-120400828D01*
X96704225Y-120384845D01*
X96833538Y-120162216D01*
X96843542Y-120147495D01*
X97002935Y-119945306D01*
X97014913Y-119932142D01*
X97028604Y-119919082D01*
X97201211Y-119754423D01*
X97214916Y-119743086D01*
X97424393Y-119593390D01*
X97439563Y-119584094D01*
X97549007Y-119527242D01*
X97668047Y-119465406D01*
X97684369Y-119458343D01*
X97805835Y-119415687D01*
X97927295Y-119373034D01*
X97944461Y-119368338D01*
X98196974Y-119318109D01*
X98214632Y-119315878D01*
X98378805Y-119306843D01*
X98471710Y-119301730D01*
X98489504Y-119302010D01*
G37*
%TD.AperFunction*%
%TA.AperFunction,NonConductor*%
G36*
X151099504Y-119302010D02*
G01*
X151285385Y-119318109D01*
X151356001Y-119324225D01*
X151373580Y-119327009D01*
X151624399Y-119385146D01*
X151641410Y-119390380D01*
X151881518Y-119483271D01*
X151897622Y-119490849D01*
X152122262Y-119616654D01*
X152137138Y-119626425D01*
X152341807Y-119782623D01*
X152355150Y-119794386D01*
X152535780Y-119977876D01*
X152547332Y-119991403D01*
X152673639Y-120162408D01*
X152700293Y-120198495D01*
X152709827Y-120213517D01*
X152832089Y-120440108D01*
X152839412Y-120456327D01*
X152913217Y-120656382D01*
X152928523Y-120697872D01*
X152933488Y-120714959D01*
X152987681Y-120966674D01*
X152990186Y-120984281D01*
X153005297Y-121197695D01*
X153008545Y-121243571D01*
X153008798Y-121256424D01*
X153008596Y-121262842D01*
X153005356Y-121365942D01*
X153004297Y-121378757D01*
X152969692Y-121636396D01*
X152966082Y-121653822D01*
X152942784Y-121736433D01*
X152896199Y-121901611D01*
X152890170Y-121918358D01*
X152786066Y-122153835D01*
X152777738Y-122169563D01*
X152641494Y-122388024D01*
X152631034Y-122402421D01*
X152571736Y-122472965D01*
X152465371Y-122599502D01*
X152452985Y-122612283D01*
X152261200Y-122784061D01*
X152247144Y-122794964D01*
X152164347Y-122850288D01*
X152033066Y-122938007D01*
X152017606Y-122946825D01*
X151785518Y-123058272D01*
X151768973Y-123064823D01*
X151523491Y-123142459D01*
X151506186Y-123146614D01*
X151474185Y-123151940D01*
X151252218Y-123188885D01*
X151234500Y-123190560D01*
X151138562Y-123192821D01*
X150977108Y-123196626D01*
X150959338Y-123195788D01*
X150703652Y-123165526D01*
X150686172Y-123162192D01*
X150650272Y-123152673D01*
X150621895Y-123145149D01*
X150437308Y-123096206D01*
X150420470Y-123090441D01*
X150183383Y-122990048D01*
X150167525Y-122981967D01*
X149946956Y-122849174D01*
X149932395Y-122838940D01*
X149732742Y-122676397D01*
X149719767Y-122664214D01*
X149544997Y-122475149D01*
X149533869Y-122461259D01*
X149387486Y-122249460D01*
X149378426Y-122234140D01*
X149263347Y-122003831D01*
X149256536Y-121987388D01*
X149175054Y-121743158D01*
X149170628Y-121725919D01*
X149124373Y-121472648D01*
X149122420Y-121454958D01*
X149114854Y-121262392D01*
X149112312Y-121197691D01*
X149112871Y-121179905D01*
X149116801Y-121141555D01*
X149133927Y-120974399D01*
X149139113Y-120923786D01*
X149142173Y-120906254D01*
X149204241Y-120656382D01*
X149209741Y-120639455D01*
X149306395Y-120400828D01*
X149314225Y-120384845D01*
X149443538Y-120162216D01*
X149453542Y-120147495D01*
X149612935Y-119945306D01*
X149624913Y-119932142D01*
X149638604Y-119919082D01*
X149811211Y-119754423D01*
X149824916Y-119743086D01*
X150034393Y-119593390D01*
X150049563Y-119584094D01*
X150159007Y-119527242D01*
X150278047Y-119465406D01*
X150294369Y-119458343D01*
X150415835Y-119415687D01*
X150537295Y-119373034D01*
X150554461Y-119368338D01*
X150806974Y-119318109D01*
X150824632Y-119315878D01*
X150988805Y-119306843D01*
X151081710Y-119301730D01*
X151099504Y-119302010D01*
G37*
%TD.AperFunction*%
%TA.AperFunction,NonConductor*%
G36*
X145509504Y-119302010D02*
G01*
X145695385Y-119318109D01*
X145766001Y-119324225D01*
X145783580Y-119327009D01*
X146034399Y-119385146D01*
X146051410Y-119390380D01*
X146291518Y-119483271D01*
X146307622Y-119490849D01*
X146532262Y-119616654D01*
X146547138Y-119626425D01*
X146751807Y-119782623D01*
X146765150Y-119794386D01*
X146945780Y-119977876D01*
X146957332Y-119991403D01*
X147083639Y-120162408D01*
X147110293Y-120198495D01*
X147119827Y-120213517D01*
X147242089Y-120440108D01*
X147249412Y-120456327D01*
X147323217Y-120656382D01*
X147338523Y-120697872D01*
X147343488Y-120714959D01*
X147397681Y-120966674D01*
X147400186Y-120984281D01*
X147415297Y-121197695D01*
X147418545Y-121243571D01*
X147418798Y-121256424D01*
X147418596Y-121262842D01*
X147415356Y-121365942D01*
X147414297Y-121378757D01*
X147379692Y-121636396D01*
X147376082Y-121653822D01*
X147352784Y-121736433D01*
X147306199Y-121901611D01*
X147300170Y-121918358D01*
X147196066Y-122153835D01*
X147187738Y-122169563D01*
X147051494Y-122388024D01*
X147041034Y-122402421D01*
X146981736Y-122472965D01*
X146875371Y-122599502D01*
X146862985Y-122612283D01*
X146671200Y-122784061D01*
X146657144Y-122794964D01*
X146574347Y-122850288D01*
X146443066Y-122938007D01*
X146427606Y-122946825D01*
X146195518Y-123058272D01*
X146178973Y-123064823D01*
X145933491Y-123142459D01*
X145916186Y-123146614D01*
X145884185Y-123151940D01*
X145662218Y-123188885D01*
X145644500Y-123190560D01*
X145548562Y-123192821D01*
X145387108Y-123196626D01*
X145369338Y-123195788D01*
X145113652Y-123165526D01*
X145096172Y-123162192D01*
X145060272Y-123152673D01*
X145031895Y-123145149D01*
X144847308Y-123096206D01*
X144830470Y-123090441D01*
X144593383Y-122990048D01*
X144577525Y-122981967D01*
X144356956Y-122849174D01*
X144342395Y-122838940D01*
X144142742Y-122676397D01*
X144129767Y-122664214D01*
X143954997Y-122475149D01*
X143943869Y-122461259D01*
X143797486Y-122249460D01*
X143788426Y-122234140D01*
X143673347Y-122003831D01*
X143666536Y-121987388D01*
X143585054Y-121743158D01*
X143580628Y-121725919D01*
X143534373Y-121472648D01*
X143532420Y-121454958D01*
X143524854Y-121262392D01*
X143522312Y-121197691D01*
X143522871Y-121179905D01*
X143526801Y-121141555D01*
X143543927Y-120974399D01*
X143549113Y-120923786D01*
X143552173Y-120906254D01*
X143614241Y-120656382D01*
X143619741Y-120639455D01*
X143716395Y-120400828D01*
X143724225Y-120384845D01*
X143853538Y-120162216D01*
X143863542Y-120147495D01*
X144022935Y-119945306D01*
X144034913Y-119932142D01*
X144048604Y-119919082D01*
X144221211Y-119754423D01*
X144234916Y-119743086D01*
X144444393Y-119593390D01*
X144459563Y-119584094D01*
X144569007Y-119527242D01*
X144688047Y-119465406D01*
X144704369Y-119458343D01*
X144825835Y-119415687D01*
X144947295Y-119373034D01*
X144964461Y-119368338D01*
X145216974Y-119318109D01*
X145234632Y-119315878D01*
X145398805Y-119306843D01*
X145491710Y-119301730D01*
X145509504Y-119302010D01*
G37*
%TD.AperFunction*%
%TA.AperFunction,NonConductor*%
G36*
X93541121Y-116221002D02*
G01*
X93587614Y-116274658D01*
X93599000Y-116327000D01*
X93599000Y-128073000D01*
X93578998Y-128141121D01*
X93525342Y-128187614D01*
X93473000Y-128199000D01*
X83727000Y-128199000D01*
X83658879Y-128178998D01*
X83612386Y-128125342D01*
X83601000Y-128073000D01*
X83601000Y-116327000D01*
X83621002Y-116258879D01*
X83674658Y-116212386D01*
X83727000Y-116201000D01*
X93473000Y-116201000D01*
X93541121Y-116221002D01*
G37*
%TD.AperFunction*%
%TA.AperFunction,NonConductor*%
G36*
X183441518Y-116210786D02*
G01*
X183698324Y-116220395D01*
X183707719Y-116221099D01*
X184218469Y-116278646D01*
X184227789Y-116280051D01*
X184705101Y-116370364D01*
X184732784Y-116375602D01*
X184741970Y-116377698D01*
X185238445Y-116510728D01*
X185247449Y-116513506D01*
X185732579Y-116683260D01*
X185741319Y-116686690D01*
X186202505Y-116887903D01*
X186212425Y-116892231D01*
X186220914Y-116896319D01*
X186429691Y-117006660D01*
X186675348Y-117136493D01*
X186683493Y-117141197D01*
X187118698Y-117414655D01*
X187126463Y-117419949D01*
X187540023Y-117725170D01*
X187547368Y-117731027D01*
X187846009Y-117988029D01*
X187936957Y-118066296D01*
X187943864Y-118072705D01*
X188307295Y-118436136D01*
X188313703Y-118443042D01*
X188648973Y-118832632D01*
X188654830Y-118839977D01*
X188960051Y-119253537D01*
X188965345Y-119261302D01*
X189187698Y-119615174D01*
X189238799Y-119696500D01*
X189243507Y-119704652D01*
X189295602Y-119803222D01*
X189483681Y-120159086D01*
X189487767Y-120167572D01*
X189693310Y-120638681D01*
X189696740Y-120647421D01*
X189814615Y-120984288D01*
X189866494Y-121132551D01*
X189869272Y-121141555D01*
X189898330Y-121250000D01*
X189988136Y-121585160D01*
X190002302Y-121638030D01*
X190004398Y-121647214D01*
X190022944Y-121745232D01*
X190099949Y-122152213D01*
X190101354Y-122161531D01*
X190158901Y-122672281D01*
X190159605Y-122681676D01*
X190169197Y-122938007D01*
X190177586Y-123162192D01*
X190178824Y-123195288D01*
X190178824Y-123204712D01*
X190159605Y-123718324D01*
X190158901Y-123727719D01*
X190101354Y-124238469D01*
X190099949Y-124247787D01*
X190004398Y-124752784D01*
X190002302Y-124761970D01*
X189869272Y-125258446D01*
X189866494Y-125267450D01*
X189696744Y-125752568D01*
X189693310Y-125761319D01*
X189487769Y-126232425D01*
X189483681Y-126240914D01*
X189243511Y-126695340D01*
X189238803Y-126703493D01*
X188965345Y-127138698D01*
X188960051Y-127146463D01*
X188654834Y-127560016D01*
X188648969Y-127567371D01*
X188313696Y-127956965D01*
X188307287Y-127963872D01*
X187943864Y-128327295D01*
X187936958Y-128333703D01*
X187547368Y-128668973D01*
X187540023Y-128674830D01*
X187126463Y-128980051D01*
X187118698Y-128985345D01*
X186902025Y-129121490D01*
X186710414Y-129241887D01*
X186643378Y-129261200D01*
X179716622Y-129261200D01*
X179649586Y-129241887D01*
X179457975Y-129121490D01*
X179241302Y-128985345D01*
X179233537Y-128980051D01*
X178819977Y-128674830D01*
X178812632Y-128668973D01*
X178423042Y-128333703D01*
X178416136Y-128327295D01*
X178052713Y-127963872D01*
X178046304Y-127956965D01*
X177711031Y-127567371D01*
X177705166Y-127560016D01*
X177399949Y-127146463D01*
X177394655Y-127138698D01*
X177121197Y-126703493D01*
X177116489Y-126695340D01*
X176876319Y-126240914D01*
X176872231Y-126232425D01*
X176666690Y-125761319D01*
X176663256Y-125752568D01*
X176493506Y-125267450D01*
X176490728Y-125258446D01*
X176357698Y-124761970D01*
X176355602Y-124752784D01*
X176260051Y-124247787D01*
X176258646Y-124238469D01*
X176201099Y-123727719D01*
X176200395Y-123718324D01*
X176181176Y-123204712D01*
X176181176Y-123195288D01*
X176182415Y-123162192D01*
X176190803Y-122938007D01*
X176200395Y-122681676D01*
X176201099Y-122672281D01*
X176258646Y-122161531D01*
X176260051Y-122152213D01*
X176337056Y-121745232D01*
X176355602Y-121647214D01*
X176357698Y-121638030D01*
X176371865Y-121585160D01*
X176461670Y-121250000D01*
X176490728Y-121141555D01*
X176493506Y-121132551D01*
X176545385Y-120984288D01*
X176663260Y-120647421D01*
X176666690Y-120638681D01*
X176872233Y-120167572D01*
X176876319Y-120159086D01*
X177064398Y-119803222D01*
X177116493Y-119704652D01*
X177121201Y-119696500D01*
X177172302Y-119615174D01*
X177394655Y-119261302D01*
X177399949Y-119253537D01*
X177705170Y-118839977D01*
X177711027Y-118832632D01*
X178046297Y-118443042D01*
X178052705Y-118436136D01*
X178416136Y-118072705D01*
X178423043Y-118066296D01*
X178513991Y-117988029D01*
X178812632Y-117731027D01*
X178819977Y-117725170D01*
X179233537Y-117419949D01*
X179241302Y-117414655D01*
X179676507Y-117141197D01*
X179684652Y-117136493D01*
X179930309Y-117006660D01*
X180139086Y-116896319D01*
X180147575Y-116892231D01*
X180157495Y-116887903D01*
X180618681Y-116686690D01*
X180627421Y-116683260D01*
X181112551Y-116513506D01*
X181121555Y-116510728D01*
X181618030Y-116377698D01*
X181627216Y-116375602D01*
X181654900Y-116370364D01*
X182132211Y-116280051D01*
X182141531Y-116278646D01*
X182652281Y-116221099D01*
X182661676Y-116220395D01*
X182918482Y-116210786D01*
X183175296Y-116201176D01*
X183184704Y-116201176D01*
X183441518Y-116210786D01*
G37*
%TD.AperFunction*%
%TA.AperFunction,NonConductor*%
G36*
X220041518Y-116210786D02*
G01*
X220298324Y-116220395D01*
X220307719Y-116221099D01*
X220818469Y-116278646D01*
X220827789Y-116280051D01*
X221305101Y-116370364D01*
X221332784Y-116375602D01*
X221341970Y-116377698D01*
X221838445Y-116510728D01*
X221847449Y-116513506D01*
X222332579Y-116683260D01*
X222341319Y-116686690D01*
X222802505Y-116887903D01*
X222812425Y-116892231D01*
X222820914Y-116896319D01*
X223029691Y-117006660D01*
X223275348Y-117136493D01*
X223283493Y-117141197D01*
X223718698Y-117414655D01*
X223726463Y-117419949D01*
X224140023Y-117725170D01*
X224147368Y-117731027D01*
X224446009Y-117988029D01*
X224536957Y-118066296D01*
X224543864Y-118072705D01*
X224907295Y-118436136D01*
X224913703Y-118443042D01*
X225248973Y-118832632D01*
X225254830Y-118839977D01*
X225560051Y-119253537D01*
X225565345Y-119261302D01*
X225787698Y-119615174D01*
X225838799Y-119696500D01*
X225843507Y-119704652D01*
X225895602Y-119803222D01*
X226083681Y-120159086D01*
X226087767Y-120167572D01*
X226293310Y-120638681D01*
X226296740Y-120647421D01*
X226414615Y-120984288D01*
X226466494Y-121132551D01*
X226469272Y-121141555D01*
X226498330Y-121250000D01*
X226588136Y-121585160D01*
X226602302Y-121638030D01*
X226604398Y-121647214D01*
X226622944Y-121745232D01*
X226699949Y-122152213D01*
X226701354Y-122161531D01*
X226758901Y-122672281D01*
X226759605Y-122681676D01*
X226769197Y-122938007D01*
X226777586Y-123162192D01*
X226778824Y-123195288D01*
X226778824Y-123204712D01*
X226759605Y-123718324D01*
X226758901Y-123727719D01*
X226701354Y-124238469D01*
X226699949Y-124247787D01*
X226604398Y-124752784D01*
X226602302Y-124761970D01*
X226469272Y-125258446D01*
X226466494Y-125267450D01*
X226296744Y-125752568D01*
X226293310Y-125761319D01*
X226087769Y-126232425D01*
X226083681Y-126240914D01*
X225843511Y-126695340D01*
X225838803Y-126703493D01*
X225565345Y-127138698D01*
X225560051Y-127146463D01*
X225254834Y-127560016D01*
X225248969Y-127567371D01*
X224913696Y-127956965D01*
X224907287Y-127963872D01*
X224543864Y-128327295D01*
X224536958Y-128333703D01*
X224147368Y-128668973D01*
X224140023Y-128674830D01*
X223726463Y-128980051D01*
X223718698Y-128985345D01*
X223502025Y-129121490D01*
X223310414Y-129241887D01*
X223243378Y-129261200D01*
X216316622Y-129261200D01*
X216249586Y-129241887D01*
X216057975Y-129121490D01*
X215841302Y-128985345D01*
X215833537Y-128980051D01*
X215419977Y-128674830D01*
X215412632Y-128668973D01*
X215023042Y-128333703D01*
X215016136Y-128327295D01*
X214652713Y-127963872D01*
X214646304Y-127956965D01*
X214311031Y-127567371D01*
X214305166Y-127560016D01*
X213999949Y-127146463D01*
X213994655Y-127138698D01*
X213721197Y-126703493D01*
X213716489Y-126695340D01*
X213476319Y-126240914D01*
X213472231Y-126232425D01*
X213266690Y-125761319D01*
X213263256Y-125752568D01*
X213093506Y-125267450D01*
X213090728Y-125258446D01*
X212957698Y-124761970D01*
X212955602Y-124752784D01*
X212860051Y-124247787D01*
X212858646Y-124238469D01*
X212801099Y-123727719D01*
X212800395Y-123718324D01*
X212781176Y-123204712D01*
X212781176Y-123195288D01*
X212782415Y-123162192D01*
X212790803Y-122938007D01*
X212800395Y-122681676D01*
X212801099Y-122672281D01*
X212858646Y-122161531D01*
X212860051Y-122152213D01*
X212937056Y-121745232D01*
X212955602Y-121647214D01*
X212957698Y-121638030D01*
X212971865Y-121585160D01*
X213061670Y-121250000D01*
X213090728Y-121141555D01*
X213093506Y-121132551D01*
X213145385Y-120984288D01*
X213263260Y-120647421D01*
X213266690Y-120638681D01*
X213472233Y-120167572D01*
X213476319Y-120159086D01*
X213664398Y-119803222D01*
X213716493Y-119704652D01*
X213721201Y-119696500D01*
X213772302Y-119615174D01*
X213994655Y-119261302D01*
X213999949Y-119253537D01*
X214305170Y-118839977D01*
X214311027Y-118832632D01*
X214646297Y-118443042D01*
X214652705Y-118436136D01*
X215016136Y-118072705D01*
X215023043Y-118066296D01*
X215113991Y-117988029D01*
X215412632Y-117731027D01*
X215419977Y-117725170D01*
X215833537Y-117419949D01*
X215841302Y-117414655D01*
X216276507Y-117141197D01*
X216284652Y-117136493D01*
X216530309Y-117006660D01*
X216739086Y-116896319D01*
X216747575Y-116892231D01*
X216757495Y-116887903D01*
X217218681Y-116686690D01*
X217227421Y-116683260D01*
X217712551Y-116513506D01*
X217721555Y-116510728D01*
X218218030Y-116377698D01*
X218227216Y-116375602D01*
X218254900Y-116370364D01*
X218732211Y-116280051D01*
X218741531Y-116278646D01*
X219252281Y-116221099D01*
X219261676Y-116220395D01*
X219518482Y-116210786D01*
X219775296Y-116201176D01*
X219784704Y-116201176D01*
X220041518Y-116210786D01*
G37*
%TD.AperFunction*%
%TA.AperFunction,NonConductor*%
G36*
X165141518Y-116210786D02*
G01*
X165398324Y-116220395D01*
X165407719Y-116221099D01*
X165918469Y-116278646D01*
X165927789Y-116280051D01*
X166405101Y-116370364D01*
X166432784Y-116375602D01*
X166441970Y-116377698D01*
X166938445Y-116510728D01*
X166947449Y-116513506D01*
X167432579Y-116683260D01*
X167441319Y-116686690D01*
X167902505Y-116887903D01*
X167912425Y-116892231D01*
X167920914Y-116896319D01*
X168129691Y-117006660D01*
X168375348Y-117136493D01*
X168383493Y-117141197D01*
X168818698Y-117414655D01*
X168826463Y-117419949D01*
X169240023Y-117725170D01*
X169247368Y-117731027D01*
X169546009Y-117988029D01*
X169636957Y-118066296D01*
X169643864Y-118072705D01*
X170007295Y-118436136D01*
X170013703Y-118443042D01*
X170348973Y-118832632D01*
X170354830Y-118839977D01*
X170660051Y-119253537D01*
X170665345Y-119261302D01*
X170887698Y-119615174D01*
X170938799Y-119696500D01*
X170943507Y-119704652D01*
X170995602Y-119803222D01*
X171183681Y-120159086D01*
X171187767Y-120167572D01*
X171393310Y-120638681D01*
X171396740Y-120647421D01*
X171514615Y-120984288D01*
X171566494Y-121132551D01*
X171569272Y-121141555D01*
X171598330Y-121250000D01*
X171688136Y-121585160D01*
X171702302Y-121638030D01*
X171704398Y-121647214D01*
X171722944Y-121745232D01*
X171799949Y-122152213D01*
X171801354Y-122161531D01*
X171858901Y-122672281D01*
X171859605Y-122681676D01*
X171869197Y-122938007D01*
X171877586Y-123162192D01*
X171878824Y-123195288D01*
X171878824Y-123204712D01*
X171859605Y-123718324D01*
X171858901Y-123727719D01*
X171801354Y-124238469D01*
X171799949Y-124247787D01*
X171704398Y-124752784D01*
X171702302Y-124761970D01*
X171569272Y-125258446D01*
X171566494Y-125267450D01*
X171396744Y-125752568D01*
X171393310Y-125761319D01*
X171187769Y-126232425D01*
X171183681Y-126240914D01*
X170943511Y-126695340D01*
X170938803Y-126703493D01*
X170665345Y-127138698D01*
X170660051Y-127146463D01*
X170354834Y-127560016D01*
X170348969Y-127567371D01*
X170013696Y-127956965D01*
X170007287Y-127963872D01*
X169643864Y-128327295D01*
X169636958Y-128333703D01*
X169247368Y-128668973D01*
X169240023Y-128674830D01*
X168826463Y-128980051D01*
X168818698Y-128985345D01*
X168602025Y-129121490D01*
X168410414Y-129241887D01*
X168343378Y-129261200D01*
X161416622Y-129261200D01*
X161349586Y-129241887D01*
X161157975Y-129121490D01*
X160941302Y-128985345D01*
X160933537Y-128980051D01*
X160519977Y-128674830D01*
X160512632Y-128668973D01*
X160123042Y-128333703D01*
X160116136Y-128327295D01*
X159752713Y-127963872D01*
X159746304Y-127956965D01*
X159411031Y-127567371D01*
X159405166Y-127560016D01*
X159099949Y-127146463D01*
X159094655Y-127138698D01*
X158821197Y-126703493D01*
X158816489Y-126695340D01*
X158576319Y-126240914D01*
X158572231Y-126232425D01*
X158366690Y-125761319D01*
X158363256Y-125752568D01*
X158193506Y-125267450D01*
X158190728Y-125258446D01*
X158057698Y-124761970D01*
X158055602Y-124752784D01*
X157960051Y-124247787D01*
X157958646Y-124238469D01*
X157901099Y-123727719D01*
X157900395Y-123718324D01*
X157881176Y-123204712D01*
X157881176Y-123195288D01*
X157882415Y-123162192D01*
X157890803Y-122938007D01*
X157900395Y-122681676D01*
X157901099Y-122672281D01*
X157958646Y-122161531D01*
X157960051Y-122152213D01*
X158037056Y-121745232D01*
X158055602Y-121647214D01*
X158057698Y-121638030D01*
X158071865Y-121585160D01*
X158161670Y-121250000D01*
X158190728Y-121141555D01*
X158193506Y-121132551D01*
X158245385Y-120984288D01*
X158363260Y-120647421D01*
X158366690Y-120638681D01*
X158572233Y-120167572D01*
X158576319Y-120159086D01*
X158764398Y-119803222D01*
X158816493Y-119704652D01*
X158821201Y-119696500D01*
X158872302Y-119615174D01*
X159094655Y-119261302D01*
X159099949Y-119253537D01*
X159405170Y-118839977D01*
X159411027Y-118832632D01*
X159746297Y-118443042D01*
X159752705Y-118436136D01*
X160116136Y-118072705D01*
X160123043Y-118066296D01*
X160213991Y-117988029D01*
X160512632Y-117731027D01*
X160519977Y-117725170D01*
X160933537Y-117419949D01*
X160941302Y-117414655D01*
X161376507Y-117141197D01*
X161384652Y-117136493D01*
X161630309Y-117006660D01*
X161839086Y-116896319D01*
X161847575Y-116892231D01*
X161857495Y-116887903D01*
X162318681Y-116686690D01*
X162327421Y-116683260D01*
X162812551Y-116513506D01*
X162821555Y-116510728D01*
X163318030Y-116377698D01*
X163327216Y-116375602D01*
X163354900Y-116370364D01*
X163832211Y-116280051D01*
X163841531Y-116278646D01*
X164352281Y-116221099D01*
X164361676Y-116220395D01*
X164618482Y-116210786D01*
X164875296Y-116201176D01*
X164884704Y-116201176D01*
X165141518Y-116210786D01*
G37*
%TD.AperFunction*%
%TA.AperFunction,NonConductor*%
G36*
X201741518Y-116210786D02*
G01*
X201998324Y-116220395D01*
X202007719Y-116221099D01*
X202518469Y-116278646D01*
X202527789Y-116280051D01*
X203005101Y-116370364D01*
X203032784Y-116375602D01*
X203041970Y-116377698D01*
X203538445Y-116510728D01*
X203547449Y-116513506D01*
X204032579Y-116683260D01*
X204041319Y-116686690D01*
X204502505Y-116887903D01*
X204512425Y-116892231D01*
X204520914Y-116896319D01*
X204729691Y-117006660D01*
X204975348Y-117136493D01*
X204983493Y-117141197D01*
X205418698Y-117414655D01*
X205426463Y-117419949D01*
X205840023Y-117725170D01*
X205847368Y-117731027D01*
X206146009Y-117988029D01*
X206236957Y-118066296D01*
X206243864Y-118072705D01*
X206607295Y-118436136D01*
X206613703Y-118443042D01*
X206948973Y-118832632D01*
X206954830Y-118839977D01*
X207260051Y-119253537D01*
X207265345Y-119261302D01*
X207487698Y-119615174D01*
X207538799Y-119696500D01*
X207543507Y-119704652D01*
X207595602Y-119803222D01*
X207783681Y-120159086D01*
X207787767Y-120167572D01*
X207993310Y-120638681D01*
X207996740Y-120647421D01*
X208114615Y-120984288D01*
X208166494Y-121132551D01*
X208169272Y-121141555D01*
X208198330Y-121250000D01*
X208288136Y-121585160D01*
X208302302Y-121638030D01*
X208304398Y-121647214D01*
X208322944Y-121745232D01*
X208399949Y-122152213D01*
X208401354Y-122161531D01*
X208458901Y-122672281D01*
X208459605Y-122681676D01*
X208469197Y-122938007D01*
X208477586Y-123162192D01*
X208478824Y-123195288D01*
X208478824Y-123204712D01*
X208459605Y-123718324D01*
X208458901Y-123727719D01*
X208401354Y-124238469D01*
X208399949Y-124247787D01*
X208304398Y-124752784D01*
X208302302Y-124761970D01*
X208169272Y-125258446D01*
X208166494Y-125267450D01*
X207996744Y-125752568D01*
X207993310Y-125761319D01*
X207787769Y-126232425D01*
X207783681Y-126240914D01*
X207543511Y-126695340D01*
X207538803Y-126703493D01*
X207265345Y-127138698D01*
X207260051Y-127146463D01*
X206954834Y-127560016D01*
X206948969Y-127567371D01*
X206613696Y-127956965D01*
X206607287Y-127963872D01*
X206243864Y-128327295D01*
X206236958Y-128333703D01*
X205847368Y-128668973D01*
X205840023Y-128674830D01*
X205426463Y-128980051D01*
X205418698Y-128985345D01*
X205202025Y-129121490D01*
X205010414Y-129241887D01*
X204943378Y-129261200D01*
X198016622Y-129261200D01*
X197949586Y-129241887D01*
X197757975Y-129121490D01*
X197541302Y-128985345D01*
X197533537Y-128980051D01*
X197119977Y-128674830D01*
X197112632Y-128668973D01*
X196723042Y-128333703D01*
X196716136Y-128327295D01*
X196352713Y-127963872D01*
X196346304Y-127956965D01*
X196011031Y-127567371D01*
X196005166Y-127560016D01*
X195699949Y-127146463D01*
X195694655Y-127138698D01*
X195421197Y-126703493D01*
X195416489Y-126695340D01*
X195176319Y-126240914D01*
X195172231Y-126232425D01*
X194966690Y-125761319D01*
X194963256Y-125752568D01*
X194793506Y-125267450D01*
X194790728Y-125258446D01*
X194657698Y-124761970D01*
X194655602Y-124752784D01*
X194560051Y-124247787D01*
X194558646Y-124238469D01*
X194501099Y-123727719D01*
X194500395Y-123718324D01*
X194481176Y-123204712D01*
X194481176Y-123195288D01*
X194482415Y-123162192D01*
X194490803Y-122938007D01*
X194500395Y-122681676D01*
X194501099Y-122672281D01*
X194558646Y-122161531D01*
X194560051Y-122152213D01*
X194637056Y-121745232D01*
X194655602Y-121647214D01*
X194657698Y-121638030D01*
X194671865Y-121585160D01*
X194761670Y-121250000D01*
X194790728Y-121141555D01*
X194793506Y-121132551D01*
X194845385Y-120984288D01*
X194963260Y-120647421D01*
X194966690Y-120638681D01*
X195172233Y-120167572D01*
X195176319Y-120159086D01*
X195364398Y-119803222D01*
X195416493Y-119704652D01*
X195421201Y-119696500D01*
X195472302Y-119615174D01*
X195694655Y-119261302D01*
X195699949Y-119253537D01*
X196005170Y-118839977D01*
X196011027Y-118832632D01*
X196346297Y-118443042D01*
X196352705Y-118436136D01*
X196716136Y-118072705D01*
X196723043Y-118066296D01*
X196813991Y-117988029D01*
X197112632Y-117731027D01*
X197119977Y-117725170D01*
X197533537Y-117419949D01*
X197541302Y-117414655D01*
X197976507Y-117141197D01*
X197984652Y-117136493D01*
X198230309Y-117006660D01*
X198439086Y-116896319D01*
X198447575Y-116892231D01*
X198457495Y-116887903D01*
X198918681Y-116686690D01*
X198927421Y-116683260D01*
X199412551Y-116513506D01*
X199421555Y-116510728D01*
X199918030Y-116377698D01*
X199927216Y-116375602D01*
X199954900Y-116370364D01*
X200432211Y-116280051D01*
X200441531Y-116278646D01*
X200952281Y-116221099D01*
X200961676Y-116220395D01*
X201218482Y-116210786D01*
X201475296Y-116201176D01*
X201484704Y-116201176D01*
X201741518Y-116210786D01*
G37*
%TD.AperFunction*%
%TA.AperFunction,NonConductor*%
G36*
X76390290Y-128202017D02*
G01*
X76653823Y-128224841D01*
X76671401Y-128227625D01*
X76929101Y-128287357D01*
X76946103Y-128292587D01*
X77192818Y-128388034D01*
X77208911Y-128395608D01*
X77439714Y-128524864D01*
X77454590Y-128534635D01*
X77664872Y-128695117D01*
X77678222Y-128706887D01*
X77863794Y-128895396D01*
X77875353Y-128908930D01*
X78032353Y-129121490D01*
X78032510Y-129121703D01*
X78042047Y-129136731D01*
X78167659Y-129369533D01*
X78174983Y-129385753D01*
X78266538Y-129633925D01*
X78271504Y-129651017D01*
X78327180Y-129909622D01*
X78329687Y-129927242D01*
X78348545Y-130193571D01*
X78348798Y-130206424D01*
X78348446Y-130217618D01*
X78345257Y-130319082D01*
X78344198Y-130331896D01*
X78331272Y-130428135D01*
X78312665Y-130566669D01*
X78308653Y-130596536D01*
X78305043Y-130613964D01*
X78233243Y-130868548D01*
X78227216Y-130885292D01*
X78120249Y-131127244D01*
X78111927Y-131142961D01*
X78014050Y-131299902D01*
X77971950Y-131367407D01*
X77961490Y-131381805D01*
X77918382Y-131433088D01*
X77791273Y-131584302D01*
X77778887Y-131597083D01*
X77581845Y-131773569D01*
X77567782Y-131784477D01*
X77347839Y-131931438D01*
X77332379Y-131940256D01*
X77093924Y-132054761D01*
X77077379Y-132061312D01*
X76825159Y-132141078D01*
X76807861Y-132145231D01*
X76711290Y-132161305D01*
X76546922Y-132188663D01*
X76529204Y-132190338D01*
X76416559Y-132192993D01*
X76264752Y-132196571D01*
X76246981Y-132195733D01*
X76136805Y-132182693D01*
X75984283Y-132164640D01*
X75966801Y-132161305D01*
X75711108Y-132093510D01*
X75694269Y-132087744D01*
X75450689Y-131984601D01*
X75434831Y-131976521D01*
X75208211Y-131840084D01*
X75193650Y-131829851D01*
X74988510Y-131662842D01*
X74975535Y-131650658D01*
X74974504Y-131649542D01*
X74795976Y-131456411D01*
X74784848Y-131442521D01*
X74634449Y-131224912D01*
X74625389Y-131209592D01*
X74507153Y-130972965D01*
X74500342Y-130956522D01*
X74416625Y-130705592D01*
X74412199Y-130688353D01*
X74364675Y-130428135D01*
X74362722Y-130410445D01*
X74355145Y-130217618D01*
X74352336Y-130146121D01*
X74352895Y-130128334D01*
X74379857Y-129865190D01*
X74382917Y-129847658D01*
X74446688Y-129590931D01*
X74452186Y-129574009D01*
X74551495Y-129328829D01*
X74559324Y-129312848D01*
X74692184Y-129084111D01*
X74702188Y-129069390D01*
X74767027Y-128987143D01*
X74865954Y-128861654D01*
X74877931Y-128848491D01*
X75069335Y-128665901D01*
X75083049Y-128654556D01*
X75298271Y-128500756D01*
X75313447Y-128491457D01*
X75548178Y-128369525D01*
X75564511Y-128362456D01*
X75814104Y-128274805D01*
X75831272Y-128270109D01*
X76090707Y-128218504D01*
X76108364Y-128216273D01*
X76240429Y-128209005D01*
X76372495Y-128201737D01*
X76390290Y-128202017D01*
G37*
%TD.AperFunction*%
%TA.AperFunction,NonConductor*%
G36*
X231890290Y-128202017D02*
G01*
X232153823Y-128224841D01*
X232171401Y-128227625D01*
X232429101Y-128287357D01*
X232446103Y-128292587D01*
X232692818Y-128388034D01*
X232708911Y-128395608D01*
X232939714Y-128524864D01*
X232954590Y-128534635D01*
X233164872Y-128695117D01*
X233178222Y-128706887D01*
X233363794Y-128895396D01*
X233375353Y-128908930D01*
X233532353Y-129121490D01*
X233532510Y-129121703D01*
X233542047Y-129136731D01*
X233667659Y-129369533D01*
X233674983Y-129385753D01*
X233766538Y-129633925D01*
X233771504Y-129651017D01*
X233827180Y-129909622D01*
X233829687Y-129927242D01*
X233848545Y-130193571D01*
X233848798Y-130206424D01*
X233848446Y-130217618D01*
X233845257Y-130319082D01*
X233844198Y-130331896D01*
X233831272Y-130428135D01*
X233812665Y-130566669D01*
X233808653Y-130596536D01*
X233805043Y-130613964D01*
X233733243Y-130868548D01*
X233727216Y-130885292D01*
X233620249Y-131127244D01*
X233611927Y-131142961D01*
X233514050Y-131299902D01*
X233471950Y-131367407D01*
X233461490Y-131381805D01*
X233418382Y-131433088D01*
X233291273Y-131584302D01*
X233278887Y-131597083D01*
X233081845Y-131773569D01*
X233067782Y-131784477D01*
X232847839Y-131931438D01*
X232832379Y-131940256D01*
X232593924Y-132054761D01*
X232577379Y-132061312D01*
X232325159Y-132141078D01*
X232307861Y-132145231D01*
X232211290Y-132161305D01*
X232046922Y-132188663D01*
X232029204Y-132190338D01*
X231916559Y-132192993D01*
X231764752Y-132196571D01*
X231746981Y-132195733D01*
X231636805Y-132182693D01*
X231484283Y-132164640D01*
X231466801Y-132161305D01*
X231211108Y-132093510D01*
X231194269Y-132087744D01*
X230950689Y-131984601D01*
X230934831Y-131976521D01*
X230708211Y-131840084D01*
X230693650Y-131829851D01*
X230488510Y-131662842D01*
X230475535Y-131650658D01*
X230474504Y-131649542D01*
X230295976Y-131456411D01*
X230284848Y-131442521D01*
X230134449Y-131224912D01*
X230125389Y-131209592D01*
X230007153Y-130972965D01*
X230000342Y-130956522D01*
X229916625Y-130705592D01*
X229912199Y-130688353D01*
X229864675Y-130428135D01*
X229862722Y-130410445D01*
X229855145Y-130217618D01*
X229852336Y-130146121D01*
X229852895Y-130128334D01*
X229879857Y-129865190D01*
X229882917Y-129847658D01*
X229946688Y-129590931D01*
X229952186Y-129574009D01*
X230051495Y-129328829D01*
X230059324Y-129312848D01*
X230192184Y-129084111D01*
X230202188Y-129069390D01*
X230267027Y-128987143D01*
X230365954Y-128861654D01*
X230377931Y-128848491D01*
X230569335Y-128665901D01*
X230583049Y-128654556D01*
X230798271Y-128500756D01*
X230813447Y-128491457D01*
X231048178Y-128369525D01*
X231064511Y-128362456D01*
X231314104Y-128274805D01*
X231331272Y-128270109D01*
X231590707Y-128218504D01*
X231608364Y-128216273D01*
X231740429Y-128209005D01*
X231872495Y-128201737D01*
X231890290Y-128202017D01*
G37*
%TD.AperFunction*%
%TA.AperFunction,NonConductor*%
G36*
X232599962Y-82701066D02*
G01*
X232600000Y-82701082D01*
X232600034Y-82701068D01*
X232602903Y-82701134D01*
X232963163Y-82717790D01*
X232974752Y-82718864D01*
X233329050Y-82768287D01*
X233340489Y-82770426D01*
X233536692Y-82816572D01*
X233688711Y-82852326D01*
X233699893Y-82855507D01*
X233869491Y-82912351D01*
X234039081Y-82969193D01*
X234049933Y-82973397D01*
X234377183Y-83117891D01*
X234387601Y-83123079D01*
X234693084Y-83293232D01*
X234700107Y-83297144D01*
X234710002Y-83303270D01*
X235005130Y-83505437D01*
X235014418Y-83512451D01*
X235289634Y-83740987D01*
X235298234Y-83748828D01*
X235551172Y-84001766D01*
X235559013Y-84010366D01*
X235787549Y-84285582D01*
X235794563Y-84294870D01*
X235996730Y-84589998D01*
X236002856Y-84599893D01*
X236176921Y-84912399D01*
X236182109Y-84922817D01*
X236326603Y-85250067D01*
X236330807Y-85260919D01*
X236380416Y-85408930D01*
X236439132Y-85584111D01*
X236444490Y-85600098D01*
X236447675Y-85611293D01*
X236529574Y-85959511D01*
X236531713Y-85970950D01*
X236581136Y-86325248D01*
X236582210Y-86336837D01*
X236598866Y-86697097D01*
X236598932Y-86699966D01*
X236598918Y-86700000D01*
X236598934Y-86700038D01*
X236599000Y-86702916D01*
X236599000Y-130197084D01*
X236598934Y-130199962D01*
X236598918Y-130200000D01*
X236598932Y-130200034D01*
X236598866Y-130202903D01*
X236582210Y-130563163D01*
X236581136Y-130574752D01*
X236531713Y-130929050D01*
X236529574Y-130940489D01*
X236447675Y-131288707D01*
X236444490Y-131299902D01*
X236330807Y-131639081D01*
X236326603Y-131649933D01*
X236182109Y-131977183D01*
X236176921Y-131987601D01*
X236002856Y-132300107D01*
X235996730Y-132310002D01*
X235794563Y-132605130D01*
X235787549Y-132614418D01*
X235559013Y-132889634D01*
X235551172Y-132898234D01*
X235298234Y-133151172D01*
X235289634Y-133159013D01*
X235014418Y-133387549D01*
X235005130Y-133394563D01*
X234710002Y-133596730D01*
X234700109Y-133602855D01*
X234602910Y-133656994D01*
X234387601Y-133776921D01*
X234377183Y-133782109D01*
X234049933Y-133926603D01*
X234039081Y-133930807D01*
X233869492Y-133987648D01*
X233699893Y-134044493D01*
X233688711Y-134047674D01*
X233665883Y-134053043D01*
X233340489Y-134129574D01*
X233329050Y-134131713D01*
X232974752Y-134181136D01*
X232963163Y-134182210D01*
X232602903Y-134198866D01*
X232600034Y-134198932D01*
X232600000Y-134198918D01*
X232599962Y-134198934D01*
X232597084Y-134199000D01*
X75602916Y-134199000D01*
X75600038Y-134198934D01*
X75600000Y-134198918D01*
X75599966Y-134198932D01*
X75597097Y-134198866D01*
X75236837Y-134182210D01*
X75225248Y-134181136D01*
X74870950Y-134131713D01*
X74859511Y-134129574D01*
X74534117Y-134053043D01*
X74511289Y-134047674D01*
X74500107Y-134044493D01*
X74330508Y-133987648D01*
X74160919Y-133930807D01*
X74150067Y-133926603D01*
X73822817Y-133782109D01*
X73812399Y-133776921D01*
X73597090Y-133656994D01*
X73499891Y-133602855D01*
X73489998Y-133596730D01*
X73194870Y-133394563D01*
X73185582Y-133387549D01*
X72910366Y-133159013D01*
X72901766Y-133151172D01*
X72648828Y-132898234D01*
X72640987Y-132889634D01*
X72412451Y-132614418D01*
X72405437Y-132605130D01*
X72203270Y-132310002D01*
X72197144Y-132300107D01*
X72023079Y-131987601D01*
X72017891Y-131977183D01*
X71873397Y-131649933D01*
X71869193Y-131639081D01*
X71755510Y-131299902D01*
X71752325Y-131288707D01*
X71670426Y-130940489D01*
X71668287Y-130929050D01*
X71618864Y-130574752D01*
X71617790Y-130563163D01*
X71601134Y-130202903D01*
X71601068Y-130200034D01*
X71601082Y-130200000D01*
X71601066Y-130199962D01*
X71601000Y-130197084D01*
X71601000Y-130136987D01*
X74344879Y-130136987D01*
X74344888Y-130137210D01*
X74345058Y-130141533D01*
X74352034Y-130319082D01*
X74356004Y-130420139D01*
X74406915Y-130698900D01*
X74496595Y-130967705D01*
X74498587Y-130971692D01*
X74498588Y-130971694D01*
X74584167Y-131142964D01*
X74623256Y-131221194D01*
X74784370Y-131454306D01*
X74787392Y-131457575D01*
X74971931Y-131657208D01*
X74976723Y-131662392D01*
X75086600Y-131751846D01*
X75193014Y-131838481D01*
X75193019Y-131838484D01*
X75196476Y-131841299D01*
X75439245Y-131987458D01*
X75443340Y-131989192D01*
X75443342Y-131989193D01*
X75696085Y-132096216D01*
X75696092Y-132096218D01*
X75700186Y-132097952D01*
X75800287Y-132124493D01*
X75969795Y-132169438D01*
X75969799Y-132169439D01*
X75974092Y-132170577D01*
X75978501Y-132171099D01*
X75978507Y-132171100D01*
X76139276Y-132190128D01*
X76255499Y-132203884D01*
X76538792Y-132197208D01*
X76626968Y-132182531D01*
X76813927Y-132151413D01*
X76813931Y-132151412D01*
X76818317Y-132150682D01*
X76822558Y-132149341D01*
X76822561Y-132149340D01*
X77084253Y-132066578D01*
X77084255Y-132066577D01*
X77088499Y-132065235D01*
X77250171Y-131987601D01*
X77339926Y-131944501D01*
X77339927Y-131944500D01*
X77343945Y-131942571D01*
X77360607Y-131931438D01*
X77575858Y-131787613D01*
X77575862Y-131787610D01*
X77579560Y-131785139D01*
X77637407Y-131733326D01*
X77787318Y-131599055D01*
X77787323Y-131599050D01*
X77790641Y-131596078D01*
X77972978Y-131379162D01*
X78122932Y-131138719D01*
X78198537Y-130967705D01*
X78235713Y-130883613D01*
X78237511Y-130879546D01*
X78314430Y-130606814D01*
X78340805Y-130410445D01*
X78351725Y-130329147D01*
X78351726Y-130329140D01*
X78352152Y-130325965D01*
X78352368Y-130319082D01*
X78356010Y-130203222D01*
X78356010Y-130203217D01*
X78356111Y-130200000D01*
X78351649Y-130136987D01*
X229844879Y-130136987D01*
X229844888Y-130137210D01*
X229845058Y-130141533D01*
X229852034Y-130319082D01*
X229856004Y-130420139D01*
X229906915Y-130698900D01*
X229996595Y-130967705D01*
X229998587Y-130971692D01*
X229998588Y-130971694D01*
X230084167Y-131142964D01*
X230123256Y-131221194D01*
X230284370Y-131454306D01*
X230287392Y-131457575D01*
X230471931Y-131657208D01*
X230476723Y-131662392D01*
X230586600Y-131751846D01*
X230693014Y-131838481D01*
X230693019Y-131838484D01*
X230696476Y-131841299D01*
X230939245Y-131987458D01*
X230943340Y-131989192D01*
X230943342Y-131989193D01*
X231196085Y-132096216D01*
X231196092Y-132096218D01*
X231200186Y-132097952D01*
X231300287Y-132124493D01*
X231469795Y-132169438D01*
X231469799Y-132169439D01*
X231474092Y-132170577D01*
X231478501Y-132171099D01*
X231478507Y-132171100D01*
X231639276Y-132190128D01*
X231755499Y-132203884D01*
X232038792Y-132197208D01*
X232126968Y-132182531D01*
X232313927Y-132151413D01*
X232313931Y-132151412D01*
X232318317Y-132150682D01*
X232322558Y-132149341D01*
X232322561Y-132149340D01*
X232584253Y-132066578D01*
X232584255Y-132066577D01*
X232588499Y-132065235D01*
X232750171Y-131987601D01*
X232839926Y-131944501D01*
X232839927Y-131944500D01*
X232843945Y-131942571D01*
X232860607Y-131931438D01*
X233075858Y-131787613D01*
X233075862Y-131787610D01*
X233079560Y-131785139D01*
X233137407Y-131733326D01*
X233287318Y-131599055D01*
X233287323Y-131599050D01*
X233290641Y-131596078D01*
X233472978Y-131379162D01*
X233622932Y-131138719D01*
X233698537Y-130967705D01*
X233735713Y-130883613D01*
X233737511Y-130879546D01*
X233814430Y-130606814D01*
X233840805Y-130410445D01*
X233851725Y-130329147D01*
X233851726Y-130329140D01*
X233852152Y-130325965D01*
X233852368Y-130319082D01*
X233856010Y-130203222D01*
X233856010Y-130203217D01*
X233856111Y-130200000D01*
X233836097Y-129917336D01*
X233824871Y-129865190D01*
X233777392Y-129644660D01*
X233777392Y-129644658D01*
X233776456Y-129640313D01*
X233678376Y-129374457D01*
X233618314Y-129263142D01*
X233545929Y-129128988D01*
X233545929Y-129128987D01*
X233543816Y-129125072D01*
X233375459Y-128897135D01*
X233176665Y-128695194D01*
X233173126Y-128692493D01*
X233173119Y-128692487D01*
X232954946Y-128525983D01*
X232954942Y-128525980D01*
X232951401Y-128523278D01*
X232704161Y-128384816D01*
X232700012Y-128383211D01*
X232700008Y-128383209D01*
X232457447Y-128289370D01*
X232439878Y-128282573D01*
X232163825Y-128218588D01*
X232159393Y-128218204D01*
X232159386Y-128218203D01*
X231925084Y-128197910D01*
X231881511Y-128194136D01*
X231877076Y-128194380D01*
X231877072Y-128194380D01*
X231603011Y-128209463D01*
X231603004Y-128209464D01*
X231598568Y-128209708D01*
X231460640Y-128237143D01*
X231325013Y-128264121D01*
X231325008Y-128264122D01*
X231320641Y-128264991D01*
X231316438Y-128266467D01*
X231057485Y-128357404D01*
X231057482Y-128357405D01*
X231053277Y-128358882D01*
X231049324Y-128360935D01*
X231049318Y-128360938D01*
X230907090Y-128434820D01*
X230801810Y-128489509D01*
X230798195Y-128492092D01*
X230798189Y-128492096D01*
X230738662Y-128534635D01*
X230571257Y-128654265D01*
X230366218Y-128849862D01*
X230190785Y-129072398D01*
X230188553Y-129076240D01*
X230188550Y-129076245D01*
X230050695Y-129313579D01*
X230050692Y-129313585D01*
X230048457Y-129317433D01*
X230026947Y-129370539D01*
X229944536Y-129574003D01*
X229942075Y-129580078D01*
X229941004Y-129584391D01*
X229941002Y-129584396D01*
X229875607Y-129847658D01*
X229873761Y-129855091D01*
X229873307Y-129859519D01*
X229873307Y-129859521D01*
X229845766Y-130128334D01*
X229844879Y-130136987D01*
X78351649Y-130136987D01*
X78336097Y-129917336D01*
X78324871Y-129865190D01*
X78277392Y-129644660D01*
X78277392Y-129644658D01*
X78276456Y-129640313D01*
X78178376Y-129374457D01*
X78118314Y-129263142D01*
X78045929Y-129128988D01*
X78045929Y-129128987D01*
X78043816Y-129125072D01*
X77875459Y-128897135D01*
X77676665Y-128695194D01*
X77673126Y-128692493D01*
X77673119Y-128692487D01*
X77454946Y-128525983D01*
X77454942Y-128525980D01*
X77451401Y-128523278D01*
X77204161Y-128384816D01*
X77200012Y-128383211D01*
X77200008Y-128383209D01*
X76957447Y-128289370D01*
X76939878Y-128282573D01*
X76663825Y-128218588D01*
X76659393Y-128218204D01*
X76659386Y-128218203D01*
X76449215Y-128200000D01*
X83598918Y-128200000D01*
X83599000Y-128200198D01*
X83599235Y-128200765D01*
X83600000Y-128201082D01*
X83600198Y-128201000D01*
X93599802Y-128201000D01*
X93600000Y-128201082D01*
X93600765Y-128200765D01*
X93601000Y-128200198D01*
X93601082Y-128200000D01*
X93601000Y-128199802D01*
X93601000Y-121188561D01*
X96494981Y-121188561D01*
X96494990Y-121188780D01*
X96495162Y-121193163D01*
X96495162Y-121193170D01*
X96505653Y-121460193D01*
X96505828Y-121464639D01*
X96555467Y-121736433D01*
X96556871Y-121740642D01*
X96556873Y-121740649D01*
X96616161Y-121918358D01*
X96642906Y-121998523D01*
X96704912Y-122122617D01*
X96724357Y-122161531D01*
X96766402Y-122245677D01*
X96923491Y-122472965D01*
X96926513Y-122476234D01*
X97108021Y-122672589D01*
X97108026Y-122672594D01*
X97111037Y-122675851D01*
X97325299Y-122850288D01*
X97329117Y-122852587D01*
X97329119Y-122852588D01*
X97479231Y-122942963D01*
X97562002Y-122992795D01*
X97566097Y-122994529D01*
X97566099Y-122994530D01*
X97800818Y-123093920D01*
X97816423Y-123100528D01*
X97820716Y-123101666D01*
X97820721Y-123101668D01*
X97960280Y-123138671D01*
X98083485Y-123171338D01*
X98357861Y-123203813D01*
X98634074Y-123197303D01*
X98638469Y-123196571D01*
X98638474Y-123196571D01*
X98902213Y-123152673D01*
X98902217Y-123152672D01*
X98906615Y-123151940D01*
X99101074Y-123090441D01*
X99165800Y-123069971D01*
X99165802Y-123069970D01*
X99170046Y-123068628D01*
X99419109Y-122949029D01*
X99422815Y-122946553D01*
X99645128Y-122798009D01*
X99645132Y-122798006D01*
X99648836Y-122795531D01*
X99652153Y-122792560D01*
X99652157Y-122792557D01*
X99851326Y-122614166D01*
X99851327Y-122614165D01*
X99854644Y-122611194D01*
X99973916Y-122469303D01*
X100029552Y-122403116D01*
X100029554Y-122403113D01*
X100032424Y-122399699D01*
X100039706Y-122388024D01*
X100176270Y-122169049D01*
X100176271Y-122169047D01*
X100178631Y-122165263D01*
X100290348Y-121912566D01*
X100365344Y-121646649D01*
X100393089Y-121440084D01*
X100401697Y-121375999D01*
X100401698Y-121375991D01*
X100402124Y-121372817D01*
X100405506Y-121265210D01*
X100405883Y-121253222D01*
X100405883Y-121253217D01*
X100405984Y-121250000D01*
X100386470Y-120974399D01*
X100384806Y-120966667D01*
X100329255Y-120708645D01*
X100329255Y-120708643D01*
X100328319Y-120704298D01*
X100241346Y-120468548D01*
X100234231Y-120449261D01*
X100232690Y-120445084D01*
X100101492Y-120201931D01*
X99937342Y-119979690D01*
X99877679Y-119919082D01*
X99842143Y-119882984D01*
X99743515Y-119782795D01*
X99739975Y-119780094D01*
X99739969Y-119780088D01*
X99683493Y-119736987D01*
X105944879Y-119736987D01*
X105944888Y-119737210D01*
X105945058Y-119741533D01*
X105952789Y-119938299D01*
X105956004Y-120020139D01*
X106006915Y-120298900D01*
X106096595Y-120567705D01*
X106098587Y-120571692D01*
X106098588Y-120571694D01*
X106184167Y-120742964D01*
X106223256Y-120821194D01*
X106384370Y-121054306D01*
X106387392Y-121057575D01*
X106571931Y-121257208D01*
X106576723Y-121262392D01*
X106686600Y-121351846D01*
X106793014Y-121438481D01*
X106793019Y-121438484D01*
X106796476Y-121441299D01*
X107039245Y-121587458D01*
X107043340Y-121589192D01*
X107043342Y-121589193D01*
X107296085Y-121696216D01*
X107296092Y-121696218D01*
X107300186Y-121697952D01*
X107400287Y-121724493D01*
X107569795Y-121769438D01*
X107569799Y-121769439D01*
X107574092Y-121770577D01*
X107578501Y-121771099D01*
X107578507Y-121771100D01*
X107739276Y-121790128D01*
X107855499Y-121803884D01*
X108138792Y-121797208D01*
X108226968Y-121782531D01*
X108413927Y-121751413D01*
X108413931Y-121751412D01*
X108418317Y-121750682D01*
X108422558Y-121749341D01*
X108422561Y-121749340D01*
X108684253Y-121666578D01*
X108684255Y-121666577D01*
X108688499Y-121665235D01*
X108846855Y-121589193D01*
X108939926Y-121544501D01*
X108939927Y-121544500D01*
X108943945Y-121542571D01*
X109054030Y-121469015D01*
X109175858Y-121387613D01*
X109175862Y-121387610D01*
X109179560Y-121385139D01*
X109237407Y-121333326D01*
X109387318Y-121199055D01*
X109387323Y-121199050D01*
X109390641Y-121196078D01*
X109442004Y-121134975D01*
X109570113Y-120982570D01*
X109572978Y-120979162D01*
X109722932Y-120738719D01*
X109733435Y-120714963D01*
X109835713Y-120483613D01*
X109837511Y-120479546D01*
X109914430Y-120206814D01*
X109945181Y-119977869D01*
X109951725Y-119929147D01*
X109951726Y-119929140D01*
X109952152Y-119925965D01*
X109956111Y-119800000D01*
X109951649Y-119736987D01*
X116094879Y-119736987D01*
X116094888Y-119737210D01*
X116095058Y-119741533D01*
X116102789Y-119938299D01*
X116106004Y-120020139D01*
X116156915Y-120298900D01*
X116246595Y-120567705D01*
X116248587Y-120571692D01*
X116248588Y-120571694D01*
X116334167Y-120742964D01*
X116373256Y-120821194D01*
X116534370Y-121054306D01*
X116537392Y-121057575D01*
X116721931Y-121257208D01*
X116726723Y-121262392D01*
X116836600Y-121351846D01*
X116943014Y-121438481D01*
X116943019Y-121438484D01*
X116946476Y-121441299D01*
X117189245Y-121587458D01*
X117193340Y-121589192D01*
X117193342Y-121589193D01*
X117446085Y-121696216D01*
X117446092Y-121696218D01*
X117450186Y-121697952D01*
X117550287Y-121724493D01*
X117719795Y-121769438D01*
X117719799Y-121769439D01*
X117724092Y-121770577D01*
X117728501Y-121771099D01*
X117728507Y-121771100D01*
X117889276Y-121790128D01*
X118005499Y-121803884D01*
X118288792Y-121797208D01*
X118376968Y-121782531D01*
X118563927Y-121751413D01*
X118563931Y-121751412D01*
X118568317Y-121750682D01*
X118572558Y-121749341D01*
X118572561Y-121749340D01*
X118834253Y-121666578D01*
X118834255Y-121666577D01*
X118838499Y-121665235D01*
X118996855Y-121589193D01*
X119089926Y-121544501D01*
X119089927Y-121544500D01*
X119093945Y-121542571D01*
X119204030Y-121469015D01*
X119325858Y-121387613D01*
X119325862Y-121387610D01*
X119329560Y-121385139D01*
X119387407Y-121333326D01*
X119537318Y-121199055D01*
X119537323Y-121199050D01*
X119540641Y-121196078D01*
X119546960Y-121188561D01*
X126744981Y-121188561D01*
X126744990Y-121188780D01*
X126745162Y-121193163D01*
X126745162Y-121193170D01*
X126755653Y-121460193D01*
X126755828Y-121464639D01*
X126805467Y-121736433D01*
X126806871Y-121740642D01*
X126806873Y-121740649D01*
X126866161Y-121918358D01*
X126892906Y-121998523D01*
X126954912Y-122122617D01*
X126974357Y-122161531D01*
X127016402Y-122245677D01*
X127173491Y-122472965D01*
X127176513Y-122476234D01*
X127358021Y-122672589D01*
X127358026Y-122672594D01*
X127361037Y-122675851D01*
X127575299Y-122850288D01*
X127579117Y-122852587D01*
X127579119Y-122852588D01*
X127729231Y-122942963D01*
X127812002Y-122992795D01*
X127816097Y-122994529D01*
X127816099Y-122994530D01*
X128050818Y-123093920D01*
X128066423Y-123100528D01*
X128070716Y-123101666D01*
X128070721Y-123101668D01*
X128210280Y-123138671D01*
X128333485Y-123171338D01*
X128607861Y-123203813D01*
X128884074Y-123197303D01*
X128888469Y-123196571D01*
X128888474Y-123196571D01*
X129152213Y-123152673D01*
X129152217Y-123152672D01*
X129156615Y-123151940D01*
X129351074Y-123090441D01*
X129415800Y-123069971D01*
X129415802Y-123069970D01*
X129420046Y-123068628D01*
X129669109Y-122949029D01*
X129672815Y-122946553D01*
X129895128Y-122798009D01*
X129895132Y-122798006D01*
X129898836Y-122795531D01*
X129902153Y-122792560D01*
X129902157Y-122792557D01*
X130101326Y-122614166D01*
X130101327Y-122614165D01*
X130104644Y-122611194D01*
X130223916Y-122469303D01*
X130279552Y-122403116D01*
X130279554Y-122403113D01*
X130282424Y-122399699D01*
X130289706Y-122388024D01*
X130426270Y-122169049D01*
X130426271Y-122169047D01*
X130428631Y-122165263D01*
X130540348Y-121912566D01*
X130615344Y-121646649D01*
X130643089Y-121440084D01*
X130651697Y-121375999D01*
X130651698Y-121375991D01*
X130652124Y-121372817D01*
X130655506Y-121265210D01*
X130655883Y-121253222D01*
X130655883Y-121253217D01*
X130655984Y-121250000D01*
X130651634Y-121188561D01*
X132334981Y-121188561D01*
X132334990Y-121188780D01*
X132335162Y-121193163D01*
X132335162Y-121193170D01*
X132345653Y-121460193D01*
X132345828Y-121464639D01*
X132395467Y-121736433D01*
X132396871Y-121740642D01*
X132396873Y-121740649D01*
X132456161Y-121918358D01*
X132482906Y-121998523D01*
X132544912Y-122122617D01*
X132564357Y-122161531D01*
X132606402Y-122245677D01*
X132763491Y-122472965D01*
X132766513Y-122476234D01*
X132948021Y-122672589D01*
X132948026Y-122672594D01*
X132951037Y-122675851D01*
X133165299Y-122850288D01*
X133169117Y-122852587D01*
X133169119Y-122852588D01*
X133319231Y-122942963D01*
X133402002Y-122992795D01*
X133406097Y-122994529D01*
X133406099Y-122994530D01*
X133640818Y-123093920D01*
X133656423Y-123100528D01*
X133660716Y-123101666D01*
X133660721Y-123101668D01*
X133800280Y-123138671D01*
X133923485Y-123171338D01*
X134197861Y-123203813D01*
X134474074Y-123197303D01*
X134478469Y-123196571D01*
X134478474Y-123196571D01*
X134742213Y-123152673D01*
X134742217Y-123152672D01*
X134746615Y-123151940D01*
X134941074Y-123090441D01*
X135005800Y-123069971D01*
X135005802Y-123069970D01*
X135010046Y-123068628D01*
X135259109Y-122949029D01*
X135262815Y-122946553D01*
X135485128Y-122798009D01*
X135485132Y-122798006D01*
X135488836Y-122795531D01*
X135492153Y-122792560D01*
X135492157Y-122792557D01*
X135691326Y-122614166D01*
X135691327Y-122614165D01*
X135694644Y-122611194D01*
X135813916Y-122469303D01*
X135869552Y-122403116D01*
X135869554Y-122403113D01*
X135872424Y-122399699D01*
X135879706Y-122388024D01*
X136016270Y-122169049D01*
X136016271Y-122169047D01*
X136018631Y-122165263D01*
X136130348Y-121912566D01*
X136205344Y-121646649D01*
X136233089Y-121440084D01*
X136241697Y-121375999D01*
X136241698Y-121375991D01*
X136242124Y-121372817D01*
X136245506Y-121265210D01*
X136245883Y-121253222D01*
X136245883Y-121253217D01*
X136245984Y-121250000D01*
X136241634Y-121188561D01*
X137924981Y-121188561D01*
X137924990Y-121188780D01*
X137925162Y-121193163D01*
X137925162Y-121193170D01*
X137935653Y-121460193D01*
X137935828Y-121464639D01*
X137985467Y-121736433D01*
X137986871Y-121740642D01*
X137986873Y-121740649D01*
X138046161Y-121918358D01*
X138072906Y-121998523D01*
X138134912Y-122122617D01*
X138154357Y-122161531D01*
X138196402Y-122245677D01*
X138353491Y-122472965D01*
X138356513Y-122476234D01*
X138538021Y-122672589D01*
X138538026Y-122672594D01*
X138541037Y-122675851D01*
X138755299Y-122850288D01*
X138759117Y-122852587D01*
X138759119Y-122852588D01*
X138909231Y-122942963D01*
X138992002Y-122992795D01*
X138996097Y-122994529D01*
X138996099Y-122994530D01*
X139230818Y-123093920D01*
X139246423Y-123100528D01*
X139250716Y-123101666D01*
X139250721Y-123101668D01*
X139390280Y-123138671D01*
X139513485Y-123171338D01*
X139787861Y-123203813D01*
X140064074Y-123197303D01*
X140068469Y-123196571D01*
X140068474Y-123196571D01*
X140332213Y-123152673D01*
X140332217Y-123152672D01*
X140336615Y-123151940D01*
X140531074Y-123090441D01*
X140595800Y-123069971D01*
X140595802Y-123069970D01*
X140600046Y-123068628D01*
X140849109Y-122949029D01*
X140852815Y-122946553D01*
X141075128Y-122798009D01*
X141075132Y-122798006D01*
X141078836Y-122795531D01*
X141082153Y-122792560D01*
X141082157Y-122792557D01*
X141281326Y-122614166D01*
X141281327Y-122614165D01*
X141284644Y-122611194D01*
X141403916Y-122469303D01*
X141459552Y-122403116D01*
X141459554Y-122403113D01*
X141462424Y-122399699D01*
X141469706Y-122388024D01*
X141606270Y-122169049D01*
X141606271Y-122169047D01*
X141608631Y-122165263D01*
X141720348Y-121912566D01*
X141795344Y-121646649D01*
X141823089Y-121440084D01*
X141831697Y-121375999D01*
X141831698Y-121375991D01*
X141832124Y-121372817D01*
X141835506Y-121265210D01*
X141835883Y-121253222D01*
X141835883Y-121253217D01*
X141835984Y-121250000D01*
X141831634Y-121188561D01*
X143514981Y-121188561D01*
X143514990Y-121188780D01*
X143515162Y-121193163D01*
X143515162Y-121193170D01*
X143525653Y-121460193D01*
X143525828Y-121464639D01*
X143575467Y-121736433D01*
X143576871Y-121740642D01*
X143576873Y-121740649D01*
X143636161Y-121918358D01*
X143662906Y-121998523D01*
X143724912Y-122122617D01*
X143744357Y-122161531D01*
X143786402Y-122245677D01*
X143943491Y-122472965D01*
X143946513Y-122476234D01*
X144128021Y-122672589D01*
X144128026Y-122672594D01*
X144131037Y-122675851D01*
X144345299Y-122850288D01*
X144349117Y-122852587D01*
X144349119Y-122852588D01*
X144499231Y-122942963D01*
X144582002Y-122992795D01*
X144586097Y-122994529D01*
X144586099Y-122994530D01*
X144820818Y-123093920D01*
X144836423Y-123100528D01*
X144840716Y-123101666D01*
X144840721Y-123101668D01*
X144980280Y-123138671D01*
X145103485Y-123171338D01*
X145377861Y-123203813D01*
X145654074Y-123197303D01*
X145658469Y-123196571D01*
X145658474Y-123196571D01*
X145922213Y-123152673D01*
X145922217Y-123152672D01*
X145926615Y-123151940D01*
X146121074Y-123090441D01*
X146185800Y-123069971D01*
X146185802Y-123069970D01*
X146190046Y-123068628D01*
X146439109Y-122949029D01*
X146442815Y-122946553D01*
X146665128Y-122798009D01*
X146665132Y-122798006D01*
X146668836Y-122795531D01*
X146672153Y-122792560D01*
X146672157Y-122792557D01*
X146871326Y-122614166D01*
X146871327Y-122614165D01*
X146874644Y-122611194D01*
X146993916Y-122469303D01*
X147049552Y-122403116D01*
X147049554Y-122403113D01*
X147052424Y-122399699D01*
X147059706Y-122388024D01*
X147196270Y-122169049D01*
X147196271Y-122169047D01*
X147198631Y-122165263D01*
X147310348Y-121912566D01*
X147385344Y-121646649D01*
X147413089Y-121440084D01*
X147421697Y-121375999D01*
X147421698Y-121375991D01*
X147422124Y-121372817D01*
X147425506Y-121265210D01*
X147425883Y-121253222D01*
X147425883Y-121253217D01*
X147425984Y-121250000D01*
X147421634Y-121188561D01*
X149104981Y-121188561D01*
X149104990Y-121188780D01*
X149105162Y-121193163D01*
X149105162Y-121193170D01*
X149115653Y-121460193D01*
X149115828Y-121464639D01*
X149165467Y-121736433D01*
X149166871Y-121740642D01*
X149166873Y-121740649D01*
X149226161Y-121918358D01*
X149252906Y-121998523D01*
X149314912Y-122122617D01*
X149334357Y-122161531D01*
X149376402Y-122245677D01*
X149533491Y-122472965D01*
X149536513Y-122476234D01*
X149718021Y-122672589D01*
X149718026Y-122672594D01*
X149721037Y-122675851D01*
X149935299Y-122850288D01*
X149939117Y-122852587D01*
X149939119Y-122852588D01*
X150089231Y-122942963D01*
X150172002Y-122992795D01*
X150176097Y-122994529D01*
X150176099Y-122994530D01*
X150410818Y-123093920D01*
X150426423Y-123100528D01*
X150430716Y-123101666D01*
X150430721Y-123101668D01*
X150570280Y-123138671D01*
X150693485Y-123171338D01*
X150967861Y-123203813D01*
X151129643Y-123200000D01*
X157874101Y-123200000D01*
X157893691Y-123723552D01*
X157952351Y-124244175D01*
X157992775Y-124457817D01*
X158048586Y-124752784D01*
X158049754Y-124758959D01*
X158185353Y-125265025D01*
X158186135Y-125267258D01*
X158186135Y-125267260D01*
X158207160Y-125327344D01*
X158358393Y-125759542D01*
X158567903Y-126239746D01*
X158569010Y-126241840D01*
X158811612Y-126700866D01*
X158811619Y-126700878D01*
X158812714Y-126702950D01*
X159091455Y-127146563D01*
X159402568Y-127568107D01*
X159744313Y-127965222D01*
X160114779Y-128335687D01*
X160511893Y-128677432D01*
X160743670Y-128848491D01*
X160929111Y-128985352D01*
X160933437Y-128988545D01*
X161377051Y-129267287D01*
X161379459Y-129263115D01*
X161379661Y-129263142D01*
X161379802Y-129263200D01*
X161380105Y-129263200D01*
X161380280Y-129263223D01*
X161380310Y-129263200D01*
X161381359Y-129263200D01*
X161384937Y-129264211D01*
X161391725Y-129263200D01*
X168376669Y-129263200D01*
X168380819Y-129263596D01*
X168382949Y-129267287D01*
X168398290Y-129257648D01*
X168824566Y-128989800D01*
X168824570Y-128989797D01*
X168826563Y-128988545D01*
X168830890Y-128985352D01*
X169016330Y-128848491D01*
X169248107Y-128677432D01*
X169645221Y-128335687D01*
X170015687Y-127965222D01*
X170357432Y-127568107D01*
X170668545Y-127146563D01*
X170947286Y-126702950D01*
X170948381Y-126700878D01*
X170948388Y-126700866D01*
X171190990Y-126241840D01*
X171192097Y-126239746D01*
X171401607Y-125759542D01*
X171552840Y-125327344D01*
X171573865Y-125267260D01*
X171573865Y-125267258D01*
X171574647Y-125265025D01*
X171710246Y-124758959D01*
X171711415Y-124752784D01*
X171767225Y-124457817D01*
X171807649Y-124244175D01*
X171866309Y-123723552D01*
X171885899Y-123200000D01*
X176174101Y-123200000D01*
X176193691Y-123723552D01*
X176252351Y-124244175D01*
X176292775Y-124457817D01*
X176348586Y-124752784D01*
X176349754Y-124758959D01*
X176485353Y-125265025D01*
X176486135Y-125267258D01*
X176486135Y-125267260D01*
X176507160Y-125327344D01*
X176658393Y-125759542D01*
X176867903Y-126239746D01*
X176869010Y-126241840D01*
X177111612Y-126700866D01*
X177111619Y-126700878D01*
X177112714Y-126702950D01*
X177391455Y-127146563D01*
X177702568Y-127568107D01*
X178044313Y-127965222D01*
X178414779Y-128335687D01*
X178811893Y-128677432D01*
X179043670Y-128848491D01*
X179229111Y-128985352D01*
X179233437Y-128988545D01*
X179677051Y-129267287D01*
X179679459Y-129263115D01*
X179679661Y-129263142D01*
X179679802Y-129263200D01*
X179680105Y-129263200D01*
X179680280Y-129263223D01*
X179680310Y-129263200D01*
X179681359Y-129263200D01*
X179684937Y-129264211D01*
X179691725Y-129263200D01*
X186676669Y-129263200D01*
X186680819Y-129263596D01*
X186682949Y-129267287D01*
X186698290Y-129257648D01*
X187124566Y-128989800D01*
X187124570Y-128989797D01*
X187126563Y-128988545D01*
X187130890Y-128985352D01*
X187316330Y-128848491D01*
X187548107Y-128677432D01*
X187945221Y-128335687D01*
X188315687Y-127965222D01*
X188657432Y-127568107D01*
X188968545Y-127146563D01*
X189247286Y-126702950D01*
X189248381Y-126700878D01*
X189248388Y-126700866D01*
X189490990Y-126241840D01*
X189492097Y-126239746D01*
X189701607Y-125759542D01*
X189852840Y-125327344D01*
X189873865Y-125267260D01*
X189873865Y-125267258D01*
X189874647Y-125265025D01*
X190010246Y-124758959D01*
X190011415Y-124752784D01*
X190067225Y-124457817D01*
X190107649Y-124244175D01*
X190166309Y-123723552D01*
X190185899Y-123200000D01*
X194474101Y-123200000D01*
X194493691Y-123723552D01*
X194552351Y-124244175D01*
X194592775Y-124457817D01*
X194648586Y-124752784D01*
X194649754Y-124758959D01*
X194785353Y-125265025D01*
X194786135Y-125267258D01*
X194786135Y-125267260D01*
X194807160Y-125327344D01*
X194958393Y-125759542D01*
X195167903Y-126239746D01*
X195169010Y-126241840D01*
X195411612Y-126700866D01*
X195411619Y-126700878D01*
X195412714Y-126702950D01*
X195691455Y-127146563D01*
X196002568Y-127568107D01*
X196344313Y-127965222D01*
X196714779Y-128335687D01*
X197111893Y-128677432D01*
X197343670Y-128848491D01*
X197529111Y-128985352D01*
X197533437Y-128988545D01*
X197977051Y-129267287D01*
X197979459Y-129263115D01*
X197979661Y-129263142D01*
X197979802Y-129263200D01*
X197980105Y-129263200D01*
X197980280Y-129263223D01*
X197980310Y-129263200D01*
X197981359Y-129263200D01*
X197984937Y-129264211D01*
X197991725Y-129263200D01*
X204976669Y-129263200D01*
X204980819Y-129263596D01*
X204982949Y-129267287D01*
X204998290Y-129257648D01*
X205424566Y-128989800D01*
X205424570Y-128989797D01*
X205426563Y-128988545D01*
X205430890Y-128985352D01*
X205616330Y-128848491D01*
X205848107Y-128677432D01*
X206245221Y-128335687D01*
X206615687Y-127965222D01*
X206957432Y-127568107D01*
X207268545Y-127146563D01*
X207547286Y-126702950D01*
X207548381Y-126700878D01*
X207548388Y-126700866D01*
X207790990Y-126241840D01*
X207792097Y-126239746D01*
X208001607Y-125759542D01*
X208152840Y-125327344D01*
X208173865Y-125267260D01*
X208173865Y-125267258D01*
X208174647Y-125265025D01*
X208310246Y-124758959D01*
X208311415Y-124752784D01*
X208367225Y-124457817D01*
X208407649Y-124244175D01*
X208466309Y-123723552D01*
X208485899Y-123200000D01*
X212774101Y-123200000D01*
X212793691Y-123723552D01*
X212852351Y-124244175D01*
X212892775Y-124457817D01*
X212948586Y-124752784D01*
X212949754Y-124758959D01*
X213085353Y-125265025D01*
X213086135Y-125267258D01*
X213086135Y-125267260D01*
X213107160Y-125327344D01*
X213258393Y-125759542D01*
X213467903Y-126239746D01*
X213469010Y-126241840D01*
X213711612Y-126700866D01*
X213711619Y-126700878D01*
X213712714Y-126702950D01*
X213991455Y-127146563D01*
X214302568Y-127568107D01*
X214644313Y-127965222D01*
X215014779Y-128335687D01*
X215411893Y-128677432D01*
X215643670Y-128848491D01*
X215829111Y-128985352D01*
X215833437Y-128988545D01*
X216277051Y-129267287D01*
X216279459Y-129263115D01*
X216279661Y-129263142D01*
X216279802Y-129263200D01*
X216280105Y-129263200D01*
X216280280Y-129263223D01*
X216280310Y-129263200D01*
X216281359Y-129263200D01*
X216284937Y-129264211D01*
X216291725Y-129263200D01*
X223276669Y-129263200D01*
X223280819Y-129263596D01*
X223282949Y-129267287D01*
X223298290Y-129257648D01*
X223724566Y-128989800D01*
X223724570Y-128989797D01*
X223726563Y-128988545D01*
X223730890Y-128985352D01*
X223916330Y-128848491D01*
X224148107Y-128677432D01*
X224545221Y-128335687D01*
X224915687Y-127965222D01*
X225257432Y-127568107D01*
X225568545Y-127146563D01*
X225847286Y-126702950D01*
X225848381Y-126700878D01*
X225848388Y-126700866D01*
X226090990Y-126241840D01*
X226092097Y-126239746D01*
X226301607Y-125759542D01*
X226452840Y-125327344D01*
X226473865Y-125267260D01*
X226473865Y-125267258D01*
X226474647Y-125265025D01*
X226610246Y-124758959D01*
X226611415Y-124752784D01*
X226667225Y-124457817D01*
X226707649Y-124244175D01*
X226766309Y-123723552D01*
X226785899Y-123200000D01*
X226766309Y-122676449D01*
X226734664Y-122395593D01*
X226707914Y-122158174D01*
X226707913Y-122158165D01*
X226707649Y-122155825D01*
X226640959Y-121803361D01*
X226610686Y-121643364D01*
X226610683Y-121643352D01*
X226610246Y-121641041D01*
X226505468Y-121250000D01*
X226475258Y-121137254D01*
X226475255Y-121137245D01*
X226474647Y-121134975D01*
X226301607Y-120640458D01*
X226147986Y-120288353D01*
X226093037Y-120162408D01*
X226093035Y-120162403D01*
X226092097Y-120160254D01*
X225847287Y-119697051D01*
X225794474Y-119612999D01*
X225569800Y-119255434D01*
X225569797Y-119255430D01*
X225568545Y-119253437D01*
X225562068Y-119244660D01*
X225472974Y-119123942D01*
X225257432Y-118831893D01*
X224915687Y-118434779D01*
X224545222Y-118064313D01*
X224148107Y-117722568D01*
X223856058Y-117507026D01*
X223728463Y-117412857D01*
X223728458Y-117412854D01*
X223726563Y-117411455D01*
X223296459Y-117141201D01*
X223284935Y-117133960D01*
X223284930Y-117133957D01*
X223282950Y-117132713D01*
X222819746Y-116887903D01*
X222817597Y-116886965D01*
X222817592Y-116886963D01*
X222350688Y-116683256D01*
X222339542Y-116678393D01*
X221845025Y-116505353D01*
X221842755Y-116504745D01*
X221842746Y-116504742D01*
X221493657Y-116411205D01*
X221338959Y-116369754D01*
X221336648Y-116369317D01*
X221336636Y-116369314D01*
X221037817Y-116312775D01*
X220824175Y-116272351D01*
X220821835Y-116272087D01*
X220821826Y-116272086D01*
X220518914Y-116237957D01*
X220303551Y-116213691D01*
X219780000Y-116194101D01*
X219256449Y-116213691D01*
X219041086Y-116237957D01*
X218738174Y-116272086D01*
X218738165Y-116272087D01*
X218735825Y-116272351D01*
X218522183Y-116312775D01*
X218223364Y-116369314D01*
X218223352Y-116369317D01*
X218221041Y-116369754D01*
X218066343Y-116411205D01*
X217717254Y-116504742D01*
X217717245Y-116504745D01*
X217714975Y-116505353D01*
X217220458Y-116678393D01*
X217209312Y-116683256D01*
X216742408Y-116886963D01*
X216742403Y-116886965D01*
X216740254Y-116887903D01*
X216277050Y-117132713D01*
X216275070Y-117133957D01*
X216275065Y-117133960D01*
X216263541Y-117141201D01*
X215833437Y-117411455D01*
X215831542Y-117412854D01*
X215831537Y-117412857D01*
X215703942Y-117507026D01*
X215411893Y-117722568D01*
X215014778Y-118064313D01*
X214644313Y-118434779D01*
X214302568Y-118831893D01*
X214087026Y-119123942D01*
X213997933Y-119244660D01*
X213991455Y-119253437D01*
X213990203Y-119255430D01*
X213990200Y-119255434D01*
X213765527Y-119612999D01*
X213712713Y-119697051D01*
X213467903Y-120160254D01*
X213466965Y-120162403D01*
X213466963Y-120162408D01*
X213412014Y-120288353D01*
X213258393Y-120640458D01*
X213085353Y-121134975D01*
X213084745Y-121137245D01*
X213084742Y-121137254D01*
X213054532Y-121250000D01*
X212949754Y-121641041D01*
X212949317Y-121643352D01*
X212949314Y-121643364D01*
X212919041Y-121803361D01*
X212852351Y-122155825D01*
X212852087Y-122158165D01*
X212852086Y-122158174D01*
X212825336Y-122395593D01*
X212793691Y-122676449D01*
X212774101Y-123200000D01*
X208485899Y-123200000D01*
X208466309Y-122676449D01*
X208434664Y-122395593D01*
X208407914Y-122158174D01*
X208407913Y-122158165D01*
X208407649Y-122155825D01*
X208340959Y-121803361D01*
X208310686Y-121643364D01*
X208310683Y-121643352D01*
X208310246Y-121641041D01*
X208205468Y-121250000D01*
X208175258Y-121137254D01*
X208175255Y-121137245D01*
X208174647Y-121134975D01*
X208001607Y-120640458D01*
X207847986Y-120288353D01*
X207793037Y-120162408D01*
X207793035Y-120162403D01*
X207792097Y-120160254D01*
X207547287Y-119697051D01*
X207494474Y-119612999D01*
X207269800Y-119255434D01*
X207269797Y-119255430D01*
X207268545Y-119253437D01*
X207262068Y-119244660D01*
X207172974Y-119123942D01*
X206957432Y-118831893D01*
X206615687Y-118434779D01*
X206245222Y-118064313D01*
X205848107Y-117722568D01*
X205556058Y-117507026D01*
X205428463Y-117412857D01*
X205428458Y-117412854D01*
X205426563Y-117411455D01*
X204996459Y-117141201D01*
X204984935Y-117133960D01*
X204984930Y-117133957D01*
X204982950Y-117132713D01*
X204519746Y-116887903D01*
X204517597Y-116886965D01*
X204517592Y-116886963D01*
X204050688Y-116683256D01*
X204039542Y-116678393D01*
X203545025Y-116505353D01*
X203542755Y-116504745D01*
X203542746Y-116504742D01*
X203193657Y-116411205D01*
X203038959Y-116369754D01*
X203036648Y-116369317D01*
X203036636Y-116369314D01*
X202737817Y-116312775D01*
X202524175Y-116272351D01*
X202521835Y-116272087D01*
X202521826Y-116272086D01*
X202218914Y-116237957D01*
X202003551Y-116213691D01*
X201480000Y-116194101D01*
X200956449Y-116213691D01*
X200741086Y-116237957D01*
X200438174Y-116272086D01*
X200438165Y-116272087D01*
X200435825Y-116272351D01*
X200222183Y-116312775D01*
X199923364Y-116369314D01*
X199923352Y-116369317D01*
X199921041Y-116369754D01*
X199766343Y-116411205D01*
X199417254Y-116504742D01*
X199417245Y-116504745D01*
X199414975Y-116505353D01*
X198920458Y-116678393D01*
X198909312Y-116683256D01*
X198442408Y-116886963D01*
X198442403Y-116886965D01*
X198440254Y-116887903D01*
X197977050Y-117132713D01*
X197975070Y-117133957D01*
X197975065Y-117133960D01*
X197963541Y-117141201D01*
X197533437Y-117411455D01*
X197531542Y-117412854D01*
X197531537Y-117412857D01*
X197403942Y-117507026D01*
X197111893Y-117722568D01*
X196714778Y-118064313D01*
X196344313Y-118434779D01*
X196002568Y-118831893D01*
X195787026Y-119123942D01*
X195697933Y-119244660D01*
X195691455Y-119253437D01*
X195690203Y-119255430D01*
X195690200Y-119255434D01*
X195465527Y-119612999D01*
X195412713Y-119697051D01*
X195167903Y-120160254D01*
X195166965Y-120162403D01*
X195166963Y-120162408D01*
X195112014Y-120288353D01*
X194958393Y-120640458D01*
X194785353Y-121134975D01*
X194784745Y-121137245D01*
X194784742Y-121137254D01*
X194754532Y-121250000D01*
X194649754Y-121641041D01*
X194649317Y-121643352D01*
X194649314Y-121643364D01*
X194619041Y-121803361D01*
X194552351Y-122155825D01*
X194552087Y-122158165D01*
X194552086Y-122158174D01*
X194525336Y-122395593D01*
X194493691Y-122676449D01*
X194474101Y-123200000D01*
X190185899Y-123200000D01*
X190166309Y-122676449D01*
X190134664Y-122395593D01*
X190107914Y-122158174D01*
X190107913Y-122158165D01*
X190107649Y-122155825D01*
X190040959Y-121803361D01*
X190010686Y-121643364D01*
X190010683Y-121643352D01*
X190010246Y-121641041D01*
X189905468Y-121250000D01*
X189875258Y-121137254D01*
X189875255Y-121137245D01*
X189874647Y-121134975D01*
X189701607Y-120640458D01*
X189547986Y-120288353D01*
X189493037Y-120162408D01*
X189493035Y-120162403D01*
X189492097Y-120160254D01*
X189247287Y-119697051D01*
X189194474Y-119612999D01*
X188969800Y-119255434D01*
X188969797Y-119255430D01*
X188968545Y-119253437D01*
X188962068Y-119244660D01*
X188872974Y-119123942D01*
X188657432Y-118831893D01*
X188315687Y-118434779D01*
X187945222Y-118064313D01*
X187548107Y-117722568D01*
X187256058Y-117507026D01*
X187128463Y-117412857D01*
X187128458Y-117412854D01*
X187126563Y-117411455D01*
X186696459Y-117141201D01*
X186684935Y-117133960D01*
X186684930Y-117133957D01*
X186682950Y-117132713D01*
X186219746Y-116887903D01*
X186217597Y-116886965D01*
X186217592Y-116886963D01*
X185750688Y-116683256D01*
X185739542Y-116678393D01*
X185245025Y-116505353D01*
X185242755Y-116504745D01*
X185242746Y-116504742D01*
X184893657Y-116411205D01*
X184738959Y-116369754D01*
X184736648Y-116369317D01*
X184736636Y-116369314D01*
X184437817Y-116312775D01*
X184224175Y-116272351D01*
X184221835Y-116272087D01*
X184221826Y-116272086D01*
X183918914Y-116237957D01*
X183703551Y-116213691D01*
X183180000Y-116194101D01*
X182656449Y-116213691D01*
X182441086Y-116237957D01*
X182138174Y-116272086D01*
X182138165Y-116272087D01*
X182135825Y-116272351D01*
X181922183Y-116312775D01*
X181623364Y-116369314D01*
X181623352Y-116369317D01*
X181621041Y-116369754D01*
X181466343Y-116411205D01*
X181117254Y-116504742D01*
X181117245Y-116504745D01*
X181114975Y-116505353D01*
X180620458Y-116678393D01*
X180609312Y-116683256D01*
X180142408Y-116886963D01*
X180142403Y-116886965D01*
X180140254Y-116887903D01*
X179677050Y-117132713D01*
X179675070Y-117133957D01*
X179675065Y-117133960D01*
X179663541Y-117141201D01*
X179233437Y-117411455D01*
X179231542Y-117412854D01*
X179231537Y-117412857D01*
X179103942Y-117507026D01*
X178811893Y-117722568D01*
X178414778Y-118064313D01*
X178044313Y-118434779D01*
X177702568Y-118831893D01*
X177487026Y-119123942D01*
X177397933Y-119244660D01*
X177391455Y-119253437D01*
X177390203Y-119255430D01*
X177390200Y-119255434D01*
X177165527Y-119612999D01*
X177112713Y-119697051D01*
X176867903Y-120160254D01*
X176866965Y-120162403D01*
X176866963Y-120162408D01*
X176812014Y-120288353D01*
X176658393Y-120640458D01*
X176485353Y-121134975D01*
X176484745Y-121137245D01*
X176484742Y-121137254D01*
X176454532Y-121250000D01*
X176349754Y-121641041D01*
X176349317Y-121643352D01*
X176349314Y-121643364D01*
X176319041Y-121803361D01*
X176252351Y-122155825D01*
X176252087Y-122158165D01*
X176252086Y-122158174D01*
X176225336Y-122395593D01*
X176193691Y-122676449D01*
X176174101Y-123200000D01*
X171885899Y-123200000D01*
X171866309Y-122676449D01*
X171834664Y-122395593D01*
X171807914Y-122158174D01*
X171807913Y-122158165D01*
X171807649Y-122155825D01*
X171740959Y-121803361D01*
X171710686Y-121643364D01*
X171710683Y-121643352D01*
X171710246Y-121641041D01*
X171605468Y-121250000D01*
X171575258Y-121137254D01*
X171575255Y-121137245D01*
X171574647Y-121134975D01*
X171401607Y-120640458D01*
X171247986Y-120288353D01*
X171193037Y-120162408D01*
X171193035Y-120162403D01*
X171192097Y-120160254D01*
X170947287Y-119697051D01*
X170894474Y-119612999D01*
X170669800Y-119255434D01*
X170669797Y-119255430D01*
X170668545Y-119253437D01*
X170662068Y-119244660D01*
X170572974Y-119123942D01*
X170357432Y-118831893D01*
X170015687Y-118434779D01*
X169645222Y-118064313D01*
X169248107Y-117722568D01*
X168956058Y-117507026D01*
X168828463Y-117412857D01*
X168828458Y-117412854D01*
X168826563Y-117411455D01*
X168396459Y-117141201D01*
X168384935Y-117133960D01*
X168384930Y-117133957D01*
X168382950Y-117132713D01*
X167919746Y-116887903D01*
X167917597Y-116886965D01*
X167917592Y-116886963D01*
X167450688Y-116683256D01*
X167439542Y-116678393D01*
X166945025Y-116505353D01*
X166942755Y-116504745D01*
X166942746Y-116504742D01*
X166593657Y-116411205D01*
X166438959Y-116369754D01*
X166436648Y-116369317D01*
X166436636Y-116369314D01*
X166137817Y-116312775D01*
X165924175Y-116272351D01*
X165921835Y-116272087D01*
X165921826Y-116272086D01*
X165618914Y-116237957D01*
X165403551Y-116213691D01*
X164880000Y-116194101D01*
X164356449Y-116213691D01*
X164141086Y-116237957D01*
X163838174Y-116272086D01*
X163838165Y-116272087D01*
X163835825Y-116272351D01*
X163622183Y-116312775D01*
X163323364Y-116369314D01*
X163323352Y-116369317D01*
X163321041Y-116369754D01*
X163166343Y-116411205D01*
X162817254Y-116504742D01*
X162817245Y-116504745D01*
X162814975Y-116505353D01*
X162320458Y-116678393D01*
X162309312Y-116683256D01*
X161842408Y-116886963D01*
X161842403Y-116886965D01*
X161840254Y-116887903D01*
X161377050Y-117132713D01*
X161375070Y-117133957D01*
X161375065Y-117133960D01*
X161363541Y-117141201D01*
X160933437Y-117411455D01*
X160931542Y-117412854D01*
X160931537Y-117412857D01*
X160803942Y-117507026D01*
X160511893Y-117722568D01*
X160114778Y-118064313D01*
X159744313Y-118434779D01*
X159402568Y-118831893D01*
X159187026Y-119123942D01*
X159097933Y-119244660D01*
X159091455Y-119253437D01*
X159090203Y-119255430D01*
X159090200Y-119255434D01*
X158865527Y-119612999D01*
X158812713Y-119697051D01*
X158567903Y-120160254D01*
X158566965Y-120162403D01*
X158566963Y-120162408D01*
X158512014Y-120288353D01*
X158358393Y-120640458D01*
X158185353Y-121134975D01*
X158184745Y-121137245D01*
X158184742Y-121137254D01*
X158154532Y-121250000D01*
X158049754Y-121641041D01*
X158049317Y-121643352D01*
X158049314Y-121643364D01*
X158019041Y-121803361D01*
X157952351Y-122155825D01*
X157952087Y-122158165D01*
X157952086Y-122158174D01*
X157925336Y-122395593D01*
X157893691Y-122676449D01*
X157874101Y-123200000D01*
X151129643Y-123200000D01*
X151244074Y-123197303D01*
X151248469Y-123196571D01*
X151248474Y-123196571D01*
X151512213Y-123152673D01*
X151512217Y-123152672D01*
X151516615Y-123151940D01*
X151711074Y-123090441D01*
X151775800Y-123069971D01*
X151775802Y-123069970D01*
X151780046Y-123068628D01*
X152029109Y-122949029D01*
X152032815Y-122946553D01*
X152255128Y-122798009D01*
X152255132Y-122798006D01*
X152258836Y-122795531D01*
X152262153Y-122792560D01*
X152262157Y-122792557D01*
X152461326Y-122614166D01*
X152461327Y-122614165D01*
X152464644Y-122611194D01*
X152583916Y-122469303D01*
X152639552Y-122403116D01*
X152639554Y-122403113D01*
X152642424Y-122399699D01*
X152649706Y-122388024D01*
X152786270Y-122169049D01*
X152786271Y-122169047D01*
X152788631Y-122165263D01*
X152900348Y-121912566D01*
X152975344Y-121646649D01*
X153003089Y-121440084D01*
X153011697Y-121375999D01*
X153011698Y-121375991D01*
X153012124Y-121372817D01*
X153015506Y-121265210D01*
X153015883Y-121253222D01*
X153015883Y-121253217D01*
X153015984Y-121250000D01*
X152996470Y-120974399D01*
X152994806Y-120966667D01*
X152939255Y-120708645D01*
X152939255Y-120708643D01*
X152938319Y-120704298D01*
X152851346Y-120468548D01*
X152844231Y-120449261D01*
X152842690Y-120445084D01*
X152711492Y-120201931D01*
X152547342Y-119979690D01*
X152487679Y-119919082D01*
X152452143Y-119882984D01*
X152353515Y-119782795D01*
X152349975Y-119780094D01*
X152349969Y-119780088D01*
X152137421Y-119617876D01*
X152137417Y-119617873D01*
X152133880Y-119615174D01*
X152071424Y-119580197D01*
X151896707Y-119482351D01*
X151896702Y-119482348D01*
X151892817Y-119480173D01*
X151888659Y-119478565D01*
X151888654Y-119478562D01*
X151639293Y-119382091D01*
X151639287Y-119382089D01*
X151635138Y-119380484D01*
X151630806Y-119379480D01*
X151630803Y-119379479D01*
X151520851Y-119353994D01*
X151365983Y-119318097D01*
X151090723Y-119294257D01*
X151086288Y-119294501D01*
X151086284Y-119294501D01*
X150819293Y-119309195D01*
X150819286Y-119309196D01*
X150814850Y-119309440D01*
X150543869Y-119363341D01*
X150539659Y-119364819D01*
X150539657Y-119364820D01*
X150476045Y-119387159D01*
X150283185Y-119454887D01*
X150038001Y-119582249D01*
X150034388Y-119584831D01*
X150034383Y-119584834D01*
X149906090Y-119676514D01*
X149813209Y-119742888D01*
X149759218Y-119794393D01*
X149628510Y-119919082D01*
X149613293Y-119933598D01*
X149610537Y-119937094D01*
X149538767Y-120028135D01*
X149442244Y-120150574D01*
X149440012Y-120154416D01*
X149440009Y-120154421D01*
X149305710Y-120385632D01*
X149305707Y-120385639D01*
X149303472Y-120389486D01*
X149301798Y-120393619D01*
X149202698Y-120638288D01*
X149199749Y-120645568D01*
X149198678Y-120649881D01*
X149198676Y-120649886D01*
X149159005Y-120809592D01*
X149133142Y-120913709D01*
X149104981Y-121188561D01*
X147421634Y-121188561D01*
X147406470Y-120974399D01*
X147404806Y-120966667D01*
X147349255Y-120708645D01*
X147349255Y-120708643D01*
X147348319Y-120704298D01*
X147261346Y-120468548D01*
X147254231Y-120449261D01*
X147252690Y-120445084D01*
X147121492Y-120201931D01*
X146957342Y-119979690D01*
X146897679Y-119919082D01*
X146862143Y-119882984D01*
X146763515Y-119782795D01*
X146759975Y-119780094D01*
X146759969Y-119780088D01*
X146547421Y-119617876D01*
X146547417Y-119617873D01*
X146543880Y-119615174D01*
X146481424Y-119580197D01*
X146306707Y-119482351D01*
X146306702Y-119482348D01*
X146302817Y-119480173D01*
X146298659Y-119478565D01*
X146298654Y-119478562D01*
X146049293Y-119382091D01*
X146049287Y-119382089D01*
X146045138Y-119380484D01*
X146040806Y-119379480D01*
X146040803Y-119379479D01*
X145930851Y-119353994D01*
X145775983Y-119318097D01*
X145500723Y-119294257D01*
X145496288Y-119294501D01*
X145496284Y-119294501D01*
X145229293Y-119309195D01*
X145229286Y-119309196D01*
X145224850Y-119309440D01*
X144953869Y-119363341D01*
X144949659Y-119364819D01*
X144949657Y-119364820D01*
X144886045Y-119387159D01*
X144693185Y-119454887D01*
X144448001Y-119582249D01*
X144444388Y-119584831D01*
X144444383Y-119584834D01*
X144316090Y-119676514D01*
X144223209Y-119742888D01*
X144169218Y-119794393D01*
X144038510Y-119919082D01*
X144023293Y-119933598D01*
X144020537Y-119937094D01*
X143948767Y-120028135D01*
X143852244Y-120150574D01*
X143850012Y-120154416D01*
X143850009Y-120154421D01*
X143715710Y-120385632D01*
X143715707Y-120385639D01*
X143713472Y-120389486D01*
X143711798Y-120393619D01*
X143612698Y-120638288D01*
X143609749Y-120645568D01*
X143608678Y-120649881D01*
X143608676Y-120649886D01*
X143569005Y-120809592D01*
X143543142Y-120913709D01*
X143514981Y-121188561D01*
X141831634Y-121188561D01*
X141816470Y-120974399D01*
X141814806Y-120966667D01*
X141759255Y-120708645D01*
X141759255Y-120708643D01*
X141758319Y-120704298D01*
X141671346Y-120468548D01*
X141664231Y-120449261D01*
X141662690Y-120445084D01*
X141531492Y-120201931D01*
X141367342Y-119979690D01*
X141307679Y-119919082D01*
X141272143Y-119882984D01*
X141173515Y-119782795D01*
X141169975Y-119780094D01*
X141169969Y-119780088D01*
X140957421Y-119617876D01*
X140957417Y-119617873D01*
X140953880Y-119615174D01*
X140891424Y-119580197D01*
X140716707Y-119482351D01*
X140716702Y-119482348D01*
X140712817Y-119480173D01*
X140708659Y-119478565D01*
X140708654Y-119478562D01*
X140459293Y-119382091D01*
X140459287Y-119382089D01*
X140455138Y-119380484D01*
X140450806Y-119379480D01*
X140450803Y-119379479D01*
X140340851Y-119353994D01*
X140185983Y-119318097D01*
X139910723Y-119294257D01*
X139906288Y-119294501D01*
X139906284Y-119294501D01*
X139639293Y-119309195D01*
X139639286Y-119309196D01*
X139634850Y-119309440D01*
X139363869Y-119363341D01*
X139359659Y-119364819D01*
X139359657Y-119364820D01*
X139296045Y-119387159D01*
X139103185Y-119454887D01*
X138858001Y-119582249D01*
X138854388Y-119584831D01*
X138854383Y-119584834D01*
X138726090Y-119676514D01*
X138633209Y-119742888D01*
X138579218Y-119794393D01*
X138448510Y-119919082D01*
X138433293Y-119933598D01*
X138430537Y-119937094D01*
X138358767Y-120028135D01*
X138262244Y-120150574D01*
X138260012Y-120154416D01*
X138260009Y-120154421D01*
X138125710Y-120385632D01*
X138125707Y-120385639D01*
X138123472Y-120389486D01*
X138121798Y-120393619D01*
X138022698Y-120638288D01*
X138019749Y-120645568D01*
X138018678Y-120649881D01*
X138018676Y-120649886D01*
X137979005Y-120809592D01*
X137953142Y-120913709D01*
X137924981Y-121188561D01*
X136241634Y-121188561D01*
X136226470Y-120974399D01*
X136224806Y-120966667D01*
X136169255Y-120708645D01*
X136169255Y-120708643D01*
X136168319Y-120704298D01*
X136081346Y-120468548D01*
X136074231Y-120449261D01*
X136072690Y-120445084D01*
X135941492Y-120201931D01*
X135777342Y-119979690D01*
X135717679Y-119919082D01*
X135682143Y-119882984D01*
X135583515Y-119782795D01*
X135579975Y-119780094D01*
X135579969Y-119780088D01*
X135367421Y-119617876D01*
X135367417Y-119617873D01*
X135363880Y-119615174D01*
X135301424Y-119580197D01*
X135126707Y-119482351D01*
X135126702Y-119482348D01*
X135122817Y-119480173D01*
X135118659Y-119478565D01*
X135118654Y-119478562D01*
X134869293Y-119382091D01*
X134869287Y-119382089D01*
X134865138Y-119380484D01*
X134860806Y-119379480D01*
X134860803Y-119379479D01*
X134750851Y-119353994D01*
X134595983Y-119318097D01*
X134320723Y-119294257D01*
X134316288Y-119294501D01*
X134316284Y-119294501D01*
X134049293Y-119309195D01*
X134049286Y-119309196D01*
X134044850Y-119309440D01*
X133773869Y-119363341D01*
X133769659Y-119364819D01*
X133769657Y-119364820D01*
X133706045Y-119387159D01*
X133513185Y-119454887D01*
X133268001Y-119582249D01*
X133264388Y-119584831D01*
X133264383Y-119584834D01*
X133136090Y-119676514D01*
X133043209Y-119742888D01*
X132989218Y-119794393D01*
X132858510Y-119919082D01*
X132843293Y-119933598D01*
X132840537Y-119937094D01*
X132768767Y-120028135D01*
X132672244Y-120150574D01*
X132670012Y-120154416D01*
X132670009Y-120154421D01*
X132535710Y-120385632D01*
X132535707Y-120385639D01*
X132533472Y-120389486D01*
X132531798Y-120393619D01*
X132432698Y-120638288D01*
X132429749Y-120645568D01*
X132428678Y-120649881D01*
X132428676Y-120649886D01*
X132389005Y-120809592D01*
X132363142Y-120913709D01*
X132334981Y-121188561D01*
X130651634Y-121188561D01*
X130636470Y-120974399D01*
X130634806Y-120966667D01*
X130579255Y-120708645D01*
X130579255Y-120708643D01*
X130578319Y-120704298D01*
X130491346Y-120468548D01*
X130484231Y-120449261D01*
X130482690Y-120445084D01*
X130351492Y-120201931D01*
X130187342Y-119979690D01*
X130127679Y-119919082D01*
X130092143Y-119882984D01*
X129993515Y-119782795D01*
X129989975Y-119780094D01*
X129989969Y-119780088D01*
X129777421Y-119617876D01*
X129777417Y-119617873D01*
X129773880Y-119615174D01*
X129711424Y-119580197D01*
X129536707Y-119482351D01*
X129536702Y-119482348D01*
X129532817Y-119480173D01*
X129528659Y-119478565D01*
X129528654Y-119478562D01*
X129279293Y-119382091D01*
X129279287Y-119382089D01*
X129275138Y-119380484D01*
X129270806Y-119379480D01*
X129270803Y-119379479D01*
X129160851Y-119353994D01*
X129005983Y-119318097D01*
X128730723Y-119294257D01*
X128726288Y-119294501D01*
X128726284Y-119294501D01*
X128459293Y-119309195D01*
X128459286Y-119309196D01*
X128454850Y-119309440D01*
X128183869Y-119363341D01*
X128179659Y-119364819D01*
X128179657Y-119364820D01*
X128116045Y-119387159D01*
X127923185Y-119454887D01*
X127678001Y-119582249D01*
X127674388Y-119584831D01*
X127674383Y-119584834D01*
X127546090Y-119676514D01*
X127453209Y-119742888D01*
X127399218Y-119794393D01*
X127268510Y-119919082D01*
X127253293Y-119933598D01*
X127250537Y-119937094D01*
X127178767Y-120028135D01*
X127082244Y-120150574D01*
X127080012Y-120154416D01*
X127080009Y-120154421D01*
X126945710Y-120385632D01*
X126945707Y-120385639D01*
X126943472Y-120389486D01*
X126941798Y-120393619D01*
X126842698Y-120638288D01*
X126839749Y-120645568D01*
X126838678Y-120649881D01*
X126838676Y-120649886D01*
X126799005Y-120809592D01*
X126773142Y-120913709D01*
X126744981Y-121188561D01*
X119546960Y-121188561D01*
X119592004Y-121134975D01*
X119720113Y-120982570D01*
X119722978Y-120979162D01*
X119872932Y-120738719D01*
X119883435Y-120714963D01*
X119985713Y-120483613D01*
X119987511Y-120479546D01*
X120064430Y-120206814D01*
X120095181Y-119977869D01*
X120101725Y-119929147D01*
X120101726Y-119929140D01*
X120102152Y-119925965D01*
X120106111Y-119800000D01*
X120086097Y-119517336D01*
X120074871Y-119465190D01*
X120027392Y-119244660D01*
X120027392Y-119244658D01*
X120026456Y-119240313D01*
X119928376Y-118974457D01*
X119793816Y-118725072D01*
X119625459Y-118497135D01*
X119426665Y-118295194D01*
X119423126Y-118292493D01*
X119423119Y-118292487D01*
X119204946Y-118125983D01*
X119204942Y-118125980D01*
X119201401Y-118123278D01*
X118954161Y-117984816D01*
X118950012Y-117983211D01*
X118950008Y-117983209D01*
X118707447Y-117889370D01*
X118689878Y-117882573D01*
X118413825Y-117818588D01*
X118409393Y-117818204D01*
X118409386Y-117818203D01*
X118190863Y-117799277D01*
X118131511Y-117794136D01*
X118127076Y-117794380D01*
X118127072Y-117794380D01*
X117853011Y-117809463D01*
X117853004Y-117809464D01*
X117848568Y-117809708D01*
X117710640Y-117837143D01*
X117575013Y-117864121D01*
X117575008Y-117864122D01*
X117570641Y-117864991D01*
X117566438Y-117866467D01*
X117307485Y-117957404D01*
X117307482Y-117957405D01*
X117303277Y-117958882D01*
X117299324Y-117960935D01*
X117299318Y-117960938D01*
X117157090Y-118034820D01*
X117051810Y-118089509D01*
X117048195Y-118092092D01*
X117048189Y-118092096D01*
X116988662Y-118134635D01*
X116821257Y-118254265D01*
X116781190Y-118292487D01*
X116627111Y-118439471D01*
X116616218Y-118449862D01*
X116440785Y-118672398D01*
X116438553Y-118676240D01*
X116438550Y-118676245D01*
X116300695Y-118913579D01*
X116300692Y-118913585D01*
X116298457Y-118917433D01*
X116276947Y-118970539D01*
X116194536Y-119174003D01*
X116192075Y-119180078D01*
X116191004Y-119184391D01*
X116191002Y-119184396D01*
X116140635Y-119387159D01*
X116123761Y-119455091D01*
X116123307Y-119459519D01*
X116123307Y-119459521D01*
X116095766Y-119728334D01*
X116094879Y-119736987D01*
X109951649Y-119736987D01*
X109936097Y-119517336D01*
X109924871Y-119465190D01*
X109877392Y-119244660D01*
X109877392Y-119244658D01*
X109876456Y-119240313D01*
X109778376Y-118974457D01*
X109643816Y-118725072D01*
X109475459Y-118497135D01*
X109276665Y-118295194D01*
X109273126Y-118292493D01*
X109273119Y-118292487D01*
X109054946Y-118125983D01*
X109054942Y-118125980D01*
X109051401Y-118123278D01*
X108804161Y-117984816D01*
X108800012Y-117983211D01*
X108800008Y-117983209D01*
X108557447Y-117889370D01*
X108539878Y-117882573D01*
X108263825Y-117818588D01*
X108259393Y-117818204D01*
X108259386Y-117818203D01*
X108040863Y-117799277D01*
X107981511Y-117794136D01*
X107977076Y-117794380D01*
X107977072Y-117794380D01*
X107703011Y-117809463D01*
X107703004Y-117809464D01*
X107698568Y-117809708D01*
X107560640Y-117837143D01*
X107425013Y-117864121D01*
X107425008Y-117864122D01*
X107420641Y-117864991D01*
X107416438Y-117866467D01*
X107157485Y-117957404D01*
X107157482Y-117957405D01*
X107153277Y-117958882D01*
X107149324Y-117960935D01*
X107149318Y-117960938D01*
X107007090Y-118034820D01*
X106901810Y-118089509D01*
X106898195Y-118092092D01*
X106898189Y-118092096D01*
X106838662Y-118134635D01*
X106671257Y-118254265D01*
X106631190Y-118292487D01*
X106477111Y-118439471D01*
X106466218Y-118449862D01*
X106290785Y-118672398D01*
X106288553Y-118676240D01*
X106288550Y-118676245D01*
X106150695Y-118913579D01*
X106150692Y-118913585D01*
X106148457Y-118917433D01*
X106126947Y-118970539D01*
X106044536Y-119174003D01*
X106042075Y-119180078D01*
X106041004Y-119184391D01*
X106041002Y-119184396D01*
X105990635Y-119387159D01*
X105973761Y-119455091D01*
X105973307Y-119459519D01*
X105973307Y-119459521D01*
X105945766Y-119728334D01*
X105944879Y-119736987D01*
X99683493Y-119736987D01*
X99527421Y-119617876D01*
X99527417Y-119617873D01*
X99523880Y-119615174D01*
X99461424Y-119580197D01*
X99286707Y-119482351D01*
X99286702Y-119482348D01*
X99282817Y-119480173D01*
X99278659Y-119478565D01*
X99278654Y-119478562D01*
X99029293Y-119382091D01*
X99029287Y-119382089D01*
X99025138Y-119380484D01*
X99020806Y-119379480D01*
X99020803Y-119379479D01*
X98910851Y-119353994D01*
X98755983Y-119318097D01*
X98480723Y-119294257D01*
X98476288Y-119294501D01*
X98476284Y-119294501D01*
X98209293Y-119309195D01*
X98209286Y-119309196D01*
X98204850Y-119309440D01*
X97933869Y-119363341D01*
X97929659Y-119364819D01*
X97929657Y-119364820D01*
X97866045Y-119387159D01*
X97673185Y-119454887D01*
X97428001Y-119582249D01*
X97424388Y-119584831D01*
X97424383Y-119584834D01*
X97296090Y-119676514D01*
X97203209Y-119742888D01*
X97149218Y-119794393D01*
X97018510Y-119919082D01*
X97003293Y-119933598D01*
X97000537Y-119937094D01*
X96928767Y-120028135D01*
X96832244Y-120150574D01*
X96830012Y-120154416D01*
X96830009Y-120154421D01*
X96695710Y-120385632D01*
X96695707Y-120385639D01*
X96693472Y-120389486D01*
X96691798Y-120393619D01*
X96592698Y-120638288D01*
X96589749Y-120645568D01*
X96588678Y-120649881D01*
X96588676Y-120649886D01*
X96549005Y-120809592D01*
X96523142Y-120913709D01*
X96494981Y-121188561D01*
X93601000Y-121188561D01*
X93601000Y-116200198D01*
X93601082Y-116200000D01*
X93600765Y-116199235D01*
X93600198Y-116199000D01*
X93600000Y-116198918D01*
X93599802Y-116199000D01*
X83600198Y-116199000D01*
X83600000Y-116198918D01*
X83599802Y-116199000D01*
X83599235Y-116199235D01*
X83598918Y-116200000D01*
X83599000Y-116200198D01*
X83599000Y-128199802D01*
X83598918Y-128200000D01*
X76449215Y-128200000D01*
X76425084Y-128197910D01*
X76381511Y-128194136D01*
X76377076Y-128194380D01*
X76377072Y-128194380D01*
X76103011Y-128209463D01*
X76103004Y-128209464D01*
X76098568Y-128209708D01*
X75960640Y-128237143D01*
X75825013Y-128264121D01*
X75825008Y-128264122D01*
X75820641Y-128264991D01*
X75816438Y-128266467D01*
X75557485Y-128357404D01*
X75557482Y-128357405D01*
X75553277Y-128358882D01*
X75549324Y-128360935D01*
X75549318Y-128360938D01*
X75407090Y-128434820D01*
X75301810Y-128489509D01*
X75298195Y-128492092D01*
X75298189Y-128492096D01*
X75238662Y-128534635D01*
X75071257Y-128654265D01*
X74866218Y-128849862D01*
X74690785Y-129072398D01*
X74688553Y-129076240D01*
X74688550Y-129076245D01*
X74550695Y-129313579D01*
X74550692Y-129313585D01*
X74548457Y-129317433D01*
X74526947Y-129370539D01*
X74444536Y-129574003D01*
X74442075Y-129580078D01*
X74441004Y-129584391D01*
X74441002Y-129584396D01*
X74375607Y-129847658D01*
X74373761Y-129855091D01*
X74373307Y-129859519D01*
X74373307Y-129859521D01*
X74345766Y-130128334D01*
X74344879Y-130136987D01*
X71601000Y-130136987D01*
X71601000Y-86702916D01*
X71601066Y-86700038D01*
X71601082Y-86700000D01*
X71601068Y-86699966D01*
X71601134Y-86697097D01*
X71603913Y-86636987D01*
X74344879Y-86636987D01*
X74344888Y-86637210D01*
X74345058Y-86641533D01*
X74352034Y-86819082D01*
X74356004Y-86920139D01*
X74406915Y-87198900D01*
X74496595Y-87467705D01*
X74498587Y-87471692D01*
X74498588Y-87471694D01*
X74584167Y-87642964D01*
X74623256Y-87721194D01*
X74784370Y-87954306D01*
X74787392Y-87957575D01*
X74971931Y-88157208D01*
X74976723Y-88162392D01*
X75086600Y-88251846D01*
X75193014Y-88338481D01*
X75193019Y-88338484D01*
X75196476Y-88341299D01*
X75439245Y-88487458D01*
X75443340Y-88489192D01*
X75443342Y-88489193D01*
X75696085Y-88596216D01*
X75696092Y-88596218D01*
X75700186Y-88597952D01*
X75800287Y-88624493D01*
X75969795Y-88669438D01*
X75969799Y-88669439D01*
X75974092Y-88670577D01*
X75978501Y-88671099D01*
X75978507Y-88671100D01*
X76139276Y-88690128D01*
X76255499Y-88703884D01*
X76538792Y-88697208D01*
X76626968Y-88682531D01*
X76813927Y-88651413D01*
X76813931Y-88651412D01*
X76818317Y-88650682D01*
X76822558Y-88649341D01*
X76822561Y-88649340D01*
X77084253Y-88566578D01*
X77084255Y-88566577D01*
X77088499Y-88565235D01*
X77246855Y-88489193D01*
X77339926Y-88444501D01*
X77339927Y-88444500D01*
X77343945Y-88442571D01*
X77360607Y-88431438D01*
X77575858Y-88287613D01*
X77575862Y-88287610D01*
X77579560Y-88285139D01*
X77637407Y-88233326D01*
X77787318Y-88099055D01*
X77787323Y-88099050D01*
X77790641Y-88096078D01*
X77972978Y-87879162D01*
X78122932Y-87638719D01*
X78198537Y-87467705D01*
X78235713Y-87383613D01*
X78237511Y-87379546D01*
X78314430Y-87106814D01*
X78340805Y-86910445D01*
X78351725Y-86829147D01*
X78351726Y-86829140D01*
X78352152Y-86825965D01*
X78352368Y-86819082D01*
X78356010Y-86703222D01*
X78356010Y-86703217D01*
X78356111Y-86700000D01*
X78351649Y-86636987D01*
X229844879Y-86636987D01*
X229844888Y-86637210D01*
X229845058Y-86641533D01*
X229852034Y-86819082D01*
X229856004Y-86920139D01*
X229906915Y-87198900D01*
X229996595Y-87467705D01*
X229998587Y-87471692D01*
X229998588Y-87471694D01*
X230084167Y-87642964D01*
X230123256Y-87721194D01*
X230284370Y-87954306D01*
X230287392Y-87957575D01*
X230471931Y-88157208D01*
X230476723Y-88162392D01*
X230586600Y-88251846D01*
X230693014Y-88338481D01*
X230693019Y-88338484D01*
X230696476Y-88341299D01*
X230939245Y-88487458D01*
X230943340Y-88489192D01*
X230943342Y-88489193D01*
X231196085Y-88596216D01*
X231196092Y-88596218D01*
X231200186Y-88597952D01*
X231300287Y-88624493D01*
X231469795Y-88669438D01*
X231469799Y-88669439D01*
X231474092Y-88670577D01*
X231478501Y-88671099D01*
X231478507Y-88671100D01*
X231639276Y-88690128D01*
X231755499Y-88703884D01*
X232038792Y-88697208D01*
X232126968Y-88682531D01*
X232313927Y-88651413D01*
X232313931Y-88651412D01*
X232318317Y-88650682D01*
X232322558Y-88649341D01*
X232322561Y-88649340D01*
X232584253Y-88566578D01*
X232584255Y-88566577D01*
X232588499Y-88565235D01*
X232746855Y-88489193D01*
X232839926Y-88444501D01*
X232839927Y-88444500D01*
X232843945Y-88442571D01*
X232860607Y-88431438D01*
X233075858Y-88287613D01*
X233075862Y-88287610D01*
X233079560Y-88285139D01*
X233137407Y-88233326D01*
X233287318Y-88099055D01*
X233287323Y-88099050D01*
X233290641Y-88096078D01*
X233472978Y-87879162D01*
X233622932Y-87638719D01*
X233698537Y-87467705D01*
X233735713Y-87383613D01*
X233737511Y-87379546D01*
X233814430Y-87106814D01*
X233840805Y-86910445D01*
X233851725Y-86829147D01*
X233851726Y-86829140D01*
X233852152Y-86825965D01*
X233852368Y-86819082D01*
X233856010Y-86703222D01*
X233856010Y-86703217D01*
X233856111Y-86700000D01*
X233836097Y-86417336D01*
X233824871Y-86365190D01*
X233777392Y-86144660D01*
X233777392Y-86144658D01*
X233776456Y-86140313D01*
X233678376Y-85874457D01*
X233543816Y-85625072D01*
X233375459Y-85397135D01*
X233176665Y-85195194D01*
X233173126Y-85192493D01*
X233173119Y-85192487D01*
X232954946Y-85025983D01*
X232954942Y-85025980D01*
X232951401Y-85023278D01*
X232704161Y-84884816D01*
X232700012Y-84883211D01*
X232700008Y-84883209D01*
X232457447Y-84789370D01*
X232439878Y-84782573D01*
X232163825Y-84718588D01*
X232159393Y-84718204D01*
X232159386Y-84718203D01*
X231940863Y-84699277D01*
X231881511Y-84694136D01*
X231877076Y-84694380D01*
X231877072Y-84694380D01*
X231603011Y-84709463D01*
X231603004Y-84709464D01*
X231598568Y-84709708D01*
X231460640Y-84737143D01*
X231325013Y-84764121D01*
X231325008Y-84764122D01*
X231320641Y-84764991D01*
X231316438Y-84766467D01*
X231057485Y-84857404D01*
X231057482Y-84857405D01*
X231053277Y-84858882D01*
X231049324Y-84860935D01*
X231049318Y-84860938D01*
X230940710Y-84917356D01*
X230801810Y-84989509D01*
X230798195Y-84992092D01*
X230798189Y-84992096D01*
X230738662Y-85034635D01*
X230571257Y-85154265D01*
X230531190Y-85192487D01*
X230459455Y-85260919D01*
X230366218Y-85349862D01*
X230190785Y-85572398D01*
X230188553Y-85576240D01*
X230188550Y-85576245D01*
X230050695Y-85813579D01*
X230050692Y-85813585D01*
X230048457Y-85817433D01*
X230026947Y-85870539D01*
X229944536Y-86074003D01*
X229942075Y-86080078D01*
X229941004Y-86084391D01*
X229941002Y-86084396D01*
X229879166Y-86333331D01*
X229873761Y-86355091D01*
X229873307Y-86359519D01*
X229873307Y-86359521D01*
X229845766Y-86628334D01*
X229844879Y-86636987D01*
X78351649Y-86636987D01*
X78336097Y-86417336D01*
X78324871Y-86365190D01*
X78277392Y-86144660D01*
X78277392Y-86144658D01*
X78276456Y-86140313D01*
X78178376Y-85874457D01*
X78043816Y-85625072D01*
X77875459Y-85397135D01*
X77676665Y-85195194D01*
X77673126Y-85192493D01*
X77673119Y-85192487D01*
X77454946Y-85025983D01*
X77454942Y-85025980D01*
X77451401Y-85023278D01*
X77204161Y-84884816D01*
X77200012Y-84883211D01*
X77200008Y-84883209D01*
X76957447Y-84789370D01*
X76939878Y-84782573D01*
X76663825Y-84718588D01*
X76659393Y-84718204D01*
X76659386Y-84718203D01*
X76440863Y-84699277D01*
X76381511Y-84694136D01*
X76377076Y-84694380D01*
X76377072Y-84694380D01*
X76103011Y-84709463D01*
X76103004Y-84709464D01*
X76098568Y-84709708D01*
X75960640Y-84737143D01*
X75825013Y-84764121D01*
X75825008Y-84764122D01*
X75820641Y-84764991D01*
X75816438Y-84766467D01*
X75557485Y-84857404D01*
X75557482Y-84857405D01*
X75553277Y-84858882D01*
X75549324Y-84860935D01*
X75549318Y-84860938D01*
X75440710Y-84917356D01*
X75301810Y-84989509D01*
X75298195Y-84992092D01*
X75298189Y-84992096D01*
X75238662Y-85034635D01*
X75071257Y-85154265D01*
X75031190Y-85192487D01*
X74959455Y-85260919D01*
X74866218Y-85349862D01*
X74690785Y-85572398D01*
X74688553Y-85576240D01*
X74688550Y-85576245D01*
X74550695Y-85813579D01*
X74550692Y-85813585D01*
X74548457Y-85817433D01*
X74526947Y-85870539D01*
X74444536Y-86074003D01*
X74442075Y-86080078D01*
X74441004Y-86084391D01*
X74441002Y-86084396D01*
X74379166Y-86333331D01*
X74373761Y-86355091D01*
X74373307Y-86359519D01*
X74373307Y-86359521D01*
X74345766Y-86628334D01*
X74344879Y-86636987D01*
X71603913Y-86636987D01*
X71617790Y-86336837D01*
X71618864Y-86325248D01*
X71668287Y-85970950D01*
X71670426Y-85959511D01*
X71752325Y-85611293D01*
X71755510Y-85600098D01*
X71760869Y-85584111D01*
X71819584Y-85408930D01*
X71869193Y-85260919D01*
X71873397Y-85250067D01*
X72017891Y-84922817D01*
X72023079Y-84912399D01*
X72197144Y-84599893D01*
X72203270Y-84589998D01*
X72405437Y-84294870D01*
X72412451Y-84285582D01*
X72640987Y-84010366D01*
X72648828Y-84001766D01*
X72901766Y-83748828D01*
X72910366Y-83740987D01*
X73185582Y-83512451D01*
X73194870Y-83505437D01*
X73489998Y-83303270D01*
X73499893Y-83297144D01*
X73506917Y-83293232D01*
X73812399Y-83123079D01*
X73822817Y-83117891D01*
X74150067Y-82973397D01*
X74160919Y-82969193D01*
X74330508Y-82912352D01*
X74500107Y-82855507D01*
X74511289Y-82852326D01*
X74663308Y-82816572D01*
X74859511Y-82770426D01*
X74870950Y-82768287D01*
X75225248Y-82718864D01*
X75236837Y-82717790D01*
X75597097Y-82701134D01*
X75599966Y-82701068D01*
X75600000Y-82701082D01*
X75600038Y-82701066D01*
X75602916Y-82701000D01*
X232597084Y-82701000D01*
X232599962Y-82701066D01*
G37*
%TD.AperFunction*%
M02*
