G04 #@! TF.GenerationSoftware,KiCad,Pcbnew,(6.0.11)*
G04 #@! TF.CreationDate,2023-05-29T14:07:06-03:00*
G04 #@! TF.ProjectId,qds-cv,7164732d-6376-42e6-9b69-6361645f7063,rev?*
G04 #@! TF.SameCoordinates,Original*
G04 #@! TF.FileFunction,Legend,Bot*
G04 #@! TF.FilePolarity,Positive*
%FSLAX46Y46*%
G04 Gerber Fmt 4.6, Leading zero omitted, Abs format (unit mm)*
G04 Created by KiCad (PCBNEW (6.0.11)) date 2023-05-29 14:07:06*
%MOMM*%
%LPD*%
G01*
G04 APERTURE LIST*
G04 Aperture macros list*
%AMRoundRect*
0 Rectangle with rounded corners*
0 $1 Rounding radius*
0 $2 $3 $4 $5 $6 $7 $8 $9 X,Y pos of 4 corners*
0 Add a 4 corners polygon primitive as box body*
4,1,4,$2,$3,$4,$5,$6,$7,$8,$9,$2,$3,0*
0 Add four circle primitives for the rounded corners*
1,1,$1+$1,$2,$3*
1,1,$1+$1,$4,$5*
1,1,$1+$1,$6,$7*
1,1,$1+$1,$8,$9*
0 Add four rect primitives between the rounded corners*
20,1,$1+$1,$2,$3,$4,$5,0*
20,1,$1+$1,$4,$5,$6,$7,0*
20,1,$1+$1,$6,$7,$8,$9,0*
20,1,$1+$1,$8,$9,$2,$3,0*%
G04 Aperture macros list end*
%ADD10C,0.150000*%
%ADD11C,0.120000*%
%ADD12C,2.900000*%
%ADD13C,4.100000*%
%ADD14C,1.700000*%
%ADD15RoundRect,0.050000X0.754000X0.754000X-0.754000X0.754000X-0.754000X-0.754000X0.754000X-0.754000X0*%
%ADD16C,1.608000*%
%ADD17C,2.200000*%
%ADD18C,1.850000*%
%ADD19RoundRect,0.050000X-0.900000X0.900000X-0.900000X-0.900000X0.900000X-0.900000X0.900000X0.900000X0*%
%ADD20C,1.900000*%
%ADD21O,2.600000X1.700000*%
%ADD22O,7.100000X3.600000*%
%ADD23RoundRect,0.050000X-1.150000X0.750000X-1.150000X-0.750000X1.150000X-0.750000X1.150000X0.750000X0*%
%ADD24O,2.400000X1.600000*%
%ADD25O,1.700000X1.700000*%
%ADD26RoundRect,0.050000X-0.800000X0.800000X-0.800000X-0.800000X0.800000X-0.800000X0.800000X0.800000X0*%
%ADD27C,3.600000*%
%ADD28RoundRect,0.050000X-0.759000X0.759000X-0.759000X-0.759000X0.759000X-0.759000X0.759000X0.759000X0*%
%ADD29C,1.618000*%
%ADD30O,2.600000X5.100000*%
%ADD31O,2.350000X4.600000*%
%ADD32O,4.600000X2.350000*%
%ADD33RoundRect,0.050000X-1.200000X1.200000X-1.200000X-1.200000X1.200000X-1.200000X1.200000X1.200000X0*%
%ADD34C,2.500000*%
%ADD35RoundRect,0.300000X-0.350000X-0.450000X0.350000X-0.450000X0.350000X0.450000X-0.350000X0.450000X0*%
%ADD36RoundRect,0.300000X-0.337500X-0.475000X0.337500X-0.475000X0.337500X0.475000X-0.337500X0.475000X0*%
%ADD37RoundRect,0.300000X0.450000X-0.350000X0.450000X0.350000X-0.450000X0.350000X-0.450000X-0.350000X0*%
%ADD38RoundRect,0.300000X0.337500X0.475000X-0.337500X0.475000X-0.337500X-0.475000X0.337500X-0.475000X0*%
%ADD39RoundRect,0.300000X0.475000X-0.337500X0.475000X0.337500X-0.475000X0.337500X-0.475000X-0.337500X0*%
%ADD40RoundRect,0.050000X0.700000X1.600000X-0.700000X1.600000X-0.700000X-1.600000X0.700000X-1.600000X0*%
%ADD41RoundRect,0.300000X0.350000X0.450000X-0.350000X0.450000X-0.350000X-0.450000X0.350000X-0.450000X0*%
%ADD42RoundRect,0.325001X0.549999X0.924999X-0.549999X0.924999X-0.549999X-0.924999X0.549999X-0.924999X0*%
%ADD43RoundRect,0.200000X0.150000X-0.587500X0.150000X0.587500X-0.150000X0.587500X-0.150000X-0.587500X0*%
%ADD44RoundRect,0.200000X-0.150000X0.587500X-0.150000X-0.587500X0.150000X-0.587500X0.150000X0.587500X0*%
%ADD45RoundRect,0.300000X-0.450000X0.350000X-0.450000X-0.350000X0.450000X-0.350000X0.450000X0.350000X0*%
%ADD46RoundRect,0.050000X-1.000000X-0.750000X1.000000X-0.750000X1.000000X0.750000X-1.000000X0.750000X0*%
%ADD47RoundRect,0.050000X-1.000000X-1.900000X1.000000X-1.900000X1.000000X1.900000X-1.000000X1.900000X0*%
%ADD48RoundRect,0.300000X-0.475000X0.337500X-0.475000X-0.337500X0.475000X-0.337500X0.475000X0.337500X0*%
%ADD49RoundRect,0.050000X1.150000X-1.250000X1.150000X1.250000X-1.150000X1.250000X-1.150000X-1.250000X0*%
%ADD50C,3.000000*%
%ADD51RoundRect,0.200000X-0.150000X0.825000X-0.150000X-0.825000X0.150000X-0.825000X0.150000X0.825000X0*%
%ADD52RoundRect,0.325001X-0.924999X0.549999X-0.924999X-0.549999X0.924999X-0.549999X0.924999X0.549999X0*%
%ADD53RoundRect,0.050000X0.900000X-1.750000X0.900000X1.750000X-0.900000X1.750000X-0.900000X-1.750000X0*%
%ADD54RoundRect,0.200000X0.150000X-0.825000X0.150000X0.825000X-0.150000X0.825000X-0.150000X-0.825000X0*%
%ADD55RoundRect,0.287500X-0.250000X-0.237500X0.250000X-0.237500X0.250000X0.237500X-0.250000X0.237500X0*%
%ADD56C,0.900000*%
%ADD57C,1.100000*%
%ADD58C,0.700000*%
%ADD59C,1.300000*%
%ADD60C,2.100000*%
G04 APERTURE END LIST*
D10*
X310176190Y-74428571D02*
X310138095Y-74314285D01*
X310138095Y-74123809D01*
X310176190Y-74047619D01*
X310214285Y-74009523D01*
X310290476Y-73971428D01*
X310366666Y-73971428D01*
X310442857Y-74009523D01*
X310480952Y-74047619D01*
X310519047Y-74123809D01*
X310557142Y-74276190D01*
X310595238Y-74352380D01*
X310633333Y-74390476D01*
X310709523Y-74428571D01*
X310785714Y-74428571D01*
X310861904Y-74390476D01*
X310900000Y-74352380D01*
X310938095Y-74276190D01*
X310938095Y-74085714D01*
X310900000Y-73971428D01*
X310938095Y-73704761D02*
X310138095Y-73514285D01*
X310709523Y-73361904D01*
X310138095Y-73209523D01*
X310938095Y-73019047D01*
X310938095Y-72790476D02*
X310938095Y-72257142D01*
X310138095Y-72600000D01*
X310938095Y-71800000D02*
X310938095Y-71723809D01*
X310900000Y-71647619D01*
X310861904Y-71609523D01*
X310785714Y-71571428D01*
X310633333Y-71533333D01*
X310442857Y-71533333D01*
X310290476Y-71571428D01*
X310214285Y-71609523D01*
X310176190Y-71647619D01*
X310138095Y-71723809D01*
X310138095Y-71800000D01*
X310176190Y-71876190D01*
X310214285Y-71914285D01*
X310290476Y-71952380D01*
X310442857Y-71990476D01*
X310633333Y-71990476D01*
X310785714Y-71952380D01*
X310861904Y-71914285D01*
X310900000Y-71876190D01*
X310938095Y-71800000D01*
X310861904Y-71228571D02*
X310900000Y-71190476D01*
X310938095Y-71114285D01*
X310938095Y-70923809D01*
X310900000Y-70847619D01*
X310861904Y-70809523D01*
X310785714Y-70771428D01*
X310709523Y-70771428D01*
X310595238Y-70809523D01*
X310138095Y-71266666D01*
X310138095Y-70771428D01*
X317738095Y-100055238D02*
X317738095Y-100436190D01*
X318538095Y-100436190D01*
X317738095Y-99788571D02*
X318538095Y-99788571D01*
X318538095Y-99598095D01*
X318500000Y-99483809D01*
X318423809Y-99407619D01*
X318347619Y-99369523D01*
X318195238Y-99331428D01*
X318080952Y-99331428D01*
X317928571Y-99369523D01*
X317852380Y-99407619D01*
X317776190Y-99483809D01*
X317738095Y-99598095D01*
X317738095Y-99788571D01*
X318538095Y-99064761D02*
X318538095Y-98531428D01*
X317738095Y-98874285D01*
X318538095Y-98074285D02*
X318538095Y-97998095D01*
X318500000Y-97921904D01*
X318461904Y-97883809D01*
X318385714Y-97845714D01*
X318233333Y-97807619D01*
X318042857Y-97807619D01*
X317890476Y-97845714D01*
X317814285Y-97883809D01*
X317776190Y-97921904D01*
X317738095Y-97998095D01*
X317738095Y-98074285D01*
X317776190Y-98150476D01*
X317814285Y-98188571D01*
X317890476Y-98226666D01*
X318042857Y-98264761D01*
X318233333Y-98264761D01*
X318385714Y-98226666D01*
X318461904Y-98188571D01*
X318500000Y-98150476D01*
X318538095Y-98074285D01*
X318461904Y-97502857D02*
X318500000Y-97464761D01*
X318538095Y-97388571D01*
X318538095Y-97198095D01*
X318500000Y-97121904D01*
X318461904Y-97083809D01*
X318385714Y-97045714D01*
X318309523Y-97045714D01*
X318195238Y-97083809D01*
X317738095Y-97540952D01*
X317738095Y-97045714D01*
X317738095Y-111375238D02*
X317738095Y-111756190D01*
X318538095Y-111756190D01*
X317738095Y-111108571D02*
X318538095Y-111108571D01*
X318538095Y-110918095D01*
X318500000Y-110803809D01*
X318423809Y-110727619D01*
X318347619Y-110689523D01*
X318195238Y-110651428D01*
X318080952Y-110651428D01*
X317928571Y-110689523D01*
X317852380Y-110727619D01*
X317776190Y-110803809D01*
X317738095Y-110918095D01*
X317738095Y-111108571D01*
X318538095Y-110384761D02*
X318538095Y-109851428D01*
X317738095Y-110194285D01*
X318538095Y-109394285D02*
X318538095Y-109318095D01*
X318500000Y-109241904D01*
X318461904Y-109203809D01*
X318385714Y-109165714D01*
X318233333Y-109127619D01*
X318042857Y-109127619D01*
X317890476Y-109165714D01*
X317814285Y-109203809D01*
X317776190Y-109241904D01*
X317738095Y-109318095D01*
X317738095Y-109394285D01*
X317776190Y-109470476D01*
X317814285Y-109508571D01*
X317890476Y-109546666D01*
X318042857Y-109584761D01*
X318233333Y-109584761D01*
X318385714Y-109546666D01*
X318461904Y-109508571D01*
X318500000Y-109470476D01*
X318538095Y-109394285D01*
X318271428Y-108441904D02*
X317738095Y-108441904D01*
X318576190Y-108632380D02*
X318004761Y-108822857D01*
X318004761Y-108327619D01*
X317738095Y-105615238D02*
X317738095Y-105996190D01*
X318538095Y-105996190D01*
X317738095Y-105348571D02*
X318538095Y-105348571D01*
X318538095Y-105158095D01*
X318500000Y-105043809D01*
X318423809Y-104967619D01*
X318347619Y-104929523D01*
X318195238Y-104891428D01*
X318080952Y-104891428D01*
X317928571Y-104929523D01*
X317852380Y-104967619D01*
X317776190Y-105043809D01*
X317738095Y-105158095D01*
X317738095Y-105348571D01*
X318538095Y-104624761D02*
X318538095Y-104091428D01*
X317738095Y-104434285D01*
X318538095Y-103634285D02*
X318538095Y-103558095D01*
X318500000Y-103481904D01*
X318461904Y-103443809D01*
X318385714Y-103405714D01*
X318233333Y-103367619D01*
X318042857Y-103367619D01*
X317890476Y-103405714D01*
X317814285Y-103443809D01*
X317776190Y-103481904D01*
X317738095Y-103558095D01*
X317738095Y-103634285D01*
X317776190Y-103710476D01*
X317814285Y-103748571D01*
X317890476Y-103786666D01*
X318042857Y-103824761D01*
X318233333Y-103824761D01*
X318385714Y-103786666D01*
X318461904Y-103748571D01*
X318500000Y-103710476D01*
X318538095Y-103634285D01*
X318538095Y-103100952D02*
X318538095Y-102605714D01*
X318233333Y-102872380D01*
X318233333Y-102758095D01*
X318195238Y-102681904D01*
X318157142Y-102643809D01*
X318080952Y-102605714D01*
X317890476Y-102605714D01*
X317814285Y-102643809D01*
X317776190Y-102681904D01*
X317738095Y-102758095D01*
X317738095Y-102986666D01*
X317776190Y-103062857D01*
X317814285Y-103100952D01*
X310176190Y-84428571D02*
X310138095Y-84314285D01*
X310138095Y-84123809D01*
X310176190Y-84047619D01*
X310214285Y-84009523D01*
X310290476Y-83971428D01*
X310366666Y-83971428D01*
X310442857Y-84009523D01*
X310480952Y-84047619D01*
X310519047Y-84123809D01*
X310557142Y-84276190D01*
X310595238Y-84352380D01*
X310633333Y-84390476D01*
X310709523Y-84428571D01*
X310785714Y-84428571D01*
X310861904Y-84390476D01*
X310900000Y-84352380D01*
X310938095Y-84276190D01*
X310938095Y-84085714D01*
X310900000Y-83971428D01*
X310938095Y-83704761D02*
X310138095Y-83514285D01*
X310709523Y-83361904D01*
X310138095Y-83209523D01*
X310938095Y-83019047D01*
X310938095Y-82790476D02*
X310938095Y-82257142D01*
X310138095Y-82600000D01*
X310938095Y-81800000D02*
X310938095Y-81723809D01*
X310900000Y-81647619D01*
X310861904Y-81609523D01*
X310785714Y-81571428D01*
X310633333Y-81533333D01*
X310442857Y-81533333D01*
X310290476Y-81571428D01*
X310214285Y-81609523D01*
X310176190Y-81647619D01*
X310138095Y-81723809D01*
X310138095Y-81800000D01*
X310176190Y-81876190D01*
X310214285Y-81914285D01*
X310290476Y-81952380D01*
X310442857Y-81990476D01*
X310633333Y-81990476D01*
X310785714Y-81952380D01*
X310861904Y-81914285D01*
X310900000Y-81876190D01*
X310938095Y-81800000D01*
X310138095Y-80771428D02*
X310138095Y-81228571D01*
X310138095Y-81000000D02*
X310938095Y-81000000D01*
X310823809Y-81076190D01*
X310747619Y-81152380D01*
X310709523Y-81228571D01*
X317738095Y-94415238D02*
X317738095Y-94796190D01*
X318538095Y-94796190D01*
X317738095Y-94148571D02*
X318538095Y-94148571D01*
X318538095Y-93958095D01*
X318500000Y-93843809D01*
X318423809Y-93767619D01*
X318347619Y-93729523D01*
X318195238Y-93691428D01*
X318080952Y-93691428D01*
X317928571Y-93729523D01*
X317852380Y-93767619D01*
X317776190Y-93843809D01*
X317738095Y-93958095D01*
X317738095Y-94148571D01*
X318538095Y-93424761D02*
X318538095Y-92891428D01*
X317738095Y-93234285D01*
X318538095Y-92434285D02*
X318538095Y-92358095D01*
X318500000Y-92281904D01*
X318461904Y-92243809D01*
X318385714Y-92205714D01*
X318233333Y-92167619D01*
X318042857Y-92167619D01*
X317890476Y-92205714D01*
X317814285Y-92243809D01*
X317776190Y-92281904D01*
X317738095Y-92358095D01*
X317738095Y-92434285D01*
X317776190Y-92510476D01*
X317814285Y-92548571D01*
X317890476Y-92586666D01*
X318042857Y-92624761D01*
X318233333Y-92624761D01*
X318385714Y-92586666D01*
X318461904Y-92548571D01*
X318500000Y-92510476D01*
X318538095Y-92434285D01*
X317738095Y-91405714D02*
X317738095Y-91862857D01*
X317738095Y-91634285D02*
X318538095Y-91634285D01*
X318423809Y-91710476D01*
X318347619Y-91786666D01*
X318309523Y-91862857D01*
X317738095Y-116895238D02*
X317738095Y-117276190D01*
X318538095Y-117276190D01*
X317738095Y-116628571D02*
X318538095Y-116628571D01*
X318538095Y-116438095D01*
X318500000Y-116323809D01*
X318423809Y-116247619D01*
X318347619Y-116209523D01*
X318195238Y-116171428D01*
X318080952Y-116171428D01*
X317928571Y-116209523D01*
X317852380Y-116247619D01*
X317776190Y-116323809D01*
X317738095Y-116438095D01*
X317738095Y-116628571D01*
X318538095Y-115904761D02*
X318538095Y-115371428D01*
X317738095Y-115714285D01*
X318538095Y-114914285D02*
X318538095Y-114838095D01*
X318500000Y-114761904D01*
X318461904Y-114723809D01*
X318385714Y-114685714D01*
X318233333Y-114647619D01*
X318042857Y-114647619D01*
X317890476Y-114685714D01*
X317814285Y-114723809D01*
X317776190Y-114761904D01*
X317738095Y-114838095D01*
X317738095Y-114914285D01*
X317776190Y-114990476D01*
X317814285Y-115028571D01*
X317890476Y-115066666D01*
X318042857Y-115104761D01*
X318233333Y-115104761D01*
X318385714Y-115066666D01*
X318461904Y-115028571D01*
X318500000Y-114990476D01*
X318538095Y-114914285D01*
X318538095Y-113923809D02*
X318538095Y-114304761D01*
X318157142Y-114342857D01*
X318195238Y-114304761D01*
X318233333Y-114228571D01*
X318233333Y-114038095D01*
X318195238Y-113961904D01*
X318157142Y-113923809D01*
X318080952Y-113885714D01*
X317890476Y-113885714D01*
X317814285Y-113923809D01*
X317776190Y-113961904D01*
X317738095Y-114038095D01*
X317738095Y-114228571D01*
X317776190Y-114304761D01*
X317814285Y-114342857D01*
X162695238Y-114211904D02*
X162961904Y-113830952D01*
X163152380Y-114211904D02*
X163152380Y-113411904D01*
X162847619Y-113411904D01*
X162771428Y-113450000D01*
X162733333Y-113488095D01*
X162695238Y-113564285D01*
X162695238Y-113678571D01*
X162733333Y-113754761D01*
X162771428Y-113792857D01*
X162847619Y-113830952D01*
X163152380Y-113830952D01*
X162314285Y-114211904D02*
X162161904Y-114211904D01*
X162085714Y-114173809D01*
X162047619Y-114135714D01*
X161971428Y-114021428D01*
X161933333Y-113869047D01*
X161933333Y-113564285D01*
X161971428Y-113488095D01*
X162009523Y-113450000D01*
X162085714Y-113411904D01*
X162238095Y-113411904D01*
X162314285Y-113450000D01*
X162352380Y-113488095D01*
X162390476Y-113564285D01*
X162390476Y-113754761D01*
X162352380Y-113830952D01*
X162314285Y-113869047D01*
X162238095Y-113907142D01*
X162085714Y-113907142D01*
X162009523Y-113869047D01*
X161971428Y-113830952D01*
X161933333Y-113754761D01*
X161438095Y-113411904D02*
X161361904Y-113411904D01*
X161285714Y-113450000D01*
X161247619Y-113488095D01*
X161209523Y-113564285D01*
X161171428Y-113716666D01*
X161171428Y-113907142D01*
X161209523Y-114059523D01*
X161247619Y-114135714D01*
X161285714Y-114173809D01*
X161361904Y-114211904D01*
X161438095Y-114211904D01*
X161514285Y-114173809D01*
X161552380Y-114135714D01*
X161590476Y-114059523D01*
X161628571Y-113907142D01*
X161628571Y-113716666D01*
X161590476Y-113564285D01*
X161552380Y-113488095D01*
X161514285Y-113450000D01*
X161438095Y-113411904D01*
X160409523Y-114211904D02*
X160866666Y-114211904D01*
X160638095Y-114211904D02*
X160638095Y-113411904D01*
X160714285Y-113526190D01*
X160790476Y-113602380D01*
X160866666Y-113640476D01*
X175895238Y-193095714D02*
X175933333Y-193133809D01*
X176047619Y-193171904D01*
X176123809Y-193171904D01*
X176238095Y-193133809D01*
X176314285Y-193057619D01*
X176352380Y-192981428D01*
X176390476Y-192829047D01*
X176390476Y-192714761D01*
X176352380Y-192562380D01*
X176314285Y-192486190D01*
X176238095Y-192410000D01*
X176123809Y-192371904D01*
X176047619Y-192371904D01*
X175933333Y-192410000D01*
X175895238Y-192448095D01*
X175514285Y-193171904D02*
X175361904Y-193171904D01*
X175285714Y-193133809D01*
X175247619Y-193095714D01*
X175171428Y-192981428D01*
X175133333Y-192829047D01*
X175133333Y-192524285D01*
X175171428Y-192448095D01*
X175209523Y-192410000D01*
X175285714Y-192371904D01*
X175438095Y-192371904D01*
X175514285Y-192410000D01*
X175552380Y-192448095D01*
X175590476Y-192524285D01*
X175590476Y-192714761D01*
X175552380Y-192790952D01*
X175514285Y-192829047D01*
X175438095Y-192867142D01*
X175285714Y-192867142D01*
X175209523Y-192829047D01*
X175171428Y-192790952D01*
X175133333Y-192714761D01*
X174828571Y-192448095D02*
X174790476Y-192410000D01*
X174714285Y-192371904D01*
X174523809Y-192371904D01*
X174447619Y-192410000D01*
X174409523Y-192448095D01*
X174371428Y-192524285D01*
X174371428Y-192600476D01*
X174409523Y-192714761D01*
X174866666Y-193171904D01*
X174371428Y-193171904D01*
X173914285Y-192714761D02*
X173990476Y-192676666D01*
X174028571Y-192638571D01*
X174066666Y-192562380D01*
X174066666Y-192524285D01*
X174028571Y-192448095D01*
X173990476Y-192410000D01*
X173914285Y-192371904D01*
X173761904Y-192371904D01*
X173685714Y-192410000D01*
X173647619Y-192448095D01*
X173609523Y-192524285D01*
X173609523Y-192562380D01*
X173647619Y-192638571D01*
X173685714Y-192676666D01*
X173761904Y-192714761D01*
X173914285Y-192714761D01*
X173990476Y-192752857D01*
X174028571Y-192790952D01*
X174066666Y-192867142D01*
X174066666Y-193019523D01*
X174028571Y-193095714D01*
X173990476Y-193133809D01*
X173914285Y-193171904D01*
X173761904Y-193171904D01*
X173685714Y-193133809D01*
X173647619Y-193095714D01*
X173609523Y-193019523D01*
X173609523Y-192867142D01*
X173647619Y-192790952D01*
X173685714Y-192752857D01*
X173761904Y-192714761D01*
X308928095Y-110885238D02*
X309309047Y-111151904D01*
X308928095Y-111342380D02*
X309728095Y-111342380D01*
X309728095Y-111037619D01*
X309690000Y-110961428D01*
X309651904Y-110923333D01*
X309575714Y-110885238D01*
X309461428Y-110885238D01*
X309385238Y-110923333D01*
X309347142Y-110961428D01*
X309309047Y-111037619D01*
X309309047Y-111342380D01*
X309728095Y-110618571D02*
X309728095Y-110085238D01*
X308928095Y-110428095D01*
X309728095Y-109628095D02*
X309728095Y-109551904D01*
X309690000Y-109475714D01*
X309651904Y-109437619D01*
X309575714Y-109399523D01*
X309423333Y-109361428D01*
X309232857Y-109361428D01*
X309080476Y-109399523D01*
X309004285Y-109437619D01*
X308966190Y-109475714D01*
X308928095Y-109551904D01*
X308928095Y-109628095D01*
X308966190Y-109704285D01*
X309004285Y-109742380D01*
X309080476Y-109780476D01*
X309232857Y-109818571D01*
X309423333Y-109818571D01*
X309575714Y-109780476D01*
X309651904Y-109742380D01*
X309690000Y-109704285D01*
X309728095Y-109628095D01*
X309461428Y-108675714D02*
X308928095Y-108675714D01*
X309766190Y-108866190D02*
X309194761Y-109056666D01*
X309194761Y-108561428D01*
X209810238Y-159318714D02*
X209848333Y-159356809D01*
X209962619Y-159394904D01*
X210038809Y-159394904D01*
X210153095Y-159356809D01*
X210229285Y-159280619D01*
X210267380Y-159204428D01*
X210305476Y-159052047D01*
X210305476Y-158937761D01*
X210267380Y-158785380D01*
X210229285Y-158709190D01*
X210153095Y-158633000D01*
X210038809Y-158594904D01*
X209962619Y-158594904D01*
X209848333Y-158633000D01*
X209810238Y-158671095D01*
X209353095Y-158937761D02*
X209429285Y-158899666D01*
X209467380Y-158861571D01*
X209505476Y-158785380D01*
X209505476Y-158747285D01*
X209467380Y-158671095D01*
X209429285Y-158633000D01*
X209353095Y-158594904D01*
X209200714Y-158594904D01*
X209124523Y-158633000D01*
X209086428Y-158671095D01*
X209048333Y-158747285D01*
X209048333Y-158785380D01*
X209086428Y-158861571D01*
X209124523Y-158899666D01*
X209200714Y-158937761D01*
X209353095Y-158937761D01*
X209429285Y-158975857D01*
X209467380Y-159013952D01*
X209505476Y-159090142D01*
X209505476Y-159242523D01*
X209467380Y-159318714D01*
X209429285Y-159356809D01*
X209353095Y-159394904D01*
X209200714Y-159394904D01*
X209124523Y-159356809D01*
X209086428Y-159318714D01*
X209048333Y-159242523D01*
X209048333Y-159090142D01*
X209086428Y-159013952D01*
X209124523Y-158975857D01*
X209200714Y-158937761D01*
X208553095Y-158594904D02*
X208476904Y-158594904D01*
X208400714Y-158633000D01*
X208362619Y-158671095D01*
X208324523Y-158747285D01*
X208286428Y-158899666D01*
X208286428Y-159090142D01*
X208324523Y-159242523D01*
X208362619Y-159318714D01*
X208400714Y-159356809D01*
X208476904Y-159394904D01*
X208553095Y-159394904D01*
X208629285Y-159356809D01*
X208667380Y-159318714D01*
X208705476Y-159242523D01*
X208743571Y-159090142D01*
X208743571Y-158899666D01*
X208705476Y-158747285D01*
X208667380Y-158671095D01*
X208629285Y-158633000D01*
X208553095Y-158594904D01*
X208019761Y-158594904D02*
X207524523Y-158594904D01*
X207791190Y-158899666D01*
X207676904Y-158899666D01*
X207600714Y-158937761D01*
X207562619Y-158975857D01*
X207524523Y-159052047D01*
X207524523Y-159242523D01*
X207562619Y-159318714D01*
X207600714Y-159356809D01*
X207676904Y-159394904D01*
X207905476Y-159394904D01*
X207981666Y-159356809D01*
X208019761Y-159318714D01*
X154595238Y-112625714D02*
X154633333Y-112663809D01*
X154747619Y-112701904D01*
X154823809Y-112701904D01*
X154938095Y-112663809D01*
X155014285Y-112587619D01*
X155052380Y-112511428D01*
X155090476Y-112359047D01*
X155090476Y-112244761D01*
X155052380Y-112092380D01*
X155014285Y-112016190D01*
X154938095Y-111940000D01*
X154823809Y-111901904D01*
X154747619Y-111901904D01*
X154633333Y-111940000D01*
X154595238Y-111978095D01*
X154214285Y-112701904D02*
X154061904Y-112701904D01*
X153985714Y-112663809D01*
X153947619Y-112625714D01*
X153871428Y-112511428D01*
X153833333Y-112359047D01*
X153833333Y-112054285D01*
X153871428Y-111978095D01*
X153909523Y-111940000D01*
X153985714Y-111901904D01*
X154138095Y-111901904D01*
X154214285Y-111940000D01*
X154252380Y-111978095D01*
X154290476Y-112054285D01*
X154290476Y-112244761D01*
X154252380Y-112320952D01*
X154214285Y-112359047D01*
X154138095Y-112397142D01*
X153985714Y-112397142D01*
X153909523Y-112359047D01*
X153871428Y-112320952D01*
X153833333Y-112244761D01*
X153338095Y-111901904D02*
X153261904Y-111901904D01*
X153185714Y-111940000D01*
X153147619Y-111978095D01*
X153109523Y-112054285D01*
X153071428Y-112206666D01*
X153071428Y-112397142D01*
X153109523Y-112549523D01*
X153147619Y-112625714D01*
X153185714Y-112663809D01*
X153261904Y-112701904D01*
X153338095Y-112701904D01*
X153414285Y-112663809D01*
X153452380Y-112625714D01*
X153490476Y-112549523D01*
X153528571Y-112397142D01*
X153528571Y-112206666D01*
X153490476Y-112054285D01*
X153452380Y-111978095D01*
X153414285Y-111940000D01*
X153338095Y-111901904D01*
X152347619Y-111901904D02*
X152728571Y-111901904D01*
X152766666Y-112282857D01*
X152728571Y-112244761D01*
X152652380Y-112206666D01*
X152461904Y-112206666D01*
X152385714Y-112244761D01*
X152347619Y-112282857D01*
X152309523Y-112359047D01*
X152309523Y-112549523D01*
X152347619Y-112625714D01*
X152385714Y-112663809D01*
X152461904Y-112701904D01*
X152652380Y-112701904D01*
X152728571Y-112663809D01*
X152766666Y-112625714D01*
X195004285Y-154165238D02*
X194966190Y-154203333D01*
X194928095Y-154317619D01*
X194928095Y-154393809D01*
X194966190Y-154508095D01*
X195042380Y-154584285D01*
X195118571Y-154622380D01*
X195270952Y-154660476D01*
X195385238Y-154660476D01*
X195537619Y-154622380D01*
X195613809Y-154584285D01*
X195690000Y-154508095D01*
X195728095Y-154393809D01*
X195728095Y-154317619D01*
X195690000Y-154203333D01*
X195651904Y-154165238D01*
X195385238Y-153708095D02*
X195423333Y-153784285D01*
X195461428Y-153822380D01*
X195537619Y-153860476D01*
X195575714Y-153860476D01*
X195651904Y-153822380D01*
X195690000Y-153784285D01*
X195728095Y-153708095D01*
X195728095Y-153555714D01*
X195690000Y-153479523D01*
X195651904Y-153441428D01*
X195575714Y-153403333D01*
X195537619Y-153403333D01*
X195461428Y-153441428D01*
X195423333Y-153479523D01*
X195385238Y-153555714D01*
X195385238Y-153708095D01*
X195347142Y-153784285D01*
X195309047Y-153822380D01*
X195232857Y-153860476D01*
X195080476Y-153860476D01*
X195004285Y-153822380D01*
X194966190Y-153784285D01*
X194928095Y-153708095D01*
X194928095Y-153555714D01*
X194966190Y-153479523D01*
X195004285Y-153441428D01*
X195080476Y-153403333D01*
X195232857Y-153403333D01*
X195309047Y-153441428D01*
X195347142Y-153479523D01*
X195385238Y-153555714D01*
X195728095Y-152908095D02*
X195728095Y-152831904D01*
X195690000Y-152755714D01*
X195651904Y-152717619D01*
X195575714Y-152679523D01*
X195423333Y-152641428D01*
X195232857Y-152641428D01*
X195080476Y-152679523D01*
X195004285Y-152717619D01*
X194966190Y-152755714D01*
X194928095Y-152831904D01*
X194928095Y-152908095D01*
X194966190Y-152984285D01*
X195004285Y-153022380D01*
X195080476Y-153060476D01*
X195232857Y-153098571D01*
X195423333Y-153098571D01*
X195575714Y-153060476D01*
X195651904Y-153022380D01*
X195690000Y-152984285D01*
X195728095Y-152908095D01*
X194928095Y-151879523D02*
X194928095Y-152336666D01*
X194928095Y-152108095D02*
X195728095Y-152108095D01*
X195613809Y-152184285D01*
X195537619Y-152260476D01*
X195499523Y-152336666D01*
X168789238Y-109522714D02*
X168827333Y-109560809D01*
X168941619Y-109598904D01*
X169017809Y-109598904D01*
X169132095Y-109560809D01*
X169208285Y-109484619D01*
X169246380Y-109408428D01*
X169284476Y-109256047D01*
X169284476Y-109141761D01*
X169246380Y-108989380D01*
X169208285Y-108913190D01*
X169132095Y-108837000D01*
X169017809Y-108798904D01*
X168941619Y-108798904D01*
X168827333Y-108837000D01*
X168789238Y-108875095D01*
X168408285Y-109598904D02*
X168255904Y-109598904D01*
X168179714Y-109560809D01*
X168141619Y-109522714D01*
X168065428Y-109408428D01*
X168027333Y-109256047D01*
X168027333Y-108951285D01*
X168065428Y-108875095D01*
X168103523Y-108837000D01*
X168179714Y-108798904D01*
X168332095Y-108798904D01*
X168408285Y-108837000D01*
X168446380Y-108875095D01*
X168484476Y-108951285D01*
X168484476Y-109141761D01*
X168446380Y-109217952D01*
X168408285Y-109256047D01*
X168332095Y-109294142D01*
X168179714Y-109294142D01*
X168103523Y-109256047D01*
X168065428Y-109217952D01*
X168027333Y-109141761D01*
X167760666Y-108798904D02*
X167265428Y-108798904D01*
X167532095Y-109103666D01*
X167417809Y-109103666D01*
X167341619Y-109141761D01*
X167303523Y-109179857D01*
X167265428Y-109256047D01*
X167265428Y-109446523D01*
X167303523Y-109522714D01*
X167341619Y-109560809D01*
X167417809Y-109598904D01*
X167646380Y-109598904D01*
X167722571Y-109560809D01*
X167760666Y-109522714D01*
X166808285Y-109141761D02*
X166884476Y-109103666D01*
X166922571Y-109065571D01*
X166960666Y-108989380D01*
X166960666Y-108951285D01*
X166922571Y-108875095D01*
X166884476Y-108837000D01*
X166808285Y-108798904D01*
X166655904Y-108798904D01*
X166579714Y-108837000D01*
X166541619Y-108875095D01*
X166503523Y-108951285D01*
X166503523Y-108989380D01*
X166541619Y-109065571D01*
X166579714Y-109103666D01*
X166655904Y-109141761D01*
X166808285Y-109141761D01*
X166884476Y-109179857D01*
X166922571Y-109217952D01*
X166960666Y-109294142D01*
X166960666Y-109446523D01*
X166922571Y-109522714D01*
X166884476Y-109560809D01*
X166808285Y-109598904D01*
X166655904Y-109598904D01*
X166579714Y-109560809D01*
X166541619Y-109522714D01*
X166503523Y-109446523D01*
X166503523Y-109294142D01*
X166541619Y-109217952D01*
X166579714Y-109179857D01*
X166655904Y-109141761D01*
X175945238Y-121055714D02*
X175983333Y-121093809D01*
X176097619Y-121131904D01*
X176173809Y-121131904D01*
X176288095Y-121093809D01*
X176364285Y-121017619D01*
X176402380Y-120941428D01*
X176440476Y-120789047D01*
X176440476Y-120674761D01*
X176402380Y-120522380D01*
X176364285Y-120446190D01*
X176288095Y-120370000D01*
X176173809Y-120331904D01*
X176097619Y-120331904D01*
X175983333Y-120370000D01*
X175945238Y-120408095D01*
X175564285Y-121131904D02*
X175411904Y-121131904D01*
X175335714Y-121093809D01*
X175297619Y-121055714D01*
X175221428Y-120941428D01*
X175183333Y-120789047D01*
X175183333Y-120484285D01*
X175221428Y-120408095D01*
X175259523Y-120370000D01*
X175335714Y-120331904D01*
X175488095Y-120331904D01*
X175564285Y-120370000D01*
X175602380Y-120408095D01*
X175640476Y-120484285D01*
X175640476Y-120674761D01*
X175602380Y-120750952D01*
X175564285Y-120789047D01*
X175488095Y-120827142D01*
X175335714Y-120827142D01*
X175259523Y-120789047D01*
X175221428Y-120750952D01*
X175183333Y-120674761D01*
X174688095Y-120331904D02*
X174611904Y-120331904D01*
X174535714Y-120370000D01*
X174497619Y-120408095D01*
X174459523Y-120484285D01*
X174421428Y-120636666D01*
X174421428Y-120827142D01*
X174459523Y-120979523D01*
X174497619Y-121055714D01*
X174535714Y-121093809D01*
X174611904Y-121131904D01*
X174688095Y-121131904D01*
X174764285Y-121093809D01*
X174802380Y-121055714D01*
X174840476Y-120979523D01*
X174878571Y-120827142D01*
X174878571Y-120636666D01*
X174840476Y-120484285D01*
X174802380Y-120408095D01*
X174764285Y-120370000D01*
X174688095Y-120331904D01*
X174154761Y-120331904D02*
X173659523Y-120331904D01*
X173926190Y-120636666D01*
X173811904Y-120636666D01*
X173735714Y-120674761D01*
X173697619Y-120712857D01*
X173659523Y-120789047D01*
X173659523Y-120979523D01*
X173697619Y-121055714D01*
X173735714Y-121093809D01*
X173811904Y-121131904D01*
X174040476Y-121131904D01*
X174116666Y-121093809D01*
X174154761Y-121055714D01*
X201047238Y-147991904D02*
X201313904Y-147610952D01*
X201504380Y-147991904D02*
X201504380Y-147191904D01*
X201199619Y-147191904D01*
X201123428Y-147230000D01*
X201085333Y-147268095D01*
X201047238Y-147344285D01*
X201047238Y-147458571D01*
X201085333Y-147534761D01*
X201123428Y-147572857D01*
X201199619Y-147610952D01*
X201504380Y-147610952D01*
X200590095Y-147534761D02*
X200666285Y-147496666D01*
X200704380Y-147458571D01*
X200742476Y-147382380D01*
X200742476Y-147344285D01*
X200704380Y-147268095D01*
X200666285Y-147230000D01*
X200590095Y-147191904D01*
X200437714Y-147191904D01*
X200361523Y-147230000D01*
X200323428Y-147268095D01*
X200285333Y-147344285D01*
X200285333Y-147382380D01*
X200323428Y-147458571D01*
X200361523Y-147496666D01*
X200437714Y-147534761D01*
X200590095Y-147534761D01*
X200666285Y-147572857D01*
X200704380Y-147610952D01*
X200742476Y-147687142D01*
X200742476Y-147839523D01*
X200704380Y-147915714D01*
X200666285Y-147953809D01*
X200590095Y-147991904D01*
X200437714Y-147991904D01*
X200361523Y-147953809D01*
X200323428Y-147915714D01*
X200285333Y-147839523D01*
X200285333Y-147687142D01*
X200323428Y-147610952D01*
X200361523Y-147572857D01*
X200437714Y-147534761D01*
X199790095Y-147191904D02*
X199713904Y-147191904D01*
X199637714Y-147230000D01*
X199599619Y-147268095D01*
X199561523Y-147344285D01*
X199523428Y-147496666D01*
X199523428Y-147687142D01*
X199561523Y-147839523D01*
X199599619Y-147915714D01*
X199637714Y-147953809D01*
X199713904Y-147991904D01*
X199790095Y-147991904D01*
X199866285Y-147953809D01*
X199904380Y-147915714D01*
X199942476Y-147839523D01*
X199980571Y-147687142D01*
X199980571Y-147496666D01*
X199942476Y-147344285D01*
X199904380Y-147268095D01*
X199866285Y-147230000D01*
X199790095Y-147191904D01*
X199218666Y-147268095D02*
X199180571Y-147230000D01*
X199104380Y-147191904D01*
X198913904Y-147191904D01*
X198837714Y-147230000D01*
X198799619Y-147268095D01*
X198761523Y-147344285D01*
X198761523Y-147420476D01*
X198799619Y-147534761D01*
X199256761Y-147991904D01*
X198761523Y-147991904D01*
X162685238Y-162378904D02*
X162951904Y-161997952D01*
X163142380Y-162378904D02*
X163142380Y-161578904D01*
X162837619Y-161578904D01*
X162761428Y-161617000D01*
X162723333Y-161655095D01*
X162685238Y-161731285D01*
X162685238Y-161845571D01*
X162723333Y-161921761D01*
X162761428Y-161959857D01*
X162837619Y-161997952D01*
X163142380Y-161997952D01*
X162304285Y-162378904D02*
X162151904Y-162378904D01*
X162075714Y-162340809D01*
X162037619Y-162302714D01*
X161961428Y-162188428D01*
X161923333Y-162036047D01*
X161923333Y-161731285D01*
X161961428Y-161655095D01*
X161999523Y-161617000D01*
X162075714Y-161578904D01*
X162228095Y-161578904D01*
X162304285Y-161617000D01*
X162342380Y-161655095D01*
X162380476Y-161731285D01*
X162380476Y-161921761D01*
X162342380Y-161997952D01*
X162304285Y-162036047D01*
X162228095Y-162074142D01*
X162075714Y-162074142D01*
X161999523Y-162036047D01*
X161961428Y-161997952D01*
X161923333Y-161921761D01*
X161428095Y-161578904D02*
X161351904Y-161578904D01*
X161275714Y-161617000D01*
X161237619Y-161655095D01*
X161199523Y-161731285D01*
X161161428Y-161883666D01*
X161161428Y-162074142D01*
X161199523Y-162226523D01*
X161237619Y-162302714D01*
X161275714Y-162340809D01*
X161351904Y-162378904D01*
X161428095Y-162378904D01*
X161504285Y-162340809D01*
X161542380Y-162302714D01*
X161580476Y-162226523D01*
X161618571Y-162074142D01*
X161618571Y-161883666D01*
X161580476Y-161731285D01*
X161542380Y-161655095D01*
X161504285Y-161617000D01*
X161428095Y-161578904D01*
X160475714Y-161845571D02*
X160475714Y-162378904D01*
X160666190Y-161540809D02*
X160856666Y-162112238D01*
X160361428Y-162112238D01*
X168789238Y-157528714D02*
X168827333Y-157566809D01*
X168941619Y-157604904D01*
X169017809Y-157604904D01*
X169132095Y-157566809D01*
X169208285Y-157490619D01*
X169246380Y-157414428D01*
X169284476Y-157262047D01*
X169284476Y-157147761D01*
X169246380Y-156995380D01*
X169208285Y-156919190D01*
X169132095Y-156843000D01*
X169017809Y-156804904D01*
X168941619Y-156804904D01*
X168827333Y-156843000D01*
X168789238Y-156881095D01*
X168408285Y-157604904D02*
X168255904Y-157604904D01*
X168179714Y-157566809D01*
X168141619Y-157528714D01*
X168065428Y-157414428D01*
X168027333Y-157262047D01*
X168027333Y-156957285D01*
X168065428Y-156881095D01*
X168103523Y-156843000D01*
X168179714Y-156804904D01*
X168332095Y-156804904D01*
X168408285Y-156843000D01*
X168446380Y-156881095D01*
X168484476Y-156957285D01*
X168484476Y-157147761D01*
X168446380Y-157223952D01*
X168408285Y-157262047D01*
X168332095Y-157300142D01*
X168179714Y-157300142D01*
X168103523Y-157262047D01*
X168065428Y-157223952D01*
X168027333Y-157147761D01*
X167341619Y-157071571D02*
X167341619Y-157604904D01*
X167532095Y-156766809D02*
X167722571Y-157338238D01*
X167227333Y-157338238D01*
X166960666Y-156881095D02*
X166922571Y-156843000D01*
X166846380Y-156804904D01*
X166655904Y-156804904D01*
X166579714Y-156843000D01*
X166541619Y-156881095D01*
X166503523Y-156957285D01*
X166503523Y-157033476D01*
X166541619Y-157147761D01*
X166998761Y-157604904D01*
X166503523Y-157604904D01*
X162685238Y-138375904D02*
X162951904Y-137994952D01*
X163142380Y-138375904D02*
X163142380Y-137575904D01*
X162837619Y-137575904D01*
X162761428Y-137614000D01*
X162723333Y-137652095D01*
X162685238Y-137728285D01*
X162685238Y-137842571D01*
X162723333Y-137918761D01*
X162761428Y-137956857D01*
X162837619Y-137994952D01*
X163142380Y-137994952D01*
X162304285Y-138375904D02*
X162151904Y-138375904D01*
X162075714Y-138337809D01*
X162037619Y-138299714D01*
X161961428Y-138185428D01*
X161923333Y-138033047D01*
X161923333Y-137728285D01*
X161961428Y-137652095D01*
X161999523Y-137614000D01*
X162075714Y-137575904D01*
X162228095Y-137575904D01*
X162304285Y-137614000D01*
X162342380Y-137652095D01*
X162380476Y-137728285D01*
X162380476Y-137918761D01*
X162342380Y-137994952D01*
X162304285Y-138033047D01*
X162228095Y-138071142D01*
X162075714Y-138071142D01*
X161999523Y-138033047D01*
X161961428Y-137994952D01*
X161923333Y-137918761D01*
X161428095Y-137575904D02*
X161351904Y-137575904D01*
X161275714Y-137614000D01*
X161237619Y-137652095D01*
X161199523Y-137728285D01*
X161161428Y-137880666D01*
X161161428Y-138071142D01*
X161199523Y-138223523D01*
X161237619Y-138299714D01*
X161275714Y-138337809D01*
X161351904Y-138375904D01*
X161428095Y-138375904D01*
X161504285Y-138337809D01*
X161542380Y-138299714D01*
X161580476Y-138223523D01*
X161618571Y-138071142D01*
X161618571Y-137880666D01*
X161580476Y-137728285D01*
X161542380Y-137652095D01*
X161504285Y-137614000D01*
X161428095Y-137575904D01*
X160856666Y-137652095D02*
X160818571Y-137614000D01*
X160742380Y-137575904D01*
X160551904Y-137575904D01*
X160475714Y-137614000D01*
X160437619Y-137652095D01*
X160399523Y-137728285D01*
X160399523Y-137804476D01*
X160437619Y-137918761D01*
X160894761Y-138375904D01*
X160399523Y-138375904D01*
X211969238Y-143604714D02*
X212007333Y-143642809D01*
X212121619Y-143680904D01*
X212197809Y-143680904D01*
X212312095Y-143642809D01*
X212388285Y-143566619D01*
X212426380Y-143490428D01*
X212464476Y-143338047D01*
X212464476Y-143223761D01*
X212426380Y-143071380D01*
X212388285Y-142995190D01*
X212312095Y-142919000D01*
X212197809Y-142880904D01*
X212121619Y-142880904D01*
X212007333Y-142919000D01*
X211969238Y-142957095D01*
X211512095Y-143223761D02*
X211588285Y-143185666D01*
X211626380Y-143147571D01*
X211664476Y-143071380D01*
X211664476Y-143033285D01*
X211626380Y-142957095D01*
X211588285Y-142919000D01*
X211512095Y-142880904D01*
X211359714Y-142880904D01*
X211283523Y-142919000D01*
X211245428Y-142957095D01*
X211207333Y-143033285D01*
X211207333Y-143071380D01*
X211245428Y-143147571D01*
X211283523Y-143185666D01*
X211359714Y-143223761D01*
X211512095Y-143223761D01*
X211588285Y-143261857D01*
X211626380Y-143299952D01*
X211664476Y-143376142D01*
X211664476Y-143528523D01*
X211626380Y-143604714D01*
X211588285Y-143642809D01*
X211512095Y-143680904D01*
X211359714Y-143680904D01*
X211283523Y-143642809D01*
X211245428Y-143604714D01*
X211207333Y-143528523D01*
X211207333Y-143376142D01*
X211245428Y-143299952D01*
X211283523Y-143261857D01*
X211359714Y-143223761D01*
X210712095Y-142880904D02*
X210635904Y-142880904D01*
X210559714Y-142919000D01*
X210521619Y-142957095D01*
X210483523Y-143033285D01*
X210445428Y-143185666D01*
X210445428Y-143376142D01*
X210483523Y-143528523D01*
X210521619Y-143604714D01*
X210559714Y-143642809D01*
X210635904Y-143680904D01*
X210712095Y-143680904D01*
X210788285Y-143642809D01*
X210826380Y-143604714D01*
X210864476Y-143528523D01*
X210902571Y-143376142D01*
X210902571Y-143185666D01*
X210864476Y-143033285D01*
X210826380Y-142957095D01*
X210788285Y-142919000D01*
X210712095Y-142880904D01*
X209759714Y-143147571D02*
X209759714Y-143680904D01*
X209950190Y-142842809D02*
X210140666Y-143414238D01*
X209645428Y-143414238D01*
X154745238Y-184655714D02*
X154783333Y-184693809D01*
X154897619Y-184731904D01*
X154973809Y-184731904D01*
X155088095Y-184693809D01*
X155164285Y-184617619D01*
X155202380Y-184541428D01*
X155240476Y-184389047D01*
X155240476Y-184274761D01*
X155202380Y-184122380D01*
X155164285Y-184046190D01*
X155088095Y-183970000D01*
X154973809Y-183931904D01*
X154897619Y-183931904D01*
X154783333Y-183970000D01*
X154745238Y-184008095D01*
X154364285Y-184731904D02*
X154211904Y-184731904D01*
X154135714Y-184693809D01*
X154097619Y-184655714D01*
X154021428Y-184541428D01*
X153983333Y-184389047D01*
X153983333Y-184084285D01*
X154021428Y-184008095D01*
X154059523Y-183970000D01*
X154135714Y-183931904D01*
X154288095Y-183931904D01*
X154364285Y-183970000D01*
X154402380Y-184008095D01*
X154440476Y-184084285D01*
X154440476Y-184274761D01*
X154402380Y-184350952D01*
X154364285Y-184389047D01*
X154288095Y-184427142D01*
X154135714Y-184427142D01*
X154059523Y-184389047D01*
X154021428Y-184350952D01*
X153983333Y-184274761D01*
X153716666Y-183931904D02*
X153221428Y-183931904D01*
X153488095Y-184236666D01*
X153373809Y-184236666D01*
X153297619Y-184274761D01*
X153259523Y-184312857D01*
X153221428Y-184389047D01*
X153221428Y-184579523D01*
X153259523Y-184655714D01*
X153297619Y-184693809D01*
X153373809Y-184731904D01*
X153602380Y-184731904D01*
X153678571Y-184693809D01*
X153716666Y-184655714D01*
X152726190Y-183931904D02*
X152650000Y-183931904D01*
X152573809Y-183970000D01*
X152535714Y-184008095D01*
X152497619Y-184084285D01*
X152459523Y-184236666D01*
X152459523Y-184427142D01*
X152497619Y-184579523D01*
X152535714Y-184655714D01*
X152573809Y-184693809D01*
X152650000Y-184731904D01*
X152726190Y-184731904D01*
X152802380Y-184693809D01*
X152840476Y-184655714D01*
X152878571Y-184579523D01*
X152916666Y-184427142D01*
X152916666Y-184236666D01*
X152878571Y-184084285D01*
X152840476Y-184008095D01*
X152802380Y-183970000D01*
X152726190Y-183931904D01*
X168789238Y-133525714D02*
X168827333Y-133563809D01*
X168941619Y-133601904D01*
X169017809Y-133601904D01*
X169132095Y-133563809D01*
X169208285Y-133487619D01*
X169246380Y-133411428D01*
X169284476Y-133259047D01*
X169284476Y-133144761D01*
X169246380Y-132992380D01*
X169208285Y-132916190D01*
X169132095Y-132840000D01*
X169017809Y-132801904D01*
X168941619Y-132801904D01*
X168827333Y-132840000D01*
X168789238Y-132878095D01*
X168408285Y-133601904D02*
X168255904Y-133601904D01*
X168179714Y-133563809D01*
X168141619Y-133525714D01*
X168065428Y-133411428D01*
X168027333Y-133259047D01*
X168027333Y-132954285D01*
X168065428Y-132878095D01*
X168103523Y-132840000D01*
X168179714Y-132801904D01*
X168332095Y-132801904D01*
X168408285Y-132840000D01*
X168446380Y-132878095D01*
X168484476Y-132954285D01*
X168484476Y-133144761D01*
X168446380Y-133220952D01*
X168408285Y-133259047D01*
X168332095Y-133297142D01*
X168179714Y-133297142D01*
X168103523Y-133259047D01*
X168065428Y-133220952D01*
X168027333Y-133144761D01*
X167341619Y-133068571D02*
X167341619Y-133601904D01*
X167532095Y-132763809D02*
X167722571Y-133335238D01*
X167227333Y-133335238D01*
X166770190Y-132801904D02*
X166694000Y-132801904D01*
X166617809Y-132840000D01*
X166579714Y-132878095D01*
X166541619Y-132954285D01*
X166503523Y-133106666D01*
X166503523Y-133297142D01*
X166541619Y-133449523D01*
X166579714Y-133525714D01*
X166617809Y-133563809D01*
X166694000Y-133601904D01*
X166770190Y-133601904D01*
X166846380Y-133563809D01*
X166884476Y-133525714D01*
X166922571Y-133449523D01*
X166960666Y-133297142D01*
X166960666Y-133106666D01*
X166922571Y-132954285D01*
X166884476Y-132878095D01*
X166846380Y-132840000D01*
X166770190Y-132801904D01*
X205725238Y-142105714D02*
X205763333Y-142143809D01*
X205877619Y-142181904D01*
X205953809Y-142181904D01*
X206068095Y-142143809D01*
X206144285Y-142067619D01*
X206182380Y-141991428D01*
X206220476Y-141839047D01*
X206220476Y-141724761D01*
X206182380Y-141572380D01*
X206144285Y-141496190D01*
X206068095Y-141420000D01*
X205953809Y-141381904D01*
X205877619Y-141381904D01*
X205763333Y-141420000D01*
X205725238Y-141458095D01*
X205268095Y-141724761D02*
X205344285Y-141686666D01*
X205382380Y-141648571D01*
X205420476Y-141572380D01*
X205420476Y-141534285D01*
X205382380Y-141458095D01*
X205344285Y-141420000D01*
X205268095Y-141381904D01*
X205115714Y-141381904D01*
X205039523Y-141420000D01*
X205001428Y-141458095D01*
X204963333Y-141534285D01*
X204963333Y-141572380D01*
X205001428Y-141648571D01*
X205039523Y-141686666D01*
X205115714Y-141724761D01*
X205268095Y-141724761D01*
X205344285Y-141762857D01*
X205382380Y-141800952D01*
X205420476Y-141877142D01*
X205420476Y-142029523D01*
X205382380Y-142105714D01*
X205344285Y-142143809D01*
X205268095Y-142181904D01*
X205115714Y-142181904D01*
X205039523Y-142143809D01*
X205001428Y-142105714D01*
X204963333Y-142029523D01*
X204963333Y-141877142D01*
X205001428Y-141800952D01*
X205039523Y-141762857D01*
X205115714Y-141724761D01*
X204468095Y-141381904D02*
X204391904Y-141381904D01*
X204315714Y-141420000D01*
X204277619Y-141458095D01*
X204239523Y-141534285D01*
X204201428Y-141686666D01*
X204201428Y-141877142D01*
X204239523Y-142029523D01*
X204277619Y-142105714D01*
X204315714Y-142143809D01*
X204391904Y-142181904D01*
X204468095Y-142181904D01*
X204544285Y-142143809D01*
X204582380Y-142105714D01*
X204620476Y-142029523D01*
X204658571Y-141877142D01*
X204658571Y-141686666D01*
X204620476Y-141534285D01*
X204582380Y-141458095D01*
X204544285Y-141420000D01*
X204468095Y-141381904D01*
X203477619Y-141381904D02*
X203858571Y-141381904D01*
X203896666Y-141762857D01*
X203858571Y-141724761D01*
X203782380Y-141686666D01*
X203591904Y-141686666D01*
X203515714Y-141724761D01*
X203477619Y-141762857D01*
X203439523Y-141839047D01*
X203439523Y-142029523D01*
X203477619Y-142105714D01*
X203515714Y-142143809D01*
X203591904Y-142181904D01*
X203782380Y-142181904D01*
X203858571Y-142143809D01*
X203896666Y-142105714D01*
X148901904Y-175467619D02*
X148101904Y-175467619D01*
X148101904Y-175658095D01*
X148140000Y-175772380D01*
X148216190Y-175848571D01*
X148292380Y-175886666D01*
X148444761Y-175924761D01*
X148559047Y-175924761D01*
X148711428Y-175886666D01*
X148787619Y-175848571D01*
X148863809Y-175772380D01*
X148901904Y-175658095D01*
X148901904Y-175467619D01*
X148101904Y-176648571D02*
X148101904Y-176267619D01*
X148482857Y-176229523D01*
X148444761Y-176267619D01*
X148406666Y-176343809D01*
X148406666Y-176534285D01*
X148444761Y-176610476D01*
X148482857Y-176648571D01*
X148559047Y-176686666D01*
X148749523Y-176686666D01*
X148825714Y-176648571D01*
X148863809Y-176610476D01*
X148901904Y-176534285D01*
X148901904Y-176343809D01*
X148863809Y-176267619D01*
X148825714Y-176229523D01*
X148101904Y-177181904D02*
X148101904Y-177258095D01*
X148140000Y-177334285D01*
X148178095Y-177372380D01*
X148254285Y-177410476D01*
X148406666Y-177448571D01*
X148597142Y-177448571D01*
X148749523Y-177410476D01*
X148825714Y-177372380D01*
X148863809Y-177334285D01*
X148901904Y-177258095D01*
X148901904Y-177181904D01*
X148863809Y-177105714D01*
X148825714Y-177067619D01*
X148749523Y-177029523D01*
X148597142Y-176991428D01*
X148406666Y-176991428D01*
X148254285Y-177029523D01*
X148178095Y-177067619D01*
X148140000Y-177105714D01*
X148101904Y-177181904D01*
X148901904Y-178210476D02*
X148901904Y-177753333D01*
X148901904Y-177981904D02*
X148101904Y-177981904D01*
X148216190Y-177905714D01*
X148292380Y-177829523D01*
X148330476Y-177753333D01*
X148911904Y-151417619D02*
X148111904Y-151417619D01*
X148111904Y-151608095D01*
X148150000Y-151722380D01*
X148226190Y-151798571D01*
X148302380Y-151836666D01*
X148454761Y-151874761D01*
X148569047Y-151874761D01*
X148721428Y-151836666D01*
X148797619Y-151798571D01*
X148873809Y-151722380D01*
X148911904Y-151608095D01*
X148911904Y-151417619D01*
X148378571Y-152560476D02*
X148911904Y-152560476D01*
X148073809Y-152370000D02*
X148645238Y-152179523D01*
X148645238Y-152674761D01*
X148111904Y-153131904D02*
X148111904Y-153208095D01*
X148150000Y-153284285D01*
X148188095Y-153322380D01*
X148264285Y-153360476D01*
X148416666Y-153398571D01*
X148607142Y-153398571D01*
X148759523Y-153360476D01*
X148835714Y-153322380D01*
X148873809Y-153284285D01*
X148911904Y-153208095D01*
X148911904Y-153131904D01*
X148873809Y-153055714D01*
X148835714Y-153017619D01*
X148759523Y-152979523D01*
X148607142Y-152941428D01*
X148416666Y-152941428D01*
X148264285Y-152979523D01*
X148188095Y-153017619D01*
X148150000Y-153055714D01*
X148111904Y-153131904D01*
X148911904Y-154160476D02*
X148911904Y-153703333D01*
X148911904Y-153931904D02*
X148111904Y-153931904D01*
X148226190Y-153855714D01*
X148302380Y-153779523D01*
X148340476Y-153703333D01*
X148961904Y-108426419D02*
X148161904Y-108426419D01*
X148161904Y-108616895D01*
X148200000Y-108731180D01*
X148276190Y-108807371D01*
X148352380Y-108845466D01*
X148504761Y-108883561D01*
X148619047Y-108883561D01*
X148771428Y-108845466D01*
X148847619Y-108807371D01*
X148923809Y-108731180D01*
X148961904Y-108616895D01*
X148961904Y-108426419D01*
X148238095Y-109188323D02*
X148200000Y-109226419D01*
X148161904Y-109302609D01*
X148161904Y-109493085D01*
X148200000Y-109569276D01*
X148238095Y-109607371D01*
X148314285Y-109645466D01*
X148390476Y-109645466D01*
X148504761Y-109607371D01*
X148961904Y-109150228D01*
X148961904Y-109645466D01*
X148161904Y-110140704D02*
X148161904Y-110216895D01*
X148200000Y-110293085D01*
X148238095Y-110331180D01*
X148314285Y-110369276D01*
X148466666Y-110407371D01*
X148657142Y-110407371D01*
X148809523Y-110369276D01*
X148885714Y-110331180D01*
X148923809Y-110293085D01*
X148961904Y-110216895D01*
X148961904Y-110140704D01*
X148923809Y-110064514D01*
X148885714Y-110026419D01*
X148809523Y-109988323D01*
X148657142Y-109950228D01*
X148466666Y-109950228D01*
X148314285Y-109988323D01*
X148238095Y-110026419D01*
X148200000Y-110064514D01*
X148161904Y-110140704D01*
X148238095Y-110712133D02*
X148200000Y-110750228D01*
X148161904Y-110826419D01*
X148161904Y-111016895D01*
X148200000Y-111093085D01*
X148238095Y-111131180D01*
X148314285Y-111169276D01*
X148390476Y-111169276D01*
X148504761Y-111131180D01*
X148961904Y-110674038D01*
X148961904Y-111169276D01*
X312665238Y-62231904D02*
X312931904Y-61850952D01*
X313122380Y-62231904D02*
X313122380Y-61431904D01*
X312817619Y-61431904D01*
X312741428Y-61470000D01*
X312703333Y-61508095D01*
X312665238Y-61584285D01*
X312665238Y-61698571D01*
X312703333Y-61774761D01*
X312741428Y-61812857D01*
X312817619Y-61850952D01*
X313122380Y-61850952D01*
X312284285Y-62231904D02*
X312131904Y-62231904D01*
X312055714Y-62193809D01*
X312017619Y-62155714D01*
X311941428Y-62041428D01*
X311903333Y-61889047D01*
X311903333Y-61584285D01*
X311941428Y-61508095D01*
X311979523Y-61470000D01*
X312055714Y-61431904D01*
X312208095Y-61431904D01*
X312284285Y-61470000D01*
X312322380Y-61508095D01*
X312360476Y-61584285D01*
X312360476Y-61774761D01*
X312322380Y-61850952D01*
X312284285Y-61889047D01*
X312208095Y-61927142D01*
X312055714Y-61927142D01*
X311979523Y-61889047D01*
X311941428Y-61850952D01*
X311903333Y-61774761D01*
X311408095Y-61431904D02*
X311331904Y-61431904D01*
X311255714Y-61470000D01*
X311217619Y-61508095D01*
X311179523Y-61584285D01*
X311141428Y-61736666D01*
X311141428Y-61927142D01*
X311179523Y-62079523D01*
X311217619Y-62155714D01*
X311255714Y-62193809D01*
X311331904Y-62231904D01*
X311408095Y-62231904D01*
X311484285Y-62193809D01*
X311522380Y-62155714D01*
X311560476Y-62079523D01*
X311598571Y-61927142D01*
X311598571Y-61736666D01*
X311560476Y-61584285D01*
X311522380Y-61508095D01*
X311484285Y-61470000D01*
X311408095Y-61431904D01*
X310874761Y-61431904D02*
X310379523Y-61431904D01*
X310646190Y-61736666D01*
X310531904Y-61736666D01*
X310455714Y-61774761D01*
X310417619Y-61812857D01*
X310379523Y-61889047D01*
X310379523Y-62079523D01*
X310417619Y-62155714D01*
X310455714Y-62193809D01*
X310531904Y-62231904D01*
X310760476Y-62231904D01*
X310836666Y-62193809D01*
X310874761Y-62155714D01*
X308828095Y-99510738D02*
X309209047Y-99777404D01*
X308828095Y-99967880D02*
X309628095Y-99967880D01*
X309628095Y-99663119D01*
X309590000Y-99586928D01*
X309551904Y-99548833D01*
X309475714Y-99510738D01*
X309361428Y-99510738D01*
X309285238Y-99548833D01*
X309247142Y-99586928D01*
X309209047Y-99663119D01*
X309209047Y-99967880D01*
X309628095Y-99244071D02*
X309628095Y-98710738D01*
X308828095Y-99053595D01*
X309628095Y-98253595D02*
X309628095Y-98177404D01*
X309590000Y-98101214D01*
X309551904Y-98063119D01*
X309475714Y-98025023D01*
X309323333Y-97986928D01*
X309132857Y-97986928D01*
X308980476Y-98025023D01*
X308904285Y-98063119D01*
X308866190Y-98101214D01*
X308828095Y-98177404D01*
X308828095Y-98253595D01*
X308866190Y-98329785D01*
X308904285Y-98367880D01*
X308980476Y-98405976D01*
X309132857Y-98444071D01*
X309323333Y-98444071D01*
X309475714Y-98405976D01*
X309551904Y-98367880D01*
X309590000Y-98329785D01*
X309628095Y-98253595D01*
X309551904Y-97682166D02*
X309590000Y-97644071D01*
X309628095Y-97567880D01*
X309628095Y-97377404D01*
X309590000Y-97301214D01*
X309551904Y-97263119D01*
X309475714Y-97225023D01*
X309399523Y-97225023D01*
X309285238Y-97263119D01*
X308828095Y-97720261D01*
X308828095Y-97225023D01*
X161131428Y-126741904D02*
X161131428Y-127389523D01*
X161093333Y-127465714D01*
X161055238Y-127503809D01*
X160979047Y-127541904D01*
X160826666Y-127541904D01*
X160750476Y-127503809D01*
X160712380Y-127465714D01*
X160674285Y-127389523D01*
X160674285Y-126741904D01*
X160255238Y-127541904D02*
X160102857Y-127541904D01*
X160026666Y-127503809D01*
X159988571Y-127465714D01*
X159912380Y-127351428D01*
X159874285Y-127199047D01*
X159874285Y-126894285D01*
X159912380Y-126818095D01*
X159950476Y-126780000D01*
X160026666Y-126741904D01*
X160179047Y-126741904D01*
X160255238Y-126780000D01*
X160293333Y-126818095D01*
X160331428Y-126894285D01*
X160331428Y-127084761D01*
X160293333Y-127160952D01*
X160255238Y-127199047D01*
X160179047Y-127237142D01*
X160026666Y-127237142D01*
X159950476Y-127199047D01*
X159912380Y-127160952D01*
X159874285Y-127084761D01*
X159379047Y-126741904D02*
X159302857Y-126741904D01*
X159226666Y-126780000D01*
X159188571Y-126818095D01*
X159150476Y-126894285D01*
X159112380Y-127046666D01*
X159112380Y-127237142D01*
X159150476Y-127389523D01*
X159188571Y-127465714D01*
X159226666Y-127503809D01*
X159302857Y-127541904D01*
X159379047Y-127541904D01*
X159455238Y-127503809D01*
X159493333Y-127465714D01*
X159531428Y-127389523D01*
X159569523Y-127237142D01*
X159569523Y-127046666D01*
X159531428Y-126894285D01*
X159493333Y-126818095D01*
X159455238Y-126780000D01*
X159379047Y-126741904D01*
X158807619Y-126818095D02*
X158769523Y-126780000D01*
X158693333Y-126741904D01*
X158502857Y-126741904D01*
X158426666Y-126780000D01*
X158388571Y-126818095D01*
X158350476Y-126894285D01*
X158350476Y-126970476D01*
X158388571Y-127084761D01*
X158845714Y-127541904D01*
X158350476Y-127541904D01*
X154735238Y-160655714D02*
X154773333Y-160693809D01*
X154887619Y-160731904D01*
X154963809Y-160731904D01*
X155078095Y-160693809D01*
X155154285Y-160617619D01*
X155192380Y-160541428D01*
X155230476Y-160389047D01*
X155230476Y-160274761D01*
X155192380Y-160122380D01*
X155154285Y-160046190D01*
X155078095Y-159970000D01*
X154963809Y-159931904D01*
X154887619Y-159931904D01*
X154773333Y-159970000D01*
X154735238Y-160008095D01*
X154354285Y-160731904D02*
X154201904Y-160731904D01*
X154125714Y-160693809D01*
X154087619Y-160655714D01*
X154011428Y-160541428D01*
X153973333Y-160389047D01*
X153973333Y-160084285D01*
X154011428Y-160008095D01*
X154049523Y-159970000D01*
X154125714Y-159931904D01*
X154278095Y-159931904D01*
X154354285Y-159970000D01*
X154392380Y-160008095D01*
X154430476Y-160084285D01*
X154430476Y-160274761D01*
X154392380Y-160350952D01*
X154354285Y-160389047D01*
X154278095Y-160427142D01*
X154125714Y-160427142D01*
X154049523Y-160389047D01*
X154011428Y-160350952D01*
X153973333Y-160274761D01*
X153668571Y-160008095D02*
X153630476Y-159970000D01*
X153554285Y-159931904D01*
X153363809Y-159931904D01*
X153287619Y-159970000D01*
X153249523Y-160008095D01*
X153211428Y-160084285D01*
X153211428Y-160160476D01*
X153249523Y-160274761D01*
X153706666Y-160731904D01*
X153211428Y-160731904D01*
X152449523Y-160731904D02*
X152906666Y-160731904D01*
X152678095Y-160731904D02*
X152678095Y-159931904D01*
X152754285Y-160046190D01*
X152830476Y-160122380D01*
X152906666Y-160160476D01*
X198465238Y-158111904D02*
X198731904Y-157730952D01*
X198922380Y-158111904D02*
X198922380Y-157311904D01*
X198617619Y-157311904D01*
X198541428Y-157350000D01*
X198503333Y-157388095D01*
X198465238Y-157464285D01*
X198465238Y-157578571D01*
X198503333Y-157654761D01*
X198541428Y-157692857D01*
X198617619Y-157730952D01*
X198922380Y-157730952D01*
X198008095Y-157654761D02*
X198084285Y-157616666D01*
X198122380Y-157578571D01*
X198160476Y-157502380D01*
X198160476Y-157464285D01*
X198122380Y-157388095D01*
X198084285Y-157350000D01*
X198008095Y-157311904D01*
X197855714Y-157311904D01*
X197779523Y-157350000D01*
X197741428Y-157388095D01*
X197703333Y-157464285D01*
X197703333Y-157502380D01*
X197741428Y-157578571D01*
X197779523Y-157616666D01*
X197855714Y-157654761D01*
X198008095Y-157654761D01*
X198084285Y-157692857D01*
X198122380Y-157730952D01*
X198160476Y-157807142D01*
X198160476Y-157959523D01*
X198122380Y-158035714D01*
X198084285Y-158073809D01*
X198008095Y-158111904D01*
X197855714Y-158111904D01*
X197779523Y-158073809D01*
X197741428Y-158035714D01*
X197703333Y-157959523D01*
X197703333Y-157807142D01*
X197741428Y-157730952D01*
X197779523Y-157692857D01*
X197855714Y-157654761D01*
X197208095Y-157311904D02*
X197131904Y-157311904D01*
X197055714Y-157350000D01*
X197017619Y-157388095D01*
X196979523Y-157464285D01*
X196941428Y-157616666D01*
X196941428Y-157807142D01*
X196979523Y-157959523D01*
X197017619Y-158035714D01*
X197055714Y-158073809D01*
X197131904Y-158111904D01*
X197208095Y-158111904D01*
X197284285Y-158073809D01*
X197322380Y-158035714D01*
X197360476Y-157959523D01*
X197398571Y-157807142D01*
X197398571Y-157616666D01*
X197360476Y-157464285D01*
X197322380Y-157388095D01*
X197284285Y-157350000D01*
X197208095Y-157311904D01*
X196674761Y-157311904D02*
X196179523Y-157311904D01*
X196446190Y-157616666D01*
X196331904Y-157616666D01*
X196255714Y-157654761D01*
X196217619Y-157692857D01*
X196179523Y-157769047D01*
X196179523Y-157959523D01*
X196217619Y-158035714D01*
X196255714Y-158073809D01*
X196331904Y-158111904D01*
X196560476Y-158111904D01*
X196636666Y-158073809D01*
X196674761Y-158035714D01*
X154395714Y-180894761D02*
X154433809Y-180856666D01*
X154471904Y-180742380D01*
X154471904Y-180666190D01*
X154433809Y-180551904D01*
X154357619Y-180475714D01*
X154281428Y-180437619D01*
X154129047Y-180399523D01*
X154014761Y-180399523D01*
X153862380Y-180437619D01*
X153786190Y-180475714D01*
X153710000Y-180551904D01*
X153671904Y-180666190D01*
X153671904Y-180742380D01*
X153710000Y-180856666D01*
X153748095Y-180894761D01*
X154471904Y-181275714D02*
X154471904Y-181428095D01*
X154433809Y-181504285D01*
X154395714Y-181542380D01*
X154281428Y-181618571D01*
X154129047Y-181656666D01*
X153824285Y-181656666D01*
X153748095Y-181618571D01*
X153710000Y-181580476D01*
X153671904Y-181504285D01*
X153671904Y-181351904D01*
X153710000Y-181275714D01*
X153748095Y-181237619D01*
X153824285Y-181199523D01*
X154014761Y-181199523D01*
X154090952Y-181237619D01*
X154129047Y-181275714D01*
X154167142Y-181351904D01*
X154167142Y-181504285D01*
X154129047Y-181580476D01*
X154090952Y-181618571D01*
X154014761Y-181656666D01*
X153671904Y-181923333D02*
X153671904Y-182418571D01*
X153976666Y-182151904D01*
X153976666Y-182266190D01*
X154014761Y-182342380D01*
X154052857Y-182380476D01*
X154129047Y-182418571D01*
X154319523Y-182418571D01*
X154395714Y-182380476D01*
X154433809Y-182342380D01*
X154471904Y-182266190D01*
X154471904Y-182037619D01*
X154433809Y-181961428D01*
X154395714Y-181923333D01*
X154471904Y-183180476D02*
X154471904Y-182723333D01*
X154471904Y-182951904D02*
X153671904Y-182951904D01*
X153786190Y-182875714D01*
X153862380Y-182799523D01*
X153900476Y-182723333D01*
X205775238Y-147991904D02*
X206041904Y-147610952D01*
X206232380Y-147991904D02*
X206232380Y-147191904D01*
X205927619Y-147191904D01*
X205851428Y-147230000D01*
X205813333Y-147268095D01*
X205775238Y-147344285D01*
X205775238Y-147458571D01*
X205813333Y-147534761D01*
X205851428Y-147572857D01*
X205927619Y-147610952D01*
X206232380Y-147610952D01*
X205318095Y-147534761D02*
X205394285Y-147496666D01*
X205432380Y-147458571D01*
X205470476Y-147382380D01*
X205470476Y-147344285D01*
X205432380Y-147268095D01*
X205394285Y-147230000D01*
X205318095Y-147191904D01*
X205165714Y-147191904D01*
X205089523Y-147230000D01*
X205051428Y-147268095D01*
X205013333Y-147344285D01*
X205013333Y-147382380D01*
X205051428Y-147458571D01*
X205089523Y-147496666D01*
X205165714Y-147534761D01*
X205318095Y-147534761D01*
X205394285Y-147572857D01*
X205432380Y-147610952D01*
X205470476Y-147687142D01*
X205470476Y-147839523D01*
X205432380Y-147915714D01*
X205394285Y-147953809D01*
X205318095Y-147991904D01*
X205165714Y-147991904D01*
X205089523Y-147953809D01*
X205051428Y-147915714D01*
X205013333Y-147839523D01*
X205013333Y-147687142D01*
X205051428Y-147610952D01*
X205089523Y-147572857D01*
X205165714Y-147534761D01*
X204518095Y-147191904D02*
X204441904Y-147191904D01*
X204365714Y-147230000D01*
X204327619Y-147268095D01*
X204289523Y-147344285D01*
X204251428Y-147496666D01*
X204251428Y-147687142D01*
X204289523Y-147839523D01*
X204327619Y-147915714D01*
X204365714Y-147953809D01*
X204441904Y-147991904D01*
X204518095Y-147991904D01*
X204594285Y-147953809D01*
X204632380Y-147915714D01*
X204670476Y-147839523D01*
X204708571Y-147687142D01*
X204708571Y-147496666D01*
X204670476Y-147344285D01*
X204632380Y-147268095D01*
X204594285Y-147230000D01*
X204518095Y-147191904D01*
X203565714Y-147458571D02*
X203565714Y-147991904D01*
X203756190Y-147153809D02*
X203946666Y-147725238D01*
X203451428Y-147725238D01*
X154395714Y-132844761D02*
X154433809Y-132806666D01*
X154471904Y-132692380D01*
X154471904Y-132616190D01*
X154433809Y-132501904D01*
X154357619Y-132425714D01*
X154281428Y-132387619D01*
X154129047Y-132349523D01*
X154014761Y-132349523D01*
X153862380Y-132387619D01*
X153786190Y-132425714D01*
X153710000Y-132501904D01*
X153671904Y-132616190D01*
X153671904Y-132692380D01*
X153710000Y-132806666D01*
X153748095Y-132844761D01*
X154471904Y-133225714D02*
X154471904Y-133378095D01*
X154433809Y-133454285D01*
X154395714Y-133492380D01*
X154281428Y-133568571D01*
X154129047Y-133606666D01*
X153824285Y-133606666D01*
X153748095Y-133568571D01*
X153710000Y-133530476D01*
X153671904Y-133454285D01*
X153671904Y-133301904D01*
X153710000Y-133225714D01*
X153748095Y-133187619D01*
X153824285Y-133149523D01*
X154014761Y-133149523D01*
X154090952Y-133187619D01*
X154129047Y-133225714D01*
X154167142Y-133301904D01*
X154167142Y-133454285D01*
X154129047Y-133530476D01*
X154090952Y-133568571D01*
X154014761Y-133606666D01*
X154471904Y-134368571D02*
X154471904Y-133911428D01*
X154471904Y-134140000D02*
X153671904Y-134140000D01*
X153786190Y-134063809D01*
X153862380Y-133987619D01*
X153900476Y-133911428D01*
X153938571Y-135054285D02*
X154471904Y-135054285D01*
X153633809Y-134863809D02*
X154205238Y-134673333D01*
X154205238Y-135168571D01*
X148961904Y-180435419D02*
X148161904Y-180435419D01*
X148161904Y-180625895D01*
X148200000Y-180740180D01*
X148276190Y-180816371D01*
X148352380Y-180854466D01*
X148504761Y-180892561D01*
X148619047Y-180892561D01*
X148771428Y-180854466D01*
X148847619Y-180816371D01*
X148923809Y-180740180D01*
X148961904Y-180625895D01*
X148961904Y-180435419D01*
X148161904Y-181616371D02*
X148161904Y-181235419D01*
X148542857Y-181197323D01*
X148504761Y-181235419D01*
X148466666Y-181311609D01*
X148466666Y-181502085D01*
X148504761Y-181578276D01*
X148542857Y-181616371D01*
X148619047Y-181654466D01*
X148809523Y-181654466D01*
X148885714Y-181616371D01*
X148923809Y-181578276D01*
X148961904Y-181502085D01*
X148961904Y-181311609D01*
X148923809Y-181235419D01*
X148885714Y-181197323D01*
X148161904Y-182149704D02*
X148161904Y-182225895D01*
X148200000Y-182302085D01*
X148238095Y-182340180D01*
X148314285Y-182378276D01*
X148466666Y-182416371D01*
X148657142Y-182416371D01*
X148809523Y-182378276D01*
X148885714Y-182340180D01*
X148923809Y-182302085D01*
X148961904Y-182225895D01*
X148961904Y-182149704D01*
X148923809Y-182073514D01*
X148885714Y-182035419D01*
X148809523Y-181997323D01*
X148657142Y-181959228D01*
X148466666Y-181959228D01*
X148314285Y-181997323D01*
X148238095Y-182035419D01*
X148200000Y-182073514D01*
X148161904Y-182149704D01*
X148238095Y-182721133D02*
X148200000Y-182759228D01*
X148161904Y-182835419D01*
X148161904Y-183025895D01*
X148200000Y-183102085D01*
X148238095Y-183140180D01*
X148314285Y-183178276D01*
X148390476Y-183178276D01*
X148504761Y-183140180D01*
X148961904Y-182683038D01*
X148961904Y-183178276D01*
X148961904Y-132429419D02*
X148161904Y-132429419D01*
X148161904Y-132619895D01*
X148200000Y-132734180D01*
X148276190Y-132810371D01*
X148352380Y-132848466D01*
X148504761Y-132886561D01*
X148619047Y-132886561D01*
X148771428Y-132848466D01*
X148847619Y-132810371D01*
X148923809Y-132734180D01*
X148961904Y-132619895D01*
X148961904Y-132429419D01*
X148161904Y-133153228D02*
X148161904Y-133648466D01*
X148466666Y-133381800D01*
X148466666Y-133496085D01*
X148504761Y-133572276D01*
X148542857Y-133610371D01*
X148619047Y-133648466D01*
X148809523Y-133648466D01*
X148885714Y-133610371D01*
X148923809Y-133572276D01*
X148961904Y-133496085D01*
X148961904Y-133267514D01*
X148923809Y-133191323D01*
X148885714Y-133153228D01*
X148161904Y-134143704D02*
X148161904Y-134219895D01*
X148200000Y-134296085D01*
X148238095Y-134334180D01*
X148314285Y-134372276D01*
X148466666Y-134410371D01*
X148657142Y-134410371D01*
X148809523Y-134372276D01*
X148885714Y-134334180D01*
X148923809Y-134296085D01*
X148961904Y-134219895D01*
X148961904Y-134143704D01*
X148923809Y-134067514D01*
X148885714Y-134029419D01*
X148809523Y-133991323D01*
X148657142Y-133953228D01*
X148466666Y-133953228D01*
X148314285Y-133991323D01*
X148238095Y-134029419D01*
X148200000Y-134067514D01*
X148161904Y-134143704D01*
X148238095Y-134715133D02*
X148200000Y-134753228D01*
X148161904Y-134829419D01*
X148161904Y-135019895D01*
X148200000Y-135096085D01*
X148238095Y-135134180D01*
X148314285Y-135172276D01*
X148390476Y-135172276D01*
X148504761Y-135134180D01*
X148961904Y-134677038D01*
X148961904Y-135172276D01*
X131881904Y-71217619D02*
X131081904Y-71217619D01*
X131081904Y-71408095D01*
X131120000Y-71522380D01*
X131196190Y-71598571D01*
X131272380Y-71636666D01*
X131424761Y-71674761D01*
X131539047Y-71674761D01*
X131691428Y-71636666D01*
X131767619Y-71598571D01*
X131843809Y-71522380D01*
X131881904Y-71408095D01*
X131881904Y-71217619D01*
X131081904Y-71941428D02*
X131081904Y-72474761D01*
X131881904Y-72131904D01*
X131081904Y-72931904D02*
X131081904Y-73008095D01*
X131120000Y-73084285D01*
X131158095Y-73122380D01*
X131234285Y-73160476D01*
X131386666Y-73198571D01*
X131577142Y-73198571D01*
X131729523Y-73160476D01*
X131805714Y-73122380D01*
X131843809Y-73084285D01*
X131881904Y-73008095D01*
X131881904Y-72931904D01*
X131843809Y-72855714D01*
X131805714Y-72817619D01*
X131729523Y-72779523D01*
X131577142Y-72741428D01*
X131386666Y-72741428D01*
X131234285Y-72779523D01*
X131158095Y-72817619D01*
X131120000Y-72855714D01*
X131081904Y-72931904D01*
X131158095Y-73503333D02*
X131120000Y-73541428D01*
X131081904Y-73617619D01*
X131081904Y-73808095D01*
X131120000Y-73884285D01*
X131158095Y-73922380D01*
X131234285Y-73960476D01*
X131310476Y-73960476D01*
X131424761Y-73922380D01*
X131881904Y-73465238D01*
X131881904Y-73960476D01*
X154745238Y-136655714D02*
X154783333Y-136693809D01*
X154897619Y-136731904D01*
X154973809Y-136731904D01*
X155088095Y-136693809D01*
X155164285Y-136617619D01*
X155202380Y-136541428D01*
X155240476Y-136389047D01*
X155240476Y-136274761D01*
X155202380Y-136122380D01*
X155164285Y-136046190D01*
X155088095Y-135970000D01*
X154973809Y-135931904D01*
X154897619Y-135931904D01*
X154783333Y-135970000D01*
X154745238Y-136008095D01*
X154364285Y-136731904D02*
X154211904Y-136731904D01*
X154135714Y-136693809D01*
X154097619Y-136655714D01*
X154021428Y-136541428D01*
X153983333Y-136389047D01*
X153983333Y-136084285D01*
X154021428Y-136008095D01*
X154059523Y-135970000D01*
X154135714Y-135931904D01*
X154288095Y-135931904D01*
X154364285Y-135970000D01*
X154402380Y-136008095D01*
X154440476Y-136084285D01*
X154440476Y-136274761D01*
X154402380Y-136350952D01*
X154364285Y-136389047D01*
X154288095Y-136427142D01*
X154135714Y-136427142D01*
X154059523Y-136389047D01*
X154021428Y-136350952D01*
X153983333Y-136274761D01*
X153221428Y-136731904D02*
X153678571Y-136731904D01*
X153450000Y-136731904D02*
X153450000Y-135931904D01*
X153526190Y-136046190D01*
X153602380Y-136122380D01*
X153678571Y-136160476D01*
X152954761Y-135931904D02*
X152459523Y-135931904D01*
X152726190Y-136236666D01*
X152611904Y-136236666D01*
X152535714Y-136274761D01*
X152497619Y-136312857D01*
X152459523Y-136389047D01*
X152459523Y-136579523D01*
X152497619Y-136655714D01*
X152535714Y-136693809D01*
X152611904Y-136731904D01*
X152840476Y-136731904D01*
X152916666Y-136693809D01*
X152954761Y-136655714D01*
X202386838Y-162625504D02*
X202653504Y-162244552D01*
X202843980Y-162625504D02*
X202843980Y-161825504D01*
X202539219Y-161825504D01*
X202463028Y-161863600D01*
X202424933Y-161901695D01*
X202386838Y-161977885D01*
X202386838Y-162092171D01*
X202424933Y-162168361D01*
X202463028Y-162206457D01*
X202539219Y-162244552D01*
X202843980Y-162244552D01*
X201929695Y-162168361D02*
X202005885Y-162130266D01*
X202043980Y-162092171D01*
X202082076Y-162015980D01*
X202082076Y-161977885D01*
X202043980Y-161901695D01*
X202005885Y-161863600D01*
X201929695Y-161825504D01*
X201777314Y-161825504D01*
X201701123Y-161863600D01*
X201663028Y-161901695D01*
X201624933Y-161977885D01*
X201624933Y-162015980D01*
X201663028Y-162092171D01*
X201701123Y-162130266D01*
X201777314Y-162168361D01*
X201929695Y-162168361D01*
X202005885Y-162206457D01*
X202043980Y-162244552D01*
X202082076Y-162320742D01*
X202082076Y-162473123D01*
X202043980Y-162549314D01*
X202005885Y-162587409D01*
X201929695Y-162625504D01*
X201777314Y-162625504D01*
X201701123Y-162587409D01*
X201663028Y-162549314D01*
X201624933Y-162473123D01*
X201624933Y-162320742D01*
X201663028Y-162244552D01*
X201701123Y-162206457D01*
X201777314Y-162168361D01*
X201129695Y-161825504D02*
X201053504Y-161825504D01*
X200977314Y-161863600D01*
X200939219Y-161901695D01*
X200901123Y-161977885D01*
X200863028Y-162130266D01*
X200863028Y-162320742D01*
X200901123Y-162473123D01*
X200939219Y-162549314D01*
X200977314Y-162587409D01*
X201053504Y-162625504D01*
X201129695Y-162625504D01*
X201205885Y-162587409D01*
X201243980Y-162549314D01*
X201282076Y-162473123D01*
X201320171Y-162320742D01*
X201320171Y-162130266D01*
X201282076Y-161977885D01*
X201243980Y-161901695D01*
X201205885Y-161863600D01*
X201129695Y-161825504D01*
X200139219Y-161825504D02*
X200520171Y-161825504D01*
X200558266Y-162206457D01*
X200520171Y-162168361D01*
X200443980Y-162130266D01*
X200253504Y-162130266D01*
X200177314Y-162168361D01*
X200139219Y-162206457D01*
X200101123Y-162282647D01*
X200101123Y-162473123D01*
X200139219Y-162549314D01*
X200177314Y-162587409D01*
X200253504Y-162625504D01*
X200443980Y-162625504D01*
X200520171Y-162587409D01*
X200558266Y-162549314D01*
X176115238Y-166745714D02*
X176153333Y-166783809D01*
X176267619Y-166821904D01*
X176343809Y-166821904D01*
X176458095Y-166783809D01*
X176534285Y-166707619D01*
X176572380Y-166631428D01*
X176610476Y-166479047D01*
X176610476Y-166364761D01*
X176572380Y-166212380D01*
X176534285Y-166136190D01*
X176458095Y-166060000D01*
X176343809Y-166021904D01*
X176267619Y-166021904D01*
X176153333Y-166060000D01*
X176115238Y-166098095D01*
X175734285Y-166821904D02*
X175581904Y-166821904D01*
X175505714Y-166783809D01*
X175467619Y-166745714D01*
X175391428Y-166631428D01*
X175353333Y-166479047D01*
X175353333Y-166174285D01*
X175391428Y-166098095D01*
X175429523Y-166060000D01*
X175505714Y-166021904D01*
X175658095Y-166021904D01*
X175734285Y-166060000D01*
X175772380Y-166098095D01*
X175810476Y-166174285D01*
X175810476Y-166364761D01*
X175772380Y-166440952D01*
X175734285Y-166479047D01*
X175658095Y-166517142D01*
X175505714Y-166517142D01*
X175429523Y-166479047D01*
X175391428Y-166440952D01*
X175353333Y-166364761D01*
X175048571Y-166098095D02*
X175010476Y-166060000D01*
X174934285Y-166021904D01*
X174743809Y-166021904D01*
X174667619Y-166060000D01*
X174629523Y-166098095D01*
X174591428Y-166174285D01*
X174591428Y-166250476D01*
X174629523Y-166364761D01*
X175086666Y-166821904D01*
X174591428Y-166821904D01*
X174096190Y-166021904D02*
X174020000Y-166021904D01*
X173943809Y-166060000D01*
X173905714Y-166098095D01*
X173867619Y-166174285D01*
X173829523Y-166326666D01*
X173829523Y-166517142D01*
X173867619Y-166669523D01*
X173905714Y-166745714D01*
X173943809Y-166783809D01*
X174020000Y-166821904D01*
X174096190Y-166821904D01*
X174172380Y-166783809D01*
X174210476Y-166745714D01*
X174248571Y-166669523D01*
X174286666Y-166517142D01*
X174286666Y-166326666D01*
X174248571Y-166174285D01*
X174210476Y-166098095D01*
X174172380Y-166060000D01*
X174096190Y-166021904D01*
X162665238Y-186291904D02*
X162931904Y-185910952D01*
X163122380Y-186291904D02*
X163122380Y-185491904D01*
X162817619Y-185491904D01*
X162741428Y-185530000D01*
X162703333Y-185568095D01*
X162665238Y-185644285D01*
X162665238Y-185758571D01*
X162703333Y-185834761D01*
X162741428Y-185872857D01*
X162817619Y-185910952D01*
X163122380Y-185910952D01*
X162284285Y-186291904D02*
X162131904Y-186291904D01*
X162055714Y-186253809D01*
X162017619Y-186215714D01*
X161941428Y-186101428D01*
X161903333Y-185949047D01*
X161903333Y-185644285D01*
X161941428Y-185568095D01*
X161979523Y-185530000D01*
X162055714Y-185491904D01*
X162208095Y-185491904D01*
X162284285Y-185530000D01*
X162322380Y-185568095D01*
X162360476Y-185644285D01*
X162360476Y-185834761D01*
X162322380Y-185910952D01*
X162284285Y-185949047D01*
X162208095Y-185987142D01*
X162055714Y-185987142D01*
X161979523Y-185949047D01*
X161941428Y-185910952D01*
X161903333Y-185834761D01*
X161408095Y-185491904D02*
X161331904Y-185491904D01*
X161255714Y-185530000D01*
X161217619Y-185568095D01*
X161179523Y-185644285D01*
X161141428Y-185796666D01*
X161141428Y-185987142D01*
X161179523Y-186139523D01*
X161217619Y-186215714D01*
X161255714Y-186253809D01*
X161331904Y-186291904D01*
X161408095Y-186291904D01*
X161484285Y-186253809D01*
X161522380Y-186215714D01*
X161560476Y-186139523D01*
X161598571Y-185987142D01*
X161598571Y-185796666D01*
X161560476Y-185644285D01*
X161522380Y-185568095D01*
X161484285Y-185530000D01*
X161408095Y-185491904D01*
X160874761Y-185491904D02*
X160341428Y-185491904D01*
X160684285Y-186291904D01*
X168789238Y-181531714D02*
X168827333Y-181569809D01*
X168941619Y-181607904D01*
X169017809Y-181607904D01*
X169132095Y-181569809D01*
X169208285Y-181493619D01*
X169246380Y-181417428D01*
X169284476Y-181265047D01*
X169284476Y-181150761D01*
X169246380Y-180998380D01*
X169208285Y-180922190D01*
X169132095Y-180846000D01*
X169017809Y-180807904D01*
X168941619Y-180807904D01*
X168827333Y-180846000D01*
X168789238Y-180884095D01*
X168408285Y-181607904D02*
X168255904Y-181607904D01*
X168179714Y-181569809D01*
X168141619Y-181531714D01*
X168065428Y-181417428D01*
X168027333Y-181265047D01*
X168027333Y-180960285D01*
X168065428Y-180884095D01*
X168103523Y-180846000D01*
X168179714Y-180807904D01*
X168332095Y-180807904D01*
X168408285Y-180846000D01*
X168446380Y-180884095D01*
X168484476Y-180960285D01*
X168484476Y-181150761D01*
X168446380Y-181226952D01*
X168408285Y-181265047D01*
X168332095Y-181303142D01*
X168179714Y-181303142D01*
X168103523Y-181265047D01*
X168065428Y-181226952D01*
X168027333Y-181150761D01*
X167341619Y-181074571D02*
X167341619Y-181607904D01*
X167532095Y-180769809D02*
X167722571Y-181341238D01*
X167227333Y-181341238D01*
X166579714Y-181074571D02*
X166579714Y-181607904D01*
X166770190Y-180769809D02*
X166960666Y-181341238D01*
X166465428Y-181341238D01*
X197641904Y-147838571D02*
X198289523Y-147838571D01*
X198365714Y-147876666D01*
X198403809Y-147914761D01*
X198441904Y-147990952D01*
X198441904Y-148143333D01*
X198403809Y-148219523D01*
X198365714Y-148257619D01*
X198289523Y-148295714D01*
X197641904Y-148295714D01*
X197984761Y-148790952D02*
X197946666Y-148714761D01*
X197908571Y-148676666D01*
X197832380Y-148638571D01*
X197794285Y-148638571D01*
X197718095Y-148676666D01*
X197680000Y-148714761D01*
X197641904Y-148790952D01*
X197641904Y-148943333D01*
X197680000Y-149019523D01*
X197718095Y-149057619D01*
X197794285Y-149095714D01*
X197832380Y-149095714D01*
X197908571Y-149057619D01*
X197946666Y-149019523D01*
X197984761Y-148943333D01*
X197984761Y-148790952D01*
X198022857Y-148714761D01*
X198060952Y-148676666D01*
X198137142Y-148638571D01*
X198289523Y-148638571D01*
X198365714Y-148676666D01*
X198403809Y-148714761D01*
X198441904Y-148790952D01*
X198441904Y-148943333D01*
X198403809Y-149019523D01*
X198365714Y-149057619D01*
X198289523Y-149095714D01*
X198137142Y-149095714D01*
X198060952Y-149057619D01*
X198022857Y-149019523D01*
X197984761Y-148943333D01*
X197641904Y-149590952D02*
X197641904Y-149667142D01*
X197680000Y-149743333D01*
X197718095Y-149781428D01*
X197794285Y-149819523D01*
X197946666Y-149857619D01*
X198137142Y-149857619D01*
X198289523Y-149819523D01*
X198365714Y-149781428D01*
X198403809Y-149743333D01*
X198441904Y-149667142D01*
X198441904Y-149590952D01*
X198403809Y-149514761D01*
X198365714Y-149476666D01*
X198289523Y-149438571D01*
X198137142Y-149400476D01*
X197946666Y-149400476D01*
X197794285Y-149438571D01*
X197718095Y-149476666D01*
X197680000Y-149514761D01*
X197641904Y-149590952D01*
X198441904Y-150619523D02*
X198441904Y-150162380D01*
X198441904Y-150390952D02*
X197641904Y-150390952D01*
X197756190Y-150314761D01*
X197832380Y-150238571D01*
X197870476Y-150162380D01*
X175885238Y-118775714D02*
X175923333Y-118813809D01*
X176037619Y-118851904D01*
X176113809Y-118851904D01*
X176228095Y-118813809D01*
X176304285Y-118737619D01*
X176342380Y-118661428D01*
X176380476Y-118509047D01*
X176380476Y-118394761D01*
X176342380Y-118242380D01*
X176304285Y-118166190D01*
X176228095Y-118090000D01*
X176113809Y-118051904D01*
X176037619Y-118051904D01*
X175923333Y-118090000D01*
X175885238Y-118128095D01*
X175504285Y-118851904D02*
X175351904Y-118851904D01*
X175275714Y-118813809D01*
X175237619Y-118775714D01*
X175161428Y-118661428D01*
X175123333Y-118509047D01*
X175123333Y-118204285D01*
X175161428Y-118128095D01*
X175199523Y-118090000D01*
X175275714Y-118051904D01*
X175428095Y-118051904D01*
X175504285Y-118090000D01*
X175542380Y-118128095D01*
X175580476Y-118204285D01*
X175580476Y-118394761D01*
X175542380Y-118470952D01*
X175504285Y-118509047D01*
X175428095Y-118547142D01*
X175275714Y-118547142D01*
X175199523Y-118509047D01*
X175161428Y-118470952D01*
X175123333Y-118394761D01*
X174628095Y-118051904D02*
X174551904Y-118051904D01*
X174475714Y-118090000D01*
X174437619Y-118128095D01*
X174399523Y-118204285D01*
X174361428Y-118356666D01*
X174361428Y-118547142D01*
X174399523Y-118699523D01*
X174437619Y-118775714D01*
X174475714Y-118813809D01*
X174551904Y-118851904D01*
X174628095Y-118851904D01*
X174704285Y-118813809D01*
X174742380Y-118775714D01*
X174780476Y-118699523D01*
X174818571Y-118547142D01*
X174818571Y-118356666D01*
X174780476Y-118204285D01*
X174742380Y-118128095D01*
X174704285Y-118090000D01*
X174628095Y-118051904D01*
X173675714Y-118318571D02*
X173675714Y-118851904D01*
X173866190Y-118013809D02*
X174056666Y-118585238D01*
X173561428Y-118585238D01*
X175895238Y-145065714D02*
X175933333Y-145103809D01*
X176047619Y-145141904D01*
X176123809Y-145141904D01*
X176238095Y-145103809D01*
X176314285Y-145027619D01*
X176352380Y-144951428D01*
X176390476Y-144799047D01*
X176390476Y-144684761D01*
X176352380Y-144532380D01*
X176314285Y-144456190D01*
X176238095Y-144380000D01*
X176123809Y-144341904D01*
X176047619Y-144341904D01*
X175933333Y-144380000D01*
X175895238Y-144418095D01*
X175514285Y-145141904D02*
X175361904Y-145141904D01*
X175285714Y-145103809D01*
X175247619Y-145065714D01*
X175171428Y-144951428D01*
X175133333Y-144799047D01*
X175133333Y-144494285D01*
X175171428Y-144418095D01*
X175209523Y-144380000D01*
X175285714Y-144341904D01*
X175438095Y-144341904D01*
X175514285Y-144380000D01*
X175552380Y-144418095D01*
X175590476Y-144494285D01*
X175590476Y-144684761D01*
X175552380Y-144760952D01*
X175514285Y-144799047D01*
X175438095Y-144837142D01*
X175285714Y-144837142D01*
X175209523Y-144799047D01*
X175171428Y-144760952D01*
X175133333Y-144684761D01*
X174371428Y-145141904D02*
X174828571Y-145141904D01*
X174600000Y-145141904D02*
X174600000Y-144341904D01*
X174676190Y-144456190D01*
X174752380Y-144532380D01*
X174828571Y-144570476D01*
X173609523Y-145141904D02*
X174066666Y-145141904D01*
X173838095Y-145141904D02*
X173838095Y-144341904D01*
X173914285Y-144456190D01*
X173990476Y-144532380D01*
X174066666Y-144570476D01*
X154395714Y-157004761D02*
X154433809Y-156966666D01*
X154471904Y-156852380D01*
X154471904Y-156776190D01*
X154433809Y-156661904D01*
X154357619Y-156585714D01*
X154281428Y-156547619D01*
X154129047Y-156509523D01*
X154014761Y-156509523D01*
X153862380Y-156547619D01*
X153786190Y-156585714D01*
X153710000Y-156661904D01*
X153671904Y-156776190D01*
X153671904Y-156852380D01*
X153710000Y-156966666D01*
X153748095Y-157004761D01*
X154471904Y-157385714D02*
X154471904Y-157538095D01*
X154433809Y-157614285D01*
X154395714Y-157652380D01*
X154281428Y-157728571D01*
X154129047Y-157766666D01*
X153824285Y-157766666D01*
X153748095Y-157728571D01*
X153710000Y-157690476D01*
X153671904Y-157614285D01*
X153671904Y-157461904D01*
X153710000Y-157385714D01*
X153748095Y-157347619D01*
X153824285Y-157309523D01*
X154014761Y-157309523D01*
X154090952Y-157347619D01*
X154129047Y-157385714D01*
X154167142Y-157461904D01*
X154167142Y-157614285D01*
X154129047Y-157690476D01*
X154090952Y-157728571D01*
X154014761Y-157766666D01*
X153748095Y-158071428D02*
X153710000Y-158109523D01*
X153671904Y-158185714D01*
X153671904Y-158376190D01*
X153710000Y-158452380D01*
X153748095Y-158490476D01*
X153824285Y-158528571D01*
X153900476Y-158528571D01*
X154014761Y-158490476D01*
X154471904Y-158033333D01*
X154471904Y-158528571D01*
X153748095Y-158833333D02*
X153710000Y-158871428D01*
X153671904Y-158947619D01*
X153671904Y-159138095D01*
X153710000Y-159214285D01*
X153748095Y-159252380D01*
X153824285Y-159290476D01*
X153900476Y-159290476D01*
X154014761Y-159252380D01*
X154471904Y-158795238D01*
X154471904Y-159290476D01*
X176115238Y-169085714D02*
X176153333Y-169123809D01*
X176267619Y-169161904D01*
X176343809Y-169161904D01*
X176458095Y-169123809D01*
X176534285Y-169047619D01*
X176572380Y-168971428D01*
X176610476Y-168819047D01*
X176610476Y-168704761D01*
X176572380Y-168552380D01*
X176534285Y-168476190D01*
X176458095Y-168400000D01*
X176343809Y-168361904D01*
X176267619Y-168361904D01*
X176153333Y-168400000D01*
X176115238Y-168438095D01*
X175734285Y-169161904D02*
X175581904Y-169161904D01*
X175505714Y-169123809D01*
X175467619Y-169085714D01*
X175391428Y-168971428D01*
X175353333Y-168819047D01*
X175353333Y-168514285D01*
X175391428Y-168438095D01*
X175429523Y-168400000D01*
X175505714Y-168361904D01*
X175658095Y-168361904D01*
X175734285Y-168400000D01*
X175772380Y-168438095D01*
X175810476Y-168514285D01*
X175810476Y-168704761D01*
X175772380Y-168780952D01*
X175734285Y-168819047D01*
X175658095Y-168857142D01*
X175505714Y-168857142D01*
X175429523Y-168819047D01*
X175391428Y-168780952D01*
X175353333Y-168704761D01*
X174591428Y-169161904D02*
X175048571Y-169161904D01*
X174820000Y-169161904D02*
X174820000Y-168361904D01*
X174896190Y-168476190D01*
X174972380Y-168552380D01*
X175048571Y-168590476D01*
X174210476Y-169161904D02*
X174058095Y-169161904D01*
X173981904Y-169123809D01*
X173943809Y-169085714D01*
X173867619Y-168971428D01*
X173829523Y-168819047D01*
X173829523Y-168514285D01*
X173867619Y-168438095D01*
X173905714Y-168400000D01*
X173981904Y-168361904D01*
X174134285Y-168361904D01*
X174210476Y-168400000D01*
X174248571Y-168438095D01*
X174286666Y-168514285D01*
X174286666Y-168704761D01*
X174248571Y-168780952D01*
X174210476Y-168819047D01*
X174134285Y-168857142D01*
X173981904Y-168857142D01*
X173905714Y-168819047D01*
X173867619Y-168780952D01*
X173829523Y-168704761D01*
X148961904Y-156432419D02*
X148161904Y-156432419D01*
X148161904Y-156622895D01*
X148200000Y-156737180D01*
X148276190Y-156813371D01*
X148352380Y-156851466D01*
X148504761Y-156889561D01*
X148619047Y-156889561D01*
X148771428Y-156851466D01*
X148847619Y-156813371D01*
X148923809Y-156737180D01*
X148961904Y-156622895D01*
X148961904Y-156432419D01*
X148428571Y-157575276D02*
X148961904Y-157575276D01*
X148123809Y-157384800D02*
X148695238Y-157194323D01*
X148695238Y-157689561D01*
X148161904Y-158146704D02*
X148161904Y-158222895D01*
X148200000Y-158299085D01*
X148238095Y-158337180D01*
X148314285Y-158375276D01*
X148466666Y-158413371D01*
X148657142Y-158413371D01*
X148809523Y-158375276D01*
X148885714Y-158337180D01*
X148923809Y-158299085D01*
X148961904Y-158222895D01*
X148961904Y-158146704D01*
X148923809Y-158070514D01*
X148885714Y-158032419D01*
X148809523Y-157994323D01*
X148657142Y-157956228D01*
X148466666Y-157956228D01*
X148314285Y-157994323D01*
X148238095Y-158032419D01*
X148200000Y-158070514D01*
X148161904Y-158146704D01*
X148238095Y-158718133D02*
X148200000Y-158756228D01*
X148161904Y-158832419D01*
X148161904Y-159022895D01*
X148200000Y-159099085D01*
X148238095Y-159137180D01*
X148314285Y-159175276D01*
X148390476Y-159175276D01*
X148504761Y-159137180D01*
X148961904Y-158680038D01*
X148961904Y-159175276D01*
X161131428Y-174711904D02*
X161131428Y-175359523D01*
X161093333Y-175435714D01*
X161055238Y-175473809D01*
X160979047Y-175511904D01*
X160826666Y-175511904D01*
X160750476Y-175473809D01*
X160712380Y-175435714D01*
X160674285Y-175359523D01*
X160674285Y-174711904D01*
X160255238Y-175511904D02*
X160102857Y-175511904D01*
X160026666Y-175473809D01*
X159988571Y-175435714D01*
X159912380Y-175321428D01*
X159874285Y-175169047D01*
X159874285Y-174864285D01*
X159912380Y-174788095D01*
X159950476Y-174750000D01*
X160026666Y-174711904D01*
X160179047Y-174711904D01*
X160255238Y-174750000D01*
X160293333Y-174788095D01*
X160331428Y-174864285D01*
X160331428Y-175054761D01*
X160293333Y-175130952D01*
X160255238Y-175169047D01*
X160179047Y-175207142D01*
X160026666Y-175207142D01*
X159950476Y-175169047D01*
X159912380Y-175130952D01*
X159874285Y-175054761D01*
X159379047Y-174711904D02*
X159302857Y-174711904D01*
X159226666Y-174750000D01*
X159188571Y-174788095D01*
X159150476Y-174864285D01*
X159112380Y-175016666D01*
X159112380Y-175207142D01*
X159150476Y-175359523D01*
X159188571Y-175435714D01*
X159226666Y-175473809D01*
X159302857Y-175511904D01*
X159379047Y-175511904D01*
X159455238Y-175473809D01*
X159493333Y-175435714D01*
X159531428Y-175359523D01*
X159569523Y-175207142D01*
X159569523Y-175016666D01*
X159531428Y-174864285D01*
X159493333Y-174788095D01*
X159455238Y-174750000D01*
X159379047Y-174711904D01*
X158426666Y-174711904D02*
X158579047Y-174711904D01*
X158655238Y-174750000D01*
X158693333Y-174788095D01*
X158769523Y-174902380D01*
X158807619Y-175054761D01*
X158807619Y-175359523D01*
X158769523Y-175435714D01*
X158731428Y-175473809D01*
X158655238Y-175511904D01*
X158502857Y-175511904D01*
X158426666Y-175473809D01*
X158388571Y-175435714D01*
X158350476Y-175359523D01*
X158350476Y-175169047D01*
X158388571Y-175092857D01*
X158426666Y-175054761D01*
X158502857Y-175016666D01*
X158655238Y-175016666D01*
X158731428Y-175054761D01*
X158769523Y-175092857D01*
X158807619Y-175169047D01*
X308828095Y-105162238D02*
X309209047Y-105428904D01*
X308828095Y-105619380D02*
X309628095Y-105619380D01*
X309628095Y-105314619D01*
X309590000Y-105238428D01*
X309551904Y-105200333D01*
X309475714Y-105162238D01*
X309361428Y-105162238D01*
X309285238Y-105200333D01*
X309247142Y-105238428D01*
X309209047Y-105314619D01*
X309209047Y-105619380D01*
X309628095Y-104895571D02*
X309628095Y-104362238D01*
X308828095Y-104705095D01*
X309628095Y-103905095D02*
X309628095Y-103828904D01*
X309590000Y-103752714D01*
X309551904Y-103714619D01*
X309475714Y-103676523D01*
X309323333Y-103638428D01*
X309132857Y-103638428D01*
X308980476Y-103676523D01*
X308904285Y-103714619D01*
X308866190Y-103752714D01*
X308828095Y-103828904D01*
X308828095Y-103905095D01*
X308866190Y-103981285D01*
X308904285Y-104019380D01*
X308980476Y-104057476D01*
X309132857Y-104095571D01*
X309323333Y-104095571D01*
X309475714Y-104057476D01*
X309551904Y-104019380D01*
X309590000Y-103981285D01*
X309628095Y-103905095D01*
X309628095Y-103371761D02*
X309628095Y-102876523D01*
X309323333Y-103143190D01*
X309323333Y-103028904D01*
X309285238Y-102952714D01*
X309247142Y-102914619D01*
X309170952Y-102876523D01*
X308980476Y-102876523D01*
X308904285Y-102914619D01*
X308866190Y-102952714D01*
X308828095Y-103028904D01*
X308828095Y-103257476D01*
X308866190Y-103333666D01*
X308904285Y-103371761D01*
X161137428Y-150731904D02*
X161137428Y-151379523D01*
X161099333Y-151455714D01*
X161061238Y-151493809D01*
X160985047Y-151531904D01*
X160832666Y-151531904D01*
X160756476Y-151493809D01*
X160718380Y-151455714D01*
X160680285Y-151379523D01*
X160680285Y-150731904D01*
X160261238Y-151531904D02*
X160108857Y-151531904D01*
X160032666Y-151493809D01*
X159994571Y-151455714D01*
X159918380Y-151341428D01*
X159880285Y-151189047D01*
X159880285Y-150884285D01*
X159918380Y-150808095D01*
X159956476Y-150770000D01*
X160032666Y-150731904D01*
X160185047Y-150731904D01*
X160261238Y-150770000D01*
X160299333Y-150808095D01*
X160337428Y-150884285D01*
X160337428Y-151074761D01*
X160299333Y-151150952D01*
X160261238Y-151189047D01*
X160185047Y-151227142D01*
X160032666Y-151227142D01*
X159956476Y-151189047D01*
X159918380Y-151150952D01*
X159880285Y-151074761D01*
X159385047Y-150731904D02*
X159308857Y-150731904D01*
X159232666Y-150770000D01*
X159194571Y-150808095D01*
X159156476Y-150884285D01*
X159118380Y-151036666D01*
X159118380Y-151227142D01*
X159156476Y-151379523D01*
X159194571Y-151455714D01*
X159232666Y-151493809D01*
X159308857Y-151531904D01*
X159385047Y-151531904D01*
X159461238Y-151493809D01*
X159499333Y-151455714D01*
X159537428Y-151379523D01*
X159575523Y-151227142D01*
X159575523Y-151036666D01*
X159537428Y-150884285D01*
X159499333Y-150808095D01*
X159461238Y-150770000D01*
X159385047Y-150731904D01*
X158432666Y-150998571D02*
X158432666Y-151531904D01*
X158623142Y-150693809D02*
X158813619Y-151265238D01*
X158318380Y-151265238D01*
X166505238Y-146795714D02*
X166543333Y-146833809D01*
X166657619Y-146871904D01*
X166733809Y-146871904D01*
X166848095Y-146833809D01*
X166924285Y-146757619D01*
X166962380Y-146681428D01*
X167000476Y-146529047D01*
X167000476Y-146414761D01*
X166962380Y-146262380D01*
X166924285Y-146186190D01*
X166848095Y-146110000D01*
X166733809Y-146071904D01*
X166657619Y-146071904D01*
X166543333Y-146110000D01*
X166505238Y-146148095D01*
X166124285Y-146871904D02*
X165971904Y-146871904D01*
X165895714Y-146833809D01*
X165857619Y-146795714D01*
X165781428Y-146681428D01*
X165743333Y-146529047D01*
X165743333Y-146224285D01*
X165781428Y-146148095D01*
X165819523Y-146110000D01*
X165895714Y-146071904D01*
X166048095Y-146071904D01*
X166124285Y-146110000D01*
X166162380Y-146148095D01*
X166200476Y-146224285D01*
X166200476Y-146414761D01*
X166162380Y-146490952D01*
X166124285Y-146529047D01*
X166048095Y-146567142D01*
X165895714Y-146567142D01*
X165819523Y-146529047D01*
X165781428Y-146490952D01*
X165743333Y-146414761D01*
X165476666Y-146071904D02*
X164981428Y-146071904D01*
X165248095Y-146376666D01*
X165133809Y-146376666D01*
X165057619Y-146414761D01*
X165019523Y-146452857D01*
X164981428Y-146529047D01*
X164981428Y-146719523D01*
X165019523Y-146795714D01*
X165057619Y-146833809D01*
X165133809Y-146871904D01*
X165362380Y-146871904D01*
X165438571Y-146833809D01*
X165476666Y-146795714D01*
X164600476Y-146871904D02*
X164448095Y-146871904D01*
X164371904Y-146833809D01*
X164333809Y-146795714D01*
X164257619Y-146681428D01*
X164219523Y-146529047D01*
X164219523Y-146224285D01*
X164257619Y-146148095D01*
X164295714Y-146110000D01*
X164371904Y-146071904D01*
X164524285Y-146071904D01*
X164600476Y-146110000D01*
X164638571Y-146148095D01*
X164676666Y-146224285D01*
X164676666Y-146414761D01*
X164638571Y-146490952D01*
X164600476Y-146529047D01*
X164524285Y-146567142D01*
X164371904Y-146567142D01*
X164295714Y-146529047D01*
X164257619Y-146490952D01*
X164219523Y-146414761D01*
X216635714Y-149980761D02*
X216673809Y-149942666D01*
X216711904Y-149828380D01*
X216711904Y-149752190D01*
X216673809Y-149637904D01*
X216597619Y-149561714D01*
X216521428Y-149523619D01*
X216369047Y-149485523D01*
X216254761Y-149485523D01*
X216102380Y-149523619D01*
X216026190Y-149561714D01*
X215950000Y-149637904D01*
X215911904Y-149752190D01*
X215911904Y-149828380D01*
X215950000Y-149942666D01*
X215988095Y-149980761D01*
X216254761Y-150437904D02*
X216216666Y-150361714D01*
X216178571Y-150323619D01*
X216102380Y-150285523D01*
X216064285Y-150285523D01*
X215988095Y-150323619D01*
X215950000Y-150361714D01*
X215911904Y-150437904D01*
X215911904Y-150590285D01*
X215950000Y-150666476D01*
X215988095Y-150704571D01*
X216064285Y-150742666D01*
X216102380Y-150742666D01*
X216178571Y-150704571D01*
X216216666Y-150666476D01*
X216254761Y-150590285D01*
X216254761Y-150437904D01*
X216292857Y-150361714D01*
X216330952Y-150323619D01*
X216407142Y-150285523D01*
X216559523Y-150285523D01*
X216635714Y-150323619D01*
X216673809Y-150361714D01*
X216711904Y-150437904D01*
X216711904Y-150590285D01*
X216673809Y-150666476D01*
X216635714Y-150704571D01*
X216559523Y-150742666D01*
X216407142Y-150742666D01*
X216330952Y-150704571D01*
X216292857Y-150666476D01*
X216254761Y-150590285D01*
X215911904Y-151237904D02*
X215911904Y-151314095D01*
X215950000Y-151390285D01*
X215988095Y-151428380D01*
X216064285Y-151466476D01*
X216216666Y-151504571D01*
X216407142Y-151504571D01*
X216559523Y-151466476D01*
X216635714Y-151428380D01*
X216673809Y-151390285D01*
X216711904Y-151314095D01*
X216711904Y-151237904D01*
X216673809Y-151161714D01*
X216635714Y-151123619D01*
X216559523Y-151085523D01*
X216407142Y-151047428D01*
X216216666Y-151047428D01*
X216064285Y-151085523D01*
X215988095Y-151123619D01*
X215950000Y-151161714D01*
X215911904Y-151237904D01*
X215988095Y-151809333D02*
X215950000Y-151847428D01*
X215911904Y-151923619D01*
X215911904Y-152114095D01*
X215950000Y-152190285D01*
X215988095Y-152228380D01*
X216064285Y-152266476D01*
X216140476Y-152266476D01*
X216254761Y-152228380D01*
X216711904Y-151771238D01*
X216711904Y-152266476D01*
X308938095Y-116445238D02*
X309319047Y-116711904D01*
X308938095Y-116902380D02*
X309738095Y-116902380D01*
X309738095Y-116597619D01*
X309700000Y-116521428D01*
X309661904Y-116483333D01*
X309585714Y-116445238D01*
X309471428Y-116445238D01*
X309395238Y-116483333D01*
X309357142Y-116521428D01*
X309319047Y-116597619D01*
X309319047Y-116902380D01*
X309738095Y-116178571D02*
X309738095Y-115645238D01*
X308938095Y-115988095D01*
X309738095Y-115188095D02*
X309738095Y-115111904D01*
X309700000Y-115035714D01*
X309661904Y-114997619D01*
X309585714Y-114959523D01*
X309433333Y-114921428D01*
X309242857Y-114921428D01*
X309090476Y-114959523D01*
X309014285Y-114997619D01*
X308976190Y-115035714D01*
X308938095Y-115111904D01*
X308938095Y-115188095D01*
X308976190Y-115264285D01*
X309014285Y-115302380D01*
X309090476Y-115340476D01*
X309242857Y-115378571D01*
X309433333Y-115378571D01*
X309585714Y-115340476D01*
X309661904Y-115302380D01*
X309700000Y-115264285D01*
X309738095Y-115188095D01*
X309738095Y-114197619D02*
X309738095Y-114578571D01*
X309357142Y-114616666D01*
X309395238Y-114578571D01*
X309433333Y-114502380D01*
X309433333Y-114311904D01*
X309395238Y-114235714D01*
X309357142Y-114197619D01*
X309280952Y-114159523D01*
X309090476Y-114159523D01*
X309014285Y-114197619D01*
X308976190Y-114235714D01*
X308938095Y-114311904D01*
X308938095Y-114502380D01*
X308976190Y-114578571D01*
X309014285Y-114616666D01*
X154375714Y-108904761D02*
X154413809Y-108866666D01*
X154451904Y-108752380D01*
X154451904Y-108676190D01*
X154413809Y-108561904D01*
X154337619Y-108485714D01*
X154261428Y-108447619D01*
X154109047Y-108409523D01*
X153994761Y-108409523D01*
X153842380Y-108447619D01*
X153766190Y-108485714D01*
X153690000Y-108561904D01*
X153651904Y-108676190D01*
X153651904Y-108752380D01*
X153690000Y-108866666D01*
X153728095Y-108904761D01*
X154451904Y-109285714D02*
X154451904Y-109438095D01*
X154413809Y-109514285D01*
X154375714Y-109552380D01*
X154261428Y-109628571D01*
X154109047Y-109666666D01*
X153804285Y-109666666D01*
X153728095Y-109628571D01*
X153690000Y-109590476D01*
X153651904Y-109514285D01*
X153651904Y-109361904D01*
X153690000Y-109285714D01*
X153728095Y-109247619D01*
X153804285Y-109209523D01*
X153994761Y-109209523D01*
X154070952Y-109247619D01*
X154109047Y-109285714D01*
X154147142Y-109361904D01*
X154147142Y-109514285D01*
X154109047Y-109590476D01*
X154070952Y-109628571D01*
X153994761Y-109666666D01*
X153651904Y-110161904D02*
X153651904Y-110238095D01*
X153690000Y-110314285D01*
X153728095Y-110352380D01*
X153804285Y-110390476D01*
X153956666Y-110428571D01*
X154147142Y-110428571D01*
X154299523Y-110390476D01*
X154375714Y-110352380D01*
X154413809Y-110314285D01*
X154451904Y-110238095D01*
X154451904Y-110161904D01*
X154413809Y-110085714D01*
X154375714Y-110047619D01*
X154299523Y-110009523D01*
X154147142Y-109971428D01*
X153956666Y-109971428D01*
X153804285Y-110009523D01*
X153728095Y-110047619D01*
X153690000Y-110085714D01*
X153651904Y-110161904D01*
X153651904Y-111114285D02*
X153651904Y-110961904D01*
X153690000Y-110885714D01*
X153728095Y-110847619D01*
X153842380Y-110771428D01*
X153994761Y-110733333D01*
X154299523Y-110733333D01*
X154375714Y-110771428D01*
X154413809Y-110809523D01*
X154451904Y-110885714D01*
X154451904Y-111038095D01*
X154413809Y-111114285D01*
X154375714Y-111152380D01*
X154299523Y-111190476D01*
X154109047Y-111190476D01*
X154032857Y-111152380D01*
X153994761Y-111114285D01*
X153956666Y-111038095D01*
X153956666Y-110885714D01*
X153994761Y-110809523D01*
X154032857Y-110771428D01*
X154109047Y-110733333D01*
X121581904Y-69167619D02*
X120781904Y-69167619D01*
X120781904Y-69358095D01*
X120820000Y-69472380D01*
X120896190Y-69548571D01*
X120972380Y-69586666D01*
X121124761Y-69624761D01*
X121239047Y-69624761D01*
X121391428Y-69586666D01*
X121467619Y-69548571D01*
X121543809Y-69472380D01*
X121581904Y-69358095D01*
X121581904Y-69167619D01*
X120781904Y-69891428D02*
X120781904Y-70424761D01*
X121581904Y-70081904D01*
X120781904Y-70881904D02*
X120781904Y-70958095D01*
X120820000Y-71034285D01*
X120858095Y-71072380D01*
X120934285Y-71110476D01*
X121086666Y-71148571D01*
X121277142Y-71148571D01*
X121429523Y-71110476D01*
X121505714Y-71072380D01*
X121543809Y-71034285D01*
X121581904Y-70958095D01*
X121581904Y-70881904D01*
X121543809Y-70805714D01*
X121505714Y-70767619D01*
X121429523Y-70729523D01*
X121277142Y-70691428D01*
X121086666Y-70691428D01*
X120934285Y-70729523D01*
X120858095Y-70767619D01*
X120820000Y-70805714D01*
X120781904Y-70881904D01*
X121581904Y-71910476D02*
X121581904Y-71453333D01*
X121581904Y-71681904D02*
X120781904Y-71681904D01*
X120896190Y-71605714D01*
X120972380Y-71529523D01*
X121010476Y-71453333D01*
X175855238Y-142775714D02*
X175893333Y-142813809D01*
X176007619Y-142851904D01*
X176083809Y-142851904D01*
X176198095Y-142813809D01*
X176274285Y-142737619D01*
X176312380Y-142661428D01*
X176350476Y-142509047D01*
X176350476Y-142394761D01*
X176312380Y-142242380D01*
X176274285Y-142166190D01*
X176198095Y-142090000D01*
X176083809Y-142051904D01*
X176007619Y-142051904D01*
X175893333Y-142090000D01*
X175855238Y-142128095D01*
X175474285Y-142851904D02*
X175321904Y-142851904D01*
X175245714Y-142813809D01*
X175207619Y-142775714D01*
X175131428Y-142661428D01*
X175093333Y-142509047D01*
X175093333Y-142204285D01*
X175131428Y-142128095D01*
X175169523Y-142090000D01*
X175245714Y-142051904D01*
X175398095Y-142051904D01*
X175474285Y-142090000D01*
X175512380Y-142128095D01*
X175550476Y-142204285D01*
X175550476Y-142394761D01*
X175512380Y-142470952D01*
X175474285Y-142509047D01*
X175398095Y-142547142D01*
X175245714Y-142547142D01*
X175169523Y-142509047D01*
X175131428Y-142470952D01*
X175093333Y-142394761D01*
X174331428Y-142851904D02*
X174788571Y-142851904D01*
X174560000Y-142851904D02*
X174560000Y-142051904D01*
X174636190Y-142166190D01*
X174712380Y-142242380D01*
X174788571Y-142280476D01*
X174026666Y-142128095D02*
X173988571Y-142090000D01*
X173912380Y-142051904D01*
X173721904Y-142051904D01*
X173645714Y-142090000D01*
X173607619Y-142128095D01*
X173569523Y-142204285D01*
X173569523Y-142280476D01*
X173607619Y-142394761D01*
X174064761Y-142851904D01*
X173569523Y-142851904D01*
X211261904Y-153938571D02*
X211909523Y-153938571D01*
X211985714Y-153976666D01*
X212023809Y-154014761D01*
X212061904Y-154090952D01*
X212061904Y-154243333D01*
X212023809Y-154319523D01*
X211985714Y-154357619D01*
X211909523Y-154395714D01*
X211261904Y-154395714D01*
X211604761Y-154890952D02*
X211566666Y-154814761D01*
X211528571Y-154776666D01*
X211452380Y-154738571D01*
X211414285Y-154738571D01*
X211338095Y-154776666D01*
X211300000Y-154814761D01*
X211261904Y-154890952D01*
X211261904Y-155043333D01*
X211300000Y-155119523D01*
X211338095Y-155157619D01*
X211414285Y-155195714D01*
X211452380Y-155195714D01*
X211528571Y-155157619D01*
X211566666Y-155119523D01*
X211604761Y-155043333D01*
X211604761Y-154890952D01*
X211642857Y-154814761D01*
X211680952Y-154776666D01*
X211757142Y-154738571D01*
X211909523Y-154738571D01*
X211985714Y-154776666D01*
X212023809Y-154814761D01*
X212061904Y-154890952D01*
X212061904Y-155043333D01*
X212023809Y-155119523D01*
X211985714Y-155157619D01*
X211909523Y-155195714D01*
X211757142Y-155195714D01*
X211680952Y-155157619D01*
X211642857Y-155119523D01*
X211604761Y-155043333D01*
X211261904Y-155690952D02*
X211261904Y-155767142D01*
X211300000Y-155843333D01*
X211338095Y-155881428D01*
X211414285Y-155919523D01*
X211566666Y-155957619D01*
X211757142Y-155957619D01*
X211909523Y-155919523D01*
X211985714Y-155881428D01*
X212023809Y-155843333D01*
X212061904Y-155767142D01*
X212061904Y-155690952D01*
X212023809Y-155614761D01*
X211985714Y-155576666D01*
X211909523Y-155538571D01*
X211757142Y-155500476D01*
X211566666Y-155500476D01*
X211414285Y-155538571D01*
X211338095Y-155576666D01*
X211300000Y-155614761D01*
X211261904Y-155690952D01*
X211338095Y-156262380D02*
X211300000Y-156300476D01*
X211261904Y-156376666D01*
X211261904Y-156567142D01*
X211300000Y-156643333D01*
X211338095Y-156681428D01*
X211414285Y-156719523D01*
X211490476Y-156719523D01*
X211604761Y-156681428D01*
X212061904Y-156224285D01*
X212061904Y-156719523D01*
X166535238Y-122895714D02*
X166573333Y-122933809D01*
X166687619Y-122971904D01*
X166763809Y-122971904D01*
X166878095Y-122933809D01*
X166954285Y-122857619D01*
X166992380Y-122781428D01*
X167030476Y-122629047D01*
X167030476Y-122514761D01*
X166992380Y-122362380D01*
X166954285Y-122286190D01*
X166878095Y-122210000D01*
X166763809Y-122171904D01*
X166687619Y-122171904D01*
X166573333Y-122210000D01*
X166535238Y-122248095D01*
X166154285Y-122971904D02*
X166001904Y-122971904D01*
X165925714Y-122933809D01*
X165887619Y-122895714D01*
X165811428Y-122781428D01*
X165773333Y-122629047D01*
X165773333Y-122324285D01*
X165811428Y-122248095D01*
X165849523Y-122210000D01*
X165925714Y-122171904D01*
X166078095Y-122171904D01*
X166154285Y-122210000D01*
X166192380Y-122248095D01*
X166230476Y-122324285D01*
X166230476Y-122514761D01*
X166192380Y-122590952D01*
X166154285Y-122629047D01*
X166078095Y-122667142D01*
X165925714Y-122667142D01*
X165849523Y-122629047D01*
X165811428Y-122590952D01*
X165773333Y-122514761D01*
X165506666Y-122171904D02*
X165011428Y-122171904D01*
X165278095Y-122476666D01*
X165163809Y-122476666D01*
X165087619Y-122514761D01*
X165049523Y-122552857D01*
X165011428Y-122629047D01*
X165011428Y-122819523D01*
X165049523Y-122895714D01*
X165087619Y-122933809D01*
X165163809Y-122971904D01*
X165392380Y-122971904D01*
X165468571Y-122933809D01*
X165506666Y-122895714D01*
X164744761Y-122171904D02*
X164211428Y-122171904D01*
X164554285Y-122971904D01*
X149031904Y-103447619D02*
X148231904Y-103447619D01*
X148231904Y-103638095D01*
X148270000Y-103752380D01*
X148346190Y-103828571D01*
X148422380Y-103866666D01*
X148574761Y-103904761D01*
X148689047Y-103904761D01*
X148841428Y-103866666D01*
X148917619Y-103828571D01*
X148993809Y-103752380D01*
X149031904Y-103638095D01*
X149031904Y-103447619D01*
X148308095Y-104209523D02*
X148270000Y-104247619D01*
X148231904Y-104323809D01*
X148231904Y-104514285D01*
X148270000Y-104590476D01*
X148308095Y-104628571D01*
X148384285Y-104666666D01*
X148460476Y-104666666D01*
X148574761Y-104628571D01*
X149031904Y-104171428D01*
X149031904Y-104666666D01*
X148231904Y-105161904D02*
X148231904Y-105238095D01*
X148270000Y-105314285D01*
X148308095Y-105352380D01*
X148384285Y-105390476D01*
X148536666Y-105428571D01*
X148727142Y-105428571D01*
X148879523Y-105390476D01*
X148955714Y-105352380D01*
X148993809Y-105314285D01*
X149031904Y-105238095D01*
X149031904Y-105161904D01*
X148993809Y-105085714D01*
X148955714Y-105047619D01*
X148879523Y-105009523D01*
X148727142Y-104971428D01*
X148536666Y-104971428D01*
X148384285Y-105009523D01*
X148308095Y-105047619D01*
X148270000Y-105085714D01*
X148231904Y-105161904D01*
X149031904Y-106190476D02*
X149031904Y-105733333D01*
X149031904Y-105961904D02*
X148231904Y-105961904D01*
X148346190Y-105885714D01*
X148422380Y-105809523D01*
X148460476Y-105733333D01*
X166485238Y-194895714D02*
X166523333Y-194933809D01*
X166637619Y-194971904D01*
X166713809Y-194971904D01*
X166828095Y-194933809D01*
X166904285Y-194857619D01*
X166942380Y-194781428D01*
X166980476Y-194629047D01*
X166980476Y-194514761D01*
X166942380Y-194362380D01*
X166904285Y-194286190D01*
X166828095Y-194210000D01*
X166713809Y-194171904D01*
X166637619Y-194171904D01*
X166523333Y-194210000D01*
X166485238Y-194248095D01*
X166104285Y-194971904D02*
X165951904Y-194971904D01*
X165875714Y-194933809D01*
X165837619Y-194895714D01*
X165761428Y-194781428D01*
X165723333Y-194629047D01*
X165723333Y-194324285D01*
X165761428Y-194248095D01*
X165799523Y-194210000D01*
X165875714Y-194171904D01*
X166028095Y-194171904D01*
X166104285Y-194210000D01*
X166142380Y-194248095D01*
X166180476Y-194324285D01*
X166180476Y-194514761D01*
X166142380Y-194590952D01*
X166104285Y-194629047D01*
X166028095Y-194667142D01*
X165875714Y-194667142D01*
X165799523Y-194629047D01*
X165761428Y-194590952D01*
X165723333Y-194514761D01*
X165037619Y-194438571D02*
X165037619Y-194971904D01*
X165228095Y-194133809D02*
X165418571Y-194705238D01*
X164923333Y-194705238D01*
X164694761Y-194171904D02*
X164199523Y-194171904D01*
X164466190Y-194476666D01*
X164351904Y-194476666D01*
X164275714Y-194514761D01*
X164237619Y-194552857D01*
X164199523Y-194629047D01*
X164199523Y-194819523D01*
X164237619Y-194895714D01*
X164275714Y-194933809D01*
X164351904Y-194971904D01*
X164580476Y-194971904D01*
X164656666Y-194933809D01*
X164694761Y-194895714D01*
X166503238Y-170635714D02*
X166541333Y-170673809D01*
X166655619Y-170711904D01*
X166731809Y-170711904D01*
X166846095Y-170673809D01*
X166922285Y-170597619D01*
X166960380Y-170521428D01*
X166998476Y-170369047D01*
X166998476Y-170254761D01*
X166960380Y-170102380D01*
X166922285Y-170026190D01*
X166846095Y-169950000D01*
X166731809Y-169911904D01*
X166655619Y-169911904D01*
X166541333Y-169950000D01*
X166503238Y-169988095D01*
X166122285Y-170711904D02*
X165969904Y-170711904D01*
X165893714Y-170673809D01*
X165855619Y-170635714D01*
X165779428Y-170521428D01*
X165741333Y-170369047D01*
X165741333Y-170064285D01*
X165779428Y-169988095D01*
X165817523Y-169950000D01*
X165893714Y-169911904D01*
X166046095Y-169911904D01*
X166122285Y-169950000D01*
X166160380Y-169988095D01*
X166198476Y-170064285D01*
X166198476Y-170254761D01*
X166160380Y-170330952D01*
X166122285Y-170369047D01*
X166046095Y-170407142D01*
X165893714Y-170407142D01*
X165817523Y-170369047D01*
X165779428Y-170330952D01*
X165741333Y-170254761D01*
X165055619Y-170178571D02*
X165055619Y-170711904D01*
X165246095Y-169873809D02*
X165436571Y-170445238D01*
X164941333Y-170445238D01*
X164217523Y-170711904D02*
X164674666Y-170711904D01*
X164446095Y-170711904D02*
X164446095Y-169911904D01*
X164522285Y-170026190D01*
X164598476Y-170102380D01*
X164674666Y-170140476D01*
X149041904Y-127441619D02*
X148241904Y-127441619D01*
X148241904Y-127632095D01*
X148280000Y-127746380D01*
X148356190Y-127822571D01*
X148432380Y-127860666D01*
X148584761Y-127898761D01*
X148699047Y-127898761D01*
X148851428Y-127860666D01*
X148927619Y-127822571D01*
X149003809Y-127746380D01*
X149041904Y-127632095D01*
X149041904Y-127441619D01*
X148241904Y-128165428D02*
X148241904Y-128660666D01*
X148546666Y-128394000D01*
X148546666Y-128508285D01*
X148584761Y-128584476D01*
X148622857Y-128622571D01*
X148699047Y-128660666D01*
X148889523Y-128660666D01*
X148965714Y-128622571D01*
X149003809Y-128584476D01*
X149041904Y-128508285D01*
X149041904Y-128279714D01*
X149003809Y-128203523D01*
X148965714Y-128165428D01*
X148241904Y-129155904D02*
X148241904Y-129232095D01*
X148280000Y-129308285D01*
X148318095Y-129346380D01*
X148394285Y-129384476D01*
X148546666Y-129422571D01*
X148737142Y-129422571D01*
X148889523Y-129384476D01*
X148965714Y-129346380D01*
X149003809Y-129308285D01*
X149041904Y-129232095D01*
X149041904Y-129155904D01*
X149003809Y-129079714D01*
X148965714Y-129041619D01*
X148889523Y-129003523D01*
X148737142Y-128965428D01*
X148546666Y-128965428D01*
X148394285Y-129003523D01*
X148318095Y-129041619D01*
X148280000Y-129079714D01*
X148241904Y-129155904D01*
X149041904Y-130184476D02*
X149041904Y-129727333D01*
X149041904Y-129955904D02*
X148241904Y-129955904D01*
X148356190Y-129879714D01*
X148432380Y-129803523D01*
X148470476Y-129727333D01*
X308828095Y-93859238D02*
X309209047Y-94125904D01*
X308828095Y-94316380D02*
X309628095Y-94316380D01*
X309628095Y-94011619D01*
X309590000Y-93935428D01*
X309551904Y-93897333D01*
X309475714Y-93859238D01*
X309361428Y-93859238D01*
X309285238Y-93897333D01*
X309247142Y-93935428D01*
X309209047Y-94011619D01*
X309209047Y-94316380D01*
X309628095Y-93592571D02*
X309628095Y-93059238D01*
X308828095Y-93402095D01*
X309628095Y-92602095D02*
X309628095Y-92525904D01*
X309590000Y-92449714D01*
X309551904Y-92411619D01*
X309475714Y-92373523D01*
X309323333Y-92335428D01*
X309132857Y-92335428D01*
X308980476Y-92373523D01*
X308904285Y-92411619D01*
X308866190Y-92449714D01*
X308828095Y-92525904D01*
X308828095Y-92602095D01*
X308866190Y-92678285D01*
X308904285Y-92716380D01*
X308980476Y-92754476D01*
X309132857Y-92792571D01*
X309323333Y-92792571D01*
X309475714Y-92754476D01*
X309551904Y-92716380D01*
X309590000Y-92678285D01*
X309628095Y-92602095D01*
X308828095Y-91573523D02*
X308828095Y-92030666D01*
X308828095Y-91802095D02*
X309628095Y-91802095D01*
X309513809Y-91878285D01*
X309437619Y-91954476D01*
X309399523Y-92030666D01*
X201047238Y-142201904D02*
X201313904Y-141820952D01*
X201504380Y-142201904D02*
X201504380Y-141401904D01*
X201199619Y-141401904D01*
X201123428Y-141440000D01*
X201085333Y-141478095D01*
X201047238Y-141554285D01*
X201047238Y-141668571D01*
X201085333Y-141744761D01*
X201123428Y-141782857D01*
X201199619Y-141820952D01*
X201504380Y-141820952D01*
X200590095Y-141744761D02*
X200666285Y-141706666D01*
X200704380Y-141668571D01*
X200742476Y-141592380D01*
X200742476Y-141554285D01*
X200704380Y-141478095D01*
X200666285Y-141440000D01*
X200590095Y-141401904D01*
X200437714Y-141401904D01*
X200361523Y-141440000D01*
X200323428Y-141478095D01*
X200285333Y-141554285D01*
X200285333Y-141592380D01*
X200323428Y-141668571D01*
X200361523Y-141706666D01*
X200437714Y-141744761D01*
X200590095Y-141744761D01*
X200666285Y-141782857D01*
X200704380Y-141820952D01*
X200742476Y-141897142D01*
X200742476Y-142049523D01*
X200704380Y-142125714D01*
X200666285Y-142163809D01*
X200590095Y-142201904D01*
X200437714Y-142201904D01*
X200361523Y-142163809D01*
X200323428Y-142125714D01*
X200285333Y-142049523D01*
X200285333Y-141897142D01*
X200323428Y-141820952D01*
X200361523Y-141782857D01*
X200437714Y-141744761D01*
X199790095Y-141401904D02*
X199713904Y-141401904D01*
X199637714Y-141440000D01*
X199599619Y-141478095D01*
X199561523Y-141554285D01*
X199523428Y-141706666D01*
X199523428Y-141897142D01*
X199561523Y-142049523D01*
X199599619Y-142125714D01*
X199637714Y-142163809D01*
X199713904Y-142201904D01*
X199790095Y-142201904D01*
X199866285Y-142163809D01*
X199904380Y-142125714D01*
X199942476Y-142049523D01*
X199980571Y-141897142D01*
X199980571Y-141706666D01*
X199942476Y-141554285D01*
X199904380Y-141478095D01*
X199866285Y-141440000D01*
X199790095Y-141401904D01*
X198761523Y-142201904D02*
X199218666Y-142201904D01*
X198990095Y-142201904D02*
X198990095Y-141401904D01*
X199066285Y-141516190D01*
X199142476Y-141592380D01*
X199218666Y-141630476D01*
X161141428Y-102791904D02*
X161141428Y-103439523D01*
X161103333Y-103515714D01*
X161065238Y-103553809D01*
X160989047Y-103591904D01*
X160836666Y-103591904D01*
X160760476Y-103553809D01*
X160722380Y-103515714D01*
X160684285Y-103439523D01*
X160684285Y-102791904D01*
X160265238Y-103591904D02*
X160112857Y-103591904D01*
X160036666Y-103553809D01*
X159998571Y-103515714D01*
X159922380Y-103401428D01*
X159884285Y-103249047D01*
X159884285Y-102944285D01*
X159922380Y-102868095D01*
X159960476Y-102830000D01*
X160036666Y-102791904D01*
X160189047Y-102791904D01*
X160265238Y-102830000D01*
X160303333Y-102868095D01*
X160341428Y-102944285D01*
X160341428Y-103134761D01*
X160303333Y-103210952D01*
X160265238Y-103249047D01*
X160189047Y-103287142D01*
X160036666Y-103287142D01*
X159960476Y-103249047D01*
X159922380Y-103210952D01*
X159884285Y-103134761D01*
X159389047Y-102791904D02*
X159312857Y-102791904D01*
X159236666Y-102830000D01*
X159198571Y-102868095D01*
X159160476Y-102944285D01*
X159122380Y-103096666D01*
X159122380Y-103287142D01*
X159160476Y-103439523D01*
X159198571Y-103515714D01*
X159236666Y-103553809D01*
X159312857Y-103591904D01*
X159389047Y-103591904D01*
X159465238Y-103553809D01*
X159503333Y-103515714D01*
X159541428Y-103439523D01*
X159579523Y-103287142D01*
X159579523Y-103096666D01*
X159541428Y-102944285D01*
X159503333Y-102868095D01*
X159465238Y-102830000D01*
X159389047Y-102791904D01*
X158360476Y-103591904D02*
X158817619Y-103591904D01*
X158589047Y-103591904D02*
X158589047Y-102791904D01*
X158665238Y-102906190D01*
X158741428Y-102982380D01*
X158817619Y-103020476D01*
X175925238Y-190775714D02*
X175963333Y-190813809D01*
X176077619Y-190851904D01*
X176153809Y-190851904D01*
X176268095Y-190813809D01*
X176344285Y-190737619D01*
X176382380Y-190661428D01*
X176420476Y-190509047D01*
X176420476Y-190394761D01*
X176382380Y-190242380D01*
X176344285Y-190166190D01*
X176268095Y-190090000D01*
X176153809Y-190051904D01*
X176077619Y-190051904D01*
X175963333Y-190090000D01*
X175925238Y-190128095D01*
X175544285Y-190851904D02*
X175391904Y-190851904D01*
X175315714Y-190813809D01*
X175277619Y-190775714D01*
X175201428Y-190661428D01*
X175163333Y-190509047D01*
X175163333Y-190204285D01*
X175201428Y-190128095D01*
X175239523Y-190090000D01*
X175315714Y-190051904D01*
X175468095Y-190051904D01*
X175544285Y-190090000D01*
X175582380Y-190128095D01*
X175620476Y-190204285D01*
X175620476Y-190394761D01*
X175582380Y-190470952D01*
X175544285Y-190509047D01*
X175468095Y-190547142D01*
X175315714Y-190547142D01*
X175239523Y-190509047D01*
X175201428Y-190470952D01*
X175163333Y-190394761D01*
X174858571Y-190128095D02*
X174820476Y-190090000D01*
X174744285Y-190051904D01*
X174553809Y-190051904D01*
X174477619Y-190090000D01*
X174439523Y-190128095D01*
X174401428Y-190204285D01*
X174401428Y-190280476D01*
X174439523Y-190394761D01*
X174896666Y-190851904D01*
X174401428Y-190851904D01*
X174020476Y-190851904D02*
X173868095Y-190851904D01*
X173791904Y-190813809D01*
X173753809Y-190775714D01*
X173677619Y-190661428D01*
X173639523Y-190509047D01*
X173639523Y-190204285D01*
X173677619Y-190128095D01*
X173715714Y-190090000D01*
X173791904Y-190051904D01*
X173944285Y-190051904D01*
X174020476Y-190090000D01*
X174058571Y-190128095D01*
X174096666Y-190204285D01*
X174096666Y-190394761D01*
X174058571Y-190470952D01*
X174020476Y-190509047D01*
X173944285Y-190547142D01*
X173791904Y-190547142D01*
X173715714Y-190509047D01*
X173677619Y-190470952D01*
X173639523Y-190394761D01*
D11*
X161562936Y-111626000D02*
X162017064Y-111626000D01*
X161562936Y-113096000D02*
X162017064Y-113096000D01*
X171188748Y-192051000D02*
X171711252Y-192051000D01*
X171188748Y-193521000D02*
X171711252Y-193521000D01*
X310415000Y-110209064D02*
X310415000Y-109754936D01*
X311885000Y-110209064D02*
X311885000Y-109754936D01*
X208653748Y-156618000D02*
X209176252Y-156618000D01*
X208653748Y-158088000D02*
X209176252Y-158088000D01*
X157561252Y-113096000D02*
X157038748Y-113096000D01*
X157561252Y-111626000D02*
X157038748Y-111626000D01*
X197908600Y-153550252D02*
X197908600Y-153027748D01*
X196438600Y-153550252D02*
X196438600Y-153027748D01*
X169055252Y-110177000D02*
X166732748Y-110177000D01*
X169055252Y-113597000D02*
X166732748Y-113597000D01*
X171188748Y-120042000D02*
X171711252Y-120042000D01*
X171188748Y-121512000D02*
X171711252Y-121512000D01*
X200379064Y-146785000D02*
X199924936Y-146785000D01*
X200379064Y-145315000D02*
X199924936Y-145315000D01*
X161562936Y-159632000D02*
X162017064Y-159632000D01*
X161562936Y-161102000D02*
X162017064Y-161102000D01*
X169055252Y-161603000D02*
X166732748Y-161603000D01*
X169055252Y-158183000D02*
X166732748Y-158183000D01*
X161562936Y-135629000D02*
X162017064Y-135629000D01*
X161562936Y-137099000D02*
X162017064Y-137099000D01*
X213709000Y-146769000D02*
X213289000Y-147179000D01*
X213709000Y-144569000D02*
X213709000Y-146769000D01*
X213289000Y-147179000D02*
X209324000Y-147179000D01*
X209324000Y-144159000D02*
X213299000Y-144159000D01*
X213299000Y-144159000D02*
X213709000Y-144569000D01*
X157561252Y-185105000D02*
X157038748Y-185105000D01*
X157561252Y-183635000D02*
X157038748Y-183635000D01*
X169055252Y-137600000D02*
X166732748Y-137600000D01*
X169055252Y-134180000D02*
X166732748Y-134180000D01*
X204573748Y-142775000D02*
X205096252Y-142775000D01*
X204573748Y-144245000D02*
X205096252Y-144245000D01*
X152560000Y-176800000D02*
X152560000Y-178475000D01*
X149440000Y-176800000D02*
X149440000Y-176150000D01*
X152560000Y-176800000D02*
X152560000Y-176150000D01*
X149440000Y-176800000D02*
X149440000Y-177450000D01*
X149440000Y-152797000D02*
X149440000Y-153447000D01*
X149440000Y-152797000D02*
X149440000Y-152147000D01*
X152560000Y-152797000D02*
X152560000Y-154472000D01*
X152560000Y-152797000D02*
X152560000Y-152147000D01*
X152560000Y-109778800D02*
X152560000Y-109128800D01*
X149440000Y-109778800D02*
X149440000Y-110428800D01*
X152560000Y-109778800D02*
X152560000Y-110428800D01*
X149440000Y-109778800D02*
X149440000Y-108103800D01*
X311522936Y-62915000D02*
X311977064Y-62915000D01*
X311522936Y-64385000D02*
X311977064Y-64385000D01*
X311885000Y-98388436D02*
X311885000Y-98842564D01*
X310415000Y-98388436D02*
X310415000Y-98842564D01*
X161676000Y-127908000D02*
X161676000Y-129168000D01*
X155666000Y-134728000D02*
X161676000Y-134728000D01*
X161676000Y-134728000D02*
X161676000Y-133468000D01*
X157916000Y-127908000D02*
X161676000Y-127908000D01*
X157561252Y-159632000D02*
X157038748Y-159632000D01*
X157561252Y-161102000D02*
X157038748Y-161102000D01*
X201718664Y-156957600D02*
X201264536Y-156957600D01*
X201718664Y-158427600D02*
X201264536Y-158427600D01*
X154836800Y-178046748D02*
X154836800Y-178569252D01*
X153366800Y-178046748D02*
X153366800Y-178569252D01*
X205078064Y-146785000D02*
X204623936Y-146785000D01*
X205078064Y-145315000D02*
X204623936Y-145315000D01*
X153366800Y-130040748D02*
X153366800Y-130563252D01*
X154836800Y-130040748D02*
X154836800Y-130563252D01*
X149440000Y-181787800D02*
X149440000Y-182437800D01*
X152560000Y-181787800D02*
X152560000Y-182437800D01*
X152560000Y-181787800D02*
X152560000Y-181137800D01*
X149440000Y-181787800D02*
X149440000Y-180112800D01*
X152560000Y-133781800D02*
X152560000Y-133131800D01*
X152560000Y-133781800D02*
X152560000Y-134431800D01*
X149440000Y-133781800D02*
X149440000Y-132106800D01*
X149440000Y-133781800D02*
X149440000Y-134431800D01*
X130547000Y-74035000D02*
X126247000Y-74035000D01*
X130547000Y-74035000D02*
X130547000Y-68335000D01*
X126247000Y-74035000D02*
X126247000Y-68335000D01*
X157561252Y-135629000D02*
X157038748Y-135629000D01*
X157561252Y-137099000D02*
X157038748Y-137099000D01*
X201264536Y-159878600D02*
X201718664Y-159878600D01*
X201264536Y-161348600D02*
X201718664Y-161348600D01*
X171188748Y-165762000D02*
X171711252Y-165762000D01*
X171188748Y-167232000D02*
X171711252Y-167232000D01*
X161562936Y-185105000D02*
X162017064Y-185105000D01*
X161562936Y-183635000D02*
X162017064Y-183635000D01*
X169055252Y-182186000D02*
X166732748Y-182186000D01*
X169055252Y-185606000D02*
X166732748Y-185606000D01*
X203966000Y-151892000D02*
X203966000Y-149942000D01*
X203966000Y-151892000D02*
X203966000Y-153842000D01*
X198846000Y-151892000D02*
X198846000Y-148442000D01*
X198846000Y-151892000D02*
X198846000Y-153842000D01*
X171188748Y-119226000D02*
X171711252Y-119226000D01*
X171188748Y-117756000D02*
X171711252Y-117756000D01*
X171188748Y-145515000D02*
X171711252Y-145515000D01*
X171188748Y-144045000D02*
X171711252Y-144045000D01*
X153366800Y-154043748D02*
X153366800Y-154566252D01*
X154836800Y-154043748D02*
X154836800Y-154566252D01*
X171188748Y-169518000D02*
X171711252Y-169518000D01*
X171188748Y-168048000D02*
X171711252Y-168048000D01*
X149440000Y-157784800D02*
X149440000Y-156109800D01*
X149440000Y-157784800D02*
X149440000Y-158434800D01*
X152560000Y-157784800D02*
X152560000Y-157134800D01*
X152560000Y-157784800D02*
X152560000Y-158434800D01*
X155666000Y-182734000D02*
X161676000Y-182734000D01*
X161676000Y-175914000D02*
X161676000Y-177174000D01*
X157916000Y-175914000D02*
X161676000Y-175914000D01*
X161676000Y-182734000D02*
X161676000Y-181474000D01*
X311885000Y-104039936D02*
X311885000Y-104494064D01*
X310415000Y-104039936D02*
X310415000Y-104494064D01*
X155666000Y-158731000D02*
X161676000Y-158731000D01*
X161676000Y-151911000D02*
X161676000Y-153171000D01*
X161676000Y-158731000D02*
X161676000Y-157471000D01*
X157916000Y-151911000D02*
X161676000Y-151911000D01*
X166769252Y-145474000D02*
X164446748Y-145474000D01*
X166769252Y-142054000D02*
X164446748Y-142054000D01*
X214841000Y-148241000D02*
X215251000Y-148661000D01*
X212231000Y-148651000D02*
X212641000Y-148241000D01*
X212641000Y-148241000D02*
X214841000Y-148241000D01*
X212231000Y-152626000D02*
X212231000Y-148651000D01*
X215251000Y-148661000D02*
X215251000Y-152626000D01*
X310415000Y-115797064D02*
X310415000Y-115342936D01*
X311885000Y-115797064D02*
X311885000Y-115342936D01*
X154836800Y-106037748D02*
X154836800Y-106560252D01*
X153366800Y-106037748D02*
X153366800Y-106560252D01*
X125602000Y-74885000D02*
X125602000Y-67985000D01*
X125602000Y-74885000D02*
X122302000Y-74885000D01*
X122302000Y-74885000D02*
X122302000Y-67985000D01*
X171188748Y-143229000D02*
X171711252Y-143229000D01*
X171188748Y-141759000D02*
X171711252Y-141759000D01*
X205847000Y-151892000D02*
X205847000Y-153842000D01*
X205847000Y-151892000D02*
X205847000Y-149942000D01*
X210967000Y-151892000D02*
X210967000Y-149942000D01*
X210967000Y-151892000D02*
X210967000Y-155342000D01*
X166769252Y-121471000D02*
X164446748Y-121471000D01*
X166769252Y-118051000D02*
X164446748Y-118051000D01*
X152560000Y-104791000D02*
X152560000Y-104141000D01*
X149440000Y-104791000D02*
X149440000Y-105441000D01*
X149440000Y-104791000D02*
X149440000Y-104141000D01*
X152560000Y-104791000D02*
X152560000Y-106466000D01*
X166769252Y-190060000D02*
X164446748Y-190060000D01*
X166769252Y-193480000D02*
X164446748Y-193480000D01*
X166769252Y-169477000D02*
X164446748Y-169477000D01*
X166769252Y-166057000D02*
X164446748Y-166057000D01*
X152560000Y-128794000D02*
X152560000Y-128144000D01*
X149440000Y-128794000D02*
X149440000Y-128144000D01*
X149440000Y-128794000D02*
X149440000Y-129444000D01*
X152560000Y-128794000D02*
X152560000Y-130469000D01*
X310415000Y-92736936D02*
X310415000Y-93191064D01*
X311885000Y-92736936D02*
X311885000Y-93191064D01*
X199897276Y-142860500D02*
X200406724Y-142860500D01*
X199897276Y-143905500D02*
X200406724Y-143905500D01*
X157916000Y-103905000D02*
X161676000Y-103905000D01*
X161676000Y-103905000D02*
X161676000Y-105165000D01*
X155666000Y-110725000D02*
X161676000Y-110725000D01*
X161676000Y-110725000D02*
X161676000Y-109465000D01*
X171188748Y-189765000D02*
X171711252Y-189765000D01*
X171188748Y-191235000D02*
X171711252Y-191235000D01*
%LPC*%
D12*
X152781000Y-138684000D03*
X217240100Y-96523000D03*
X271300000Y-103378000D03*
X188100000Y-64000000D03*
D13*
X109515331Y-48089000D03*
X109515331Y-73089000D03*
D14*
X110935331Y-66129000D03*
X110935331Y-63359000D03*
X110935331Y-60589000D03*
X110935331Y-57819000D03*
X110935331Y-55049000D03*
X108095331Y-64744000D03*
X108095331Y-61974000D03*
X108095331Y-59204000D03*
X108095331Y-56434000D03*
D15*
X170420000Y-139456000D03*
D16*
X167880000Y-139456000D03*
X165340000Y-139456000D03*
X162800000Y-139456000D03*
D17*
X313757500Y-68992000D03*
X313757500Y-76002000D03*
D18*
X316247500Y-70242000D03*
X316247500Y-74742000D03*
D19*
X315573200Y-97625000D03*
D20*
X315573200Y-100165000D03*
D12*
X233553000Y-187198000D03*
D21*
X112832000Y-90000000D03*
X112832000Y-92540000D03*
D22*
X107752000Y-84920000D03*
X107752000Y-95080000D03*
D21*
X307014000Y-130000000D03*
X307014000Y-127460000D03*
D22*
X312094000Y-124920000D03*
X312094000Y-135080000D03*
D19*
X315573200Y-108875000D03*
D20*
X315573200Y-111415000D03*
D23*
X239590500Y-100199500D03*
D24*
X239590500Y-102739500D03*
X239590500Y-105279500D03*
D12*
X266192000Y-103378000D03*
X152781000Y-186740800D03*
X195072000Y-147320000D03*
D19*
X315573200Y-103250000D03*
D20*
X315573200Y-105790000D03*
D12*
X152781000Y-162687000D03*
D17*
X313757500Y-79152000D03*
X313757500Y-86162000D03*
D18*
X316247500Y-80402000D03*
X316247500Y-84902000D03*
D12*
X188100000Y-77300000D03*
D14*
X128143000Y-76200000D03*
D25*
X120523000Y-76200000D03*
D19*
X315573200Y-92000000D03*
D20*
X315573200Y-94540000D03*
D13*
X109642331Y-176930000D03*
X109642331Y-129830000D03*
D26*
X111062331Y-170000000D03*
D14*
X111062331Y-167230000D03*
X111062331Y-164460000D03*
X111062331Y-161690000D03*
X111062331Y-158920000D03*
X111062331Y-156150000D03*
X111062331Y-153380000D03*
X111062331Y-150610000D03*
X111062331Y-147840000D03*
X111062331Y-145070000D03*
X111062331Y-142300000D03*
X111062331Y-139530000D03*
X111062331Y-136760000D03*
X108222331Y-168615000D03*
X108222331Y-165845000D03*
X108222331Y-163075000D03*
X108222331Y-160305000D03*
X108222331Y-157535000D03*
X108222331Y-154765000D03*
X108222331Y-151995000D03*
X108222331Y-149225000D03*
X108222331Y-146455000D03*
X108222331Y-143685000D03*
X108222331Y-140915000D03*
X108222331Y-138145000D03*
D27*
X295402000Y-71960000D03*
X295402000Y-49960000D03*
D12*
X152781000Y-114681000D03*
D28*
X109416500Y-113810000D03*
D29*
X109416500Y-111270000D03*
X109416500Y-108730000D03*
X109416500Y-106190000D03*
X101796500Y-106190000D03*
X101796500Y-113810000D03*
D30*
X308115500Y-52451000D03*
D31*
X314115500Y-52451000D03*
D32*
X311115500Y-47751000D03*
D14*
X128397000Y-56442500D03*
X128397000Y-51362500D03*
X128397000Y-46282500D03*
X120777000Y-56442500D03*
X120777000Y-51362500D03*
X120777000Y-46282500D03*
X128397000Y-64062500D03*
X120777000Y-64062500D03*
D15*
X170420000Y-163713000D03*
D16*
X167880000Y-163713000D03*
X165340000Y-163713000D03*
X162800000Y-163713000D03*
D19*
X315573200Y-61087000D03*
D20*
X315573200Y-63627000D03*
D21*
X307014000Y-166000000D03*
D22*
X312094000Y-171080000D03*
D21*
X307014000Y-163460000D03*
D22*
X312094000Y-160920000D03*
D19*
X315573200Y-114500000D03*
D20*
X315573200Y-117040000D03*
D12*
X238000000Y-49900000D03*
D15*
X170423100Y-187470000D03*
D16*
X167883100Y-187470000D03*
X165343100Y-187470000D03*
X162803100Y-187470000D03*
D21*
X307014000Y-184000000D03*
D22*
X312094000Y-189080000D03*
D21*
X307014000Y-181460000D03*
D22*
X312094000Y-178920000D03*
D12*
X188100000Y-70750000D03*
D21*
X307014000Y-148000000D03*
D22*
X312094000Y-142920000D03*
D21*
X307014000Y-145460000D03*
D22*
X312094000Y-153080000D03*
D33*
X266670000Y-58440000D03*
D34*
X266670000Y-63520000D03*
X266670000Y-71140000D03*
X246350000Y-50820000D03*
X246350000Y-60980000D03*
X246350000Y-71140000D03*
D12*
X224250000Y-96550000D03*
D15*
X170598000Y-115326000D03*
D16*
X168058000Y-115326000D03*
X165518000Y-115326000D03*
X162978000Y-115326000D03*
D35*
X160790000Y-112361000D03*
X162790000Y-112361000D03*
D36*
X170412500Y-192786000D03*
X172487500Y-192786000D03*
D37*
X311150000Y-110982000D03*
X311150000Y-108982000D03*
D36*
X207877500Y-157353000D03*
X209952500Y-157353000D03*
D38*
X158337500Y-112361000D03*
X156262500Y-112361000D03*
D39*
X197173600Y-154326500D03*
X197173600Y-152251500D03*
D40*
X170444000Y-111887000D03*
X165344000Y-111887000D03*
D36*
X170412500Y-120777000D03*
X172487500Y-120777000D03*
D41*
X201152000Y-146050000D03*
X199152000Y-146050000D03*
D35*
X160790000Y-160367000D03*
X162790000Y-160367000D03*
D40*
X170444000Y-159893000D03*
X165344000Y-159893000D03*
D35*
X160790000Y-136364000D03*
X162790000Y-136364000D03*
D42*
X212799000Y-145669000D03*
X209349000Y-145669000D03*
D38*
X158337500Y-184370000D03*
X156262500Y-184370000D03*
D40*
X170444000Y-135890000D03*
X165344000Y-135890000D03*
D36*
X203797500Y-143510000D03*
X205872500Y-143510000D03*
D43*
X151950000Y-177737500D03*
X150050000Y-177737500D03*
X151000000Y-175862500D03*
X151950000Y-153734500D03*
X150050000Y-153734500D03*
X151000000Y-151859500D03*
D44*
X150050000Y-108841300D03*
X151950000Y-108841300D03*
X151000000Y-110716300D03*
D35*
X310750000Y-63650000D03*
X312750000Y-63650000D03*
D45*
X311150000Y-97615500D03*
X311150000Y-99615500D03*
D46*
X156616000Y-133618000D03*
D47*
X162916000Y-131318000D03*
D46*
X156616000Y-131318000D03*
X156616000Y-129018000D03*
D38*
X158337500Y-160367000D03*
X156262500Y-160367000D03*
D41*
X202491600Y-157692600D03*
X200491600Y-157692600D03*
D48*
X154101800Y-177270500D03*
X154101800Y-179345500D03*
D41*
X205851000Y-146050000D03*
X203851000Y-146050000D03*
D48*
X154101800Y-129264500D03*
X154101800Y-131339500D03*
D44*
X150050000Y-180850300D03*
X151950000Y-180850300D03*
X151000000Y-182725300D03*
X150050000Y-132844300D03*
X151950000Y-132844300D03*
X151000000Y-134719300D03*
D49*
X128397000Y-72635000D03*
X128397000Y-68335000D03*
D50*
X140000000Y-50000000D03*
D38*
X158337500Y-136364000D03*
X156262500Y-136364000D03*
D35*
X200491600Y-160613600D03*
X202491600Y-160613600D03*
D36*
X170412500Y-166497000D03*
X172487500Y-166497000D03*
D35*
X160790000Y-184370000D03*
X162790000Y-184370000D03*
D40*
X170444000Y-183896000D03*
X165344000Y-183896000D03*
D50*
X180000000Y-190000000D03*
D51*
X199501000Y-149417000D03*
X200771000Y-149417000D03*
X202041000Y-149417000D03*
X203311000Y-149417000D03*
X203311000Y-154367000D03*
X202041000Y-154367000D03*
X200771000Y-154367000D03*
X199501000Y-154367000D03*
D36*
X170412500Y-118491000D03*
X172487500Y-118491000D03*
X170412500Y-144780000D03*
X172487500Y-144780000D03*
D48*
X154101800Y-153267500D03*
X154101800Y-155342500D03*
D36*
X170412500Y-168783000D03*
X172487500Y-168783000D03*
D44*
X150050000Y-156847300D03*
X151950000Y-156847300D03*
X151000000Y-158722300D03*
D46*
X156616000Y-181624000D03*
X156616000Y-179324000D03*
D47*
X162916000Y-179324000D03*
D46*
X156616000Y-177024000D03*
D45*
X311150000Y-103267000D03*
X311150000Y-105267000D03*
D46*
X156616000Y-157621000D03*
X156616000Y-155321000D03*
D47*
X162916000Y-155321000D03*
D46*
X156616000Y-153021000D03*
D40*
X168158000Y-143764000D03*
X163058000Y-143764000D03*
D52*
X213741000Y-149151000D03*
X213741000Y-152601000D03*
D37*
X311150000Y-116570000D03*
X311150000Y-114570000D03*
D48*
X154101800Y-105261500D03*
X154101800Y-107336500D03*
D50*
X300000000Y-190000000D03*
D53*
X123952000Y-72985000D03*
X123952000Y-67985000D03*
D36*
X170412500Y-142494000D03*
X172487500Y-142494000D03*
D54*
X210312000Y-154367000D03*
X209042000Y-154367000D03*
X207772000Y-154367000D03*
X206502000Y-154367000D03*
X206502000Y-149417000D03*
X207772000Y-149417000D03*
X209042000Y-149417000D03*
X210312000Y-149417000D03*
D40*
X168158000Y-119761000D03*
X163058000Y-119761000D03*
D43*
X151950000Y-105728500D03*
X150050000Y-105728500D03*
X151000000Y-103853500D03*
D40*
X168158000Y-191770000D03*
X163058000Y-191770000D03*
X168158000Y-167767000D03*
X163058000Y-167767000D03*
D43*
X151950000Y-129731500D03*
X150050000Y-129731500D03*
X151000000Y-127856500D03*
D45*
X311150000Y-91964000D03*
X311150000Y-93964000D03*
D55*
X199239500Y-143383000D03*
X201064500Y-143383000D03*
D46*
X156616000Y-109615000D03*
D47*
X162916000Y-107315000D03*
D46*
X156616000Y-107315000D03*
X156616000Y-105015000D03*
D50*
X280000000Y-50000000D03*
D36*
X170412500Y-190500000D03*
X172487500Y-190500000D03*
D56*
X196370000Y-61800000D03*
X204316500Y-115035500D03*
X204316500Y-187044500D03*
X195819162Y-155513600D03*
X183642000Y-125984000D03*
X193370000Y-63300000D03*
X216916000Y-178308000D03*
X216916000Y-106299000D03*
X204316500Y-163041500D03*
X194870000Y-61800000D03*
X183642000Y-101981000D03*
X216916000Y-154305000D03*
X196370000Y-63300000D03*
X194870000Y-63300000D03*
X183642000Y-173990000D03*
X183642000Y-149987000D03*
X204316500Y-139038500D03*
X216916000Y-130302000D03*
X193370000Y-61800000D03*
X214190000Y-132940000D03*
D57*
X270000000Y-198500000D03*
D56*
X240411000Y-127762000D03*
D57*
X290000000Y-41500000D03*
X275000000Y-198500000D03*
D56*
X171310100Y-101565700D03*
D57*
X245000000Y-198500000D03*
X210000000Y-41500000D03*
X135000000Y-198500000D03*
X305000000Y-198500000D03*
D56*
X265500000Y-117200000D03*
X214160000Y-156960000D03*
D57*
X270000000Y-41500000D03*
X170000000Y-198500000D03*
D56*
X240411000Y-161671000D03*
D57*
X145000000Y-198500000D03*
D56*
X205010000Y-131840000D03*
D57*
X267474667Y-161900000D03*
X310000000Y-41500000D03*
X130000000Y-41500000D03*
X263749334Y-161900000D03*
X125000000Y-198500000D03*
X115000000Y-41500000D03*
X237949334Y-146400000D03*
X135000000Y-41500000D03*
X267474667Y-158598000D03*
X185000000Y-198500000D03*
X170000000Y-41500000D03*
X145000000Y-41500000D03*
D56*
X276500000Y-107600000D03*
X212020000Y-139590000D03*
D57*
X130000000Y-198500000D03*
X150000000Y-198500000D03*
D56*
X171310100Y-173603600D03*
X293500000Y-117200000D03*
X204990000Y-107850000D03*
D57*
X215000000Y-41500000D03*
D56*
X253238000Y-133350000D03*
D57*
X267474667Y-165200000D03*
D56*
X214200000Y-180960000D03*
X228346000Y-159766000D03*
D57*
X175000000Y-198500000D03*
D58*
X202441500Y-65940000D03*
D57*
X150000000Y-41500000D03*
D58*
X202441500Y-66940000D03*
D56*
X212000000Y-115600000D03*
D57*
X240000000Y-41500000D03*
X263749334Y-165200000D03*
X230000000Y-41500000D03*
X225000000Y-198500000D03*
X165000000Y-198500000D03*
X271200000Y-165200000D03*
X180000000Y-41500000D03*
X120000000Y-41500000D03*
X205000000Y-198500000D03*
X225000000Y-41500000D03*
D56*
X261366000Y-151130000D03*
D57*
X180000000Y-198500000D03*
X205000000Y-41500000D03*
D56*
X253746000Y-146558000D03*
X303400000Y-109250000D03*
D57*
X220000000Y-41500000D03*
X195000000Y-198500000D03*
X120000000Y-198500000D03*
X105000000Y-198500000D03*
X200000000Y-41500000D03*
D56*
X205020000Y-179860000D03*
D57*
X235000000Y-41500000D03*
X220000000Y-198500000D03*
X115000000Y-198500000D03*
X280000000Y-41500000D03*
X260000000Y-198500000D03*
D58*
X203241500Y-66940000D03*
D57*
X295000000Y-41500000D03*
X140000000Y-41500000D03*
D56*
X267589000Y-140843000D03*
D57*
X175000000Y-41500000D03*
X155000000Y-41500000D03*
X241674667Y-146400000D03*
D56*
X288050000Y-95450000D03*
D57*
X105000000Y-41500000D03*
X300000000Y-41500000D03*
X160000000Y-41500000D03*
D56*
X293500000Y-118400000D03*
D57*
X265000000Y-198500000D03*
X300000000Y-198500000D03*
D56*
X277650000Y-113157000D03*
D57*
X195000000Y-41500000D03*
X110000000Y-41500000D03*
D56*
X171310100Y-149600600D03*
D57*
X200000000Y-198500000D03*
X315000000Y-41500000D03*
X210000000Y-198500000D03*
X310000000Y-198500000D03*
X235000000Y-198500000D03*
X255000000Y-41500000D03*
X160000000Y-198500000D03*
X190000000Y-198500000D03*
X295000000Y-198500000D03*
X285000000Y-41500000D03*
X275000000Y-41500000D03*
X250000000Y-41500000D03*
X285000000Y-198500000D03*
D56*
X212030000Y-187610000D03*
D57*
X290000000Y-198500000D03*
D56*
X211990000Y-163610000D03*
D57*
X255000000Y-198500000D03*
X165000000Y-41500000D03*
X280000000Y-198500000D03*
X251968000Y-114046000D03*
X125000000Y-41500000D03*
X263749334Y-158598000D03*
X245400000Y-146400000D03*
X155000000Y-198500000D03*
X250000000Y-198500000D03*
D56*
X228346000Y-125730000D03*
D57*
X315000000Y-198500000D03*
D58*
X203241500Y-65940000D03*
D57*
X215000000Y-198500000D03*
X185000000Y-41500000D03*
X265000000Y-41500000D03*
X245000000Y-41500000D03*
X240000000Y-198500000D03*
X271200000Y-161900000D03*
X110000000Y-198500000D03*
D56*
X253492000Y-165989000D03*
X285200000Y-104100000D03*
D57*
X190000000Y-41500000D03*
X140000000Y-198500000D03*
X260000000Y-41500000D03*
D56*
X204980000Y-155860000D03*
X214170000Y-108950000D03*
D57*
X271200000Y-158598000D03*
X255693333Y-114046000D03*
X230000000Y-198500000D03*
X305000000Y-41500000D03*
X248242667Y-114046000D03*
D56*
X150215600Y-103831700D03*
X150162500Y-110687400D03*
X192913000Y-157226000D03*
X184700000Y-135700000D03*
X193800000Y-82490000D03*
X196800000Y-80990000D03*
X193800000Y-80990000D03*
X184700000Y-159700000D03*
X195300000Y-80990000D03*
X192913000Y-109220000D03*
X192913000Y-181229000D03*
X184700000Y-183700000D03*
X195300000Y-82490000D03*
X192913000Y-133223000D03*
X196800000Y-82490000D03*
X184700000Y-111700000D03*
X151103000Y-107259100D03*
X146200000Y-101190100D03*
D59*
X154152600Y-103780900D03*
D57*
X158318200Y-114753700D03*
D56*
X159969200Y-110207100D03*
X152831800Y-101850500D03*
D57*
X156768800Y-114728300D03*
D56*
X154127200Y-101850500D03*
X155575000Y-101850500D03*
D57*
X156743400Y-116150700D03*
X158318200Y-116150700D03*
D56*
X156921200Y-101850500D03*
X242386600Y-130334803D03*
X236397800Y-159497800D03*
X279837500Y-106262500D03*
X266112000Y-119612000D03*
X220472000Y-130126500D03*
X286528029Y-96728029D03*
X205679000Y-136779000D03*
X220472000Y-106123500D03*
X238125000Y-151130000D03*
X239348000Y-119142000D03*
X205700000Y-184785000D03*
X220472000Y-154129500D03*
X226568000Y-140716000D03*
X236474000Y-125476000D03*
X220472000Y-178132500D03*
X205700000Y-112776000D03*
X248639500Y-143737500D03*
X178435000Y-151384000D03*
X279400000Y-96700000D03*
X172800000Y-82400000D03*
X228473000Y-177546000D03*
X231317800Y-167665400D03*
X178435000Y-103378000D03*
X205682000Y-160782000D03*
X231394000Y-133477000D03*
X299025000Y-103475000D03*
X178435000Y-127381000D03*
X310750000Y-65000000D03*
X283287600Y-157402400D03*
X297650000Y-121000000D03*
X178435000Y-175387000D03*
X242464603Y-164410403D03*
X238633000Y-134874000D03*
X238760000Y-138684000D03*
X205867000Y-117983000D03*
X293700000Y-108700000D03*
X267500000Y-111400000D03*
X281178000Y-107696000D03*
X282448000Y-107696000D03*
X284226000Y-107696000D03*
X286258000Y-107696000D03*
X286385000Y-111633000D03*
X130550600Y-176270600D03*
X192405000Y-150368000D03*
X192405000Y-174371000D03*
X192405000Y-126365000D03*
X192405000Y-102362000D03*
X194945000Y-143383000D03*
X170466800Y-146286000D03*
D60*
X130542000Y-70358000D03*
D56*
X170455500Y-170307000D03*
X170434000Y-194310000D03*
X170434000Y-122272100D03*
D57*
X230400000Y-99650000D03*
X231400000Y-99650000D03*
X230400000Y-100650000D03*
X231400000Y-100650000D03*
D56*
X246154797Y-122595600D03*
X248285000Y-134239000D03*
X150192600Y-127863600D03*
X150139500Y-134719300D03*
D59*
X154129600Y-127812800D03*
D56*
X146177000Y-125222000D03*
X151080000Y-131291000D03*
D57*
X156745800Y-138760200D03*
D56*
X156898200Y-125882400D03*
X155552000Y-125882400D03*
X152808800Y-125882400D03*
D57*
X158295200Y-140182600D03*
D56*
X159946200Y-134239000D03*
X154104200Y-125882400D03*
D57*
X158295200Y-138785600D03*
X156720400Y-140182600D03*
D56*
X150215600Y-151866600D03*
X150162500Y-158722300D03*
D59*
X154152600Y-151815800D03*
D56*
X146200000Y-149225000D03*
X151103000Y-155294000D03*
X159969200Y-158242000D03*
D57*
X156743400Y-164185600D03*
D56*
X154127200Y-149885400D03*
X155575000Y-149885400D03*
X156921200Y-149885400D03*
D57*
X158318200Y-164185600D03*
X156768800Y-162763200D03*
D56*
X152831800Y-149885400D03*
D57*
X158318200Y-162788600D03*
D56*
X150215600Y-175869600D03*
X150162500Y-182725300D03*
D59*
X154152600Y-175818800D03*
D56*
X146200000Y-173228000D03*
X151103000Y-179297000D03*
D57*
X156768800Y-186766200D03*
D56*
X154127200Y-173888400D03*
X156921200Y-173888400D03*
D57*
X158318200Y-186791600D03*
D56*
X152831800Y-173888400D03*
D57*
X158318200Y-188188600D03*
X156743400Y-188188600D03*
D56*
X155575000Y-173888400D03*
X159969200Y-182245000D03*
X238887000Y-169291000D03*
X238506000Y-173736000D03*
D58*
X202441500Y-77440000D03*
X203241500Y-77440000D03*
X202441500Y-78770000D03*
X203241500Y-78770000D03*
D56*
X204089000Y-140716000D03*
X205867000Y-165989000D03*
X205867000Y-189992000D03*
X247116000Y-125195600D03*
X234569000Y-133546397D03*
X247142000Y-158685000D03*
X234442000Y-167829000D03*
X246507000Y-156210000D03*
X248464603Y-168284397D03*
G36*
X204842121Y-64470002D02*
G01*
X204888614Y-64523658D01*
X204900000Y-64576000D01*
X204900000Y-68324000D01*
X204879998Y-68392121D01*
X204826342Y-68438614D01*
X204774000Y-68450000D01*
X201026000Y-68450000D01*
X200957879Y-68429998D01*
X200911386Y-68376342D01*
X200900000Y-68324000D01*
X200900000Y-64576000D01*
X200920002Y-64507879D01*
X200973658Y-64461386D01*
X201026000Y-64450000D01*
X204774000Y-64450000D01*
X204842121Y-64470002D01*
G37*
G36*
X319942121Y-196981002D02*
G01*
X319988614Y-197034658D01*
X320000000Y-197087000D01*
X320000000Y-199874000D01*
X319979998Y-199942121D01*
X319926342Y-199988614D01*
X319874000Y-200000000D01*
X100126000Y-200000000D01*
X100057879Y-199979998D01*
X100011386Y-199926342D01*
X100000000Y-199874000D01*
X100000000Y-197087000D01*
X100020002Y-197018879D01*
X100073658Y-196972386D01*
X100126000Y-196961000D01*
X319874000Y-196961000D01*
X319942121Y-196981002D01*
G37*
G36*
X319942121Y-40025002D02*
G01*
X319988614Y-40078658D01*
X320000000Y-40131000D01*
X320000000Y-42943000D01*
X319979998Y-43011121D01*
X319926342Y-43057614D01*
X319874000Y-43069000D01*
X100126000Y-43069000D01*
X100057879Y-43048998D01*
X100011386Y-42995342D01*
X100000000Y-42943000D01*
X100000000Y-40131000D01*
X100020002Y-40062879D01*
X100073658Y-40016386D01*
X100126000Y-40005000D01*
X319874000Y-40005000D01*
X319942121Y-40025002D01*
G37*
G36*
X204692121Y-76070002D02*
G01*
X204738614Y-76123658D01*
X204750000Y-76176000D01*
X204750000Y-79974000D01*
X204729998Y-80042121D01*
X204676342Y-80088614D01*
X204624000Y-80100000D01*
X200876000Y-80100000D01*
X200807879Y-80079998D01*
X200761386Y-80026342D01*
X200750000Y-79974000D01*
X200750000Y-76176000D01*
X200770002Y-76107879D01*
X200823658Y-76061386D01*
X200876000Y-76050000D01*
X204624000Y-76050000D01*
X204692121Y-76070002D01*
G37*
M02*
