G04 #@! TF.GenerationSoftware,KiCad,Pcbnew,(6.0.11)*
G04 #@! TF.CreationDate,2023-05-29T14:07:06-03:00*
G04 #@! TF.ProjectId,qds-cv,7164732d-6376-42e6-9b69-6361645f7063,rev?*
G04 #@! TF.SameCoordinates,Original*
G04 #@! TF.FileFunction,Soldermask,Top*
G04 #@! TF.FilePolarity,Negative*
%FSLAX46Y46*%
G04 Gerber Fmt 4.6, Leading zero omitted, Abs format (unit mm)*
G04 Created by KiCad (PCBNEW (6.0.11)) date 2023-05-29 14:07:06*
%MOMM*%
%LPD*%
G01*
G04 APERTURE LIST*
G04 Aperture macros list*
%AMRoundRect*
0 Rectangle with rounded corners*
0 $1 Rounding radius*
0 $2 $3 $4 $5 $6 $7 $8 $9 X,Y pos of 4 corners*
0 Add a 4 corners polygon primitive as box body*
4,1,4,$2,$3,$4,$5,$6,$7,$8,$9,$2,$3,0*
0 Add four circle primitives for the rounded corners*
1,1,$1+$1,$2,$3*
1,1,$1+$1,$4,$5*
1,1,$1+$1,$6,$7*
1,1,$1+$1,$8,$9*
0 Add four rect primitives between the rounded corners*
20,1,$1+$1,$2,$3,$4,$5,0*
20,1,$1+$1,$4,$5,$6,$7,0*
20,1,$1+$1,$6,$7,$8,$9,0*
20,1,$1+$1,$8,$9,$2,$3,0*%
G04 Aperture macros list end*
%ADD10C,0.010000*%
%ADD11RoundRect,0.300000X0.350000X0.450000X-0.350000X0.450000X-0.350000X-0.450000X0.350000X-0.450000X0*%
%ADD12RoundRect,0.300000X-0.350000X-0.450000X0.350000X-0.450000X0.350000X0.450000X-0.350000X0.450000X0*%
%ADD13RoundRect,0.300000X0.450000X-0.350000X0.450000X0.350000X-0.450000X0.350000X-0.450000X-0.350000X0*%
%ADD14C,2.900000*%
%ADD15RoundRect,0.287500X0.300000X0.237500X-0.300000X0.237500X-0.300000X-0.237500X0.300000X-0.237500X0*%
%ADD16RoundRect,0.300000X-0.450000X0.350000X-0.450000X-0.350000X0.450000X-0.350000X0.450000X0.350000X0*%
%ADD17RoundRect,0.287500X0.237500X-0.300000X0.237500X0.300000X-0.237500X0.300000X-0.237500X-0.300000X0*%
%ADD18C,2.100000*%
%ADD19RoundRect,0.050000X-0.950000X0.650000X-0.950000X-0.650000X0.950000X-0.650000X0.950000X0.650000X0*%
%ADD20RoundRect,0.050000X-0.950000X1.000000X-0.950000X-1.000000X0.950000X-1.000000X0.950000X1.000000X0*%
%ADD21RoundRect,0.300000X0.475000X-0.337500X0.475000X0.337500X-0.475000X0.337500X-0.475000X-0.337500X0*%
%ADD22RoundRect,0.287500X-0.250000X-0.237500X0.250000X-0.237500X0.250000X0.237500X-0.250000X0.237500X0*%
%ADD23RoundRect,0.300000X-0.475000X0.337500X-0.475000X-0.337500X0.475000X-0.337500X0.475000X0.337500X0*%
%ADD24RoundRect,0.300000X-0.925000X0.875000X-0.925000X-0.875000X0.925000X-0.875000X0.925000X0.875000X0*%
%ADD25RoundRect,0.300000X-0.400000X-0.625000X0.400000X-0.625000X0.400000X0.625000X-0.400000X0.625000X0*%
%ADD26RoundRect,0.300000X0.400000X0.625000X-0.400000X0.625000X-0.400000X-0.625000X0.400000X-0.625000X0*%
%ADD27RoundRect,0.287500X-0.300000X-0.237500X0.300000X-0.237500X0.300000X0.237500X-0.300000X0.237500X0*%
%ADD28RoundRect,0.300000X0.337500X0.475000X-0.337500X0.475000X-0.337500X-0.475000X0.337500X-0.475000X0*%
%ADD29C,4.100000*%
%ADD30C,1.700000*%
%ADD31RoundRect,0.200000X0.150000X-0.825000X0.150000X0.825000X-0.150000X0.825000X-0.150000X-0.825000X0*%
%ADD32RoundRect,0.050000X0.754000X0.754000X-0.754000X0.754000X-0.754000X-0.754000X0.754000X-0.754000X0*%
%ADD33C,1.608000*%
%ADD34RoundRect,0.050000X0.500000X0.500000X-0.500000X0.500000X-0.500000X-0.500000X0.500000X-0.500000X0*%
%ADD35C,2.200000*%
%ADD36C,1.850000*%
%ADD37RoundRect,0.050000X-0.900000X0.900000X-0.900000X-0.900000X0.900000X-0.900000X0.900000X0.900000X0*%
%ADD38C,1.900000*%
%ADD39O,2.600000X1.700000*%
%ADD40O,7.100000X3.600000*%
%ADD41RoundRect,0.050000X-1.150000X0.750000X-1.150000X-0.750000X1.150000X-0.750000X1.150000X0.750000X0*%
%ADD42O,2.400000X1.600000*%
%ADD43RoundRect,0.200000X-0.825000X-0.150000X0.825000X-0.150000X0.825000X0.150000X-0.825000X0.150000X0*%
%ADD44C,1.600000*%
%ADD45RoundRect,0.050000X0.698500X0.215900X-0.698500X0.215900X-0.698500X-0.215900X0.698500X-0.215900X0*%
%ADD46RoundRect,0.050000X0.876300X1.473200X-0.876300X1.473200X-0.876300X-1.473200X0.876300X-1.473200X0*%
%ADD47RoundRect,0.050000X0.325000X-0.780000X0.325000X0.780000X-0.325000X0.780000X-0.325000X-0.780000X0*%
%ADD48RoundRect,0.300000X-0.625000X0.400000X-0.625000X-0.400000X0.625000X-0.400000X0.625000X0.400000X0*%
%ADD49RoundRect,0.200000X0.825000X0.150000X-0.825000X0.150000X-0.825000X-0.150000X0.825000X-0.150000X0*%
%ADD50RoundRect,0.200000X-0.150000X0.825000X-0.150000X-0.825000X0.150000X-0.825000X0.150000X0.825000X0*%
%ADD51RoundRect,0.212500X-1.012500X-0.162500X1.012500X-0.162500X1.012500X0.162500X-1.012500X0.162500X0*%
%ADD52RoundRect,0.287500X-0.237500X0.300000X-0.237500X-0.300000X0.237500X-0.300000X0.237500X0.300000X0*%
%ADD53RoundRect,0.298478X-0.646022X0.323022X-0.646022X-0.323022X0.646022X-0.323022X0.646022X0.323022X0*%
%ADD54RoundRect,0.050000X0.650000X0.950000X-0.650000X0.950000X-0.650000X-0.950000X0.650000X-0.950000X0*%
%ADD55RoundRect,0.050000X1.000000X0.950000X-1.000000X0.950000X-1.000000X-0.950000X1.000000X-0.950000X0*%
%ADD56RoundRect,0.300000X-0.337500X-0.475000X0.337500X-0.475000X0.337500X0.475000X-0.337500X0.475000X0*%
%ADD57RoundRect,0.050000X0.950000X-0.650000X0.950000X0.650000X-0.950000X0.650000X-0.950000X-0.650000X0*%
%ADD58RoundRect,0.050000X0.950000X-1.000000X0.950000X1.000000X-0.950000X1.000000X-0.950000X-1.000000X0*%
%ADD59O,1.700000X1.700000*%
%ADD60RoundRect,0.050000X-0.800000X0.800000X-0.800000X-0.800000X0.800000X-0.800000X0.800000X0.800000X0*%
%ADD61RoundRect,0.287500X-0.237500X0.250000X-0.237500X-0.250000X0.237500X-0.250000X0.237500X0.250000X0*%
%ADD62C,3.600000*%
%ADD63RoundRect,0.287500X0.237500X-0.250000X0.237500X0.250000X-0.237500X0.250000X-0.237500X-0.250000X0*%
%ADD64RoundRect,0.050000X-0.759000X0.759000X-0.759000X-0.759000X0.759000X-0.759000X0.759000X0.759000X0*%
%ADD65C,1.618000*%
%ADD66RoundRect,0.050000X0.300000X-0.750000X0.300000X0.750000X-0.300000X0.750000X-0.300000X-0.750000X0*%
%ADD67O,2.600000X5.100000*%
%ADD68O,2.350000X4.600000*%
%ADD69O,4.600000X2.350000*%
%ADD70RoundRect,0.300000X-0.550000X1.412500X-0.550000X-1.412500X0.550000X-1.412500X0.550000X1.412500X0*%
%ADD71RoundRect,0.050000X-0.840000X-0.990000X0.840000X-0.990000X0.840000X0.990000X-0.840000X0.990000X0*%
%ADD72RoundRect,0.300000X0.875000X0.925000X-0.875000X0.925000X-0.875000X-0.925000X0.875000X-0.925000X0*%
%ADD73RoundRect,0.200000X0.587500X0.150000X-0.587500X0.150000X-0.587500X-0.150000X0.587500X-0.150000X0*%
%ADD74C,3.000000*%
%ADD75RoundRect,0.050000X-1.150000X1.250000X-1.150000X-1.250000X1.150000X-1.250000X1.150000X1.250000X0*%
%ADD76RoundRect,0.300000X-0.875000X-0.925000X0.875000X-0.925000X0.875000X0.925000X-0.875000X0.925000X0*%
%ADD77RoundRect,0.050000X0.560000X-1.220000X0.560000X1.220000X-0.560000X1.220000X-0.560000X-1.220000X0*%
%ADD78RoundRect,0.050000X-1.200000X1.200000X-1.200000X-1.200000X1.200000X-1.200000X1.200000X1.200000X0*%
%ADD79C,2.500000*%
%ADD80C,0.900000*%
%ADD81C,1.100000*%
%ADD82C,0.700000*%
%ADD83C,1.300000*%
G04 APERTURE END LIST*
G36*
X205956500Y-65747500D02*
G01*
X204406500Y-65747500D01*
X204406500Y-65187500D01*
X205956500Y-65187500D01*
X205956500Y-65747500D01*
G37*
D10*
X205956500Y-65747500D02*
X204406500Y-65747500D01*
X204406500Y-65187500D01*
X205956500Y-65187500D01*
X205956500Y-65747500D01*
G36*
X201276500Y-67047500D02*
G01*
X199726500Y-67047500D01*
X199726500Y-66487500D01*
X201276500Y-66487500D01*
X201276500Y-67047500D01*
G37*
X201276500Y-67047500D02*
X199726500Y-67047500D01*
X199726500Y-66487500D01*
X201276500Y-66487500D01*
X201276500Y-67047500D01*
G36*
X205956500Y-66397500D02*
G01*
X204406500Y-66397500D01*
X204406500Y-65837500D01*
X205956500Y-65837500D01*
X205956500Y-66397500D01*
G37*
X205956500Y-66397500D02*
X204406500Y-66397500D01*
X204406500Y-65837500D01*
X205956500Y-65837500D01*
X205956500Y-66397500D01*
G36*
X201276500Y-67697500D02*
G01*
X199726500Y-67697500D01*
X199726500Y-67137500D01*
X201276500Y-67137500D01*
X201276500Y-67697500D01*
G37*
X201276500Y-67697500D02*
X199726500Y-67697500D01*
X199726500Y-67137500D01*
X201276500Y-67137500D01*
X201276500Y-67697500D01*
G36*
X201276500Y-66397500D02*
G01*
X199726500Y-66397500D01*
X199726500Y-65837500D01*
X201276500Y-65837500D01*
X201276500Y-66397500D01*
G37*
X201276500Y-66397500D02*
X199726500Y-66397500D01*
X199726500Y-65837500D01*
X201276500Y-65837500D01*
X201276500Y-66397500D01*
G36*
X201276500Y-65747500D02*
G01*
X199726500Y-65747500D01*
X199726500Y-65187500D01*
X201276500Y-65187500D01*
X201276500Y-65747500D01*
G37*
X201276500Y-65747500D02*
X199726500Y-65747500D01*
X199726500Y-65187500D01*
X201276500Y-65187500D01*
X201276500Y-65747500D01*
G36*
X205956500Y-67047500D02*
G01*
X204406500Y-67047500D01*
X204406500Y-66487500D01*
X205956500Y-66487500D01*
X205956500Y-67047500D01*
G37*
X205956500Y-67047500D02*
X204406500Y-67047500D01*
X204406500Y-66487500D01*
X205956500Y-66487500D01*
X205956500Y-67047500D01*
G36*
X205956500Y-67697500D02*
G01*
X204406500Y-67697500D01*
X204406500Y-67137500D01*
X205956500Y-67137500D01*
X205956500Y-67697500D01*
G37*
X205956500Y-67697500D02*
X204406500Y-67697500D01*
X204406500Y-67137500D01*
X205956500Y-67137500D01*
X205956500Y-67697500D01*
G36*
X205956500Y-65747500D02*
G01*
X204406500Y-65747500D01*
X204406500Y-65187500D01*
X205956500Y-65187500D01*
X205956500Y-65747500D01*
G37*
X205956500Y-65747500D02*
X204406500Y-65747500D01*
X204406500Y-65187500D01*
X205956500Y-65187500D01*
X205956500Y-65747500D01*
G36*
X201276500Y-67047500D02*
G01*
X199726500Y-67047500D01*
X199726500Y-66487500D01*
X201276500Y-66487500D01*
X201276500Y-67047500D01*
G37*
X201276500Y-67047500D02*
X199726500Y-67047500D01*
X199726500Y-66487500D01*
X201276500Y-66487500D01*
X201276500Y-67047500D01*
G36*
X205956500Y-66397500D02*
G01*
X204406500Y-66397500D01*
X204406500Y-65837500D01*
X205956500Y-65837500D01*
X205956500Y-66397500D01*
G37*
X205956500Y-66397500D02*
X204406500Y-66397500D01*
X204406500Y-65837500D01*
X205956500Y-65837500D01*
X205956500Y-66397500D01*
G36*
X201276500Y-67697500D02*
G01*
X199726500Y-67697500D01*
X199726500Y-67137500D01*
X201276500Y-67137500D01*
X201276500Y-67697500D01*
G37*
X201276500Y-67697500D02*
X199726500Y-67697500D01*
X199726500Y-67137500D01*
X201276500Y-67137500D01*
X201276500Y-67697500D01*
G36*
X201276500Y-66397500D02*
G01*
X199726500Y-66397500D01*
X199726500Y-65837500D01*
X201276500Y-65837500D01*
X201276500Y-66397500D01*
G37*
X201276500Y-66397500D02*
X199726500Y-66397500D01*
X199726500Y-65837500D01*
X201276500Y-65837500D01*
X201276500Y-66397500D01*
G36*
X201276500Y-65747500D02*
G01*
X199726500Y-65747500D01*
X199726500Y-65187500D01*
X201276500Y-65187500D01*
X201276500Y-65747500D01*
G37*
X201276500Y-65747500D02*
X199726500Y-65747500D01*
X199726500Y-65187500D01*
X201276500Y-65187500D01*
X201276500Y-65747500D01*
G36*
X205956500Y-67047500D02*
G01*
X204406500Y-67047500D01*
X204406500Y-66487500D01*
X205956500Y-66487500D01*
X205956500Y-67047500D01*
G37*
X205956500Y-67047500D02*
X204406500Y-67047500D01*
X204406500Y-66487500D01*
X205956500Y-66487500D01*
X205956500Y-67047500D01*
G36*
X205956500Y-67697500D02*
G01*
X204406500Y-67697500D01*
X204406500Y-67137500D01*
X205956500Y-67137500D01*
X205956500Y-67697500D01*
G37*
X205956500Y-67697500D02*
X204406500Y-67697500D01*
X204406500Y-67137500D01*
X205956500Y-67137500D01*
X205956500Y-67697500D01*
D11*
X201520100Y-151516100D03*
X199520100Y-151516100D03*
D12*
X202073000Y-189992000D03*
X204073000Y-189992000D03*
D13*
X237998000Y-121142000D03*
X237998000Y-119142000D03*
D14*
X152781000Y-138684000D03*
D13*
X148196100Y-137773600D03*
X148196100Y-135773600D03*
D15*
X183489600Y-111734600D03*
X181764600Y-111734600D03*
D13*
X148209000Y-127288800D03*
X148209000Y-125288800D03*
D14*
X217240100Y-96523000D03*
D16*
X271638303Y-142408400D03*
X271638303Y-144408400D03*
D12*
X197107100Y-189997100D03*
X199107100Y-189997100D03*
D17*
X194043100Y-110946100D03*
X194043100Y-109221100D03*
X203200000Y-115035500D03*
X203200000Y-113310500D03*
D12*
X197107100Y-117988100D03*
X199107100Y-117988100D03*
D18*
X177900000Y-141100000D03*
D16*
X281474333Y-155402400D03*
X281474333Y-157402400D03*
X191376100Y-185060100D03*
X191376100Y-187060100D03*
D19*
X236611000Y-140977000D03*
D20*
X231511000Y-139827000D03*
D19*
X236611000Y-138677000D03*
D14*
X271300000Y-103378000D03*
D21*
X193353500Y-78947500D03*
X193353500Y-76872500D03*
D11*
X222424300Y-115259800D03*
X220424300Y-115259800D03*
D12*
X202073000Y-141986000D03*
X204073000Y-141986000D03*
D16*
X191376100Y-137054100D03*
X191376100Y-139054100D03*
D22*
X192368600Y-127767100D03*
X194193600Y-127767100D03*
D23*
X235700000Y-100162500D03*
X235700000Y-102237500D03*
D13*
X277876000Y-100648000D03*
X277876000Y-98648000D03*
D21*
X197024300Y-154433200D03*
X197024300Y-152358200D03*
D12*
X148225600Y-132820100D03*
X150225600Y-132820100D03*
D13*
X148209000Y-103285800D03*
X148209000Y-101285800D03*
D24*
X239870000Y-57190000D03*
X239870000Y-62290000D03*
D25*
X138772100Y-110357600D03*
X141872100Y-110357600D03*
D17*
X242464603Y-162438500D03*
X242464603Y-160713500D03*
D23*
X266355103Y-148552500D03*
X266355103Y-150627500D03*
D12*
X206949800Y-182295800D03*
X208949800Y-182295800D03*
D19*
X236611000Y-176029000D03*
D20*
X231511000Y-174879000D03*
D19*
X236611000Y-173729000D03*
D14*
X188100000Y-64000000D03*
D26*
X135027000Y-161798000D03*
X131927000Y-161798000D03*
D16*
X191376100Y-113051100D03*
X191376100Y-115051100D03*
D27*
X211481500Y-107823000D03*
X213206500Y-107823000D03*
D12*
X148225600Y-156823100D03*
X150225600Y-156823100D03*
D28*
X279837500Y-107600000D03*
X277762500Y-107600000D03*
D29*
X109515331Y-48089000D03*
X109515331Y-73089000D03*
D30*
X110935331Y-66129000D03*
X110935331Y-63359000D03*
X110935331Y-60589000D03*
X110935331Y-57819000D03*
X110935331Y-55049000D03*
X108095331Y-64744000D03*
X108095331Y-61974000D03*
X108095331Y-59204000D03*
X108095331Y-56434000D03*
D16*
X220382900Y-107691700D03*
X220382900Y-109691700D03*
D25*
X131927000Y-173222600D03*
X135027000Y-173222600D03*
D31*
X252222000Y-149075000D03*
X253492000Y-149075000D03*
X254762000Y-149075000D03*
X256032000Y-149075000D03*
X257302000Y-149075000D03*
X258572000Y-149075000D03*
X259842000Y-149075000D03*
X259842000Y-144125000D03*
X258572000Y-144125000D03*
X257302000Y-144125000D03*
X256032000Y-144125000D03*
X254762000Y-144125000D03*
X253492000Y-144125000D03*
X252222000Y-144125000D03*
D32*
X170420000Y-139456000D03*
D33*
X167880000Y-139456000D03*
X165340000Y-139456000D03*
X162800000Y-139456000D03*
D34*
X209022000Y-155803600D03*
X206522000Y-155803600D03*
D15*
X183489600Y-183743600D03*
X181764600Y-183743600D03*
D35*
X313757500Y-68992000D03*
X313757500Y-76002000D03*
D36*
X316247500Y-70242000D03*
X316247500Y-74742000D03*
D37*
X315573200Y-97625000D03*
D38*
X315573200Y-100165000D03*
D14*
X233553000Y-187198000D03*
D23*
X267500000Y-113262500D03*
X267500000Y-115337500D03*
D39*
X112832000Y-90000000D03*
X112832000Y-92540000D03*
D40*
X107752000Y-84920000D03*
X107752000Y-95080000D03*
D15*
X216927400Y-179832000D03*
X215202400Y-179832000D03*
D39*
X307014000Y-130000000D03*
X307014000Y-127460000D03*
D40*
X312094000Y-124920000D03*
X312094000Y-135080000D03*
D37*
X315573200Y-108875000D03*
D38*
X315573200Y-111415000D03*
D23*
X153670000Y-130280500D03*
X153670000Y-132355500D03*
D22*
X198745500Y-69871500D03*
X200570500Y-69871500D03*
D41*
X239590500Y-100199500D03*
D42*
X239590500Y-102739500D03*
X239590500Y-105279500D03*
D43*
X178536600Y-105587800D03*
X178536600Y-106857800D03*
X178536600Y-108127800D03*
X178536600Y-109397800D03*
X183486600Y-109397800D03*
X183486600Y-108127800D03*
X183486600Y-106857800D03*
X183486600Y-105587800D03*
D27*
X220460200Y-184779600D03*
X222185200Y-184779600D03*
D44*
X224990000Y-134980000D03*
D12*
X192027100Y-130434100D03*
X194027100Y-130434100D03*
D15*
X183489600Y-135737600D03*
X181764600Y-135737600D03*
D14*
X266192000Y-103378000D03*
D44*
X220827600Y-190347600D03*
D45*
X205141500Y-79730600D03*
X205141500Y-79080359D03*
X205141500Y-78430119D03*
X205141500Y-77779881D03*
X205141500Y-77129641D03*
X205141500Y-76479400D03*
X200541500Y-76479400D03*
X200541500Y-77129641D03*
X200541500Y-77779881D03*
X200541500Y-78430119D03*
X200541500Y-79080359D03*
X200541500Y-79730600D03*
D46*
X202841500Y-78105000D03*
D47*
X287594000Y-103284000D03*
X288544000Y-103284000D03*
X289494000Y-103284000D03*
X289494000Y-100584000D03*
X288544000Y-100584000D03*
X287594000Y-100584000D03*
D48*
X145161000Y-129768000D03*
X145161000Y-132868000D03*
D25*
X138785000Y-101219000D03*
X141885000Y-101219000D03*
D27*
X211481500Y-155829000D03*
X213206500Y-155829000D03*
D12*
X197107100Y-141991100D03*
X199107100Y-141991100D03*
D17*
X242366800Y-128391300D03*
X242366800Y-126666300D03*
D23*
X236310000Y-57722500D03*
X236310000Y-59797500D03*
X209960000Y-65832500D03*
X209960000Y-67907500D03*
D19*
X217040100Y-192076400D03*
D20*
X211940100Y-190926400D03*
D19*
X217040100Y-189776400D03*
D44*
X209296000Y-121539000D03*
D15*
X216927400Y-155829000D03*
X215202400Y-155829000D03*
D21*
X197024300Y-106427200D03*
X197024300Y-104352200D03*
D19*
X217040100Y-120067400D03*
D20*
X211940100Y-118917400D03*
D19*
X217040100Y-117767400D03*
D17*
X194043100Y-182955100D03*
X194043100Y-181230100D03*
D27*
X211481500Y-179832000D03*
X213206500Y-179832000D03*
D12*
X206949800Y-134289800D03*
X208949800Y-134289800D03*
D11*
X298000000Y-104550000D03*
X296000000Y-104550000D03*
X222424300Y-163265800D03*
X220424300Y-163265800D03*
D49*
X301179000Y-117348000D03*
X301179000Y-116078000D03*
X301179000Y-114808000D03*
X301179000Y-113538000D03*
X301179000Y-112268000D03*
X301179000Y-110998000D03*
X301179000Y-109728000D03*
X296229000Y-109728000D03*
X296229000Y-110998000D03*
X296229000Y-112268000D03*
X296229000Y-113538000D03*
X296229000Y-114808000D03*
X296229000Y-116078000D03*
X296229000Y-117348000D03*
D22*
X192368600Y-151770100D03*
X194193600Y-151770100D03*
D13*
X128524000Y-70342000D03*
X128524000Y-68342000D03*
D17*
X174104100Y-127476100D03*
X174104100Y-125751100D03*
D44*
X209296000Y-145542000D03*
D50*
X238309603Y-161101000D03*
X237039603Y-161101000D03*
X235769603Y-161101000D03*
X234499603Y-161101000D03*
X233229603Y-161101000D03*
X231959603Y-161101000D03*
X230689603Y-161101000D03*
X229419603Y-161101000D03*
X229419603Y-166051000D03*
X230689603Y-166051000D03*
X231959603Y-166051000D03*
X233229603Y-166051000D03*
X234499603Y-166051000D03*
X235769603Y-166051000D03*
X237039603Y-166051000D03*
X238309603Y-166051000D03*
D13*
X263510303Y-144459200D03*
X263510303Y-142459200D03*
D12*
X148225600Y-177778100D03*
X150225600Y-177778100D03*
D23*
X195494000Y-65405000D03*
X195494000Y-67480000D03*
D25*
X131927000Y-149219600D03*
X135027000Y-149219600D03*
D44*
X204724000Y-127508000D03*
D25*
X131927000Y-176270600D03*
X135027000Y-176270600D03*
D17*
X203200000Y-187044500D03*
X203200000Y-185319500D03*
D24*
X239860000Y-66170000D03*
X239860000Y-71270000D03*
D21*
X194043100Y-187224600D03*
X194043100Y-185149600D03*
D12*
X148225600Y-105769100D03*
X150225600Y-105769100D03*
D16*
X264900000Y-113300000D03*
X264900000Y-115300000D03*
D34*
X209022000Y-131800600D03*
X206522000Y-131800600D03*
D16*
X284945666Y-155402400D03*
X284945666Y-157402400D03*
D25*
X131927000Y-104261600D03*
X135027000Y-104261600D03*
D21*
X194043100Y-163221600D03*
X194043100Y-161146600D03*
D50*
X200875700Y-109660600D03*
X199605700Y-109660600D03*
X198335700Y-109660600D03*
X197065700Y-109660600D03*
X197065700Y-114610600D03*
X198335700Y-114610600D03*
X199605700Y-114610600D03*
X200875700Y-114610600D03*
D23*
X153670000Y-154283500D03*
X153670000Y-156358500D03*
D34*
X209022000Y-107797600D03*
X206522000Y-107797600D03*
D15*
X232002500Y-124333000D03*
X230277500Y-124333000D03*
D27*
X220460200Y-136773600D03*
X222185200Y-136773600D03*
D11*
X298000000Y-107150000D03*
X296000000Y-107150000D03*
D25*
X131927000Y-158363600D03*
X135027000Y-158363600D03*
D22*
X199413800Y-130292200D03*
X201238800Y-130292200D03*
D51*
X161972000Y-103505000D03*
X161972000Y-106045000D03*
X161972000Y-108585000D03*
X161972000Y-111125000D03*
X171022000Y-111125000D03*
X171022000Y-108585000D03*
X171022000Y-106045000D03*
X171022000Y-103505000D03*
D52*
X249936000Y-143737500D03*
X249936000Y-145462500D03*
D25*
X138772100Y-182366600D03*
X141872100Y-182366600D03*
X131927000Y-110357600D03*
X135027000Y-110357600D03*
D50*
X200875700Y-181669600D03*
X199605700Y-181669600D03*
X198335700Y-181669600D03*
X197065700Y-181669600D03*
X197065700Y-186619600D03*
X198335700Y-186619600D03*
X199605700Y-186619600D03*
X200875700Y-186619600D03*
D53*
X158374500Y-177609500D03*
X158374500Y-181038500D03*
D16*
X220382900Y-131694700D03*
X220382900Y-133694700D03*
D14*
X152781000Y-186740800D03*
D28*
X297709500Y-119634000D03*
X295634500Y-119634000D03*
D49*
X275524400Y-119614700D03*
X275524400Y-118344700D03*
X275524400Y-117074700D03*
X275524400Y-115804700D03*
X275524400Y-114534700D03*
X275524400Y-113264700D03*
X275524400Y-111994700D03*
X270574400Y-111994700D03*
X270574400Y-113264700D03*
X270574400Y-114534700D03*
X270574400Y-115804700D03*
X270574400Y-117074700D03*
X270574400Y-118344700D03*
X270574400Y-119614700D03*
D27*
X235738500Y-169291000D03*
X237463500Y-169291000D03*
D14*
X195072000Y-147320000D03*
D17*
X194043100Y-158952100D03*
X194043100Y-157227100D03*
D15*
X183590100Y-103352600D03*
X181865100Y-103352600D03*
D17*
X203200000Y-163041500D03*
X203200000Y-161316500D03*
D25*
X131927000Y-134360600D03*
X135027000Y-134360600D03*
D19*
X217040100Y-168073400D03*
D20*
X211940100Y-166923400D03*
D19*
X217040100Y-165773400D03*
D15*
X216927400Y-131826000D03*
X215202400Y-131826000D03*
D12*
X202073000Y-165989000D03*
X204073000Y-165989000D03*
D26*
X135027000Y-185801000D03*
X131927000Y-185801000D03*
D44*
X209296000Y-169545000D03*
D54*
X186810000Y-148600000D03*
D55*
X187960000Y-143500000D03*
D54*
X189110000Y-148600000D03*
D25*
X131927000Y-101213600D03*
X135027000Y-101213600D03*
D43*
X212015100Y-134233600D03*
X212015100Y-135503600D03*
X212015100Y-136773600D03*
X212015100Y-138043600D03*
X216965100Y-138043600D03*
X216965100Y-136773600D03*
X216965100Y-135503600D03*
X216965100Y-134233600D03*
D56*
X287506500Y-97870000D03*
X289581500Y-97870000D03*
D25*
X138772100Y-128264600D03*
X141872100Y-128264600D03*
D23*
X207440000Y-65832500D03*
X207440000Y-67907500D03*
D57*
X229860000Y-119246000D03*
D58*
X234960000Y-120396000D03*
D57*
X229860000Y-121546000D03*
D23*
X192954000Y-65405000D03*
X192954000Y-67480000D03*
D13*
X175144200Y-180501800D03*
X175144200Y-178501800D03*
D37*
X315573200Y-103250000D03*
D38*
X315573200Y-105790000D03*
D16*
X288417000Y-155402400D03*
X288417000Y-157402400D03*
D25*
X131927000Y-152267600D03*
X135027000Y-152267600D03*
D16*
X220382900Y-155697700D03*
X220382900Y-157697700D03*
D31*
X244654603Y-166051000D03*
X245924603Y-166051000D03*
X247194603Y-166051000D03*
X248464603Y-166051000D03*
X249734603Y-166051000D03*
X251004603Y-166051000D03*
X252274603Y-166051000D03*
X252274603Y-161101000D03*
X251004603Y-161101000D03*
X249734603Y-161101000D03*
X248464603Y-161101000D03*
X247194603Y-161101000D03*
X245924603Y-161101000D03*
X244654603Y-161101000D03*
D23*
X236310000Y-69182500D03*
X236310000Y-71257500D03*
D18*
X226200000Y-147500000D03*
D12*
X148225600Y-153775100D03*
X150225600Y-153775100D03*
D15*
X216927400Y-107823000D03*
X215202400Y-107823000D03*
D14*
X152781000Y-162687000D03*
D43*
X178536600Y-129590800D03*
X178536600Y-130860800D03*
X178536600Y-132130800D03*
X178536600Y-133400800D03*
X183486600Y-133400800D03*
X183486600Y-132130800D03*
X183486600Y-130860800D03*
X183486600Y-129590800D03*
D35*
X313757500Y-79152000D03*
X313757500Y-86162000D03*
D36*
X316247500Y-80402000D03*
X316247500Y-84902000D03*
D11*
X201520100Y-175519100D03*
X199520100Y-175519100D03*
D50*
X200875700Y-133663600D03*
X199605700Y-133663600D03*
X198335700Y-133663600D03*
X197065700Y-133663600D03*
X197065700Y-138613600D03*
X198335700Y-138613600D03*
X199605700Y-138613600D03*
X200875700Y-138613600D03*
D22*
X192368600Y-175773100D03*
X194193600Y-175773100D03*
D51*
X161972000Y-127508000D03*
X161972000Y-130048000D03*
X161972000Y-132588000D03*
X161972000Y-135128000D03*
X171022000Y-135128000D03*
X171022000Y-132588000D03*
X171022000Y-130048000D03*
X171022000Y-127508000D03*
D15*
X183590100Y-151358600D03*
X181865100Y-151358600D03*
D16*
X278003000Y-155402400D03*
X278003000Y-157402400D03*
D23*
X153670000Y-106277500D03*
X153670000Y-108352500D03*
D16*
X228473000Y-138827000D03*
X228473000Y-140827000D03*
D26*
X141885000Y-185801000D03*
X138785000Y-185801000D03*
D21*
X176898100Y-127397100D03*
X176898100Y-125322100D03*
D17*
X240665000Y-166089500D03*
X240665000Y-164364500D03*
D12*
X202073000Y-117983000D03*
X204073000Y-117983000D03*
D15*
X183590100Y-175361600D03*
X181865100Y-175361600D03*
D57*
X229606000Y-152774000D03*
D58*
X234706000Y-153924000D03*
D57*
X229606000Y-155074000D03*
D21*
X268945903Y-144445900D03*
X268945903Y-142370900D03*
D14*
X188100000Y-77300000D03*
D16*
X228473000Y-174006000D03*
X228473000Y-176006000D03*
D30*
X128143000Y-76200000D03*
D59*
X120523000Y-76200000D03*
D37*
X315573200Y-92000000D03*
D38*
X315573200Y-94540000D03*
D29*
X109642331Y-176930000D03*
X109642331Y-129830000D03*
D60*
X111062331Y-170000000D03*
D30*
X111062331Y-167230000D03*
X111062331Y-164460000D03*
X111062331Y-161690000D03*
X111062331Y-158920000D03*
X111062331Y-156150000D03*
X111062331Y-153380000D03*
X111062331Y-150610000D03*
X111062331Y-147840000D03*
X111062331Y-145070000D03*
X111062331Y-142300000D03*
X111062331Y-139530000D03*
X111062331Y-136760000D03*
X108222331Y-168615000D03*
X108222331Y-165845000D03*
X108222331Y-163075000D03*
X108222331Y-160305000D03*
X108222331Y-157535000D03*
X108222331Y-154765000D03*
X108222331Y-151995000D03*
X108222331Y-149225000D03*
X108222331Y-146455000D03*
X108222331Y-143685000D03*
X108222331Y-140915000D03*
X108222331Y-138145000D03*
D51*
X161972000Y-151511000D03*
X161972000Y-154051000D03*
X161972000Y-156591000D03*
X161972000Y-159131000D03*
X171022000Y-159131000D03*
X171022000Y-156591000D03*
X171022000Y-154051000D03*
X171022000Y-151511000D03*
D11*
X171500000Y-82400000D03*
X169500000Y-82400000D03*
D12*
X192027100Y-154437100D03*
X194027100Y-154437100D03*
D61*
X197888500Y-65530000D03*
X197888500Y-67355000D03*
D13*
X292100000Y-100600000D03*
X292100000Y-98600000D03*
D12*
X206949800Y-110286800D03*
X208949800Y-110286800D03*
D11*
X208936900Y-184779600D03*
X206936900Y-184779600D03*
D62*
X295402000Y-71960000D03*
X295402000Y-49960000D03*
D13*
X148196100Y-161776600D03*
X148196100Y-159776600D03*
D15*
X208774000Y-115285200D03*
X207049000Y-115285200D03*
D25*
X138785000Y-149225000D03*
X141885000Y-149225000D03*
D47*
X280482000Y-103284000D03*
X281432000Y-103284000D03*
X282382000Y-103284000D03*
X282382000Y-100584000D03*
X281432000Y-100584000D03*
X280482000Y-100584000D03*
D63*
X198288000Y-79017500D03*
X198288000Y-77192500D03*
D14*
X152781000Y-114681000D03*
D44*
X209296000Y-193548000D03*
D23*
X233000000Y-105300000D03*
X233000000Y-107375000D03*
D25*
X138772100Y-158363600D03*
X141872100Y-158363600D03*
D64*
X109416500Y-113810000D03*
D65*
X109416500Y-111270000D03*
X109416500Y-108730000D03*
X109416500Y-106190000D03*
X101796500Y-106190000D03*
X101796500Y-113810000D03*
D11*
X208936900Y-112770600D03*
X206936900Y-112770600D03*
D66*
X279978100Y-119411700D03*
X281248100Y-119411700D03*
X282518100Y-119411700D03*
X283788100Y-119411700D03*
X285058100Y-119411700D03*
X286328100Y-119411700D03*
X287598100Y-119411700D03*
X288868100Y-119411700D03*
X290138100Y-119411700D03*
X291408100Y-119411700D03*
X291408100Y-109911700D03*
X290138100Y-109911700D03*
X288868100Y-109911700D03*
X287598100Y-109911700D03*
X286328100Y-109911700D03*
X285058100Y-109911700D03*
X283788100Y-109911700D03*
X282518100Y-109911700D03*
X281248100Y-109911700D03*
X279978100Y-109911700D03*
D13*
X148209000Y-175294800D03*
X148209000Y-173294800D03*
D15*
X183590100Y-127355600D03*
X181865100Y-127355600D03*
D43*
X212015100Y-110230600D03*
X212015100Y-111500600D03*
X212015100Y-112770600D03*
X212015100Y-114040600D03*
X216965100Y-114040600D03*
X216965100Y-112770600D03*
X216965100Y-111500600D03*
X216965100Y-110230600D03*
D67*
X308115500Y-52451000D03*
D68*
X314115500Y-52451000D03*
D69*
X311115500Y-47751000D03*
D70*
X277600000Y-58112500D03*
X277600000Y-63187500D03*
D23*
X153670000Y-178286500D03*
X153670000Y-180361500D03*
D17*
X203200000Y-139038500D03*
X203200000Y-137313500D03*
D23*
X271850000Y-59562500D03*
X271850000Y-61637500D03*
D51*
X161972000Y-175514000D03*
X161972000Y-178054000D03*
X161972000Y-180594000D03*
X161972000Y-183134000D03*
X171022000Y-183134000D03*
X171022000Y-180594000D03*
X171022000Y-178054000D03*
X171022000Y-175514000D03*
D71*
X202841500Y-66442500D03*
D21*
X197024300Y-130430200D03*
X197024300Y-128355200D03*
D72*
X205416500Y-82804000D03*
X200316500Y-82804000D03*
D30*
X128397000Y-56442500D03*
X128397000Y-51362500D03*
X128397000Y-46282500D03*
X120777000Y-56442500D03*
X120777000Y-51362500D03*
X120777000Y-46282500D03*
X128397000Y-64062500D03*
X120777000Y-64062500D03*
D27*
X220460200Y-112770600D03*
X222185200Y-112770600D03*
D17*
X174104100Y-175482100D03*
X174104100Y-173757100D03*
D25*
X131927000Y-128264600D03*
X135027000Y-128264600D03*
D26*
X141885000Y-161798000D03*
X138785000Y-161798000D03*
D50*
X200875700Y-157666600D03*
X199605700Y-157666600D03*
X198335700Y-157666600D03*
X197065700Y-157666600D03*
X197065700Y-162616600D03*
X198335700Y-162616600D03*
X199605700Y-162616600D03*
X200875700Y-162616600D03*
D11*
X208936900Y-160776600D03*
X206936900Y-160776600D03*
D21*
X197024300Y-178436200D03*
X197024300Y-176361200D03*
D32*
X170420000Y-163713000D03*
D33*
X167880000Y-163713000D03*
X165340000Y-163713000D03*
X162800000Y-163713000D03*
D12*
X206949800Y-158292800D03*
X208949800Y-158292800D03*
D34*
X209022000Y-179806600D03*
X206522000Y-179806600D03*
D56*
X300412500Y-107150000D03*
X302487500Y-107150000D03*
D37*
X315573200Y-61087000D03*
D38*
X315573200Y-63627000D03*
D11*
X201520100Y-127513100D03*
X199520100Y-127513100D03*
D17*
X194043100Y-134949100D03*
X194043100Y-133224100D03*
D50*
X238379000Y-127065000D03*
X237109000Y-127065000D03*
X235839000Y-127065000D03*
X234569000Y-127065000D03*
X233299000Y-127065000D03*
X232029000Y-127065000D03*
X230759000Y-127065000D03*
X229489000Y-127065000D03*
X229489000Y-132015000D03*
X230759000Y-132015000D03*
X232029000Y-132015000D03*
X233299000Y-132015000D03*
X234569000Y-132015000D03*
X235839000Y-132015000D03*
X237109000Y-132015000D03*
X238379000Y-132015000D03*
D13*
X285242000Y-100521000D03*
X285242000Y-98521000D03*
D43*
X178536600Y-153593800D03*
X178536600Y-154863800D03*
X178536600Y-156133800D03*
X178536600Y-157403800D03*
X183486600Y-157403800D03*
X183486600Y-156133800D03*
X183486600Y-154863800D03*
X183486600Y-153593800D03*
D11*
X208936900Y-136773600D03*
X206936900Y-136773600D03*
D15*
X183489600Y-159740600D03*
X181764600Y-159740600D03*
D44*
X224282000Y-180086000D03*
D22*
X199413800Y-154295200D03*
X201238800Y-154295200D03*
D21*
X267500000Y-119637500D03*
X267500000Y-117562500D03*
D26*
X141885000Y-113792000D03*
X138785000Y-113792000D03*
D21*
X176898100Y-103394100D03*
X176898100Y-101319100D03*
D25*
X138785000Y-125222000D03*
X141885000Y-125222000D03*
D27*
X220460200Y-160776600D03*
X222185200Y-160776600D03*
D73*
X123619500Y-70292000D03*
X123619500Y-68392000D03*
X121744500Y-69342000D03*
D44*
X204724000Y-151511000D03*
D74*
X300000000Y-190000000D03*
D21*
X176898100Y-175403100D03*
X176898100Y-173328100D03*
D22*
X199413800Y-106289200D03*
X201238800Y-106289200D03*
D39*
X307014000Y-166000000D03*
D40*
X312094000Y-171080000D03*
D39*
X307014000Y-163460000D03*
D40*
X312094000Y-160920000D03*
D12*
X148225600Y-180826100D03*
X150225600Y-180826100D03*
D21*
X194043100Y-115215600D03*
X194043100Y-113140600D03*
D25*
X131927000Y-182366600D03*
X135027000Y-182366600D03*
D53*
X158374500Y-105600500D03*
X158374500Y-109029500D03*
D11*
X222424300Y-187268800D03*
X220424300Y-187268800D03*
D21*
X195900000Y-78947500D03*
X195900000Y-76872500D03*
D48*
X145161000Y-177774000D03*
X145161000Y-180874000D03*
D75*
X284650000Y-58500000D03*
X284650000Y-62800000D03*
D11*
X201520100Y-103510100D03*
X199520100Y-103510100D03*
D21*
X194043100Y-139218600D03*
X194043100Y-137143600D03*
D76*
X198384500Y-61743500D03*
X203484500Y-61743500D03*
D13*
X148196100Y-185779600D03*
X148196100Y-183779600D03*
D74*
X180000000Y-190000000D03*
D77*
X279400000Y-151625000D03*
X281940000Y-151625000D03*
X284480000Y-151625000D03*
X287020000Y-151625000D03*
X287020000Y-143015000D03*
X284480000Y-143015000D03*
X281940000Y-143015000D03*
X279400000Y-143015000D03*
D48*
X145161000Y-105765000D03*
X145161000Y-108865000D03*
D25*
X131927000Y-125216600D03*
X135027000Y-125216600D03*
D53*
X158374500Y-153606500D03*
X158374500Y-157035500D03*
D23*
X233000000Y-100162500D03*
X233000000Y-102237500D03*
X268895103Y-148552500D03*
X268895103Y-150627500D03*
D13*
X175144200Y-132495800D03*
X175144200Y-130495800D03*
D37*
X315573200Y-114500000D03*
D38*
X315573200Y-117040000D03*
D43*
X178536600Y-177596800D03*
X178536600Y-178866800D03*
X178536600Y-180136800D03*
X178536600Y-181406800D03*
X183486600Y-181406800D03*
X183486600Y-180136800D03*
X183486600Y-178866800D03*
X183486600Y-177596800D03*
D25*
X138772100Y-176270600D03*
X141872100Y-176270600D03*
D21*
X209960000Y-78567500D03*
X209960000Y-76492500D03*
D27*
X235738500Y-134874000D03*
X237463500Y-134874000D03*
D26*
X141885000Y-137795000D03*
X138785000Y-137795000D03*
D13*
X148196100Y-113770600D03*
X148196100Y-111770600D03*
D21*
X176898100Y-151400100D03*
X176898100Y-149325100D03*
D14*
X238000000Y-49900000D03*
D44*
X204724000Y-175514000D03*
D22*
X198754000Y-74549000D03*
X200579000Y-74549000D03*
D32*
X170423100Y-187470000D03*
D33*
X167883100Y-187470000D03*
X165343100Y-187470000D03*
X162803100Y-187470000D03*
D17*
X240690400Y-132028100D03*
X240690400Y-130303100D03*
D26*
X135027000Y-137795000D03*
X131927000Y-137795000D03*
D44*
X220827600Y-118338600D03*
D15*
X208774000Y-163291200D03*
X207049000Y-163291200D03*
D25*
X138772100Y-134360600D03*
X141872100Y-134360600D03*
D74*
X280000000Y-50000000D03*
D12*
X148225600Y-129772100D03*
X150225600Y-129772100D03*
D56*
X280394500Y-97870000D03*
X282469500Y-97870000D03*
D44*
X223790000Y-156360000D03*
D43*
X212015100Y-158236600D03*
X212015100Y-159506600D03*
X212015100Y-160776600D03*
X212015100Y-162046600D03*
X216965100Y-162046600D03*
X216965100Y-160776600D03*
X216965100Y-159506600D03*
X216965100Y-158236600D03*
D12*
X197107100Y-165994100D03*
X199107100Y-165994100D03*
D15*
X208774000Y-187294200D03*
X207049000Y-187294200D03*
D17*
X174104100Y-151479100D03*
X174104100Y-149754100D03*
D16*
X220382900Y-179700700D03*
X220382900Y-181700700D03*
D13*
X148209000Y-151291800D03*
X148209000Y-149291800D03*
D12*
X192027100Y-106431100D03*
X194027100Y-106431100D03*
X192027100Y-178440100D03*
X194027100Y-178440100D03*
D15*
X231875500Y-158115000D03*
X230150500Y-158115000D03*
D25*
X138772100Y-104261600D03*
X141872100Y-104261600D03*
D13*
X175144200Y-108492800D03*
X175144200Y-106492800D03*
D74*
X140000000Y-50000000D03*
D13*
X271485903Y-150640800D03*
X271485903Y-148640800D03*
X175144200Y-156498800D03*
X175144200Y-154498800D03*
D39*
X307014000Y-184000000D03*
D40*
X312094000Y-189080000D03*
D39*
X307014000Y-181460000D03*
D40*
X312094000Y-178920000D03*
D26*
X135027000Y-113792000D03*
X131927000Y-113792000D03*
D15*
X208774000Y-139288200D03*
X207049000Y-139288200D03*
D53*
X158374500Y-129603500D03*
X158374500Y-133032500D03*
D44*
X204724000Y-103505000D03*
D22*
X199413800Y-178298200D03*
X201238800Y-178298200D03*
D21*
X207440000Y-78567500D03*
X207440000Y-76492500D03*
D25*
X138785000Y-173228000D03*
X141885000Y-173228000D03*
D44*
X220827600Y-142341600D03*
D14*
X188100000Y-70750000D03*
D25*
X138772100Y-152267600D03*
X141872100Y-152267600D03*
D44*
X223690000Y-108160000D03*
D39*
X307014000Y-148000000D03*
D40*
X312094000Y-142920000D03*
D39*
X307014000Y-145460000D03*
D40*
X312094000Y-153080000D03*
D23*
X235700000Y-105300000D03*
X235700000Y-107375000D03*
D17*
X174104100Y-103473100D03*
X174104100Y-101748100D03*
D21*
X266253503Y-144496700D03*
X266253503Y-142421700D03*
D12*
X148225600Y-108817100D03*
X150225600Y-108817100D03*
D11*
X222424300Y-139262800D03*
X220424300Y-139262800D03*
D78*
X266670000Y-58440000D03*
D79*
X266670000Y-63520000D03*
X266670000Y-71140000D03*
X246350000Y-50820000D03*
X246350000Y-60980000D03*
X246350000Y-71140000D03*
D16*
X191376100Y-161057100D03*
X191376100Y-163057100D03*
D13*
X238125000Y-154670000D03*
X238125000Y-152670000D03*
D19*
X217040100Y-144070400D03*
D20*
X211940100Y-142920400D03*
D19*
X217040100Y-141770400D03*
D48*
X145161000Y-153771000D03*
X145161000Y-156871000D03*
D43*
X212015100Y-182239600D03*
X212015100Y-183509600D03*
X212015100Y-184779600D03*
X212015100Y-186049600D03*
X216965100Y-186049600D03*
X216965100Y-184779600D03*
X216965100Y-183509600D03*
X216965100Y-182239600D03*
D31*
X244576600Y-132015000D03*
X245846600Y-132015000D03*
X247116600Y-132015000D03*
X248386600Y-132015000D03*
X249656600Y-132015000D03*
X250926600Y-132015000D03*
X252196600Y-132015000D03*
X252196600Y-127065000D03*
X250926600Y-127065000D03*
X249656600Y-127065000D03*
X248386600Y-127065000D03*
X247116600Y-127065000D03*
X245846600Y-127065000D03*
X244576600Y-127065000D03*
D16*
X263459503Y-148539200D03*
X263459503Y-150539200D03*
D44*
X220827600Y-166344600D03*
D22*
X192368600Y-103764100D03*
X194193600Y-103764100D03*
D14*
X224250000Y-96550000D03*
D27*
X211481500Y-131826000D03*
X213206500Y-131826000D03*
D32*
X170598000Y-115326000D03*
D33*
X168058000Y-115326000D03*
X165518000Y-115326000D03*
X162978000Y-115326000D03*
D80*
X196370000Y-61800000D03*
X204316500Y-115035500D03*
X204316500Y-187044500D03*
X195819162Y-155513600D03*
X183642000Y-125984000D03*
X193370000Y-63300000D03*
X216916000Y-178308000D03*
X216916000Y-106299000D03*
X204316500Y-163041500D03*
X194870000Y-61800000D03*
X183642000Y-101981000D03*
X216916000Y-154305000D03*
X196370000Y-63300000D03*
X194870000Y-63300000D03*
X183642000Y-173990000D03*
X183642000Y-149987000D03*
X204316500Y-139038500D03*
X216916000Y-130302000D03*
X193370000Y-61800000D03*
X214190000Y-132940000D03*
D81*
X270000000Y-198500000D03*
D80*
X240411000Y-127762000D03*
D81*
X290000000Y-41500000D03*
X275000000Y-198500000D03*
D80*
X171310100Y-101565700D03*
D81*
X245000000Y-198500000D03*
X210000000Y-41500000D03*
X135000000Y-198500000D03*
X305000000Y-198500000D03*
D80*
X265500000Y-117200000D03*
X214160000Y-156960000D03*
D81*
X270000000Y-41500000D03*
X170000000Y-198500000D03*
D80*
X240411000Y-161671000D03*
D81*
X145000000Y-198500000D03*
D80*
X205010000Y-131840000D03*
D81*
X267474667Y-161900000D03*
X310000000Y-41500000D03*
X130000000Y-41500000D03*
X263749334Y-161900000D03*
X125000000Y-198500000D03*
X115000000Y-41500000D03*
X237949334Y-146400000D03*
X135000000Y-41500000D03*
X267474667Y-158598000D03*
X185000000Y-198500000D03*
X170000000Y-41500000D03*
X145000000Y-41500000D03*
D80*
X276500000Y-107600000D03*
X212020000Y-139590000D03*
D81*
X130000000Y-198500000D03*
X150000000Y-198500000D03*
D80*
X171310100Y-173603600D03*
X293500000Y-117200000D03*
X204990000Y-107850000D03*
D81*
X215000000Y-41500000D03*
D80*
X253238000Y-133350000D03*
D81*
X267474667Y-165200000D03*
D80*
X214200000Y-180960000D03*
X228346000Y-159766000D03*
D81*
X175000000Y-198500000D03*
D82*
X202441500Y-65940000D03*
D81*
X150000000Y-41500000D03*
D82*
X202441500Y-66940000D03*
D80*
X212000000Y-115600000D03*
D81*
X240000000Y-41500000D03*
X263749334Y-165200000D03*
X230000000Y-41500000D03*
X225000000Y-198500000D03*
X165000000Y-198500000D03*
X271200000Y-165200000D03*
X180000000Y-41500000D03*
X120000000Y-41500000D03*
X205000000Y-198500000D03*
X225000000Y-41500000D03*
D80*
X261366000Y-151130000D03*
D81*
X180000000Y-198500000D03*
X205000000Y-41500000D03*
D80*
X253746000Y-146558000D03*
X303400000Y-109250000D03*
D81*
X220000000Y-41500000D03*
X195000000Y-198500000D03*
X120000000Y-198500000D03*
X105000000Y-198500000D03*
X200000000Y-41500000D03*
D80*
X205020000Y-179860000D03*
D81*
X235000000Y-41500000D03*
X220000000Y-198500000D03*
X115000000Y-198500000D03*
X280000000Y-41500000D03*
X260000000Y-198500000D03*
D82*
X203241500Y-66940000D03*
D81*
X295000000Y-41500000D03*
X140000000Y-41500000D03*
D80*
X267589000Y-140843000D03*
D81*
X175000000Y-41500000D03*
X155000000Y-41500000D03*
X241674667Y-146400000D03*
D80*
X288050000Y-95450000D03*
D81*
X105000000Y-41500000D03*
X300000000Y-41500000D03*
X160000000Y-41500000D03*
D80*
X293500000Y-118400000D03*
D81*
X265000000Y-198500000D03*
X300000000Y-198500000D03*
D80*
X277650000Y-113157000D03*
D81*
X195000000Y-41500000D03*
X110000000Y-41500000D03*
D80*
X171310100Y-149600600D03*
D81*
X200000000Y-198500000D03*
X315000000Y-41500000D03*
X210000000Y-198500000D03*
X310000000Y-198500000D03*
X235000000Y-198500000D03*
X255000000Y-41500000D03*
X160000000Y-198500000D03*
X190000000Y-198500000D03*
X295000000Y-198500000D03*
X285000000Y-41500000D03*
X275000000Y-41500000D03*
X250000000Y-41500000D03*
X285000000Y-198500000D03*
D80*
X212030000Y-187610000D03*
D81*
X290000000Y-198500000D03*
D80*
X211990000Y-163610000D03*
D81*
X255000000Y-198500000D03*
X165000000Y-41500000D03*
X280000000Y-198500000D03*
X251968000Y-114046000D03*
X125000000Y-41500000D03*
X263749334Y-158598000D03*
X245400000Y-146400000D03*
X155000000Y-198500000D03*
X250000000Y-198500000D03*
D80*
X228346000Y-125730000D03*
D81*
X315000000Y-198500000D03*
D82*
X203241500Y-65940000D03*
D81*
X215000000Y-198500000D03*
X185000000Y-41500000D03*
X265000000Y-41500000D03*
X245000000Y-41500000D03*
X240000000Y-198500000D03*
X271200000Y-161900000D03*
X110000000Y-198500000D03*
D80*
X253492000Y-165989000D03*
X285200000Y-104100000D03*
D81*
X190000000Y-41500000D03*
X140000000Y-198500000D03*
X260000000Y-41500000D03*
D80*
X204980000Y-155860000D03*
X214170000Y-108950000D03*
D81*
X271200000Y-158598000D03*
X255693333Y-114046000D03*
X230000000Y-198500000D03*
X305000000Y-41500000D03*
X248242667Y-114046000D03*
D80*
X150215600Y-103831700D03*
X150162500Y-110687400D03*
X192913000Y-157226000D03*
X184700000Y-135700000D03*
X193800000Y-82490000D03*
X196800000Y-80990000D03*
X193800000Y-80990000D03*
X184700000Y-159700000D03*
X195300000Y-80990000D03*
X192913000Y-109220000D03*
X192913000Y-181229000D03*
X184700000Y-183700000D03*
X195300000Y-82490000D03*
X192913000Y-133223000D03*
X196800000Y-82490000D03*
X184700000Y-111700000D03*
X151103000Y-107259100D03*
X146200000Y-101190100D03*
D83*
X154152600Y-103780900D03*
D81*
X158318200Y-114753700D03*
D80*
X159969200Y-110207100D03*
X152831800Y-101850500D03*
D81*
X156768800Y-114728300D03*
D80*
X154127200Y-101850500D03*
X155575000Y-101850500D03*
D81*
X156743400Y-116150700D03*
X158318200Y-116150700D03*
D80*
X156921200Y-101850500D03*
X242386600Y-130334803D03*
X236397800Y-159497800D03*
X279837500Y-106262500D03*
X266112000Y-119612000D03*
X220472000Y-130126500D03*
X286528029Y-96728029D03*
X205679000Y-136779000D03*
X220472000Y-106123500D03*
X238125000Y-151130000D03*
X239348000Y-119142000D03*
X205700000Y-184785000D03*
X220472000Y-154129500D03*
X226568000Y-140716000D03*
X236474000Y-125476000D03*
X220472000Y-178132500D03*
X205700000Y-112776000D03*
X248639500Y-143737500D03*
X178435000Y-151384000D03*
X279400000Y-96700000D03*
X172800000Y-82400000D03*
X228473000Y-177546000D03*
X231317800Y-167665400D03*
X178435000Y-103378000D03*
X205682000Y-160782000D03*
X231394000Y-133477000D03*
X299025000Y-103475000D03*
X178435000Y-127381000D03*
X310750000Y-65000000D03*
X283287600Y-157402400D03*
X297650000Y-121000000D03*
X178435000Y-175387000D03*
X242464603Y-164410403D03*
X238633000Y-134874000D03*
X238760000Y-138684000D03*
X205867000Y-117983000D03*
X293700000Y-108700000D03*
X267500000Y-111400000D03*
X281178000Y-107696000D03*
X282448000Y-107696000D03*
X284226000Y-107696000D03*
X286258000Y-107696000D03*
X286385000Y-111633000D03*
X130550600Y-176270600D03*
X192405000Y-150368000D03*
X192405000Y-174371000D03*
X192405000Y-126365000D03*
X192405000Y-102362000D03*
X194945000Y-143383000D03*
X170466800Y-146286000D03*
D18*
X130542000Y-70358000D03*
D80*
X170455500Y-170307000D03*
X170434000Y-194310000D03*
X170434000Y-122272100D03*
D81*
X230400000Y-99650000D03*
X231400000Y-99650000D03*
X230400000Y-100650000D03*
X231400000Y-100650000D03*
D80*
X246154797Y-122595600D03*
X248285000Y-134239000D03*
X150192600Y-127863600D03*
X150139500Y-134719300D03*
D83*
X154129600Y-127812800D03*
D80*
X146177000Y-125222000D03*
X151080000Y-131291000D03*
D81*
X156745800Y-138760200D03*
D80*
X156898200Y-125882400D03*
X155552000Y-125882400D03*
X152808800Y-125882400D03*
D81*
X158295200Y-140182600D03*
D80*
X159946200Y-134239000D03*
X154104200Y-125882400D03*
D81*
X158295200Y-138785600D03*
X156720400Y-140182600D03*
D80*
X150215600Y-151866600D03*
X150162500Y-158722300D03*
D83*
X154152600Y-151815800D03*
D80*
X146200000Y-149225000D03*
X151103000Y-155294000D03*
X159969200Y-158242000D03*
D81*
X156743400Y-164185600D03*
D80*
X154127200Y-149885400D03*
X155575000Y-149885400D03*
X156921200Y-149885400D03*
D81*
X158318200Y-164185600D03*
X156768800Y-162763200D03*
D80*
X152831800Y-149885400D03*
D81*
X158318200Y-162788600D03*
D80*
X150215600Y-175869600D03*
X150162500Y-182725300D03*
D83*
X154152600Y-175818800D03*
D80*
X146200000Y-173228000D03*
X151103000Y-179297000D03*
D81*
X156768800Y-186766200D03*
D80*
X154127200Y-173888400D03*
X156921200Y-173888400D03*
D81*
X158318200Y-186791600D03*
D80*
X152831800Y-173888400D03*
D81*
X158318200Y-188188600D03*
X156743400Y-188188600D03*
D80*
X155575000Y-173888400D03*
X159969200Y-182245000D03*
X238887000Y-169291000D03*
X238506000Y-173736000D03*
D82*
X202441500Y-77440000D03*
X203241500Y-77440000D03*
X202441500Y-78770000D03*
X203241500Y-78770000D03*
D80*
X204089000Y-140716000D03*
X205867000Y-165989000D03*
X205867000Y-189992000D03*
X247116000Y-125195600D03*
X234569000Y-133546397D03*
X247142000Y-158685000D03*
X234442000Y-167829000D03*
X246507000Y-156210000D03*
X248464603Y-168284397D03*
G36*
X319942121Y-196981002D02*
G01*
X319988614Y-197034658D01*
X320000000Y-197087000D01*
X320000000Y-199874000D01*
X319979998Y-199942121D01*
X319926342Y-199988614D01*
X319874000Y-200000000D01*
X100126000Y-200000000D01*
X100057879Y-199979998D01*
X100011386Y-199926342D01*
X100000000Y-199874000D01*
X100000000Y-197087000D01*
X100020002Y-197018879D01*
X100073658Y-196972386D01*
X100126000Y-196961000D01*
X319874000Y-196961000D01*
X319942121Y-196981002D01*
G37*
G36*
X319942121Y-40025002D02*
G01*
X319988614Y-40078658D01*
X320000000Y-40131000D01*
X320000000Y-42943000D01*
X319979998Y-43011121D01*
X319926342Y-43057614D01*
X319874000Y-43069000D01*
X100126000Y-43069000D01*
X100057879Y-43048998D01*
X100011386Y-42995342D01*
X100000000Y-42943000D01*
X100000000Y-40131000D01*
X100020002Y-40062879D01*
X100073658Y-40016386D01*
X100126000Y-40005000D01*
X319874000Y-40005000D01*
X319942121Y-40025002D01*
G37*
G36*
X319990819Y-196954152D02*
G01*
X320001387Y-196958530D01*
X320002470Y-196959613D01*
X320006848Y-196970181D01*
X320007000Y-196970946D01*
X320007000Y-199990054D01*
X320006848Y-199990819D01*
X320002470Y-200001387D01*
X320001387Y-200002470D01*
X319990819Y-200006848D01*
X319990054Y-200007000D01*
X100009946Y-200007000D01*
X100009181Y-200006848D01*
X99998613Y-200002470D01*
X99997530Y-200001387D01*
X99996127Y-199998000D01*
X100002000Y-199998000D01*
X319998000Y-199998000D01*
X319998000Y-196963000D01*
X100002000Y-196963000D01*
X100002000Y-199998000D01*
X99996127Y-199998000D01*
X99993152Y-199990819D01*
X99993000Y-199990054D01*
X99993000Y-196970946D01*
X99993152Y-196970181D01*
X99997530Y-196959613D01*
X99998613Y-196958530D01*
X100009181Y-196954152D01*
X100009946Y-196954000D01*
X319990054Y-196954000D01*
X319990819Y-196954152D01*
G37*
G36*
X204233980Y-141137151D02*
G01*
X204234506Y-141139080D01*
X204233796Y-141140152D01*
X204205238Y-141162263D01*
X204200617Y-141198583D01*
X204223122Y-141227651D01*
X204247280Y-141234067D01*
X204248698Y-141235478D01*
X204248184Y-141237411D01*
X204246767Y-141238000D01*
X203933634Y-141238000D01*
X203931902Y-141237000D01*
X203931902Y-141235000D01*
X203932869Y-141234152D01*
X203967456Y-141219826D01*
X203981466Y-141186002D01*
X203967390Y-141152018D01*
X203949313Y-141141082D01*
X203948348Y-141139330D01*
X203949384Y-141137619D01*
X203950944Y-141137462D01*
X204017374Y-141158216D01*
X204144371Y-141160544D01*
X204232046Y-141136641D01*
X204233980Y-141137151D01*
G37*
G36*
X234739488Y-133034905D02*
G01*
X234739878Y-133036867D01*
X234739095Y-133037887D01*
X234710055Y-133057289D01*
X234702912Y-133093198D01*
X234723402Y-133123864D01*
X234733282Y-133128514D01*
X234734423Y-133130157D01*
X234733571Y-133131966D01*
X234731857Y-133132240D01*
X234635216Y-133103338D01*
X234508202Y-133102562D01*
X234402348Y-133132816D01*
X234400407Y-133132330D01*
X234399858Y-133130407D01*
X234400554Y-133129327D01*
X234428843Y-133106867D01*
X234433019Y-133070495D01*
X234410089Y-133041615D01*
X234401921Y-133038618D01*
X234400640Y-133037082D01*
X234401328Y-133035205D01*
X234403000Y-133034778D01*
X234419199Y-133038000D01*
X234718801Y-133038000D01*
X234737594Y-133034262D01*
X234739488Y-133034905D01*
G37*
G36*
X319990819Y-39998152D02*
G01*
X320001387Y-40002530D01*
X320002470Y-40003613D01*
X320006848Y-40014181D01*
X320007000Y-40014946D01*
X320007000Y-43059054D01*
X320006848Y-43059819D01*
X320002470Y-43070387D01*
X320001387Y-43071470D01*
X319990819Y-43075848D01*
X319990054Y-43076000D01*
X100009946Y-43076000D01*
X100009181Y-43075848D01*
X99998613Y-43071470D01*
X99997530Y-43070387D01*
X99996127Y-43067000D01*
X100002000Y-43067000D01*
X319998000Y-43067000D01*
X319998000Y-40007000D01*
X100002000Y-40007000D01*
X100002000Y-43067000D01*
X99996127Y-43067000D01*
X99993152Y-43059819D01*
X99993000Y-43059054D01*
X99993000Y-40014946D01*
X99993152Y-40014181D01*
X99997530Y-40003613D01*
X99998613Y-40002530D01*
X100009181Y-39998152D01*
X100009946Y-39998000D01*
X319990054Y-39998000D01*
X319990819Y-39998152D01*
G37*
M02*
