M48
; DRILL file {KiCad (6.0.11)} date Wed Apr 19 09:32:00 2023
; FORMAT={-:-/ absolute / inch / decimal}
; #@! TF.CreationDate,2023-04-19T09:32:00-03:00
; #@! TF.GenerationSoftware,Kicad,Pcbnew,(6.0.11)
; #@! TF.FileFunction,MixedPlating,1,2
FMAT,2
INCH
; #@! TA.AperFunction,Plated,PTH,ViaDrill
T1C0.0197
; #@! TA.AperFunction,Plated,PTH,ViaDrill
T2C0.0276
; #@! TA.AperFunction,Plated,PTH,ComponentDrill
T3C0.0315
; #@! TA.AperFunction,Plated,PTH,ComponentDrill
T4C0.0350
; #@! TA.AperFunction,Plated,PTH,ComponentDrill
T5C0.0354
; #@! TA.AperFunction,Plated,PTH,ComponentDrill
T6C0.0390
; #@! TA.AperFunction,Plated,PTH,ComponentDrill
T7C0.0394
; #@! TA.AperFunction,Plated,PTH,ComponentDrill
T8C0.0398
; #@! TA.AperFunction,Plated,PTH,ComponentDrill
T9C0.0472
; #@! TA.AperFunction,Plated,PTH,ComponentDrill
T10C0.0512
; #@! TA.AperFunction,Plated,PTH,ComponentDrill
T11C0.0630
; #@! TA.AperFunction,Plated,PTH,ComponentDrill
T12C0.0791
; #@! TA.AperFunction,Plated,PTH,ComponentDrill
T13C0.1260
%
G90
G05
T1
X9.63Y-5.98
X9.753Y-5.497
X9.868Y-6.022
X10.096Y-5.786
X10.294Y-4.956
T2
X4.55Y-7.09
X4.73Y-4.88
X5.38Y-4.16
X5.4Y-3.795
X5.48Y-5.8
X5.483Y-5.939
X5.61Y-5.52
X5.61Y-6.18
X5.688Y-3.7255
X5.73Y-4.1582
X6.323Y-4.165
X6.373Y-3.589
X6.4Y-3.74
X6.69Y-4.23
X6.78Y-3.86
X6.92Y-3.84
X7.21Y-5.081
X7.33Y-4.3
X7.4Y-4.067
X7.421Y-3.611
X7.43Y-3.87
X7.51Y-4.27
X7.622Y-4.102
X7.654Y-3.778
X7.66Y-4.63
X7.82Y-3.68
X8.0631Y-3.7832
X8.133Y-4.363
X8.22Y-4.73
X8.43Y-5.49
X8.6Y-5.09
X8.602Y-4.726
X8.685Y-3.545
X8.708Y-3.861
X8.89Y-3.9704
X8.979Y-3.435
X9.02Y-6.08
X9.07Y-5.75
X9.17Y-3.5404
X9.174Y-3.97
X9.175Y-5.685
X9.175Y-6.0
X9.53Y-4.44
X9.545Y-4.878
X9.572Y-5.566
X9.801Y-4.431
X9.9Y-4.856
X10.12Y-4.88
X10.134Y-5.562
X10.41Y-6.14
X11.57Y-4.31
X12.19Y-4.8
T3
X4.7671Y-5.8029
X4.7671Y-6.1029
X4.7671Y-6.3029
X4.7671Y-6.5029
X5.0671Y-5.8029
X5.0671Y-6.1029
X5.0671Y-6.3029
X5.0671Y-6.5029
T4
X4.4422Y-4.78
X4.4422Y-4.88
X12.0478Y-2.8688
X12.0478Y-2.9688
X12.0488Y-2.1481
X12.0488Y-2.2481
X12.0498Y-3.5894
X12.0498Y-3.6894
X12.05Y-4.31
X12.05Y-4.41
T5
X12.38Y-4.805
X12.38Y-4.905
X12.38Y-5.025
X12.38Y-5.125
X12.38Y-5.465
X12.38Y-5.565
X12.38Y-5.685
X12.38Y-5.785
X12.38Y-5.245
X12.38Y-5.345
X12.3848Y-6.875
X12.3848Y-6.975
T6
X12.4113Y-6.0628
X12.4113Y-6.24
X12.4113Y-6.4628
X12.4113Y-6.64
T7
X4.2582Y-2.43
X4.2582Y-2.5391
X4.2582Y-2.6481
X4.2582Y-2.7572
X4.2582Y-2.8662
X4.2582Y-2.9753
X4.2582Y-3.0843
X4.2582Y-3.1934
X4.2582Y-3.3024
X4.2582Y-3.4115
X4.2582Y-3.5206
X4.2582Y-3.6296
X4.2607Y-5.896
X4.2607Y-6.0051
X4.2607Y-6.1141
X4.2607Y-6.2232
X4.37Y-2.3755
X4.37Y-2.4845
X4.37Y-2.5936
X4.37Y-2.7026
X4.37Y-2.8117
X4.37Y-2.9207
X4.37Y-3.0298
X4.37Y-3.1389
X4.37Y-3.2479
X4.37Y-3.357
X4.37Y-3.466
X4.37Y-3.5751
X4.37Y-3.6841
X4.3725Y-5.8415
X4.3725Y-5.9506
X4.3725Y-6.0596
X4.3725Y-6.1687
X4.3725Y-6.2777
X5.8696Y-4.3004
X5.9696Y-4.3004
X6.0696Y-4.3004
X6.1696Y-4.3004
T8
X4.01Y-7.09
X4.01Y-7.39
X4.31Y-7.09
X4.31Y-7.19
X4.31Y-7.29
X4.31Y-7.39
T9
X7.25Y-5.37
X7.4Y-5.37
X7.55Y-5.37
X7.7Y-5.37
X7.85Y-5.37
X8.0Y-5.37
T10
X12.3133Y-6.0132
X12.3133Y-6.2892
X12.3133Y-6.4132
X12.3133Y-6.6892
T11
X4.7Y-4.31
X4.87Y-3.58
X5.2733Y-4.31
X5.4Y-3.58
X5.56Y-4.31
X5.635Y-3.58
X5.87Y-3.58
X6.24Y-3.43
X6.48Y-3.43
X6.48Y-4.28
X6.81Y-4.98
X6.886Y-4.282
X7.02Y-4.98
X7.49Y-4.98
X7.518Y-4.5
X7.61Y-3.4
X7.81Y-4.98
X7.86Y-3.4
X8.09Y-3.41
X8.11Y-4.98
X8.13Y-4.184
X8.312Y-4.184
X8.33Y-4.98
X8.614Y-3.298
X8.82Y-4.5
X9.02Y-4.17
X9.045Y-4.4993
X9.27Y-4.5
X9.58Y-4.17
X10.4146Y-5.4293
X10.6146Y-5.4293
X10.82Y-5.4293
T12
X4.2422Y-4.68
X4.2422Y-5.08
X12.2478Y-2.6688
X12.2478Y-3.0688
X12.2488Y-1.9481
X12.2488Y-2.3481
X12.2498Y-3.3894
X12.2498Y-3.7894
X12.25Y-4.11
X12.25Y-4.51
T13
X4.3141Y-2.1026
X4.3141Y-3.957
X4.3166Y-5.5675
X4.3166Y-6.5517
T7
G00X12.09Y-7.2642
M15
G01X12.09Y-7.3626
M16
G05
G00X12.1687Y-7.4985
M15
G01X12.2475Y-7.4985
M16
G05
G00X12.3262Y-7.2741
M15
G01X12.3262Y-7.3528
M16
G05
T0
M30
