G04 #@! TF.GenerationSoftware,KiCad,Pcbnew,(6.0.11)*
G04 #@! TF.CreationDate,2023-05-29T14:07:06-03:00*
G04 #@! TF.ProjectId,qds-cv,7164732d-6376-42e6-9b69-6361645f7063,rev?*
G04 #@! TF.SameCoordinates,Original*
G04 #@! TF.FileFunction,Paste,Top*
G04 #@! TF.FilePolarity,Positive*
%FSLAX46Y46*%
G04 Gerber Fmt 4.6, Leading zero omitted, Abs format (unit mm)*
G04 Created by KiCad (PCBNEW (6.0.11)) date 2023-05-29 14:07:06*
%MOMM*%
%LPD*%
G01*
G04 APERTURE LIST*
G04 Aperture macros list*
%AMRoundRect*
0 Rectangle with rounded corners*
0 $1 Rounding radius*
0 $2 $3 $4 $5 $6 $7 $8 $9 X,Y pos of 4 corners*
0 Add a 4 corners polygon primitive as box body*
4,1,4,$2,$3,$4,$5,$6,$7,$8,$9,$2,$3,0*
0 Add four circle primitives for the rounded corners*
1,1,$1+$1,$2,$3*
1,1,$1+$1,$4,$5*
1,1,$1+$1,$6,$7*
1,1,$1+$1,$8,$9*
0 Add four rect primitives between the rounded corners*
20,1,$1+$1,$2,$3,$4,$5,0*
20,1,$1+$1,$4,$5,$6,$7,0*
20,1,$1+$1,$6,$7,$8,$9,0*
20,1,$1+$1,$8,$9,$2,$3,0*%
G04 Aperture macros list end*
%ADD10C,0.025400*%
%ADD11C,0.010000*%
%ADD12RoundRect,0.250000X0.350000X0.450000X-0.350000X0.450000X-0.350000X-0.450000X0.350000X-0.450000X0*%
%ADD13RoundRect,0.250000X-0.350000X-0.450000X0.350000X-0.450000X0.350000X0.450000X-0.350000X0.450000X0*%
%ADD14RoundRect,0.250000X0.450000X-0.350000X0.450000X0.350000X-0.450000X0.350000X-0.450000X-0.350000X0*%
%ADD15RoundRect,0.237500X0.300000X0.237500X-0.300000X0.237500X-0.300000X-0.237500X0.300000X-0.237500X0*%
%ADD16RoundRect,0.250000X-0.450000X0.350000X-0.450000X-0.350000X0.450000X-0.350000X0.450000X0.350000X0*%
%ADD17RoundRect,0.237500X0.237500X-0.300000X0.237500X0.300000X-0.237500X0.300000X-0.237500X-0.300000X0*%
%ADD18R,1.900000X1.300000*%
%ADD19R,1.900000X2.000000*%
%ADD20RoundRect,0.250000X0.475000X-0.337500X0.475000X0.337500X-0.475000X0.337500X-0.475000X-0.337500X0*%
%ADD21RoundRect,0.237500X-0.250000X-0.237500X0.250000X-0.237500X0.250000X0.237500X-0.250000X0.237500X0*%
%ADD22RoundRect,0.250000X-0.475000X0.337500X-0.475000X-0.337500X0.475000X-0.337500X0.475000X0.337500X0*%
%ADD23RoundRect,0.250000X-0.925000X0.875000X-0.925000X-0.875000X0.925000X-0.875000X0.925000X0.875000X0*%
%ADD24RoundRect,0.250000X-0.400000X-0.625000X0.400000X-0.625000X0.400000X0.625000X-0.400000X0.625000X0*%
%ADD25RoundRect,0.250000X0.400000X0.625000X-0.400000X0.625000X-0.400000X-0.625000X0.400000X-0.625000X0*%
%ADD26RoundRect,0.237500X-0.300000X-0.237500X0.300000X-0.237500X0.300000X0.237500X-0.300000X0.237500X0*%
%ADD27RoundRect,0.250000X0.337500X0.475000X-0.337500X0.475000X-0.337500X-0.475000X0.337500X-0.475000X0*%
%ADD28RoundRect,0.150000X0.150000X-0.825000X0.150000X0.825000X-0.150000X0.825000X-0.150000X-0.825000X0*%
%ADD29R,1.000000X1.000000*%
%ADD30RoundRect,0.150000X-0.825000X-0.150000X0.825000X-0.150000X0.825000X0.150000X-0.825000X0.150000X0*%
%ADD31R,1.397000X0.431800*%
%ADD32R,0.650000X1.560000*%
%ADD33RoundRect,0.250000X-0.625000X0.400000X-0.625000X-0.400000X0.625000X-0.400000X0.625000X0.400000X0*%
%ADD34RoundRect,0.150000X0.825000X0.150000X-0.825000X0.150000X-0.825000X-0.150000X0.825000X-0.150000X0*%
%ADD35RoundRect,0.150000X-0.150000X0.825000X-0.150000X-0.825000X0.150000X-0.825000X0.150000X0.825000X0*%
%ADD36RoundRect,0.162500X-1.012500X-0.162500X1.012500X-0.162500X1.012500X0.162500X-1.012500X0.162500X0*%
%ADD37RoundRect,0.237500X-0.237500X0.300000X-0.237500X-0.300000X0.237500X-0.300000X0.237500X0.300000X0*%
%ADD38RoundRect,0.248478X-0.646022X0.323022X-0.646022X-0.323022X0.646022X-0.323022X0.646022X0.323022X0*%
%ADD39R,1.300000X1.900000*%
%ADD40R,2.000000X1.900000*%
%ADD41RoundRect,0.250000X-0.337500X-0.475000X0.337500X-0.475000X0.337500X0.475000X-0.337500X0.475000X0*%
%ADD42RoundRect,0.237500X-0.237500X0.250000X-0.237500X-0.250000X0.237500X-0.250000X0.237500X0.250000X0*%
%ADD43RoundRect,0.237500X0.237500X-0.250000X0.237500X0.250000X-0.237500X0.250000X-0.237500X-0.250000X0*%
%ADD44R,0.600000X1.500000*%
%ADD45RoundRect,0.250000X-0.550000X1.412500X-0.550000X-1.412500X0.550000X-1.412500X0.550000X1.412500X0*%
%ADD46R,1.450000X0.450000*%
%ADD47RoundRect,0.250000X0.875000X0.925000X-0.875000X0.925000X-0.875000X-0.925000X0.875000X-0.925000X0*%
%ADD48RoundRect,0.150000X0.587500X0.150000X-0.587500X0.150000X-0.587500X-0.150000X0.587500X-0.150000X0*%
%ADD49R,2.300000X2.500000*%
%ADD50RoundRect,0.250000X-0.875000X-0.925000X0.875000X-0.925000X0.875000X0.925000X-0.875000X0.925000X0*%
%ADD51R,1.120000X2.440000*%
G04 APERTURE END LIST*
G36*
X203617800Y-78005000D02*
G01*
X202065200Y-78005000D01*
X202065200Y-76731800D01*
X203617800Y-76731800D01*
X203617800Y-78005000D01*
G37*
D10*
X203617800Y-78005000D02*
X202065200Y-78005000D01*
X202065200Y-76731800D01*
X203617800Y-76731800D01*
X203617800Y-78005000D01*
G36*
X203617800Y-79478200D02*
G01*
X202065200Y-79478200D01*
X202065200Y-78205000D01*
X203617800Y-78205000D01*
X203617800Y-79478200D01*
G37*
X203617800Y-79478200D02*
X202065200Y-79478200D01*
X202065200Y-78205000D01*
X203617800Y-78205000D01*
X203617800Y-79478200D01*
G36*
X203372762Y-67220419D02*
G01*
X202310238Y-67220419D01*
X202310238Y-65664581D01*
X203372762Y-65664581D01*
X203372762Y-67220419D01*
G37*
D11*
X203372762Y-67220419D02*
X202310238Y-67220419D01*
X202310238Y-65664581D01*
X203372762Y-65664581D01*
X203372762Y-67220419D01*
D12*
X201520100Y-151516100D03*
X199520100Y-151516100D03*
D13*
X202073000Y-189992000D03*
X204073000Y-189992000D03*
D14*
X237998000Y-121142000D03*
X237998000Y-119142000D03*
X148196100Y-137773600D03*
X148196100Y-135773600D03*
D15*
X183489600Y-111734600D03*
X181764600Y-111734600D03*
D14*
X148209000Y-127288800D03*
X148209000Y-125288800D03*
D16*
X271638303Y-142408400D03*
X271638303Y-144408400D03*
D13*
X197107100Y-189997100D03*
X199107100Y-189997100D03*
D17*
X194043100Y-110946100D03*
X194043100Y-109221100D03*
X203200000Y-115035500D03*
X203200000Y-113310500D03*
D13*
X197107100Y-117988100D03*
X199107100Y-117988100D03*
D16*
X281474333Y-155402400D03*
X281474333Y-157402400D03*
X191376100Y-185060100D03*
X191376100Y-187060100D03*
D18*
X236611000Y-140977000D03*
D19*
X231511000Y-139827000D03*
D18*
X236611000Y-138677000D03*
D20*
X193353500Y-78947500D03*
X193353500Y-76872500D03*
D12*
X222424300Y-115259800D03*
X220424300Y-115259800D03*
D13*
X202073000Y-141986000D03*
X204073000Y-141986000D03*
D16*
X191376100Y-137054100D03*
X191376100Y-139054100D03*
D21*
X192368600Y-127767100D03*
X194193600Y-127767100D03*
D22*
X235700000Y-100162500D03*
X235700000Y-102237500D03*
D14*
X277876000Y-100648000D03*
X277876000Y-98648000D03*
D20*
X197024300Y-154433200D03*
X197024300Y-152358200D03*
D13*
X148225600Y-132820100D03*
X150225600Y-132820100D03*
D14*
X148209000Y-103285800D03*
X148209000Y-101285800D03*
D23*
X239870000Y-57190000D03*
X239870000Y-62290000D03*
D24*
X138772100Y-110357600D03*
X141872100Y-110357600D03*
D17*
X242464603Y-162438500D03*
X242464603Y-160713500D03*
D22*
X266355103Y-148552500D03*
X266355103Y-150627500D03*
D13*
X206949800Y-182295800D03*
X208949800Y-182295800D03*
D18*
X236611000Y-176029000D03*
D19*
X231511000Y-174879000D03*
D18*
X236611000Y-173729000D03*
D25*
X135027000Y-161798000D03*
X131927000Y-161798000D03*
D16*
X191376100Y-113051100D03*
X191376100Y-115051100D03*
D26*
X211481500Y-107823000D03*
X213206500Y-107823000D03*
D13*
X148225600Y-156823100D03*
X150225600Y-156823100D03*
D27*
X279837500Y-107600000D03*
X277762500Y-107600000D03*
D16*
X220382900Y-107691700D03*
X220382900Y-109691700D03*
D24*
X131927000Y-173222600D03*
X135027000Y-173222600D03*
D28*
X252222000Y-149075000D03*
X253492000Y-149075000D03*
X254762000Y-149075000D03*
X256032000Y-149075000D03*
X257302000Y-149075000D03*
X258572000Y-149075000D03*
X259842000Y-149075000D03*
X259842000Y-144125000D03*
X258572000Y-144125000D03*
X257302000Y-144125000D03*
X256032000Y-144125000D03*
X254762000Y-144125000D03*
X253492000Y-144125000D03*
X252222000Y-144125000D03*
D29*
X209022000Y-155803600D03*
X206522000Y-155803600D03*
D15*
X183489600Y-183743600D03*
X181764600Y-183743600D03*
D22*
X267500000Y-113262500D03*
X267500000Y-115337500D03*
D15*
X216927400Y-179832000D03*
X215202400Y-179832000D03*
D22*
X153670000Y-130280500D03*
X153670000Y-132355500D03*
D21*
X198745500Y-69871500D03*
X200570500Y-69871500D03*
D30*
X178536600Y-105587800D03*
X178536600Y-106857800D03*
X178536600Y-108127800D03*
X178536600Y-109397800D03*
X183486600Y-109397800D03*
X183486600Y-108127800D03*
X183486600Y-106857800D03*
X183486600Y-105587800D03*
D26*
X220460200Y-184779600D03*
X222185200Y-184779600D03*
D13*
X192027100Y-130434100D03*
X194027100Y-130434100D03*
D15*
X183489600Y-135737600D03*
X181764600Y-135737600D03*
D31*
X205141500Y-79730600D03*
X205141500Y-79080359D03*
X205141500Y-78430119D03*
X205141500Y-77779881D03*
X205141500Y-77129641D03*
X205141500Y-76479400D03*
X200541500Y-76479400D03*
X200541500Y-77129641D03*
X200541500Y-77779881D03*
X200541500Y-78430119D03*
X200541500Y-79080359D03*
X200541500Y-79730600D03*
D32*
X287594000Y-103284000D03*
X288544000Y-103284000D03*
X289494000Y-103284000D03*
X289494000Y-100584000D03*
X288544000Y-100584000D03*
X287594000Y-100584000D03*
D33*
X145161000Y-129768000D03*
X145161000Y-132868000D03*
D24*
X138785000Y-101219000D03*
X141885000Y-101219000D03*
D26*
X211481500Y-155829000D03*
X213206500Y-155829000D03*
D13*
X197107100Y-141991100D03*
X199107100Y-141991100D03*
D17*
X242366800Y-128391300D03*
X242366800Y-126666300D03*
D22*
X236310000Y-57722500D03*
X236310000Y-59797500D03*
X209960000Y-65832500D03*
X209960000Y-67907500D03*
D18*
X217040100Y-192076400D03*
D19*
X211940100Y-190926400D03*
D18*
X217040100Y-189776400D03*
D15*
X216927400Y-155829000D03*
X215202400Y-155829000D03*
D20*
X197024300Y-106427200D03*
X197024300Y-104352200D03*
D18*
X217040100Y-120067400D03*
D19*
X211940100Y-118917400D03*
D18*
X217040100Y-117767400D03*
D17*
X194043100Y-182955100D03*
X194043100Y-181230100D03*
D26*
X211481500Y-179832000D03*
X213206500Y-179832000D03*
D13*
X206949800Y-134289800D03*
X208949800Y-134289800D03*
D12*
X298000000Y-104550000D03*
X296000000Y-104550000D03*
X222424300Y-163265800D03*
X220424300Y-163265800D03*
D34*
X301179000Y-117348000D03*
X301179000Y-116078000D03*
X301179000Y-114808000D03*
X301179000Y-113538000D03*
X301179000Y-112268000D03*
X301179000Y-110998000D03*
X301179000Y-109728000D03*
X296229000Y-109728000D03*
X296229000Y-110998000D03*
X296229000Y-112268000D03*
X296229000Y-113538000D03*
X296229000Y-114808000D03*
X296229000Y-116078000D03*
X296229000Y-117348000D03*
D21*
X192368600Y-151770100D03*
X194193600Y-151770100D03*
D14*
X128524000Y-70342000D03*
X128524000Y-68342000D03*
D17*
X174104100Y-127476100D03*
X174104100Y-125751100D03*
D35*
X238309603Y-161101000D03*
X237039603Y-161101000D03*
X235769603Y-161101000D03*
X234499603Y-161101000D03*
X233229603Y-161101000D03*
X231959603Y-161101000D03*
X230689603Y-161101000D03*
X229419603Y-161101000D03*
X229419603Y-166051000D03*
X230689603Y-166051000D03*
X231959603Y-166051000D03*
X233229603Y-166051000D03*
X234499603Y-166051000D03*
X235769603Y-166051000D03*
X237039603Y-166051000D03*
X238309603Y-166051000D03*
D14*
X263510303Y-144459200D03*
X263510303Y-142459200D03*
D13*
X148225600Y-177778100D03*
X150225600Y-177778100D03*
D22*
X195494000Y-65405000D03*
X195494000Y-67480000D03*
D24*
X131927000Y-149219600D03*
X135027000Y-149219600D03*
X131927000Y-176270600D03*
X135027000Y-176270600D03*
D17*
X203200000Y-187044500D03*
X203200000Y-185319500D03*
D23*
X239860000Y-66170000D03*
X239860000Y-71270000D03*
D20*
X194043100Y-187224600D03*
X194043100Y-185149600D03*
D13*
X148225600Y-105769100D03*
X150225600Y-105769100D03*
D16*
X264900000Y-113300000D03*
X264900000Y-115300000D03*
D29*
X209022000Y-131800600D03*
X206522000Y-131800600D03*
D16*
X284945666Y-155402400D03*
X284945666Y-157402400D03*
D24*
X131927000Y-104261600D03*
X135027000Y-104261600D03*
D20*
X194043100Y-163221600D03*
X194043100Y-161146600D03*
D35*
X200875700Y-109660600D03*
X199605700Y-109660600D03*
X198335700Y-109660600D03*
X197065700Y-109660600D03*
X197065700Y-114610600D03*
X198335700Y-114610600D03*
X199605700Y-114610600D03*
X200875700Y-114610600D03*
D22*
X153670000Y-154283500D03*
X153670000Y-156358500D03*
D29*
X209022000Y-107797600D03*
X206522000Y-107797600D03*
D15*
X232002500Y-124333000D03*
X230277500Y-124333000D03*
D26*
X220460200Y-136773600D03*
X222185200Y-136773600D03*
D12*
X298000000Y-107150000D03*
X296000000Y-107150000D03*
D24*
X131927000Y-158363600D03*
X135027000Y-158363600D03*
D21*
X199413800Y-130292200D03*
X201238800Y-130292200D03*
D36*
X161972000Y-103505000D03*
X161972000Y-106045000D03*
X161972000Y-108585000D03*
X161972000Y-111125000D03*
X171022000Y-111125000D03*
X171022000Y-108585000D03*
X171022000Y-106045000D03*
X171022000Y-103505000D03*
D37*
X249936000Y-143737500D03*
X249936000Y-145462500D03*
D24*
X138772100Y-182366600D03*
X141872100Y-182366600D03*
X131927000Y-110357600D03*
X135027000Y-110357600D03*
D35*
X200875700Y-181669600D03*
X199605700Y-181669600D03*
X198335700Y-181669600D03*
X197065700Y-181669600D03*
X197065700Y-186619600D03*
X198335700Y-186619600D03*
X199605700Y-186619600D03*
X200875700Y-186619600D03*
D38*
X158374500Y-177609500D03*
X158374500Y-181038500D03*
D16*
X220382900Y-131694700D03*
X220382900Y-133694700D03*
D27*
X297709500Y-119634000D03*
X295634500Y-119634000D03*
D34*
X275524400Y-119614700D03*
X275524400Y-118344700D03*
X275524400Y-117074700D03*
X275524400Y-115804700D03*
X275524400Y-114534700D03*
X275524400Y-113264700D03*
X275524400Y-111994700D03*
X270574400Y-111994700D03*
X270574400Y-113264700D03*
X270574400Y-114534700D03*
X270574400Y-115804700D03*
X270574400Y-117074700D03*
X270574400Y-118344700D03*
X270574400Y-119614700D03*
D26*
X235738500Y-169291000D03*
X237463500Y-169291000D03*
D17*
X194043100Y-158952100D03*
X194043100Y-157227100D03*
D15*
X183590100Y-103352600D03*
X181865100Y-103352600D03*
D17*
X203200000Y-163041500D03*
X203200000Y-161316500D03*
D24*
X131927000Y-134360600D03*
X135027000Y-134360600D03*
D18*
X217040100Y-168073400D03*
D19*
X211940100Y-166923400D03*
D18*
X217040100Y-165773400D03*
D15*
X216927400Y-131826000D03*
X215202400Y-131826000D03*
D13*
X202073000Y-165989000D03*
X204073000Y-165989000D03*
D25*
X135027000Y-185801000D03*
X131927000Y-185801000D03*
D39*
X186810000Y-148600000D03*
D40*
X187960000Y-143500000D03*
D39*
X189110000Y-148600000D03*
D24*
X131927000Y-101213600D03*
X135027000Y-101213600D03*
D30*
X212015100Y-134233600D03*
X212015100Y-135503600D03*
X212015100Y-136773600D03*
X212015100Y-138043600D03*
X216965100Y-138043600D03*
X216965100Y-136773600D03*
X216965100Y-135503600D03*
X216965100Y-134233600D03*
D41*
X287506500Y-97870000D03*
X289581500Y-97870000D03*
D24*
X138772100Y-128264600D03*
X141872100Y-128264600D03*
D22*
X207440000Y-65832500D03*
X207440000Y-67907500D03*
D18*
X229860000Y-119246000D03*
D19*
X234960000Y-120396000D03*
D18*
X229860000Y-121546000D03*
D22*
X192954000Y-65405000D03*
X192954000Y-67480000D03*
D14*
X175144200Y-180501800D03*
X175144200Y-178501800D03*
D16*
X288417000Y-155402400D03*
X288417000Y-157402400D03*
D24*
X131927000Y-152267600D03*
X135027000Y-152267600D03*
D16*
X220382900Y-155697700D03*
X220382900Y-157697700D03*
D28*
X244654603Y-166051000D03*
X245924603Y-166051000D03*
X247194603Y-166051000D03*
X248464603Y-166051000D03*
X249734603Y-166051000D03*
X251004603Y-166051000D03*
X252274603Y-166051000D03*
X252274603Y-161101000D03*
X251004603Y-161101000D03*
X249734603Y-161101000D03*
X248464603Y-161101000D03*
X247194603Y-161101000D03*
X245924603Y-161101000D03*
X244654603Y-161101000D03*
D22*
X236310000Y-69182500D03*
X236310000Y-71257500D03*
D13*
X148225600Y-153775100D03*
X150225600Y-153775100D03*
D15*
X216927400Y-107823000D03*
X215202400Y-107823000D03*
D30*
X178536600Y-129590800D03*
X178536600Y-130860800D03*
X178536600Y-132130800D03*
X178536600Y-133400800D03*
X183486600Y-133400800D03*
X183486600Y-132130800D03*
X183486600Y-130860800D03*
X183486600Y-129590800D03*
D12*
X201520100Y-175519100D03*
X199520100Y-175519100D03*
D35*
X200875700Y-133663600D03*
X199605700Y-133663600D03*
X198335700Y-133663600D03*
X197065700Y-133663600D03*
X197065700Y-138613600D03*
X198335700Y-138613600D03*
X199605700Y-138613600D03*
X200875700Y-138613600D03*
D21*
X192368600Y-175773100D03*
X194193600Y-175773100D03*
D36*
X161972000Y-127508000D03*
X161972000Y-130048000D03*
X161972000Y-132588000D03*
X161972000Y-135128000D03*
X171022000Y-135128000D03*
X171022000Y-132588000D03*
X171022000Y-130048000D03*
X171022000Y-127508000D03*
D15*
X183590100Y-151358600D03*
X181865100Y-151358600D03*
D16*
X278003000Y-155402400D03*
X278003000Y-157402400D03*
D22*
X153670000Y-106277500D03*
X153670000Y-108352500D03*
D16*
X228473000Y-138827000D03*
X228473000Y-140827000D03*
D25*
X141885000Y-185801000D03*
X138785000Y-185801000D03*
D20*
X176898100Y-127397100D03*
X176898100Y-125322100D03*
D17*
X240665000Y-166089500D03*
X240665000Y-164364500D03*
D13*
X202073000Y-117983000D03*
X204073000Y-117983000D03*
D15*
X183590100Y-175361600D03*
X181865100Y-175361600D03*
D18*
X229606000Y-152774000D03*
D19*
X234706000Y-153924000D03*
D18*
X229606000Y-155074000D03*
D20*
X268945903Y-144445900D03*
X268945903Y-142370900D03*
D16*
X228473000Y-174006000D03*
X228473000Y-176006000D03*
D36*
X161972000Y-151511000D03*
X161972000Y-154051000D03*
X161972000Y-156591000D03*
X161972000Y-159131000D03*
X171022000Y-159131000D03*
X171022000Y-156591000D03*
X171022000Y-154051000D03*
X171022000Y-151511000D03*
D12*
X171500000Y-82400000D03*
X169500000Y-82400000D03*
D13*
X192027100Y-154437100D03*
X194027100Y-154437100D03*
D42*
X197888500Y-65530000D03*
X197888500Y-67355000D03*
D14*
X292100000Y-100600000D03*
X292100000Y-98600000D03*
D13*
X206949800Y-110286800D03*
X208949800Y-110286800D03*
D12*
X208936900Y-184779600D03*
X206936900Y-184779600D03*
D14*
X148196100Y-161776600D03*
X148196100Y-159776600D03*
D15*
X208774000Y-115285200D03*
X207049000Y-115285200D03*
D24*
X138785000Y-149225000D03*
X141885000Y-149225000D03*
D32*
X280482000Y-103284000D03*
X281432000Y-103284000D03*
X282382000Y-103284000D03*
X282382000Y-100584000D03*
X281432000Y-100584000D03*
X280482000Y-100584000D03*
D43*
X198288000Y-79017500D03*
X198288000Y-77192500D03*
D22*
X233000000Y-105300000D03*
X233000000Y-107375000D03*
D24*
X138772100Y-158363600D03*
X141872100Y-158363600D03*
D12*
X208936900Y-112770600D03*
X206936900Y-112770600D03*
D44*
X279978100Y-119411700D03*
X281248100Y-119411700D03*
X282518100Y-119411700D03*
X283788100Y-119411700D03*
X285058100Y-119411700D03*
X286328100Y-119411700D03*
X287598100Y-119411700D03*
X288868100Y-119411700D03*
X290138100Y-119411700D03*
X291408100Y-119411700D03*
X291408100Y-109911700D03*
X290138100Y-109911700D03*
X288868100Y-109911700D03*
X287598100Y-109911700D03*
X286328100Y-109911700D03*
X285058100Y-109911700D03*
X283788100Y-109911700D03*
X282518100Y-109911700D03*
X281248100Y-109911700D03*
X279978100Y-109911700D03*
D14*
X148209000Y-175294800D03*
X148209000Y-173294800D03*
D15*
X183590100Y-127355600D03*
X181865100Y-127355600D03*
D30*
X212015100Y-110230600D03*
X212015100Y-111500600D03*
X212015100Y-112770600D03*
X212015100Y-114040600D03*
X216965100Y-114040600D03*
X216965100Y-112770600D03*
X216965100Y-111500600D03*
X216965100Y-110230600D03*
D45*
X277600000Y-58112500D03*
X277600000Y-63187500D03*
D22*
X153670000Y-178286500D03*
X153670000Y-180361500D03*
D17*
X203200000Y-139038500D03*
X203200000Y-137313500D03*
D22*
X271850000Y-59562500D03*
X271850000Y-61637500D03*
D36*
X161972000Y-175514000D03*
X161972000Y-178054000D03*
X161972000Y-180594000D03*
X161972000Y-183134000D03*
X171022000Y-183134000D03*
X171022000Y-180594000D03*
X171022000Y-178054000D03*
X171022000Y-175514000D03*
D46*
X200501500Y-65467500D03*
X200501500Y-66117500D03*
X200501500Y-66767500D03*
X200501500Y-67417500D03*
X205181500Y-67417500D03*
X205181500Y-66767500D03*
X205181500Y-66117500D03*
X205181500Y-65467500D03*
D20*
X197024300Y-130430200D03*
X197024300Y-128355200D03*
D47*
X205416500Y-82804000D03*
X200316500Y-82804000D03*
D26*
X220460200Y-112770600D03*
X222185200Y-112770600D03*
D17*
X174104100Y-175482100D03*
X174104100Y-173757100D03*
D24*
X131927000Y-128264600D03*
X135027000Y-128264600D03*
D25*
X141885000Y-161798000D03*
X138785000Y-161798000D03*
D35*
X200875700Y-157666600D03*
X199605700Y-157666600D03*
X198335700Y-157666600D03*
X197065700Y-157666600D03*
X197065700Y-162616600D03*
X198335700Y-162616600D03*
X199605700Y-162616600D03*
X200875700Y-162616600D03*
D12*
X208936900Y-160776600D03*
X206936900Y-160776600D03*
D20*
X197024300Y-178436200D03*
X197024300Y-176361200D03*
D13*
X206949800Y-158292800D03*
X208949800Y-158292800D03*
D29*
X209022000Y-179806600D03*
X206522000Y-179806600D03*
D41*
X300412500Y-107150000D03*
X302487500Y-107150000D03*
D12*
X201520100Y-127513100D03*
X199520100Y-127513100D03*
D17*
X194043100Y-134949100D03*
X194043100Y-133224100D03*
D35*
X238379000Y-127065000D03*
X237109000Y-127065000D03*
X235839000Y-127065000D03*
X234569000Y-127065000D03*
X233299000Y-127065000D03*
X232029000Y-127065000D03*
X230759000Y-127065000D03*
X229489000Y-127065000D03*
X229489000Y-132015000D03*
X230759000Y-132015000D03*
X232029000Y-132015000D03*
X233299000Y-132015000D03*
X234569000Y-132015000D03*
X235839000Y-132015000D03*
X237109000Y-132015000D03*
X238379000Y-132015000D03*
D14*
X285242000Y-100521000D03*
X285242000Y-98521000D03*
D30*
X178536600Y-153593800D03*
X178536600Y-154863800D03*
X178536600Y-156133800D03*
X178536600Y-157403800D03*
X183486600Y-157403800D03*
X183486600Y-156133800D03*
X183486600Y-154863800D03*
X183486600Y-153593800D03*
D12*
X208936900Y-136773600D03*
X206936900Y-136773600D03*
D15*
X183489600Y-159740600D03*
X181764600Y-159740600D03*
D21*
X199413800Y-154295200D03*
X201238800Y-154295200D03*
D20*
X267500000Y-119637500D03*
X267500000Y-117562500D03*
D25*
X141885000Y-113792000D03*
X138785000Y-113792000D03*
D20*
X176898100Y-103394100D03*
X176898100Y-101319100D03*
D24*
X138785000Y-125222000D03*
X141885000Y-125222000D03*
D26*
X220460200Y-160776600D03*
X222185200Y-160776600D03*
D48*
X123619500Y-70292000D03*
X123619500Y-68392000D03*
X121744500Y-69342000D03*
D20*
X176898100Y-175403100D03*
X176898100Y-173328100D03*
D21*
X199413800Y-106289200D03*
X201238800Y-106289200D03*
D13*
X148225600Y-180826100D03*
X150225600Y-180826100D03*
D20*
X194043100Y-115215600D03*
X194043100Y-113140600D03*
D24*
X131927000Y-182366600D03*
X135027000Y-182366600D03*
D38*
X158374500Y-105600500D03*
X158374500Y-109029500D03*
D12*
X222424300Y-187268800D03*
X220424300Y-187268800D03*
D20*
X195900000Y-78947500D03*
X195900000Y-76872500D03*
D33*
X145161000Y-177774000D03*
X145161000Y-180874000D03*
D49*
X284650000Y-58500000D03*
X284650000Y-62800000D03*
D12*
X201520100Y-103510100D03*
X199520100Y-103510100D03*
D20*
X194043100Y-139218600D03*
X194043100Y-137143600D03*
D50*
X198384500Y-61743500D03*
X203484500Y-61743500D03*
D14*
X148196100Y-185779600D03*
X148196100Y-183779600D03*
D51*
X279400000Y-151625000D03*
X281940000Y-151625000D03*
X284480000Y-151625000D03*
X287020000Y-151625000D03*
X287020000Y-143015000D03*
X284480000Y-143015000D03*
X281940000Y-143015000D03*
X279400000Y-143015000D03*
D33*
X145161000Y-105765000D03*
X145161000Y-108865000D03*
D24*
X131927000Y-125216600D03*
X135027000Y-125216600D03*
D38*
X158374500Y-153606500D03*
X158374500Y-157035500D03*
D22*
X233000000Y-100162500D03*
X233000000Y-102237500D03*
X268895103Y-148552500D03*
X268895103Y-150627500D03*
D14*
X175144200Y-132495800D03*
X175144200Y-130495800D03*
D30*
X178536600Y-177596800D03*
X178536600Y-178866800D03*
X178536600Y-180136800D03*
X178536600Y-181406800D03*
X183486600Y-181406800D03*
X183486600Y-180136800D03*
X183486600Y-178866800D03*
X183486600Y-177596800D03*
D24*
X138772100Y-176270600D03*
X141872100Y-176270600D03*
D20*
X209960000Y-78567500D03*
X209960000Y-76492500D03*
D26*
X235738500Y-134874000D03*
X237463500Y-134874000D03*
D25*
X141885000Y-137795000D03*
X138785000Y-137795000D03*
D14*
X148196100Y-113770600D03*
X148196100Y-111770600D03*
D20*
X176898100Y-151400100D03*
X176898100Y-149325100D03*
D21*
X198754000Y-74549000D03*
X200579000Y-74549000D03*
D17*
X240690400Y-132028100D03*
X240690400Y-130303100D03*
D25*
X135027000Y-137795000D03*
X131927000Y-137795000D03*
D15*
X208774000Y-163291200D03*
X207049000Y-163291200D03*
D24*
X138772100Y-134360600D03*
X141872100Y-134360600D03*
D13*
X148225600Y-129772100D03*
X150225600Y-129772100D03*
D41*
X280394500Y-97870000D03*
X282469500Y-97870000D03*
D30*
X212015100Y-158236600D03*
X212015100Y-159506600D03*
X212015100Y-160776600D03*
X212015100Y-162046600D03*
X216965100Y-162046600D03*
X216965100Y-160776600D03*
X216965100Y-159506600D03*
X216965100Y-158236600D03*
D13*
X197107100Y-165994100D03*
X199107100Y-165994100D03*
D15*
X208774000Y-187294200D03*
X207049000Y-187294200D03*
D17*
X174104100Y-151479100D03*
X174104100Y-149754100D03*
D16*
X220382900Y-179700700D03*
X220382900Y-181700700D03*
D14*
X148209000Y-151291800D03*
X148209000Y-149291800D03*
D13*
X192027100Y-106431100D03*
X194027100Y-106431100D03*
X192027100Y-178440100D03*
X194027100Y-178440100D03*
D15*
X231875500Y-158115000D03*
X230150500Y-158115000D03*
D24*
X138772100Y-104261600D03*
X141872100Y-104261600D03*
D14*
X175144200Y-108492800D03*
X175144200Y-106492800D03*
X271485903Y-150640800D03*
X271485903Y-148640800D03*
X175144200Y-156498800D03*
X175144200Y-154498800D03*
D25*
X135027000Y-113792000D03*
X131927000Y-113792000D03*
D15*
X208774000Y-139288200D03*
X207049000Y-139288200D03*
D38*
X158374500Y-129603500D03*
X158374500Y-133032500D03*
D21*
X199413800Y-178298200D03*
X201238800Y-178298200D03*
D20*
X207440000Y-78567500D03*
X207440000Y-76492500D03*
D24*
X138785000Y-173228000D03*
X141885000Y-173228000D03*
X138772100Y-152267600D03*
X141872100Y-152267600D03*
D22*
X235700000Y-105300000D03*
X235700000Y-107375000D03*
D17*
X174104100Y-103473100D03*
X174104100Y-101748100D03*
D20*
X266253503Y-144496700D03*
X266253503Y-142421700D03*
D13*
X148225600Y-108817100D03*
X150225600Y-108817100D03*
D12*
X222424300Y-139262800D03*
X220424300Y-139262800D03*
D16*
X191376100Y-161057100D03*
X191376100Y-163057100D03*
D14*
X238125000Y-154670000D03*
X238125000Y-152670000D03*
D18*
X217040100Y-144070400D03*
D19*
X211940100Y-142920400D03*
D18*
X217040100Y-141770400D03*
D33*
X145161000Y-153771000D03*
X145161000Y-156871000D03*
D30*
X212015100Y-182239600D03*
X212015100Y-183509600D03*
X212015100Y-184779600D03*
X212015100Y-186049600D03*
X216965100Y-186049600D03*
X216965100Y-184779600D03*
X216965100Y-183509600D03*
X216965100Y-182239600D03*
D28*
X244576600Y-132015000D03*
X245846600Y-132015000D03*
X247116600Y-132015000D03*
X248386600Y-132015000D03*
X249656600Y-132015000D03*
X250926600Y-132015000D03*
X252196600Y-132015000D03*
X252196600Y-127065000D03*
X250926600Y-127065000D03*
X249656600Y-127065000D03*
X248386600Y-127065000D03*
X247116600Y-127065000D03*
X245846600Y-127065000D03*
X244576600Y-127065000D03*
D16*
X263459503Y-148539200D03*
X263459503Y-150539200D03*
D21*
X192368600Y-103764100D03*
X194193600Y-103764100D03*
D26*
X211481500Y-131826000D03*
X213206500Y-131826000D03*
M02*
