G04 #@! TF.GenerationSoftware,KiCad,Pcbnew,(6.0.11)*
G04 #@! TF.CreationDate,2023-05-29T14:07:07-03:00*
G04 #@! TF.ProjectId,qds-cv,7164732d-6376-42e6-9b69-6361645f7063,rev?*
G04 #@! TF.SameCoordinates,Original*
G04 #@! TF.FileFunction,Profile,NP*
%FSLAX46Y46*%
G04 Gerber Fmt 4.6, Leading zero omitted, Abs format (unit mm)*
G04 Created by KiCad (PCBNEW (6.0.11)) date 2023-05-29 14:07:07*
%MOMM*%
%LPD*%
G01*
G04 APERTURE LIST*
G04 #@! TA.AperFunction,Profile*
%ADD10C,0.100000*%
G04 #@! TD*
G04 #@! TA.AperFunction,Profile*
%ADD11C,0.050000*%
G04 #@! TD*
G04 APERTURE END LIST*
D10*
X100000000Y-40000000D02*
X320000000Y-40000000D01*
X320000000Y-40000000D02*
X320000000Y-200000000D01*
X320000000Y-200000000D02*
X100000000Y-200000000D01*
X100000000Y-200000000D02*
X100000000Y-40000000D01*
D11*
X167244000Y-110287000D02*
X167244000Y-113487000D01*
X168544000Y-110287000D02*
X168544000Y-113487000D01*
X167244000Y-113487000D02*
G75*
G03*
X168544000Y-113487000I650000J0D01*
G01*
X168544000Y-110287000D02*
G75*
G03*
X167244000Y-110287000I-650000J0D01*
G01*
X167244000Y-158293000D02*
X167244000Y-161493000D01*
X168544000Y-158293000D02*
X168544000Y-161493000D01*
X167244000Y-161493000D02*
G75*
G03*
X168544000Y-161493000I650000J0D01*
G01*
X168544000Y-158293000D02*
G75*
G03*
X167244000Y-158293000I-650000J0D01*
G01*
X168544000Y-134290000D02*
X168544000Y-137490000D01*
X167244000Y-134290000D02*
X167244000Y-137490000D01*
X168544000Y-134290000D02*
G75*
G03*
X167244000Y-134290000I-650000J0D01*
G01*
X167244000Y-137490000D02*
G75*
G03*
X168544000Y-137490000I650000J0D01*
G01*
X168544000Y-182296000D02*
X168544000Y-185496000D01*
X167244000Y-182296000D02*
X167244000Y-185496000D01*
X168544000Y-182296000D02*
G75*
G03*
X167244000Y-182296000I-650000J0D01*
G01*
X167244000Y-185496000D02*
G75*
G03*
X168544000Y-185496000I650000J0D01*
G01*
X164958000Y-142164000D02*
X164958000Y-145364000D01*
X166258000Y-142164000D02*
X166258000Y-145364000D01*
X166258000Y-142164000D02*
G75*
G03*
X164958000Y-142164000I-650000J0D01*
G01*
X164958000Y-145364000D02*
G75*
G03*
X166258000Y-145364000I650000J0D01*
G01*
X164958000Y-118161000D02*
X164958000Y-121361000D01*
X166258000Y-118161000D02*
X166258000Y-121361000D01*
X164958000Y-121361000D02*
G75*
G03*
X166258000Y-121361000I650000J0D01*
G01*
X166258000Y-118161000D02*
G75*
G03*
X164958000Y-118161000I-650000J0D01*
G01*
X164958000Y-190170000D02*
X164958000Y-193370000D01*
X166258000Y-190170000D02*
X166258000Y-193370000D01*
X166258000Y-190170000D02*
G75*
G03*
X164958000Y-190170000I-650000J0D01*
G01*
X164958000Y-193370000D02*
G75*
G03*
X166258000Y-193370000I650000J0D01*
G01*
X166258000Y-166167000D02*
X166258000Y-169367000D01*
X164958000Y-166167000D02*
X164958000Y-169367000D01*
X166258000Y-166167000D02*
G75*
G03*
X164958000Y-166167000I-650000J0D01*
G01*
X164958000Y-169367000D02*
G75*
G03*
X166258000Y-169367000I650000J0D01*
G01*
M02*
