M48
; DRILL file {KiCad (6.0.11)} date Mon May 29 14:09:39 2023
; FORMAT={-:-/ absolute / metric / decimal}
; #@! TF.CreationDate,2023-05-29T14:09:39-03:00
; #@! TF.GenerationSoftware,Kicad,Pcbnew,(6.0.11)
; #@! TF.FileFunction,Plated,1,4,PTH
FMAT,2
METRIC
; #@! TA.AperFunction,Plated,PTH,ViaDrill
T1C0.300
; #@! TA.AperFunction,Plated,PTH,ViaDrill
T2C0.400
; #@! TA.AperFunction,Plated,PTH,ViaDrill
T3C0.500
; #@! TA.AperFunction,Plated,PTH,ViaDrill
T4C0.600
; #@! TA.AperFunction,Plated,PTH,ComponentDrill
T5C0.800
; #@! TA.AperFunction,Plated,PTH,ComponentDrill
T6C0.890
; #@! TA.AperFunction,Plated,PTH,ComponentDrill
T7C0.900
; #@! TA.AperFunction,Plated,PTH,ComponentDrill
T8C0.990
; #@! TA.AperFunction,Plated,PTH,ViaDrill
T9C1.000
; #@! TA.AperFunction,Plated,PTH,ComponentDrill
T10C1.000
; #@! TA.AperFunction,Plated,PTH,ComponentDrill
T11C1.010
; #@! TA.AperFunction,Plated,PTH,ComponentDrill
T12C1.200
; #@! TA.AperFunction,Plated,PTH,ComponentDrill
T13C1.300
; #@! TA.AperFunction,Plated,PTH,ComponentDrill
T14C1.600
; #@! TA.AperFunction,Plated,PTH,ComponentDrill
T15C1.750
; #@! TA.AperFunction,Plated,PTH,ComponentDrill
T16C2.010
; #@! TA.AperFunction,Plated,PTH,ComponentDrill
T17C3.200
%
G90
G05
T1
X202.441Y-65.94
X202.441Y-66.94
X202.441Y-77.44
X202.441Y-78.77
X203.242Y-65.94
X203.242Y-66.94
X203.242Y-77.44
X203.242Y-78.77
T2
X130.551Y-176.271
X146.177Y-125.222
X146.2Y-101.19
X146.2Y-149.225
X146.2Y-173.228
X150.139Y-134.719
X150.162Y-110.687
X150.162Y-158.722
X150.162Y-182.725
X150.193Y-127.864
X150.216Y-103.832
X150.216Y-151.867
X150.216Y-175.87
X151.08Y-131.291
X151.103Y-107.259
X151.103Y-155.294
X151.103Y-179.297
X152.809Y-125.882
X152.832Y-101.85
X152.832Y-149.885
X152.832Y-173.888
X154.104Y-125.882
X154.127Y-101.85
X154.127Y-149.885
X154.127Y-173.888
X155.552Y-125.882
X155.575Y-101.85
X155.575Y-149.885
X155.575Y-173.888
X156.898Y-125.882
X156.921Y-101.85
X156.921Y-149.885
X156.921Y-173.888
X159.946Y-134.239
X159.969Y-110.207
X159.969Y-158.242
X159.969Y-182.245
X170.434Y-122.272
X170.434Y-194.31
X170.456Y-170.307
X170.467Y-146.286
X171.31Y-101.566
X171.31Y-149.601
X171.31Y-173.604
X172.8Y-82.4
X178.435Y-103.378
X178.435Y-127.381
X178.435Y-151.384
X178.435Y-175.387
X183.642Y-101.981
X183.642Y-125.984
X183.642Y-149.987
X183.642Y-173.99
X184.7Y-111.7
X184.7Y-135.7
X184.7Y-159.7
X184.7Y-183.7
X192.405Y-102.362
X192.405Y-126.365
X192.405Y-150.368
X192.405Y-174.371
X192.913Y-109.22
X192.913Y-133.223
X192.913Y-157.226
X192.913Y-181.229
X193.37Y-61.8
X193.37Y-63.3
X193.8Y-80.99
X193.8Y-82.49
X194.87Y-61.8
X194.87Y-63.3
X194.945Y-143.383
X195.3Y-80.99
X195.3Y-82.49
X195.819Y-155.514
X196.37Y-61.8
X196.37Y-63.3
X196.8Y-80.99
X196.8Y-82.49
X204.089Y-140.716
X204.316Y-115.035
X204.316Y-139.038
X204.316Y-163.041
X204.316Y-187.044
X204.98Y-155.86
X204.99Y-107.85
X205.01Y-131.84
X205.02Y-179.86
X205.679Y-136.779
X205.682Y-160.782
X205.7Y-112.776
X205.7Y-184.785
X205.867Y-117.983
X205.867Y-165.989
X205.867Y-189.992
X211.99Y-163.61
X212.0Y-115.6
X212.02Y-139.59
X212.03Y-187.61
X214.16Y-156.96
X214.17Y-108.95
X214.19Y-132.94
X214.2Y-180.96
X216.916Y-106.299
X216.916Y-130.302
X216.916Y-154.305
X216.916Y-178.308
X220.472Y-106.123
X220.472Y-130.126
X220.472Y-154.129
X220.472Y-178.132
X226.568Y-140.716
X228.346Y-125.73
X228.346Y-159.766
X228.473Y-177.546
X231.318Y-167.665
X231.394Y-133.477
X234.442Y-167.829
X234.569Y-133.546
X236.398Y-159.498
X236.474Y-125.476
X238.125Y-151.13
X238.506Y-173.736
X238.633Y-134.874
X238.76Y-138.684
X238.887Y-169.291
X239.348Y-119.142
X240.411Y-127.762
X240.411Y-161.671
X242.387Y-130.335
X242.465Y-164.41
X246.155Y-122.596
X246.507Y-156.21
X247.116Y-125.196
X247.142Y-158.685
X248.285Y-134.239
X248.465Y-168.284
X248.639Y-143.737
X253.238Y-133.35
X253.492Y-165.989
X253.746Y-146.558
X261.366Y-151.13
X265.5Y-117.2
X266.112Y-119.612
X267.5Y-111.4
X267.589Y-140.843
X276.5Y-107.6
X277.65Y-113.157
X279.4Y-96.7
X279.837Y-106.262
X281.178Y-107.696
X282.448Y-107.696
X283.288Y-157.402
X284.226Y-107.696
X285.2Y-104.1
X286.258Y-107.696
X286.385Y-111.633
X286.528Y-96.728
X288.05Y-95.45
X293.5Y-117.2
X293.5Y-118.4
X293.7Y-108.7
X297.65Y-121.0
X299.025Y-103.475
X303.4Y-109.25
X310.75Y-65.0
T3
X105.0Y-41.5
X105.0Y-198.5
X110.0Y-41.5
X110.0Y-198.5
X115.0Y-41.5
X115.0Y-198.5
X120.0Y-41.5
X120.0Y-198.5
X125.0Y-41.5
X125.0Y-198.5
X130.0Y-41.5
X130.0Y-198.5
X135.0Y-41.5
X135.0Y-198.5
X140.0Y-41.5
X140.0Y-198.5
X145.0Y-41.5
X145.0Y-198.5
X150.0Y-41.5
X150.0Y-198.5
X155.0Y-41.5
X155.0Y-198.5
X156.72Y-140.183
X156.743Y-116.151
X156.743Y-164.186
X156.743Y-188.189
X156.746Y-138.76
X156.769Y-114.728
X156.769Y-162.763
X156.769Y-186.766
X158.295Y-138.786
X158.295Y-140.183
X158.318Y-114.754
X158.318Y-116.151
X158.318Y-162.789
X158.318Y-164.186
X158.318Y-186.792
X158.318Y-188.189
X160.0Y-41.5
X160.0Y-198.5
X165.0Y-41.5
X165.0Y-198.5
X170.0Y-41.5
X170.0Y-198.5
X175.0Y-41.5
X175.0Y-198.5
X180.0Y-41.5
X180.0Y-198.5
X185.0Y-41.5
X185.0Y-198.5
X190.0Y-41.5
X190.0Y-198.5
X195.0Y-41.5
X195.0Y-198.5
X200.0Y-41.5
X200.0Y-198.5
X205.0Y-41.5
X205.0Y-198.5
X210.0Y-41.5
X210.0Y-198.5
X215.0Y-41.5
X215.0Y-198.5
X220.0Y-41.5
X220.0Y-198.5
X225.0Y-41.5
X225.0Y-198.5
X230.0Y-41.5
X230.0Y-198.5
X230.4Y-99.65
X230.4Y-100.65
X231.4Y-99.65
X231.4Y-100.65
X235.0Y-41.5
X235.0Y-198.5
X237.949Y-146.4
X240.0Y-41.5
X240.0Y-198.5
X241.675Y-146.4
X245.0Y-41.5
X245.0Y-198.5
X245.4Y-146.4
X248.243Y-114.046
X250.0Y-41.5
X250.0Y-198.5
X251.968Y-114.046
X255.0Y-41.5
X255.0Y-198.5
X255.693Y-114.046
X260.0Y-41.5
X260.0Y-198.5
X263.749Y-158.598
X263.749Y-161.9
X263.749Y-165.2
X265.0Y-41.5
X265.0Y-198.5
X267.475Y-158.598
X267.475Y-161.9
X267.475Y-165.2
X270.0Y-41.5
X270.0Y-198.5
X271.2Y-158.598
X271.2Y-161.9
X271.2Y-165.2
X275.0Y-41.5
X275.0Y-198.5
X280.0Y-41.5
X280.0Y-198.5
X285.0Y-41.5
X285.0Y-198.5
X290.0Y-41.5
X290.0Y-198.5
X295.0Y-41.5
X295.0Y-198.5
X300.0Y-41.5
X300.0Y-198.5
X305.0Y-41.5
X305.0Y-198.5
X310.0Y-41.5
X310.0Y-198.5
X315.0Y-41.5
X315.0Y-198.5
T4
X154.13Y-127.813
X154.153Y-103.781
X154.153Y-151.816
X154.153Y-175.819
T5
X120.523Y-76.2
X120.777Y-46.282
X120.777Y-51.362
X120.777Y-56.442
X120.777Y-64.062
X128.143Y-76.2
X128.397Y-46.282
X128.397Y-51.362
X128.397Y-56.442
X128.397Y-64.062
T6
X112.832Y-90.0
X112.832Y-92.54
X307.014Y-127.46
X307.014Y-130.0
X307.014Y-145.46
X307.014Y-148.0
X307.014Y-163.46
X307.014Y-166.0
X307.014Y-181.46
X307.014Y-184.0
T7
X315.573Y-61.087
X315.573Y-63.627
X315.573Y-92.0
X315.573Y-94.54
X315.573Y-97.625
X315.573Y-100.165
X315.573Y-103.25
X315.573Y-105.79
X315.573Y-108.875
X315.573Y-111.415
X315.573Y-114.5
X315.573Y-117.04
T8
X316.248Y-70.242
X316.248Y-74.742
X316.248Y-80.402
X316.248Y-84.902
T9
X130.542Y-70.358
T10
X108.095Y-56.434
X108.095Y-59.204
X108.095Y-61.974
X108.095Y-64.744
X108.222Y-138.145
X108.222Y-140.915
X108.222Y-143.685
X108.222Y-146.455
X108.222Y-149.225
X108.222Y-151.995
X108.222Y-154.765
X108.222Y-157.535
X108.222Y-160.305
X108.222Y-163.075
X108.222Y-165.845
X108.222Y-168.615
X110.935Y-55.049
X110.935Y-57.819
X110.935Y-60.589
X110.935Y-63.359
X110.935Y-66.129
X111.062Y-136.76
X111.062Y-139.53
X111.062Y-142.3
X111.062Y-145.07
X111.062Y-147.84
X111.062Y-150.61
X111.062Y-153.38
X111.062Y-156.15
X111.062Y-158.92
X111.062Y-161.69
X111.062Y-164.46
X111.062Y-167.23
X111.062Y-170.0
X162.8Y-139.456
X162.8Y-163.713
X162.803Y-187.47
X162.978Y-115.326
X165.34Y-139.456
X165.34Y-163.713
X165.343Y-187.47
X165.518Y-115.326
X167.88Y-139.456
X167.88Y-163.713
X167.883Y-187.47
X168.058Y-115.326
X170.42Y-139.456
X170.42Y-163.713
X170.423Y-187.47
X170.598Y-115.326
X239.59Y-100.2
X239.59Y-102.739
X239.59Y-105.279
T11
X101.796Y-106.19
X101.796Y-113.81
X109.416Y-106.19
X109.416Y-108.73
X109.416Y-111.27
X109.416Y-113.81
T12
X246.35Y-50.82
X246.35Y-60.98
X246.35Y-71.14
X266.67Y-58.44
X266.67Y-63.52
X266.67Y-71.14
T13
X313.757Y-68.992
X313.757Y-76.002
X313.757Y-79.152
X313.757Y-86.162
T14
X152.781Y-114.681
X152.781Y-138.684
X152.781Y-162.687
X152.781Y-186.741
X188.1Y-64.0
X188.1Y-70.75
X188.1Y-77.3
X195.072Y-147.32
X217.24Y-96.523
X224.25Y-96.55
X233.553Y-187.198
X238.0Y-49.9
X266.192Y-103.378
X271.3Y-103.378
T15
X295.402Y-49.96
X295.402Y-71.96
T16
X107.752Y-84.92
X107.752Y-95.08
X312.094Y-124.92
X312.094Y-135.08
X312.094Y-142.92
X312.094Y-153.08
X312.094Y-160.92
X312.094Y-171.08
X312.094Y-178.92
X312.094Y-189.08
T17
X109.515Y-48.089
X109.515Y-73.089
X109.642Y-129.83
X109.642Y-176.93
T10
X308.115Y-51.201G85X308.115Y-53.701
G05
X310.115Y-47.751G85X312.115Y-47.751
G05
X314.115Y-51.451G85X314.115Y-53.451
G05
T0
M30
